G04 #@! TF.GenerationSoftware,KiCad,Pcbnew,5.1.9*
G04 #@! TF.CreationDate,2021-03-15T09:56:04+01:00*
G04 #@! TF.ProjectId,obd32,6f626433-322e-46b6-9963-61645f706362,rev?*
G04 #@! TF.SameCoordinates,Original*
G04 #@! TF.FileFunction,Copper,L2,Bot*
G04 #@! TF.FilePolarity,Positive*
%FSLAX46Y46*%
G04 Gerber Fmt 4.6, Leading zero omitted, Abs format (unit mm)*
G04 Created by KiCad (PCBNEW 5.1.9) date 2021-03-15 09:56:04*
%MOMM*%
%LPD*%
G01*
G04 APERTURE LIST*
G04 #@! TA.AperFunction,ComponentPad*
%ADD10O,2.300000X1.000000*%
G04 #@! TD*
G04 #@! TA.AperFunction,ComponentPad*
%ADD11O,2.000000X1.000000*%
G04 #@! TD*
G04 #@! TA.AperFunction,ComponentPad*
%ADD12O,1.700000X1.700000*%
G04 #@! TD*
G04 #@! TA.AperFunction,ComponentPad*
%ADD13R,1.700000X1.700000*%
G04 #@! TD*
G04 #@! TA.AperFunction,ComponentPad*
%ADD14C,2.250000*%
G04 #@! TD*
G04 #@! TA.AperFunction,ComponentPad*
%ADD15R,2.250000X2.250000*%
G04 #@! TD*
G04 #@! TA.AperFunction,ComponentPad*
%ADD16C,2.970000*%
G04 #@! TD*
G04 #@! TA.AperFunction,ComponentPad*
%ADD17C,1.200000*%
G04 #@! TD*
G04 #@! TA.AperFunction,ComponentPad*
%ADD18C,0.600000*%
G04 #@! TD*
G04 #@! TA.AperFunction,SMDPad,CuDef*
%ADD19R,2.950000X4.900000*%
G04 #@! TD*
G04 #@! TA.AperFunction,ViaPad*
%ADD20C,0.800000*%
G04 #@! TD*
G04 #@! TA.AperFunction,Conductor*
%ADD21C,0.250000*%
G04 #@! TD*
G04 #@! TA.AperFunction,Conductor*
%ADD22C,0.200000*%
G04 #@! TD*
G04 #@! TA.AperFunction,Conductor*
%ADD23C,0.500000*%
G04 #@! TD*
G04 #@! TA.AperFunction,Conductor*
%ADD24C,0.254000*%
G04 #@! TD*
G04 #@! TA.AperFunction,Conductor*
%ADD25C,0.100000*%
G04 #@! TD*
G04 APERTURE END LIST*
D10*
X199838500Y-98935000D03*
X199838500Y-90295000D03*
D11*
X203663500Y-90295000D03*
X203663500Y-98935000D03*
D12*
X198882000Y-64262000D03*
D13*
X201422000Y-64262000D03*
D14*
X207712000Y-67135000D03*
X211712000Y-67135000D03*
X215712000Y-67135000D03*
X219712000Y-67135000D03*
X223712000Y-67135000D03*
X227712000Y-67135000D03*
X231712000Y-67135000D03*
X235712000Y-67135000D03*
X207712000Y-64135000D03*
X211712000Y-64135000D03*
X215712000Y-64135000D03*
X219712000Y-64135000D03*
X223712000Y-64135000D03*
X227712000Y-64135000D03*
X231712000Y-64135000D03*
D15*
X235712000Y-64135000D03*
D12*
X234696000Y-108458000D03*
X237236000Y-108458000D03*
X234696000Y-105918000D03*
X237236000Y-105918000D03*
X234696000Y-103378000D03*
X237236000Y-103378000D03*
X234696000Y-100838000D03*
X237236000Y-100838000D03*
X234696000Y-98298000D03*
D13*
X237236000Y-98298000D03*
D12*
X217932000Y-85090000D03*
X220472000Y-85090000D03*
X217932000Y-82550000D03*
X220472000Y-82550000D03*
X217932000Y-80010000D03*
X220472000Y-80010000D03*
X217932000Y-77470000D03*
X220472000Y-77470000D03*
X217932000Y-74930000D03*
D13*
X220472000Y-74930000D03*
D16*
X205978000Y-103124000D03*
X205978000Y-108544000D03*
X202438000Y-108544000D03*
X202438000Y-103124000D03*
D17*
X199018000Y-107784000D03*
X199018000Y-106384000D03*
X199018000Y-104984000D03*
X199018000Y-103584000D03*
D18*
X202580000Y-79166000D03*
X202580000Y-77866000D03*
X201280000Y-77866000D03*
X201280000Y-79166000D03*
X202580000Y-75266000D03*
X202580000Y-76566000D03*
X201280000Y-76566000D03*
X201280000Y-75266000D03*
D19*
X201930000Y-77216000D03*
D20*
X223012000Y-71374000D03*
X222250000Y-73660000D03*
X220726000Y-91948000D03*
X233680000Y-78740000D03*
X242785000Y-85559000D03*
X213106002Y-76454000D03*
X205740000Y-62855036D03*
X241935000Y-65278000D03*
X214122000Y-83820000D03*
X221615000Y-70485000D03*
X215392006Y-81788000D03*
X236438331Y-68982013D03*
X217043000Y-69088000D03*
X244639198Y-90038891D03*
X237490000Y-89840042D03*
X238125014Y-64008000D03*
X237370000Y-86494000D03*
X222273866Y-87659046D03*
X238760000Y-86360000D03*
X243935046Y-63305178D03*
X241576309Y-91553998D03*
X239776000Y-86360000D03*
X244972624Y-62855000D03*
X239776000Y-67056000D03*
X233680000Y-72644000D03*
X238760000Y-72644000D03*
X243332014Y-69088000D03*
X228599998Y-72644000D03*
X237490000Y-76200000D03*
X215145727Y-86105960D03*
X207010001Y-95885000D03*
X214145729Y-86111254D03*
X207838023Y-92477987D03*
X237236012Y-82804000D03*
X223929819Y-88232979D03*
X200914000Y-68834000D03*
X233740998Y-67117000D03*
X232486295Y-101141556D03*
X231902000Y-100329990D03*
X228266681Y-103238765D03*
X229028974Y-103886000D03*
X227387948Y-102761425D03*
D21*
X201678000Y-107784000D02*
X202438000Y-108544000D01*
X199018000Y-107784000D02*
X201678000Y-107784000D01*
X202438000Y-103124000D02*
X202438000Y-108544000D01*
X202438000Y-103124000D02*
X205978000Y-103124000D01*
X205978000Y-103124000D02*
X205978000Y-108544000D01*
X202438000Y-108544000D02*
X205978000Y-108544000D01*
X219712000Y-64135000D02*
X223712000Y-64135000D01*
X223012000Y-72898000D02*
X222250000Y-73660000D01*
X223012000Y-71374000D02*
X223012000Y-72898000D01*
X219581590Y-91948000D02*
X220726000Y-91948000D01*
X216756999Y-89123409D02*
X219581590Y-91948000D01*
X217932000Y-82550000D02*
X216756999Y-83725001D01*
X216756999Y-83725001D02*
X216756999Y-89123409D01*
X222250000Y-79971002D02*
X222250000Y-73660000D01*
X220846003Y-81374999D02*
X222250000Y-79971002D01*
X219107001Y-81374999D02*
X220846003Y-81374999D01*
X217932000Y-82550000D02*
X219107001Y-81374999D01*
X215646000Y-84836000D02*
X217932000Y-82550000D01*
X201930000Y-77216000D02*
X209550000Y-84836000D01*
X228600000Y-73660000D02*
X233680000Y-78740000D01*
X222250000Y-73660000D02*
X228600000Y-73660000D01*
X213106000Y-84836000D02*
X215646000Y-84836000D01*
X209550000Y-84836000D02*
X213106000Y-84836000D01*
X213106000Y-84836000D02*
X213106000Y-76454002D01*
X213106000Y-76454002D02*
X213106002Y-76454000D01*
X201930000Y-77216000D02*
X199136000Y-74422000D01*
X199136000Y-74422000D02*
X199136000Y-69459036D01*
X199136000Y-69459036D02*
X205740000Y-62855036D01*
X205910037Y-62684999D02*
X205740000Y-62855036D01*
X218261999Y-62684999D02*
X205910037Y-62684999D01*
X219712000Y-64135000D02*
X218261999Y-62684999D01*
D22*
X203663500Y-90295000D02*
X199838500Y-90295000D01*
X199838500Y-98935000D02*
X203663500Y-98935000D01*
X203663500Y-78949500D02*
X201930000Y-77216000D01*
X203663500Y-90295000D02*
X203663500Y-78949500D01*
X203663500Y-97863542D02*
X203663500Y-98935000D01*
X203663500Y-90295000D02*
X203663500Y-97863542D01*
X199838500Y-98935000D02*
X199838500Y-90295000D01*
D21*
X199838500Y-100524500D02*
X199838500Y-98935000D01*
X202438000Y-103124000D02*
X199838500Y-100524500D01*
X203663500Y-100809500D02*
X203663500Y-98935000D01*
X205978000Y-103124000D02*
X203663500Y-100809500D01*
X220587520Y-70485000D02*
X221615000Y-70485000D01*
X214687685Y-83820000D02*
X216117008Y-82390677D01*
X214122000Y-83820000D02*
X214687685Y-83820000D01*
X216117008Y-82390677D02*
X216117008Y-74955512D01*
X216117008Y-74955512D02*
X220587520Y-70485000D01*
D23*
X217148987Y-68982013D02*
X217043000Y-69088000D01*
X236438331Y-68982013D02*
X217148987Y-68982013D01*
X216408000Y-69723000D02*
X217043000Y-69088000D01*
X216408000Y-72644000D02*
X216408000Y-69723000D01*
X215392006Y-73659994D02*
X216408000Y-72644000D01*
X215392006Y-81788000D02*
X215392006Y-73659994D01*
D21*
X240403621Y-92279000D02*
X237950313Y-89825692D01*
X237950313Y-89825692D02*
X237504350Y-89825692D01*
X244639198Y-90038891D02*
X242399089Y-92279000D01*
X242399089Y-92279000D02*
X240403621Y-92279000D01*
X223381858Y-89840042D02*
X237490000Y-89840042D01*
X219296999Y-85755183D02*
X223381858Y-89840042D01*
X220472000Y-82550000D02*
X219296999Y-83725001D01*
X219296999Y-83725001D02*
X219296999Y-85755183D01*
X237504350Y-89825692D02*
X237490000Y-89840042D01*
X238125014Y-67295330D02*
X238125014Y-64008000D01*
X236438331Y-68982013D02*
X238125014Y-67295330D01*
X223572809Y-88957989D02*
X222273866Y-87659046D01*
X234906011Y-88957989D02*
X223572809Y-88957989D01*
X237370000Y-86494000D02*
X234906011Y-88957989D01*
X244335045Y-63705177D02*
X243935046Y-63305178D01*
X238760000Y-75692000D02*
X244335045Y-70116955D01*
X244335045Y-70116955D02*
X244335045Y-63705177D01*
X238760000Y-86360000D02*
X238760000Y-75692000D01*
X238760000Y-86360000D02*
X238760000Y-88737689D01*
X238760000Y-88737689D02*
X241576309Y-91553998D01*
X244856000Y-62971624D02*
X244972624Y-62855000D01*
X244856000Y-70554998D02*
X244856000Y-62971624D01*
X239776000Y-75634998D02*
X244856000Y-70554998D01*
X239776000Y-86360000D02*
X239776000Y-75634998D01*
X239776000Y-67056000D02*
X234188000Y-72644000D01*
X234188000Y-72644000D02*
X233680000Y-72644000D01*
X238760000Y-72644000D02*
X239776014Y-72644000D01*
X239776000Y-72644000D02*
X243332000Y-69088000D01*
X228599998Y-72644000D02*
X232155998Y-76200000D01*
X232155998Y-76200000D02*
X237490000Y-76200000D01*
X215145727Y-86105960D02*
X215145727Y-87749274D01*
X215145727Y-87749274D02*
X207010001Y-95885000D01*
X214145729Y-86111254D02*
X207838023Y-92418960D01*
X207838023Y-92418960D02*
X207838023Y-92477987D01*
X234601021Y-88232979D02*
X223929819Y-88232979D01*
X237236012Y-85597988D02*
X234601021Y-88232979D01*
X237236012Y-82804000D02*
X237236012Y-85597988D01*
X204063001Y-65684999D02*
X200914000Y-68834000D01*
X232874682Y-65684999D02*
X204063001Y-65684999D01*
X233740998Y-66551315D02*
X232874682Y-65684999D01*
X233740998Y-67117000D02*
X233740998Y-66551315D01*
X232486295Y-101422295D02*
X232486295Y-101141556D01*
X234442000Y-103378000D02*
X232486295Y-101422295D01*
X233903409Y-102202999D02*
X233211296Y-101510886D01*
X236982000Y-103378000D02*
X235806999Y-102202999D01*
X233211296Y-100819623D02*
X232721663Y-100329990D01*
X235806999Y-102202999D02*
X233903409Y-102202999D01*
X233211296Y-101510886D02*
X233211296Y-100819623D01*
X232721663Y-100329990D02*
X231902000Y-100329990D01*
X234442000Y-98298000D02*
X231716587Y-98298000D01*
X228266681Y-101747906D02*
X228266681Y-103238765D01*
X231716587Y-98298000D02*
X228266681Y-101747906D01*
X229028974Y-101622024D02*
X229028974Y-103886000D01*
X231082998Y-99568000D02*
X229028974Y-101622024D01*
X235711998Y-99568000D02*
X231082998Y-99568000D01*
X236982000Y-98298000D02*
X235711998Y-99568000D01*
X235712000Y-104648000D02*
X227838000Y-104648000D01*
X236982000Y-105918000D02*
X235712000Y-104648000D01*
X227838000Y-104648000D02*
X227387948Y-104197948D01*
X227387948Y-104197948D02*
X227387948Y-102761425D01*
D24*
X206344919Y-63013065D02*
X206152308Y-63301327D01*
X206019636Y-63621627D01*
X205952000Y-63961655D01*
X205952000Y-64308345D01*
X206019636Y-64648373D01*
X206134218Y-64924999D01*
X204100324Y-64924999D01*
X204063001Y-64921323D01*
X204025678Y-64924999D01*
X204025668Y-64924999D01*
X203914015Y-64935996D01*
X203806292Y-64968673D01*
X203770754Y-64979453D01*
X203638724Y-65050025D01*
X203563208Y-65112000D01*
X203523000Y-65144998D01*
X203499202Y-65173996D01*
X200874199Y-67799000D01*
X200812061Y-67799000D01*
X200612102Y-67838774D01*
X200423744Y-67916795D01*
X200254226Y-68030063D01*
X200110063Y-68174226D01*
X199996795Y-68343744D01*
X199918774Y-68532102D01*
X199879000Y-68732061D01*
X199879000Y-68935939D01*
X199918774Y-69135898D01*
X199996795Y-69324256D01*
X200110063Y-69493774D01*
X200254226Y-69637937D01*
X200423744Y-69751205D01*
X200612102Y-69829226D01*
X200812061Y-69869000D01*
X201015939Y-69869000D01*
X201215898Y-69829226D01*
X201404256Y-69751205D01*
X201573774Y-69637937D01*
X201717937Y-69493774D01*
X201831205Y-69324256D01*
X201909226Y-69135898D01*
X201949000Y-68935939D01*
X201949000Y-68873801D01*
X204377803Y-66444999D01*
X206092797Y-66444999D01*
X206019636Y-66621627D01*
X205952000Y-66961655D01*
X205952000Y-67308345D01*
X206019636Y-67648373D01*
X206152308Y-67968673D01*
X206344919Y-68256935D01*
X206590065Y-68502081D01*
X206878327Y-68694692D01*
X207198627Y-68827364D01*
X207538655Y-68895000D01*
X207885345Y-68895000D01*
X208225373Y-68827364D01*
X208545673Y-68694692D01*
X208833935Y-68502081D01*
X209079081Y-68256935D01*
X209271692Y-67968673D01*
X209404364Y-67648373D01*
X209472000Y-67308345D01*
X209472000Y-66961655D01*
X209404364Y-66621627D01*
X209331203Y-66444999D01*
X210092797Y-66444999D01*
X210019636Y-66621627D01*
X209952000Y-66961655D01*
X209952000Y-67308345D01*
X210019636Y-67648373D01*
X210152308Y-67968673D01*
X210344919Y-68256935D01*
X210590065Y-68502081D01*
X210878327Y-68694692D01*
X211198627Y-68827364D01*
X211538655Y-68895000D01*
X211885345Y-68895000D01*
X212225373Y-68827364D01*
X212545673Y-68694692D01*
X212833935Y-68502081D01*
X213079081Y-68256935D01*
X213271692Y-67968673D01*
X213404364Y-67648373D01*
X213472000Y-67308345D01*
X213472000Y-66961655D01*
X213404364Y-66621627D01*
X213331203Y-66444999D01*
X214092797Y-66444999D01*
X214019636Y-66621627D01*
X213952000Y-66961655D01*
X213952000Y-67308345D01*
X214019636Y-67648373D01*
X214152308Y-67968673D01*
X214344919Y-68256935D01*
X214590065Y-68502081D01*
X214878327Y-68694692D01*
X215198627Y-68827364D01*
X215538655Y-68895000D01*
X215885345Y-68895000D01*
X216009023Y-68870399D01*
X215812951Y-69066471D01*
X215779184Y-69094183D01*
X215751471Y-69127951D01*
X215751468Y-69127954D01*
X215668590Y-69228941D01*
X215586412Y-69382687D01*
X215535805Y-69549510D01*
X215518719Y-69723000D01*
X215523001Y-69766479D01*
X215523000Y-72277421D01*
X214796957Y-73003465D01*
X214763190Y-73031177D01*
X214735477Y-73064945D01*
X214735474Y-73064948D01*
X214652596Y-73165935D01*
X214570418Y-73319681D01*
X214519811Y-73486504D01*
X214502725Y-73659994D01*
X214507007Y-73703473D01*
X214507006Y-81249546D01*
X214474801Y-81297744D01*
X214396780Y-81486102D01*
X214357006Y-81686061D01*
X214357006Y-81889939D01*
X214396780Y-82089898D01*
X214474801Y-82278256D01*
X214588069Y-82447774D01*
X214732232Y-82591937D01*
X214797402Y-82635482D01*
X214554155Y-82878729D01*
X214423898Y-82824774D01*
X214223939Y-82785000D01*
X214020061Y-82785000D01*
X213820102Y-82824774D01*
X213631744Y-82902795D01*
X213462226Y-83016063D01*
X213318063Y-83160226D01*
X213204795Y-83329744D01*
X213126774Y-83518102D01*
X213087000Y-83718061D01*
X213087000Y-83921939D01*
X213126774Y-84121898D01*
X213204795Y-84310256D01*
X213318063Y-84479774D01*
X213462226Y-84623937D01*
X213631744Y-84737205D01*
X213820102Y-84815226D01*
X214020061Y-84855000D01*
X214223939Y-84855000D01*
X214423898Y-84815226D01*
X214612256Y-84737205D01*
X214781774Y-84623937D01*
X214836724Y-84568987D01*
X214979932Y-84525546D01*
X215111961Y-84454974D01*
X215227686Y-84360001D01*
X215251489Y-84330997D01*
X216533595Y-83048891D01*
X216535175Y-83054099D01*
X216660359Y-83316920D01*
X216834412Y-83550269D01*
X217050645Y-83745178D01*
X217167534Y-83814805D01*
X216985368Y-83936525D01*
X216778525Y-84143368D01*
X216616010Y-84386589D01*
X216504068Y-84656842D01*
X216447000Y-84943740D01*
X216447000Y-85236260D01*
X216504068Y-85523158D01*
X216616010Y-85793411D01*
X216778525Y-86036632D01*
X216985368Y-86243475D01*
X217228589Y-86405990D01*
X217498842Y-86517932D01*
X217785740Y-86575000D01*
X218078260Y-86575000D01*
X218365158Y-86517932D01*
X218635411Y-86405990D01*
X218776856Y-86311480D01*
X218785997Y-86318982D01*
X222818059Y-90351045D01*
X222841857Y-90380043D01*
X222870855Y-90403841D01*
X222957581Y-90475016D01*
X223062764Y-90531238D01*
X223089611Y-90545588D01*
X223232872Y-90589045D01*
X223344525Y-90600042D01*
X223344535Y-90600042D01*
X223381858Y-90603718D01*
X223419180Y-90600042D01*
X236786289Y-90600042D01*
X236830226Y-90643979D01*
X236999744Y-90757247D01*
X237188102Y-90835268D01*
X237388061Y-90875042D01*
X237591939Y-90875042D01*
X237791898Y-90835268D01*
X237857793Y-90807973D01*
X239353818Y-92304000D01*
X238219581Y-92304000D01*
X238186593Y-92307249D01*
X238173409Y-92307249D01*
X238164244Y-92308212D01*
X237967192Y-92330315D01*
X237925659Y-92339144D01*
X237828523Y-92242008D01*
X237676285Y-92140286D01*
X237507126Y-92070218D01*
X237327548Y-92034497D01*
X237144452Y-92034497D01*
X236964874Y-92070218D01*
X236855000Y-92115729D01*
X236745126Y-92070218D01*
X236565548Y-92034497D01*
X236382452Y-92034497D01*
X236202874Y-92070218D01*
X236093000Y-92115729D01*
X235983126Y-92070218D01*
X235803548Y-92034497D01*
X235620452Y-92034497D01*
X235440874Y-92070218D01*
X235331000Y-92115729D01*
X235221126Y-92070218D01*
X235041548Y-92034497D01*
X234858452Y-92034497D01*
X234678874Y-92070218D01*
X234509715Y-92140286D01*
X234357477Y-92242008D01*
X234260258Y-92339227D01*
X234204913Y-92327463D01*
X234195748Y-92326500D01*
X233998406Y-92307150D01*
X233998402Y-92307150D01*
X233966419Y-92304000D01*
X211665803Y-92304000D01*
X215656730Y-88313073D01*
X215685728Y-88289275D01*
X215731929Y-88232979D01*
X215780701Y-88173551D01*
X215851273Y-88041521D01*
X215854118Y-88032143D01*
X215894730Y-87898260D01*
X215905727Y-87786607D01*
X215905727Y-87786598D01*
X215909403Y-87749275D01*
X215905727Y-87711952D01*
X215905727Y-86809671D01*
X215949664Y-86765734D01*
X216062932Y-86596216D01*
X216140953Y-86407858D01*
X216180727Y-86207899D01*
X216180727Y-86004021D01*
X216140953Y-85804062D01*
X216062932Y-85615704D01*
X215949664Y-85446186D01*
X215805501Y-85302023D01*
X215635983Y-85188755D01*
X215447625Y-85110734D01*
X215247666Y-85070960D01*
X215043788Y-85070960D01*
X214843829Y-85110734D01*
X214655471Y-85188755D01*
X214641766Y-85197912D01*
X214635985Y-85194049D01*
X214447627Y-85116028D01*
X214247668Y-85076254D01*
X214043790Y-85076254D01*
X213843831Y-85116028D01*
X213655473Y-85194049D01*
X213485955Y-85307317D01*
X213341792Y-85451480D01*
X213228524Y-85620998D01*
X213150503Y-85809356D01*
X213110729Y-86009315D01*
X213110729Y-86071452D01*
X207739195Y-91442987D01*
X207736084Y-91442987D01*
X207536125Y-91482761D01*
X207347767Y-91560782D01*
X207178249Y-91674050D01*
X207034086Y-91818213D01*
X206920818Y-91987731D01*
X206842797Y-92176089D01*
X206803023Y-92376048D01*
X206803023Y-92579926D01*
X206842797Y-92779885D01*
X206920818Y-92968243D01*
X207034086Y-93137761D01*
X207178249Y-93281924D01*
X207347767Y-93395192D01*
X207536125Y-93473213D01*
X207736084Y-93512987D01*
X207939962Y-93512987D01*
X208139921Y-93473213D01*
X208328279Y-93395192D01*
X208497797Y-93281924D01*
X208641960Y-93137761D01*
X208755228Y-92968243D01*
X208833249Y-92779885D01*
X208873023Y-92579926D01*
X208873023Y-92458761D01*
X214185531Y-87146254D01*
X214247668Y-87146254D01*
X214385728Y-87118792D01*
X214385728Y-87434471D01*
X206970200Y-94850000D01*
X206908062Y-94850000D01*
X206708103Y-94889774D01*
X206519745Y-94967795D01*
X206350227Y-95081063D01*
X206206064Y-95225226D01*
X206092796Y-95394744D01*
X206014775Y-95583102D01*
X205975001Y-95783061D01*
X205975001Y-95986939D01*
X206014775Y-96186898D01*
X206092796Y-96375256D01*
X206206064Y-96544774D01*
X206350227Y-96688937D01*
X206519745Y-96802205D01*
X206708103Y-96880226D01*
X206908062Y-96920000D01*
X207111940Y-96920000D01*
X207311899Y-96880226D01*
X207500257Y-96802205D01*
X207669775Y-96688937D01*
X207813938Y-96544774D01*
X207927206Y-96375256D01*
X208005227Y-96186898D01*
X208045001Y-95986939D01*
X208045001Y-95924801D01*
X210922000Y-93047802D01*
X210922001Y-104680419D01*
X210925249Y-104713397D01*
X210925249Y-104726591D01*
X210926212Y-104735756D01*
X210948315Y-104932808D01*
X210957144Y-104974341D01*
X210860008Y-105071477D01*
X210758286Y-105223715D01*
X210688218Y-105392874D01*
X210652497Y-105572452D01*
X210652497Y-105755548D01*
X210688218Y-105935126D01*
X210733729Y-106045000D01*
X210688218Y-106154874D01*
X210652497Y-106334452D01*
X210652497Y-106517548D01*
X210688218Y-106697126D01*
X210733729Y-106807000D01*
X210688218Y-106916874D01*
X210652497Y-107096452D01*
X210652497Y-107279548D01*
X210688218Y-107459126D01*
X210733729Y-107569000D01*
X210688218Y-107678874D01*
X210652497Y-107858452D01*
X210652497Y-108041548D01*
X210688218Y-108221126D01*
X210758286Y-108390285D01*
X210860008Y-108542523D01*
X210957227Y-108639742D01*
X210945463Y-108695087D01*
X210944500Y-108704252D01*
X210925150Y-108901594D01*
X210925150Y-108901608D01*
X210922001Y-108933581D01*
X210922000Y-110338000D01*
X207125652Y-110338000D01*
X207279369Y-110024974D01*
X205978000Y-108723605D01*
X204676631Y-110024974D01*
X204830348Y-110338000D01*
X203585652Y-110338000D01*
X203739369Y-110024974D01*
X202438000Y-108723605D01*
X201136631Y-110024974D01*
X201290348Y-110338000D01*
X197510000Y-110338000D01*
X197510000Y-108633764D01*
X198347841Y-108633764D01*
X198395148Y-108857348D01*
X198616516Y-108958237D01*
X198853313Y-109014000D01*
X199096438Y-109022495D01*
X199336549Y-108983395D01*
X199564418Y-108898202D01*
X199640852Y-108857348D01*
X199688159Y-108633764D01*
X199641811Y-108587416D01*
X200308184Y-108587416D01*
X200357578Y-109002089D01*
X200486921Y-109399157D01*
X200643002Y-109691162D01*
X200957026Y-109845369D01*
X202258395Y-108544000D01*
X202617605Y-108544000D01*
X203918974Y-109845369D01*
X204208000Y-109703438D01*
X204497026Y-109845369D01*
X205798395Y-108544000D01*
X206157605Y-108544000D01*
X207458974Y-109845369D01*
X207772998Y-109691162D01*
X207962308Y-109318933D01*
X208075362Y-108916924D01*
X208107816Y-108500584D01*
X208058422Y-108085911D01*
X207929079Y-107688843D01*
X207772998Y-107396838D01*
X207458974Y-107242631D01*
X206157605Y-108544000D01*
X205798395Y-108544000D01*
X204497026Y-107242631D01*
X204208000Y-107384562D01*
X203918974Y-107242631D01*
X202617605Y-108544000D01*
X202258395Y-108544000D01*
X200957026Y-107242631D01*
X200643002Y-107396838D01*
X200453692Y-107769067D01*
X200340638Y-108171076D01*
X200308184Y-108587416D01*
X199641811Y-108587416D01*
X199018000Y-107963605D01*
X198347841Y-108633764D01*
X197510000Y-108633764D01*
X197510000Y-107862438D01*
X197779505Y-107862438D01*
X197818605Y-108102549D01*
X197903798Y-108330418D01*
X197944652Y-108406852D01*
X198168236Y-108454159D01*
X198838395Y-107784000D01*
X198824253Y-107769858D01*
X198975110Y-107619000D01*
X199060890Y-107619000D01*
X199211748Y-107769858D01*
X199197605Y-107784000D01*
X199867764Y-108454159D01*
X200091348Y-108406852D01*
X200192237Y-108185484D01*
X200248000Y-107948687D01*
X200256495Y-107705562D01*
X200217395Y-107465451D01*
X200132202Y-107237582D01*
X200091348Y-107161148D01*
X199997339Y-107141257D01*
X200049611Y-107063026D01*
X201136631Y-107063026D01*
X202438000Y-108364395D01*
X203739369Y-107063026D01*
X204676631Y-107063026D01*
X205978000Y-108364395D01*
X207279369Y-107063026D01*
X207125162Y-106749002D01*
X206752933Y-106559692D01*
X206350924Y-106446638D01*
X205934584Y-106414184D01*
X205519911Y-106463578D01*
X205122843Y-106592921D01*
X204830838Y-106749002D01*
X204676631Y-107063026D01*
X203739369Y-107063026D01*
X203585162Y-106749002D01*
X203212933Y-106559692D01*
X202810924Y-106446638D01*
X202394584Y-106414184D01*
X201979911Y-106463578D01*
X201582843Y-106592921D01*
X201290838Y-106749002D01*
X201136631Y-107063026D01*
X200049611Y-107063026D01*
X200112443Y-106968992D01*
X200205540Y-106744236D01*
X200253000Y-106505637D01*
X200253000Y-106262363D01*
X200205540Y-106023764D01*
X200112443Y-105799008D01*
X200035597Y-105684000D01*
X200112443Y-105568992D01*
X200205540Y-105344236D01*
X200253000Y-105105637D01*
X200253000Y-104862363D01*
X200205540Y-104623764D01*
X200197757Y-104604974D01*
X201136631Y-104604974D01*
X201290838Y-104918998D01*
X201663067Y-105108308D01*
X202065076Y-105221362D01*
X202481416Y-105253816D01*
X202896089Y-105204422D01*
X203293157Y-105075079D01*
X203585162Y-104918998D01*
X203739369Y-104604974D01*
X204676631Y-104604974D01*
X204830838Y-104918998D01*
X205203067Y-105108308D01*
X205605076Y-105221362D01*
X206021416Y-105253816D01*
X206436089Y-105204422D01*
X206833157Y-105075079D01*
X207125162Y-104918998D01*
X207279369Y-104604974D01*
X205978000Y-103303605D01*
X204676631Y-104604974D01*
X203739369Y-104604974D01*
X202438000Y-103303605D01*
X201136631Y-104604974D01*
X200197757Y-104604974D01*
X200112443Y-104399008D01*
X200035597Y-104284000D01*
X200112443Y-104168992D01*
X200205540Y-103944236D01*
X200253000Y-103705637D01*
X200253000Y-103462363D01*
X200205540Y-103223764D01*
X200182200Y-103167416D01*
X200308184Y-103167416D01*
X200357578Y-103582089D01*
X200486921Y-103979157D01*
X200643002Y-104271162D01*
X200957026Y-104425369D01*
X202258395Y-103124000D01*
X202617605Y-103124000D01*
X203918974Y-104425369D01*
X204208000Y-104283438D01*
X204497026Y-104425369D01*
X205798395Y-103124000D01*
X206157605Y-103124000D01*
X207458974Y-104425369D01*
X207772998Y-104271162D01*
X207962308Y-103898933D01*
X208075362Y-103496924D01*
X208107816Y-103080584D01*
X208058422Y-102665911D01*
X207929079Y-102268843D01*
X207772998Y-101976838D01*
X207458974Y-101822631D01*
X206157605Y-103124000D01*
X205798395Y-103124000D01*
X204497026Y-101822631D01*
X204208000Y-101964562D01*
X203918974Y-101822631D01*
X202617605Y-103124000D01*
X202258395Y-103124000D01*
X200957026Y-101822631D01*
X200643002Y-101976838D01*
X200453692Y-102349067D01*
X200340638Y-102751076D01*
X200308184Y-103167416D01*
X200182200Y-103167416D01*
X200112443Y-102999008D01*
X199977287Y-102796733D01*
X199805267Y-102624713D01*
X199602992Y-102489557D01*
X199378236Y-102396460D01*
X199139637Y-102349000D01*
X198896363Y-102349000D01*
X198657764Y-102396460D01*
X198433008Y-102489557D01*
X198230733Y-102624713D01*
X198058713Y-102796733D01*
X197923557Y-102999008D01*
X197830460Y-103223764D01*
X197783000Y-103462363D01*
X197783000Y-103705637D01*
X197830460Y-103944236D01*
X197923557Y-104168992D01*
X198000403Y-104284000D01*
X197923557Y-104399008D01*
X197830460Y-104623764D01*
X197783000Y-104862363D01*
X197783000Y-105105637D01*
X197830460Y-105344236D01*
X197923557Y-105568992D01*
X198000403Y-105684000D01*
X197923557Y-105799008D01*
X197830460Y-106023764D01*
X197783000Y-106262363D01*
X197783000Y-106505637D01*
X197830460Y-106744236D01*
X197923557Y-106968992D01*
X198038661Y-107141257D01*
X197944652Y-107161148D01*
X197843763Y-107382516D01*
X197788000Y-107619313D01*
X197779505Y-107862438D01*
X197510000Y-107862438D01*
X197510000Y-101643026D01*
X201136631Y-101643026D01*
X202438000Y-102944395D01*
X203739369Y-101643026D01*
X204676631Y-101643026D01*
X205978000Y-102944395D01*
X207279369Y-101643026D01*
X207125162Y-101329002D01*
X206752933Y-101139692D01*
X206350924Y-101026638D01*
X205934584Y-100994184D01*
X205519911Y-101043578D01*
X205122843Y-101172921D01*
X204830838Y-101329002D01*
X204676631Y-101643026D01*
X203739369Y-101643026D01*
X203585162Y-101329002D01*
X203212933Y-101139692D01*
X202810924Y-101026638D01*
X202394584Y-100994184D01*
X201979911Y-101043578D01*
X201582843Y-101172921D01*
X201290838Y-101329002D01*
X201136631Y-101643026D01*
X197510000Y-101643026D01*
X197510000Y-99236874D01*
X198094381Y-99236874D01*
X198174224Y-99459976D01*
X198296131Y-99647764D01*
X198452331Y-99808161D01*
X198636822Y-99935003D01*
X198842513Y-100023415D01*
X199061500Y-100070000D01*
X199711500Y-100070000D01*
X199711500Y-99062000D01*
X199965500Y-99062000D01*
X199965500Y-100070000D01*
X200615500Y-100070000D01*
X200834487Y-100023415D01*
X201040178Y-99935003D01*
X201224669Y-99808161D01*
X201380869Y-99647764D01*
X201502776Y-99459976D01*
X201582619Y-99236874D01*
X202069381Y-99236874D01*
X202149224Y-99459976D01*
X202271131Y-99647764D01*
X202427331Y-99808161D01*
X202611822Y-99935003D01*
X202817513Y-100023415D01*
X203036500Y-100070000D01*
X203536500Y-100070000D01*
X203536500Y-99062000D01*
X203790500Y-99062000D01*
X203790500Y-100070000D01*
X204290500Y-100070000D01*
X204509487Y-100023415D01*
X204715178Y-99935003D01*
X204899669Y-99808161D01*
X205055869Y-99647764D01*
X205177776Y-99459976D01*
X205257619Y-99236874D01*
X205131454Y-99062000D01*
X203790500Y-99062000D01*
X203536500Y-99062000D01*
X202195546Y-99062000D01*
X202069381Y-99236874D01*
X201582619Y-99236874D01*
X201456454Y-99062000D01*
X199965500Y-99062000D01*
X199711500Y-99062000D01*
X198220546Y-99062000D01*
X198094381Y-99236874D01*
X197510000Y-99236874D01*
X197510000Y-98633126D01*
X198094381Y-98633126D01*
X198220546Y-98808000D01*
X199711500Y-98808000D01*
X199711500Y-97800000D01*
X199965500Y-97800000D01*
X199965500Y-98808000D01*
X201456454Y-98808000D01*
X201582619Y-98633126D01*
X201502776Y-98410024D01*
X201380869Y-98222236D01*
X201224669Y-98061839D01*
X201040178Y-97934997D01*
X200834487Y-97846585D01*
X200615500Y-97800000D01*
X199965500Y-97800000D01*
X199711500Y-97800000D01*
X199061500Y-97800000D01*
X198842513Y-97846585D01*
X198636822Y-97934997D01*
X198452331Y-98061839D01*
X198296131Y-98222236D01*
X198174224Y-98410024D01*
X198094381Y-98633126D01*
X197510000Y-98633126D01*
X197510000Y-97444068D01*
X202003500Y-97444068D01*
X202003500Y-97785931D01*
X202017029Y-97923291D01*
X202070493Y-98099539D01*
X202157314Y-98261971D01*
X202206460Y-98321856D01*
X202149224Y-98410024D01*
X202069381Y-98633126D01*
X202195546Y-98808000D01*
X203536500Y-98808000D01*
X203536500Y-98788000D01*
X203790500Y-98788000D01*
X203790500Y-98808000D01*
X205131454Y-98808000D01*
X205257619Y-98633126D01*
X205177776Y-98410024D01*
X205055869Y-98222236D01*
X204899669Y-98061839D01*
X204715178Y-97934997D01*
X204509487Y-97846585D01*
X204290500Y-97800000D01*
X203872114Y-97800000D01*
X203873500Y-97785932D01*
X203873500Y-97444069D01*
X203859971Y-97306709D01*
X203806507Y-97130460D01*
X203719686Y-96968028D01*
X203602844Y-96825656D01*
X203460472Y-96708814D01*
X203298040Y-96621993D01*
X203121792Y-96568529D01*
X202938500Y-96550476D01*
X202755209Y-96568529D01*
X202578961Y-96621993D01*
X202416529Y-96708814D01*
X202274156Y-96825656D01*
X202157314Y-96968028D01*
X202070493Y-97130460D01*
X202017029Y-97306708D01*
X202003500Y-97444068D01*
X197510000Y-97444068D01*
X197510000Y-91522911D01*
X202003500Y-91522911D01*
X202003500Y-91707089D01*
X202039432Y-91887729D01*
X202109914Y-92057889D01*
X202212238Y-92211028D01*
X202342472Y-92341262D01*
X202495611Y-92443586D01*
X202665771Y-92514068D01*
X202846411Y-92550000D01*
X203030589Y-92550000D01*
X203211229Y-92514068D01*
X203381389Y-92443586D01*
X203534528Y-92341262D01*
X203664762Y-92211028D01*
X203767086Y-92057889D01*
X203837568Y-91887729D01*
X203873500Y-91707089D01*
X203873500Y-91522911D01*
X203855019Y-91430000D01*
X204290500Y-91430000D01*
X204509487Y-91383415D01*
X204715178Y-91295003D01*
X204899669Y-91168161D01*
X205055869Y-91007764D01*
X205177776Y-90819976D01*
X205257619Y-90596874D01*
X205131454Y-90422000D01*
X203790500Y-90422000D01*
X203790500Y-90442000D01*
X203536500Y-90442000D01*
X203536500Y-90422000D01*
X202195546Y-90422000D01*
X202069381Y-90596874D01*
X202149224Y-90819976D01*
X202252360Y-90978850D01*
X202212238Y-91018972D01*
X202109914Y-91172111D01*
X202039432Y-91342271D01*
X202003500Y-91522911D01*
X197510000Y-91522911D01*
X197510000Y-90596874D01*
X198094381Y-90596874D01*
X198174224Y-90819976D01*
X198296131Y-91007764D01*
X198452331Y-91168161D01*
X198636822Y-91295003D01*
X198842513Y-91383415D01*
X199061500Y-91430000D01*
X199711500Y-91430000D01*
X199711500Y-90422000D01*
X199965500Y-90422000D01*
X199965500Y-91430000D01*
X200615500Y-91430000D01*
X200834487Y-91383415D01*
X201040178Y-91295003D01*
X201224669Y-91168161D01*
X201380869Y-91007764D01*
X201502776Y-90819976D01*
X201582619Y-90596874D01*
X201456454Y-90422000D01*
X199965500Y-90422000D01*
X199711500Y-90422000D01*
X198220546Y-90422000D01*
X198094381Y-90596874D01*
X197510000Y-90596874D01*
X197510000Y-89993126D01*
X198094381Y-89993126D01*
X198220546Y-90168000D01*
X199711500Y-90168000D01*
X199711500Y-89160000D01*
X199965500Y-89160000D01*
X199965500Y-90168000D01*
X201456454Y-90168000D01*
X201582619Y-89993126D01*
X202069381Y-89993126D01*
X202195546Y-90168000D01*
X203536500Y-90168000D01*
X203536500Y-89160000D01*
X203790500Y-89160000D01*
X203790500Y-90168000D01*
X205131454Y-90168000D01*
X205257619Y-89993126D01*
X205177776Y-89770024D01*
X205055869Y-89582236D01*
X204899669Y-89421839D01*
X204715178Y-89294997D01*
X204509487Y-89206585D01*
X204290500Y-89160000D01*
X203790500Y-89160000D01*
X203536500Y-89160000D01*
X203036500Y-89160000D01*
X202817513Y-89206585D01*
X202611822Y-89294997D01*
X202427331Y-89421839D01*
X202271131Y-89582236D01*
X202149224Y-89770024D01*
X202069381Y-89993126D01*
X201582619Y-89993126D01*
X201502776Y-89770024D01*
X201380869Y-89582236D01*
X201224669Y-89421839D01*
X201040178Y-89294997D01*
X200834487Y-89206585D01*
X200615500Y-89160000D01*
X199965500Y-89160000D01*
X199711500Y-89160000D01*
X199061500Y-89160000D01*
X198842513Y-89206585D01*
X198636822Y-89294997D01*
X198452331Y-89421839D01*
X198296131Y-89582236D01*
X198174224Y-89770024D01*
X198094381Y-89993126D01*
X197510000Y-89993126D01*
X197510000Y-74766000D01*
X199816928Y-74766000D01*
X199820000Y-76930250D01*
X199978750Y-77089000D01*
X200832814Y-77089000D01*
X200826843Y-77198762D01*
X200825064Y-77200541D01*
X200825905Y-77216000D01*
X200825064Y-77231459D01*
X200826843Y-77233238D01*
X200832814Y-77343000D01*
X199978750Y-77343000D01*
X199820000Y-77501750D01*
X199816928Y-79666000D01*
X199829188Y-79790482D01*
X199865498Y-79910180D01*
X199924463Y-80020494D01*
X200003815Y-80117185D01*
X200100506Y-80196537D01*
X200210820Y-80255502D01*
X200330518Y-80291812D01*
X200455000Y-80304072D01*
X201644250Y-80301000D01*
X201803000Y-80142250D01*
X201803000Y-79613186D01*
X201912762Y-79619157D01*
X201914541Y-79620936D01*
X201930000Y-79620095D01*
X201945459Y-79620936D01*
X201947238Y-79619157D01*
X202057000Y-79613186D01*
X202057000Y-80142250D01*
X202215750Y-80301000D01*
X203405000Y-80304072D01*
X203529482Y-80291812D01*
X203649180Y-80255502D01*
X203759494Y-80196537D01*
X203856185Y-80117185D01*
X203935537Y-80020494D01*
X203994502Y-79910180D01*
X204030812Y-79790482D01*
X204043072Y-79666000D01*
X204040000Y-77501750D01*
X203881250Y-77343000D01*
X203027186Y-77343000D01*
X203033157Y-77233238D01*
X203034936Y-77231459D01*
X203034095Y-77216000D01*
X203034936Y-77200541D01*
X203033157Y-77198762D01*
X203027186Y-77089000D01*
X203881250Y-77089000D01*
X204040000Y-76930250D01*
X204043072Y-74766000D01*
X204030812Y-74641518D01*
X203994502Y-74521820D01*
X203935537Y-74411506D01*
X203856185Y-74314815D01*
X203759494Y-74235463D01*
X203649180Y-74176498D01*
X203529482Y-74140188D01*
X203405000Y-74127928D01*
X202215750Y-74131000D01*
X202057000Y-74289750D01*
X202057000Y-74818814D01*
X201947238Y-74812843D01*
X201945459Y-74811064D01*
X201930000Y-74811905D01*
X201914541Y-74811064D01*
X201912762Y-74812843D01*
X201803000Y-74818814D01*
X201803000Y-74289750D01*
X201644250Y-74131000D01*
X200455000Y-74127928D01*
X200330518Y-74140188D01*
X200210820Y-74176498D01*
X200100506Y-74235463D01*
X200003815Y-74314815D01*
X199924463Y-74411506D01*
X199865498Y-74521820D01*
X199829188Y-74641518D01*
X199816928Y-74766000D01*
X197510000Y-74766000D01*
X197510000Y-64830190D01*
X197566010Y-64965411D01*
X197728525Y-65208632D01*
X197935368Y-65415475D01*
X198178589Y-65577990D01*
X198448842Y-65689932D01*
X198735740Y-65747000D01*
X199028260Y-65747000D01*
X199315158Y-65689932D01*
X199585411Y-65577990D01*
X199828632Y-65415475D01*
X199960487Y-65283620D01*
X199982498Y-65356180D01*
X200041463Y-65466494D01*
X200120815Y-65563185D01*
X200217506Y-65642537D01*
X200327820Y-65701502D01*
X200447518Y-65737812D01*
X200572000Y-65750072D01*
X202272000Y-65750072D01*
X202396482Y-65737812D01*
X202516180Y-65701502D01*
X202626494Y-65642537D01*
X202723185Y-65563185D01*
X202802537Y-65466494D01*
X202861502Y-65356180D01*
X202897812Y-65236482D01*
X202910072Y-65112000D01*
X202910072Y-63412000D01*
X202897812Y-63287518D01*
X202861502Y-63167820D01*
X202802537Y-63057506D01*
X202723185Y-62960815D01*
X202636896Y-62890000D01*
X206467984Y-62890000D01*
X206344919Y-63013065D01*
G04 #@! TA.AperFunction,Conductor*
D25*
G36*
X206344919Y-63013065D02*
G01*
X206152308Y-63301327D01*
X206019636Y-63621627D01*
X205952000Y-63961655D01*
X205952000Y-64308345D01*
X206019636Y-64648373D01*
X206134218Y-64924999D01*
X204100324Y-64924999D01*
X204063001Y-64921323D01*
X204025678Y-64924999D01*
X204025668Y-64924999D01*
X203914015Y-64935996D01*
X203806292Y-64968673D01*
X203770754Y-64979453D01*
X203638724Y-65050025D01*
X203563208Y-65112000D01*
X203523000Y-65144998D01*
X203499202Y-65173996D01*
X200874199Y-67799000D01*
X200812061Y-67799000D01*
X200612102Y-67838774D01*
X200423744Y-67916795D01*
X200254226Y-68030063D01*
X200110063Y-68174226D01*
X199996795Y-68343744D01*
X199918774Y-68532102D01*
X199879000Y-68732061D01*
X199879000Y-68935939D01*
X199918774Y-69135898D01*
X199996795Y-69324256D01*
X200110063Y-69493774D01*
X200254226Y-69637937D01*
X200423744Y-69751205D01*
X200612102Y-69829226D01*
X200812061Y-69869000D01*
X201015939Y-69869000D01*
X201215898Y-69829226D01*
X201404256Y-69751205D01*
X201573774Y-69637937D01*
X201717937Y-69493774D01*
X201831205Y-69324256D01*
X201909226Y-69135898D01*
X201949000Y-68935939D01*
X201949000Y-68873801D01*
X204377803Y-66444999D01*
X206092797Y-66444999D01*
X206019636Y-66621627D01*
X205952000Y-66961655D01*
X205952000Y-67308345D01*
X206019636Y-67648373D01*
X206152308Y-67968673D01*
X206344919Y-68256935D01*
X206590065Y-68502081D01*
X206878327Y-68694692D01*
X207198627Y-68827364D01*
X207538655Y-68895000D01*
X207885345Y-68895000D01*
X208225373Y-68827364D01*
X208545673Y-68694692D01*
X208833935Y-68502081D01*
X209079081Y-68256935D01*
X209271692Y-67968673D01*
X209404364Y-67648373D01*
X209472000Y-67308345D01*
X209472000Y-66961655D01*
X209404364Y-66621627D01*
X209331203Y-66444999D01*
X210092797Y-66444999D01*
X210019636Y-66621627D01*
X209952000Y-66961655D01*
X209952000Y-67308345D01*
X210019636Y-67648373D01*
X210152308Y-67968673D01*
X210344919Y-68256935D01*
X210590065Y-68502081D01*
X210878327Y-68694692D01*
X211198627Y-68827364D01*
X211538655Y-68895000D01*
X211885345Y-68895000D01*
X212225373Y-68827364D01*
X212545673Y-68694692D01*
X212833935Y-68502081D01*
X213079081Y-68256935D01*
X213271692Y-67968673D01*
X213404364Y-67648373D01*
X213472000Y-67308345D01*
X213472000Y-66961655D01*
X213404364Y-66621627D01*
X213331203Y-66444999D01*
X214092797Y-66444999D01*
X214019636Y-66621627D01*
X213952000Y-66961655D01*
X213952000Y-67308345D01*
X214019636Y-67648373D01*
X214152308Y-67968673D01*
X214344919Y-68256935D01*
X214590065Y-68502081D01*
X214878327Y-68694692D01*
X215198627Y-68827364D01*
X215538655Y-68895000D01*
X215885345Y-68895000D01*
X216009023Y-68870399D01*
X215812951Y-69066471D01*
X215779184Y-69094183D01*
X215751471Y-69127951D01*
X215751468Y-69127954D01*
X215668590Y-69228941D01*
X215586412Y-69382687D01*
X215535805Y-69549510D01*
X215518719Y-69723000D01*
X215523001Y-69766479D01*
X215523000Y-72277421D01*
X214796957Y-73003465D01*
X214763190Y-73031177D01*
X214735477Y-73064945D01*
X214735474Y-73064948D01*
X214652596Y-73165935D01*
X214570418Y-73319681D01*
X214519811Y-73486504D01*
X214502725Y-73659994D01*
X214507007Y-73703473D01*
X214507006Y-81249546D01*
X214474801Y-81297744D01*
X214396780Y-81486102D01*
X214357006Y-81686061D01*
X214357006Y-81889939D01*
X214396780Y-82089898D01*
X214474801Y-82278256D01*
X214588069Y-82447774D01*
X214732232Y-82591937D01*
X214797402Y-82635482D01*
X214554155Y-82878729D01*
X214423898Y-82824774D01*
X214223939Y-82785000D01*
X214020061Y-82785000D01*
X213820102Y-82824774D01*
X213631744Y-82902795D01*
X213462226Y-83016063D01*
X213318063Y-83160226D01*
X213204795Y-83329744D01*
X213126774Y-83518102D01*
X213087000Y-83718061D01*
X213087000Y-83921939D01*
X213126774Y-84121898D01*
X213204795Y-84310256D01*
X213318063Y-84479774D01*
X213462226Y-84623937D01*
X213631744Y-84737205D01*
X213820102Y-84815226D01*
X214020061Y-84855000D01*
X214223939Y-84855000D01*
X214423898Y-84815226D01*
X214612256Y-84737205D01*
X214781774Y-84623937D01*
X214836724Y-84568987D01*
X214979932Y-84525546D01*
X215111961Y-84454974D01*
X215227686Y-84360001D01*
X215251489Y-84330997D01*
X216533595Y-83048891D01*
X216535175Y-83054099D01*
X216660359Y-83316920D01*
X216834412Y-83550269D01*
X217050645Y-83745178D01*
X217167534Y-83814805D01*
X216985368Y-83936525D01*
X216778525Y-84143368D01*
X216616010Y-84386589D01*
X216504068Y-84656842D01*
X216447000Y-84943740D01*
X216447000Y-85236260D01*
X216504068Y-85523158D01*
X216616010Y-85793411D01*
X216778525Y-86036632D01*
X216985368Y-86243475D01*
X217228589Y-86405990D01*
X217498842Y-86517932D01*
X217785740Y-86575000D01*
X218078260Y-86575000D01*
X218365158Y-86517932D01*
X218635411Y-86405990D01*
X218776856Y-86311480D01*
X218785997Y-86318982D01*
X222818059Y-90351045D01*
X222841857Y-90380043D01*
X222870855Y-90403841D01*
X222957581Y-90475016D01*
X223062764Y-90531238D01*
X223089611Y-90545588D01*
X223232872Y-90589045D01*
X223344525Y-90600042D01*
X223344535Y-90600042D01*
X223381858Y-90603718D01*
X223419180Y-90600042D01*
X236786289Y-90600042D01*
X236830226Y-90643979D01*
X236999744Y-90757247D01*
X237188102Y-90835268D01*
X237388061Y-90875042D01*
X237591939Y-90875042D01*
X237791898Y-90835268D01*
X237857793Y-90807973D01*
X239353818Y-92304000D01*
X238219581Y-92304000D01*
X238186593Y-92307249D01*
X238173409Y-92307249D01*
X238164244Y-92308212D01*
X237967192Y-92330315D01*
X237925659Y-92339144D01*
X237828523Y-92242008D01*
X237676285Y-92140286D01*
X237507126Y-92070218D01*
X237327548Y-92034497D01*
X237144452Y-92034497D01*
X236964874Y-92070218D01*
X236855000Y-92115729D01*
X236745126Y-92070218D01*
X236565548Y-92034497D01*
X236382452Y-92034497D01*
X236202874Y-92070218D01*
X236093000Y-92115729D01*
X235983126Y-92070218D01*
X235803548Y-92034497D01*
X235620452Y-92034497D01*
X235440874Y-92070218D01*
X235331000Y-92115729D01*
X235221126Y-92070218D01*
X235041548Y-92034497D01*
X234858452Y-92034497D01*
X234678874Y-92070218D01*
X234509715Y-92140286D01*
X234357477Y-92242008D01*
X234260258Y-92339227D01*
X234204913Y-92327463D01*
X234195748Y-92326500D01*
X233998406Y-92307150D01*
X233998402Y-92307150D01*
X233966419Y-92304000D01*
X211665803Y-92304000D01*
X215656730Y-88313073D01*
X215685728Y-88289275D01*
X215731929Y-88232979D01*
X215780701Y-88173551D01*
X215851273Y-88041521D01*
X215854118Y-88032143D01*
X215894730Y-87898260D01*
X215905727Y-87786607D01*
X215905727Y-87786598D01*
X215909403Y-87749275D01*
X215905727Y-87711952D01*
X215905727Y-86809671D01*
X215949664Y-86765734D01*
X216062932Y-86596216D01*
X216140953Y-86407858D01*
X216180727Y-86207899D01*
X216180727Y-86004021D01*
X216140953Y-85804062D01*
X216062932Y-85615704D01*
X215949664Y-85446186D01*
X215805501Y-85302023D01*
X215635983Y-85188755D01*
X215447625Y-85110734D01*
X215247666Y-85070960D01*
X215043788Y-85070960D01*
X214843829Y-85110734D01*
X214655471Y-85188755D01*
X214641766Y-85197912D01*
X214635985Y-85194049D01*
X214447627Y-85116028D01*
X214247668Y-85076254D01*
X214043790Y-85076254D01*
X213843831Y-85116028D01*
X213655473Y-85194049D01*
X213485955Y-85307317D01*
X213341792Y-85451480D01*
X213228524Y-85620998D01*
X213150503Y-85809356D01*
X213110729Y-86009315D01*
X213110729Y-86071452D01*
X207739195Y-91442987D01*
X207736084Y-91442987D01*
X207536125Y-91482761D01*
X207347767Y-91560782D01*
X207178249Y-91674050D01*
X207034086Y-91818213D01*
X206920818Y-91987731D01*
X206842797Y-92176089D01*
X206803023Y-92376048D01*
X206803023Y-92579926D01*
X206842797Y-92779885D01*
X206920818Y-92968243D01*
X207034086Y-93137761D01*
X207178249Y-93281924D01*
X207347767Y-93395192D01*
X207536125Y-93473213D01*
X207736084Y-93512987D01*
X207939962Y-93512987D01*
X208139921Y-93473213D01*
X208328279Y-93395192D01*
X208497797Y-93281924D01*
X208641960Y-93137761D01*
X208755228Y-92968243D01*
X208833249Y-92779885D01*
X208873023Y-92579926D01*
X208873023Y-92458761D01*
X214185531Y-87146254D01*
X214247668Y-87146254D01*
X214385728Y-87118792D01*
X214385728Y-87434471D01*
X206970200Y-94850000D01*
X206908062Y-94850000D01*
X206708103Y-94889774D01*
X206519745Y-94967795D01*
X206350227Y-95081063D01*
X206206064Y-95225226D01*
X206092796Y-95394744D01*
X206014775Y-95583102D01*
X205975001Y-95783061D01*
X205975001Y-95986939D01*
X206014775Y-96186898D01*
X206092796Y-96375256D01*
X206206064Y-96544774D01*
X206350227Y-96688937D01*
X206519745Y-96802205D01*
X206708103Y-96880226D01*
X206908062Y-96920000D01*
X207111940Y-96920000D01*
X207311899Y-96880226D01*
X207500257Y-96802205D01*
X207669775Y-96688937D01*
X207813938Y-96544774D01*
X207927206Y-96375256D01*
X208005227Y-96186898D01*
X208045001Y-95986939D01*
X208045001Y-95924801D01*
X210922000Y-93047802D01*
X210922001Y-104680419D01*
X210925249Y-104713397D01*
X210925249Y-104726591D01*
X210926212Y-104735756D01*
X210948315Y-104932808D01*
X210957144Y-104974341D01*
X210860008Y-105071477D01*
X210758286Y-105223715D01*
X210688218Y-105392874D01*
X210652497Y-105572452D01*
X210652497Y-105755548D01*
X210688218Y-105935126D01*
X210733729Y-106045000D01*
X210688218Y-106154874D01*
X210652497Y-106334452D01*
X210652497Y-106517548D01*
X210688218Y-106697126D01*
X210733729Y-106807000D01*
X210688218Y-106916874D01*
X210652497Y-107096452D01*
X210652497Y-107279548D01*
X210688218Y-107459126D01*
X210733729Y-107569000D01*
X210688218Y-107678874D01*
X210652497Y-107858452D01*
X210652497Y-108041548D01*
X210688218Y-108221126D01*
X210758286Y-108390285D01*
X210860008Y-108542523D01*
X210957227Y-108639742D01*
X210945463Y-108695087D01*
X210944500Y-108704252D01*
X210925150Y-108901594D01*
X210925150Y-108901608D01*
X210922001Y-108933581D01*
X210922000Y-110338000D01*
X207125652Y-110338000D01*
X207279369Y-110024974D01*
X205978000Y-108723605D01*
X204676631Y-110024974D01*
X204830348Y-110338000D01*
X203585652Y-110338000D01*
X203739369Y-110024974D01*
X202438000Y-108723605D01*
X201136631Y-110024974D01*
X201290348Y-110338000D01*
X197510000Y-110338000D01*
X197510000Y-108633764D01*
X198347841Y-108633764D01*
X198395148Y-108857348D01*
X198616516Y-108958237D01*
X198853313Y-109014000D01*
X199096438Y-109022495D01*
X199336549Y-108983395D01*
X199564418Y-108898202D01*
X199640852Y-108857348D01*
X199688159Y-108633764D01*
X199641811Y-108587416D01*
X200308184Y-108587416D01*
X200357578Y-109002089D01*
X200486921Y-109399157D01*
X200643002Y-109691162D01*
X200957026Y-109845369D01*
X202258395Y-108544000D01*
X202617605Y-108544000D01*
X203918974Y-109845369D01*
X204208000Y-109703438D01*
X204497026Y-109845369D01*
X205798395Y-108544000D01*
X206157605Y-108544000D01*
X207458974Y-109845369D01*
X207772998Y-109691162D01*
X207962308Y-109318933D01*
X208075362Y-108916924D01*
X208107816Y-108500584D01*
X208058422Y-108085911D01*
X207929079Y-107688843D01*
X207772998Y-107396838D01*
X207458974Y-107242631D01*
X206157605Y-108544000D01*
X205798395Y-108544000D01*
X204497026Y-107242631D01*
X204208000Y-107384562D01*
X203918974Y-107242631D01*
X202617605Y-108544000D01*
X202258395Y-108544000D01*
X200957026Y-107242631D01*
X200643002Y-107396838D01*
X200453692Y-107769067D01*
X200340638Y-108171076D01*
X200308184Y-108587416D01*
X199641811Y-108587416D01*
X199018000Y-107963605D01*
X198347841Y-108633764D01*
X197510000Y-108633764D01*
X197510000Y-107862438D01*
X197779505Y-107862438D01*
X197818605Y-108102549D01*
X197903798Y-108330418D01*
X197944652Y-108406852D01*
X198168236Y-108454159D01*
X198838395Y-107784000D01*
X198824253Y-107769858D01*
X198975110Y-107619000D01*
X199060890Y-107619000D01*
X199211748Y-107769858D01*
X199197605Y-107784000D01*
X199867764Y-108454159D01*
X200091348Y-108406852D01*
X200192237Y-108185484D01*
X200248000Y-107948687D01*
X200256495Y-107705562D01*
X200217395Y-107465451D01*
X200132202Y-107237582D01*
X200091348Y-107161148D01*
X199997339Y-107141257D01*
X200049611Y-107063026D01*
X201136631Y-107063026D01*
X202438000Y-108364395D01*
X203739369Y-107063026D01*
X204676631Y-107063026D01*
X205978000Y-108364395D01*
X207279369Y-107063026D01*
X207125162Y-106749002D01*
X206752933Y-106559692D01*
X206350924Y-106446638D01*
X205934584Y-106414184D01*
X205519911Y-106463578D01*
X205122843Y-106592921D01*
X204830838Y-106749002D01*
X204676631Y-107063026D01*
X203739369Y-107063026D01*
X203585162Y-106749002D01*
X203212933Y-106559692D01*
X202810924Y-106446638D01*
X202394584Y-106414184D01*
X201979911Y-106463578D01*
X201582843Y-106592921D01*
X201290838Y-106749002D01*
X201136631Y-107063026D01*
X200049611Y-107063026D01*
X200112443Y-106968992D01*
X200205540Y-106744236D01*
X200253000Y-106505637D01*
X200253000Y-106262363D01*
X200205540Y-106023764D01*
X200112443Y-105799008D01*
X200035597Y-105684000D01*
X200112443Y-105568992D01*
X200205540Y-105344236D01*
X200253000Y-105105637D01*
X200253000Y-104862363D01*
X200205540Y-104623764D01*
X200197757Y-104604974D01*
X201136631Y-104604974D01*
X201290838Y-104918998D01*
X201663067Y-105108308D01*
X202065076Y-105221362D01*
X202481416Y-105253816D01*
X202896089Y-105204422D01*
X203293157Y-105075079D01*
X203585162Y-104918998D01*
X203739369Y-104604974D01*
X204676631Y-104604974D01*
X204830838Y-104918998D01*
X205203067Y-105108308D01*
X205605076Y-105221362D01*
X206021416Y-105253816D01*
X206436089Y-105204422D01*
X206833157Y-105075079D01*
X207125162Y-104918998D01*
X207279369Y-104604974D01*
X205978000Y-103303605D01*
X204676631Y-104604974D01*
X203739369Y-104604974D01*
X202438000Y-103303605D01*
X201136631Y-104604974D01*
X200197757Y-104604974D01*
X200112443Y-104399008D01*
X200035597Y-104284000D01*
X200112443Y-104168992D01*
X200205540Y-103944236D01*
X200253000Y-103705637D01*
X200253000Y-103462363D01*
X200205540Y-103223764D01*
X200182200Y-103167416D01*
X200308184Y-103167416D01*
X200357578Y-103582089D01*
X200486921Y-103979157D01*
X200643002Y-104271162D01*
X200957026Y-104425369D01*
X202258395Y-103124000D01*
X202617605Y-103124000D01*
X203918974Y-104425369D01*
X204208000Y-104283438D01*
X204497026Y-104425369D01*
X205798395Y-103124000D01*
X206157605Y-103124000D01*
X207458974Y-104425369D01*
X207772998Y-104271162D01*
X207962308Y-103898933D01*
X208075362Y-103496924D01*
X208107816Y-103080584D01*
X208058422Y-102665911D01*
X207929079Y-102268843D01*
X207772998Y-101976838D01*
X207458974Y-101822631D01*
X206157605Y-103124000D01*
X205798395Y-103124000D01*
X204497026Y-101822631D01*
X204208000Y-101964562D01*
X203918974Y-101822631D01*
X202617605Y-103124000D01*
X202258395Y-103124000D01*
X200957026Y-101822631D01*
X200643002Y-101976838D01*
X200453692Y-102349067D01*
X200340638Y-102751076D01*
X200308184Y-103167416D01*
X200182200Y-103167416D01*
X200112443Y-102999008D01*
X199977287Y-102796733D01*
X199805267Y-102624713D01*
X199602992Y-102489557D01*
X199378236Y-102396460D01*
X199139637Y-102349000D01*
X198896363Y-102349000D01*
X198657764Y-102396460D01*
X198433008Y-102489557D01*
X198230733Y-102624713D01*
X198058713Y-102796733D01*
X197923557Y-102999008D01*
X197830460Y-103223764D01*
X197783000Y-103462363D01*
X197783000Y-103705637D01*
X197830460Y-103944236D01*
X197923557Y-104168992D01*
X198000403Y-104284000D01*
X197923557Y-104399008D01*
X197830460Y-104623764D01*
X197783000Y-104862363D01*
X197783000Y-105105637D01*
X197830460Y-105344236D01*
X197923557Y-105568992D01*
X198000403Y-105684000D01*
X197923557Y-105799008D01*
X197830460Y-106023764D01*
X197783000Y-106262363D01*
X197783000Y-106505637D01*
X197830460Y-106744236D01*
X197923557Y-106968992D01*
X198038661Y-107141257D01*
X197944652Y-107161148D01*
X197843763Y-107382516D01*
X197788000Y-107619313D01*
X197779505Y-107862438D01*
X197510000Y-107862438D01*
X197510000Y-101643026D01*
X201136631Y-101643026D01*
X202438000Y-102944395D01*
X203739369Y-101643026D01*
X204676631Y-101643026D01*
X205978000Y-102944395D01*
X207279369Y-101643026D01*
X207125162Y-101329002D01*
X206752933Y-101139692D01*
X206350924Y-101026638D01*
X205934584Y-100994184D01*
X205519911Y-101043578D01*
X205122843Y-101172921D01*
X204830838Y-101329002D01*
X204676631Y-101643026D01*
X203739369Y-101643026D01*
X203585162Y-101329002D01*
X203212933Y-101139692D01*
X202810924Y-101026638D01*
X202394584Y-100994184D01*
X201979911Y-101043578D01*
X201582843Y-101172921D01*
X201290838Y-101329002D01*
X201136631Y-101643026D01*
X197510000Y-101643026D01*
X197510000Y-99236874D01*
X198094381Y-99236874D01*
X198174224Y-99459976D01*
X198296131Y-99647764D01*
X198452331Y-99808161D01*
X198636822Y-99935003D01*
X198842513Y-100023415D01*
X199061500Y-100070000D01*
X199711500Y-100070000D01*
X199711500Y-99062000D01*
X199965500Y-99062000D01*
X199965500Y-100070000D01*
X200615500Y-100070000D01*
X200834487Y-100023415D01*
X201040178Y-99935003D01*
X201224669Y-99808161D01*
X201380869Y-99647764D01*
X201502776Y-99459976D01*
X201582619Y-99236874D01*
X202069381Y-99236874D01*
X202149224Y-99459976D01*
X202271131Y-99647764D01*
X202427331Y-99808161D01*
X202611822Y-99935003D01*
X202817513Y-100023415D01*
X203036500Y-100070000D01*
X203536500Y-100070000D01*
X203536500Y-99062000D01*
X203790500Y-99062000D01*
X203790500Y-100070000D01*
X204290500Y-100070000D01*
X204509487Y-100023415D01*
X204715178Y-99935003D01*
X204899669Y-99808161D01*
X205055869Y-99647764D01*
X205177776Y-99459976D01*
X205257619Y-99236874D01*
X205131454Y-99062000D01*
X203790500Y-99062000D01*
X203536500Y-99062000D01*
X202195546Y-99062000D01*
X202069381Y-99236874D01*
X201582619Y-99236874D01*
X201456454Y-99062000D01*
X199965500Y-99062000D01*
X199711500Y-99062000D01*
X198220546Y-99062000D01*
X198094381Y-99236874D01*
X197510000Y-99236874D01*
X197510000Y-98633126D01*
X198094381Y-98633126D01*
X198220546Y-98808000D01*
X199711500Y-98808000D01*
X199711500Y-97800000D01*
X199965500Y-97800000D01*
X199965500Y-98808000D01*
X201456454Y-98808000D01*
X201582619Y-98633126D01*
X201502776Y-98410024D01*
X201380869Y-98222236D01*
X201224669Y-98061839D01*
X201040178Y-97934997D01*
X200834487Y-97846585D01*
X200615500Y-97800000D01*
X199965500Y-97800000D01*
X199711500Y-97800000D01*
X199061500Y-97800000D01*
X198842513Y-97846585D01*
X198636822Y-97934997D01*
X198452331Y-98061839D01*
X198296131Y-98222236D01*
X198174224Y-98410024D01*
X198094381Y-98633126D01*
X197510000Y-98633126D01*
X197510000Y-97444068D01*
X202003500Y-97444068D01*
X202003500Y-97785931D01*
X202017029Y-97923291D01*
X202070493Y-98099539D01*
X202157314Y-98261971D01*
X202206460Y-98321856D01*
X202149224Y-98410024D01*
X202069381Y-98633126D01*
X202195546Y-98808000D01*
X203536500Y-98808000D01*
X203536500Y-98788000D01*
X203790500Y-98788000D01*
X203790500Y-98808000D01*
X205131454Y-98808000D01*
X205257619Y-98633126D01*
X205177776Y-98410024D01*
X205055869Y-98222236D01*
X204899669Y-98061839D01*
X204715178Y-97934997D01*
X204509487Y-97846585D01*
X204290500Y-97800000D01*
X203872114Y-97800000D01*
X203873500Y-97785932D01*
X203873500Y-97444069D01*
X203859971Y-97306709D01*
X203806507Y-97130460D01*
X203719686Y-96968028D01*
X203602844Y-96825656D01*
X203460472Y-96708814D01*
X203298040Y-96621993D01*
X203121792Y-96568529D01*
X202938500Y-96550476D01*
X202755209Y-96568529D01*
X202578961Y-96621993D01*
X202416529Y-96708814D01*
X202274156Y-96825656D01*
X202157314Y-96968028D01*
X202070493Y-97130460D01*
X202017029Y-97306708D01*
X202003500Y-97444068D01*
X197510000Y-97444068D01*
X197510000Y-91522911D01*
X202003500Y-91522911D01*
X202003500Y-91707089D01*
X202039432Y-91887729D01*
X202109914Y-92057889D01*
X202212238Y-92211028D01*
X202342472Y-92341262D01*
X202495611Y-92443586D01*
X202665771Y-92514068D01*
X202846411Y-92550000D01*
X203030589Y-92550000D01*
X203211229Y-92514068D01*
X203381389Y-92443586D01*
X203534528Y-92341262D01*
X203664762Y-92211028D01*
X203767086Y-92057889D01*
X203837568Y-91887729D01*
X203873500Y-91707089D01*
X203873500Y-91522911D01*
X203855019Y-91430000D01*
X204290500Y-91430000D01*
X204509487Y-91383415D01*
X204715178Y-91295003D01*
X204899669Y-91168161D01*
X205055869Y-91007764D01*
X205177776Y-90819976D01*
X205257619Y-90596874D01*
X205131454Y-90422000D01*
X203790500Y-90422000D01*
X203790500Y-90442000D01*
X203536500Y-90442000D01*
X203536500Y-90422000D01*
X202195546Y-90422000D01*
X202069381Y-90596874D01*
X202149224Y-90819976D01*
X202252360Y-90978850D01*
X202212238Y-91018972D01*
X202109914Y-91172111D01*
X202039432Y-91342271D01*
X202003500Y-91522911D01*
X197510000Y-91522911D01*
X197510000Y-90596874D01*
X198094381Y-90596874D01*
X198174224Y-90819976D01*
X198296131Y-91007764D01*
X198452331Y-91168161D01*
X198636822Y-91295003D01*
X198842513Y-91383415D01*
X199061500Y-91430000D01*
X199711500Y-91430000D01*
X199711500Y-90422000D01*
X199965500Y-90422000D01*
X199965500Y-91430000D01*
X200615500Y-91430000D01*
X200834487Y-91383415D01*
X201040178Y-91295003D01*
X201224669Y-91168161D01*
X201380869Y-91007764D01*
X201502776Y-90819976D01*
X201582619Y-90596874D01*
X201456454Y-90422000D01*
X199965500Y-90422000D01*
X199711500Y-90422000D01*
X198220546Y-90422000D01*
X198094381Y-90596874D01*
X197510000Y-90596874D01*
X197510000Y-89993126D01*
X198094381Y-89993126D01*
X198220546Y-90168000D01*
X199711500Y-90168000D01*
X199711500Y-89160000D01*
X199965500Y-89160000D01*
X199965500Y-90168000D01*
X201456454Y-90168000D01*
X201582619Y-89993126D01*
X202069381Y-89993126D01*
X202195546Y-90168000D01*
X203536500Y-90168000D01*
X203536500Y-89160000D01*
X203790500Y-89160000D01*
X203790500Y-90168000D01*
X205131454Y-90168000D01*
X205257619Y-89993126D01*
X205177776Y-89770024D01*
X205055869Y-89582236D01*
X204899669Y-89421839D01*
X204715178Y-89294997D01*
X204509487Y-89206585D01*
X204290500Y-89160000D01*
X203790500Y-89160000D01*
X203536500Y-89160000D01*
X203036500Y-89160000D01*
X202817513Y-89206585D01*
X202611822Y-89294997D01*
X202427331Y-89421839D01*
X202271131Y-89582236D01*
X202149224Y-89770024D01*
X202069381Y-89993126D01*
X201582619Y-89993126D01*
X201502776Y-89770024D01*
X201380869Y-89582236D01*
X201224669Y-89421839D01*
X201040178Y-89294997D01*
X200834487Y-89206585D01*
X200615500Y-89160000D01*
X199965500Y-89160000D01*
X199711500Y-89160000D01*
X199061500Y-89160000D01*
X198842513Y-89206585D01*
X198636822Y-89294997D01*
X198452331Y-89421839D01*
X198296131Y-89582236D01*
X198174224Y-89770024D01*
X198094381Y-89993126D01*
X197510000Y-89993126D01*
X197510000Y-74766000D01*
X199816928Y-74766000D01*
X199820000Y-76930250D01*
X199978750Y-77089000D01*
X200832814Y-77089000D01*
X200826843Y-77198762D01*
X200825064Y-77200541D01*
X200825905Y-77216000D01*
X200825064Y-77231459D01*
X200826843Y-77233238D01*
X200832814Y-77343000D01*
X199978750Y-77343000D01*
X199820000Y-77501750D01*
X199816928Y-79666000D01*
X199829188Y-79790482D01*
X199865498Y-79910180D01*
X199924463Y-80020494D01*
X200003815Y-80117185D01*
X200100506Y-80196537D01*
X200210820Y-80255502D01*
X200330518Y-80291812D01*
X200455000Y-80304072D01*
X201644250Y-80301000D01*
X201803000Y-80142250D01*
X201803000Y-79613186D01*
X201912762Y-79619157D01*
X201914541Y-79620936D01*
X201930000Y-79620095D01*
X201945459Y-79620936D01*
X201947238Y-79619157D01*
X202057000Y-79613186D01*
X202057000Y-80142250D01*
X202215750Y-80301000D01*
X203405000Y-80304072D01*
X203529482Y-80291812D01*
X203649180Y-80255502D01*
X203759494Y-80196537D01*
X203856185Y-80117185D01*
X203935537Y-80020494D01*
X203994502Y-79910180D01*
X204030812Y-79790482D01*
X204043072Y-79666000D01*
X204040000Y-77501750D01*
X203881250Y-77343000D01*
X203027186Y-77343000D01*
X203033157Y-77233238D01*
X203034936Y-77231459D01*
X203034095Y-77216000D01*
X203034936Y-77200541D01*
X203033157Y-77198762D01*
X203027186Y-77089000D01*
X203881250Y-77089000D01*
X204040000Y-76930250D01*
X204043072Y-74766000D01*
X204030812Y-74641518D01*
X203994502Y-74521820D01*
X203935537Y-74411506D01*
X203856185Y-74314815D01*
X203759494Y-74235463D01*
X203649180Y-74176498D01*
X203529482Y-74140188D01*
X203405000Y-74127928D01*
X202215750Y-74131000D01*
X202057000Y-74289750D01*
X202057000Y-74818814D01*
X201947238Y-74812843D01*
X201945459Y-74811064D01*
X201930000Y-74811905D01*
X201914541Y-74811064D01*
X201912762Y-74812843D01*
X201803000Y-74818814D01*
X201803000Y-74289750D01*
X201644250Y-74131000D01*
X200455000Y-74127928D01*
X200330518Y-74140188D01*
X200210820Y-74176498D01*
X200100506Y-74235463D01*
X200003815Y-74314815D01*
X199924463Y-74411506D01*
X199865498Y-74521820D01*
X199829188Y-74641518D01*
X199816928Y-74766000D01*
X197510000Y-74766000D01*
X197510000Y-64830190D01*
X197566010Y-64965411D01*
X197728525Y-65208632D01*
X197935368Y-65415475D01*
X198178589Y-65577990D01*
X198448842Y-65689932D01*
X198735740Y-65747000D01*
X199028260Y-65747000D01*
X199315158Y-65689932D01*
X199585411Y-65577990D01*
X199828632Y-65415475D01*
X199960487Y-65283620D01*
X199982498Y-65356180D01*
X200041463Y-65466494D01*
X200120815Y-65563185D01*
X200217506Y-65642537D01*
X200327820Y-65701502D01*
X200447518Y-65737812D01*
X200572000Y-65750072D01*
X202272000Y-65750072D01*
X202396482Y-65737812D01*
X202516180Y-65701502D01*
X202626494Y-65642537D01*
X202723185Y-65563185D01*
X202802537Y-65466494D01*
X202861502Y-65356180D01*
X202897812Y-65236482D01*
X202910072Y-65112000D01*
X202910072Y-63412000D01*
X202897812Y-63287518D01*
X202861502Y-63167820D01*
X202802537Y-63057506D01*
X202723185Y-62960815D01*
X202636896Y-62890000D01*
X206467984Y-62890000D01*
X206344919Y-63013065D01*
G37*
G04 #@! TD.AperFunction*
D24*
X202057000Y-77089000D02*
X202132814Y-77089000D01*
X202126843Y-77198762D01*
X202125064Y-77200541D01*
X202125905Y-77216000D01*
X202125064Y-77231459D01*
X202126843Y-77233238D01*
X202132814Y-77343000D01*
X202057000Y-77343000D01*
X202057000Y-77418814D01*
X201947238Y-77412843D01*
X201945459Y-77411064D01*
X201930000Y-77411905D01*
X201914541Y-77411064D01*
X201912762Y-77412843D01*
X201803000Y-77418814D01*
X201803000Y-77343000D01*
X201727186Y-77343000D01*
X201733157Y-77233238D01*
X201734936Y-77231459D01*
X201734095Y-77216000D01*
X201734936Y-77200541D01*
X201733157Y-77198762D01*
X201727186Y-77089000D01*
X201803000Y-77089000D01*
X201803000Y-77013186D01*
X201912762Y-77019157D01*
X201914541Y-77020936D01*
X201930000Y-77020095D01*
X201945459Y-77020936D01*
X201947238Y-77019157D01*
X202057000Y-77013186D01*
X202057000Y-77089000D01*
G04 #@! TA.AperFunction,Conductor*
D25*
G36*
X202057000Y-77089000D02*
G01*
X202132814Y-77089000D01*
X202126843Y-77198762D01*
X202125064Y-77200541D01*
X202125905Y-77216000D01*
X202125064Y-77231459D01*
X202126843Y-77233238D01*
X202132814Y-77343000D01*
X202057000Y-77343000D01*
X202057000Y-77418814D01*
X201947238Y-77412843D01*
X201945459Y-77411064D01*
X201930000Y-77411905D01*
X201914541Y-77411064D01*
X201912762Y-77412843D01*
X201803000Y-77418814D01*
X201803000Y-77343000D01*
X201727186Y-77343000D01*
X201733157Y-77233238D01*
X201734936Y-77231459D01*
X201734095Y-77216000D01*
X201734936Y-77200541D01*
X201733157Y-77198762D01*
X201727186Y-77089000D01*
X201803000Y-77089000D01*
X201803000Y-77013186D01*
X201912762Y-77019157D01*
X201914541Y-77020936D01*
X201930000Y-77020095D01*
X201945459Y-77020936D01*
X201947238Y-77019157D01*
X202057000Y-77013186D01*
X202057000Y-77089000D01*
G37*
G04 #@! TD.AperFunction*
D24*
X245720000Y-92304000D02*
X243448890Y-92304000D01*
X244679000Y-91073891D01*
X244741137Y-91073891D01*
X244941096Y-91034117D01*
X245129454Y-90956096D01*
X245298972Y-90842828D01*
X245443135Y-90698665D01*
X245556403Y-90529147D01*
X245634424Y-90340789D01*
X245674198Y-90140830D01*
X245674198Y-89936952D01*
X245634424Y-89736993D01*
X245556403Y-89548635D01*
X245443135Y-89379117D01*
X245298972Y-89234954D01*
X245129454Y-89121686D01*
X244941096Y-89043665D01*
X244741137Y-89003891D01*
X244537259Y-89003891D01*
X244337300Y-89043665D01*
X244148942Y-89121686D01*
X243979424Y-89234954D01*
X243835261Y-89379117D01*
X243721993Y-89548635D01*
X243643972Y-89736993D01*
X243604198Y-89936952D01*
X243604198Y-89999089D01*
X242506996Y-91096291D01*
X242493514Y-91063742D01*
X242380246Y-90894224D01*
X242236083Y-90750061D01*
X242066565Y-90636793D01*
X241878207Y-90558772D01*
X241678248Y-90518998D01*
X241616112Y-90518998D01*
X239520000Y-88422888D01*
X239520000Y-87364356D01*
X239674061Y-87395000D01*
X239877939Y-87395000D01*
X240077898Y-87355226D01*
X240266256Y-87277205D01*
X240435774Y-87163937D01*
X240579937Y-87019774D01*
X240693205Y-86850256D01*
X240771226Y-86661898D01*
X240811000Y-86461939D01*
X240811000Y-86258061D01*
X240771226Y-86058102D01*
X240693205Y-85869744D01*
X240579937Y-85700226D01*
X240536000Y-85656289D01*
X240536000Y-81940061D01*
X243567000Y-81940061D01*
X243567000Y-82143939D01*
X243606774Y-82343898D01*
X243684795Y-82532256D01*
X243798063Y-82701774D01*
X243942226Y-82845937D01*
X244111744Y-82959205D01*
X244300102Y-83037226D01*
X244500061Y-83077000D01*
X244703939Y-83077000D01*
X244903898Y-83037226D01*
X245092256Y-82959205D01*
X245261774Y-82845937D01*
X245405937Y-82701774D01*
X245519205Y-82532256D01*
X245597226Y-82343898D01*
X245637000Y-82143939D01*
X245637000Y-81940061D01*
X245597226Y-81740102D01*
X245519205Y-81551744D01*
X245405937Y-81382226D01*
X245261774Y-81238063D01*
X245092256Y-81124795D01*
X244903898Y-81046774D01*
X244703939Y-81007000D01*
X244500061Y-81007000D01*
X244300102Y-81046774D01*
X244111744Y-81124795D01*
X243942226Y-81238063D01*
X243798063Y-81382226D01*
X243684795Y-81551744D01*
X243606774Y-81740102D01*
X243567000Y-81940061D01*
X240536000Y-81940061D01*
X240536000Y-76860061D01*
X243567000Y-76860061D01*
X243567000Y-77063939D01*
X243606774Y-77263898D01*
X243684795Y-77452256D01*
X243798063Y-77621774D01*
X243942226Y-77765937D01*
X244111744Y-77879205D01*
X244300102Y-77957226D01*
X244500061Y-77997000D01*
X244703939Y-77997000D01*
X244903898Y-77957226D01*
X245092256Y-77879205D01*
X245261774Y-77765937D01*
X245405937Y-77621774D01*
X245519205Y-77452256D01*
X245597226Y-77263898D01*
X245637000Y-77063939D01*
X245637000Y-76860061D01*
X245597226Y-76660102D01*
X245519205Y-76471744D01*
X245405937Y-76302226D01*
X245261774Y-76158063D01*
X245092256Y-76044795D01*
X244903898Y-75966774D01*
X244703939Y-75927000D01*
X244500061Y-75927000D01*
X244300102Y-75966774D01*
X244111744Y-76044795D01*
X243942226Y-76158063D01*
X243798063Y-76302226D01*
X243684795Y-76471744D01*
X243606774Y-76660102D01*
X243567000Y-76860061D01*
X240536000Y-76860061D01*
X240536000Y-75949799D01*
X243871044Y-72614755D01*
X243942226Y-72685937D01*
X244111744Y-72799205D01*
X244300102Y-72877226D01*
X244500061Y-72917000D01*
X244703939Y-72917000D01*
X244903898Y-72877226D01*
X245092256Y-72799205D01*
X245261774Y-72685937D01*
X245405937Y-72541774D01*
X245519205Y-72372256D01*
X245597226Y-72183898D01*
X245637000Y-71983939D01*
X245637000Y-71780061D01*
X245597226Y-71580102D01*
X245519205Y-71391744D01*
X245405937Y-71222226D01*
X245334755Y-71151044D01*
X245367004Y-71118796D01*
X245396001Y-71094999D01*
X245453447Y-71025001D01*
X245490974Y-70979275D01*
X245561546Y-70847245D01*
X245569052Y-70822501D01*
X245605003Y-70703984D01*
X245616000Y-70592331D01*
X245616000Y-70592321D01*
X245619676Y-70554998D01*
X245616000Y-70517675D01*
X245616000Y-63669894D01*
X245632398Y-63658937D01*
X245720001Y-63571334D01*
X245720000Y-92304000D01*
G04 #@! TA.AperFunction,Conductor*
D25*
G36*
X245720000Y-92304000D02*
G01*
X243448890Y-92304000D01*
X244679000Y-91073891D01*
X244741137Y-91073891D01*
X244941096Y-91034117D01*
X245129454Y-90956096D01*
X245298972Y-90842828D01*
X245443135Y-90698665D01*
X245556403Y-90529147D01*
X245634424Y-90340789D01*
X245674198Y-90140830D01*
X245674198Y-89936952D01*
X245634424Y-89736993D01*
X245556403Y-89548635D01*
X245443135Y-89379117D01*
X245298972Y-89234954D01*
X245129454Y-89121686D01*
X244941096Y-89043665D01*
X244741137Y-89003891D01*
X244537259Y-89003891D01*
X244337300Y-89043665D01*
X244148942Y-89121686D01*
X243979424Y-89234954D01*
X243835261Y-89379117D01*
X243721993Y-89548635D01*
X243643972Y-89736993D01*
X243604198Y-89936952D01*
X243604198Y-89999089D01*
X242506996Y-91096291D01*
X242493514Y-91063742D01*
X242380246Y-90894224D01*
X242236083Y-90750061D01*
X242066565Y-90636793D01*
X241878207Y-90558772D01*
X241678248Y-90518998D01*
X241616112Y-90518998D01*
X239520000Y-88422888D01*
X239520000Y-87364356D01*
X239674061Y-87395000D01*
X239877939Y-87395000D01*
X240077898Y-87355226D01*
X240266256Y-87277205D01*
X240435774Y-87163937D01*
X240579937Y-87019774D01*
X240693205Y-86850256D01*
X240771226Y-86661898D01*
X240811000Y-86461939D01*
X240811000Y-86258061D01*
X240771226Y-86058102D01*
X240693205Y-85869744D01*
X240579937Y-85700226D01*
X240536000Y-85656289D01*
X240536000Y-81940061D01*
X243567000Y-81940061D01*
X243567000Y-82143939D01*
X243606774Y-82343898D01*
X243684795Y-82532256D01*
X243798063Y-82701774D01*
X243942226Y-82845937D01*
X244111744Y-82959205D01*
X244300102Y-83037226D01*
X244500061Y-83077000D01*
X244703939Y-83077000D01*
X244903898Y-83037226D01*
X245092256Y-82959205D01*
X245261774Y-82845937D01*
X245405937Y-82701774D01*
X245519205Y-82532256D01*
X245597226Y-82343898D01*
X245637000Y-82143939D01*
X245637000Y-81940061D01*
X245597226Y-81740102D01*
X245519205Y-81551744D01*
X245405937Y-81382226D01*
X245261774Y-81238063D01*
X245092256Y-81124795D01*
X244903898Y-81046774D01*
X244703939Y-81007000D01*
X244500061Y-81007000D01*
X244300102Y-81046774D01*
X244111744Y-81124795D01*
X243942226Y-81238063D01*
X243798063Y-81382226D01*
X243684795Y-81551744D01*
X243606774Y-81740102D01*
X243567000Y-81940061D01*
X240536000Y-81940061D01*
X240536000Y-76860061D01*
X243567000Y-76860061D01*
X243567000Y-77063939D01*
X243606774Y-77263898D01*
X243684795Y-77452256D01*
X243798063Y-77621774D01*
X243942226Y-77765937D01*
X244111744Y-77879205D01*
X244300102Y-77957226D01*
X244500061Y-77997000D01*
X244703939Y-77997000D01*
X244903898Y-77957226D01*
X245092256Y-77879205D01*
X245261774Y-77765937D01*
X245405937Y-77621774D01*
X245519205Y-77452256D01*
X245597226Y-77263898D01*
X245637000Y-77063939D01*
X245637000Y-76860061D01*
X245597226Y-76660102D01*
X245519205Y-76471744D01*
X245405937Y-76302226D01*
X245261774Y-76158063D01*
X245092256Y-76044795D01*
X244903898Y-75966774D01*
X244703939Y-75927000D01*
X244500061Y-75927000D01*
X244300102Y-75966774D01*
X244111744Y-76044795D01*
X243942226Y-76158063D01*
X243798063Y-76302226D01*
X243684795Y-76471744D01*
X243606774Y-76660102D01*
X243567000Y-76860061D01*
X240536000Y-76860061D01*
X240536000Y-75949799D01*
X243871044Y-72614755D01*
X243942226Y-72685937D01*
X244111744Y-72799205D01*
X244300102Y-72877226D01*
X244500061Y-72917000D01*
X244703939Y-72917000D01*
X244903898Y-72877226D01*
X245092256Y-72799205D01*
X245261774Y-72685937D01*
X245405937Y-72541774D01*
X245519205Y-72372256D01*
X245597226Y-72183898D01*
X245637000Y-71983939D01*
X245637000Y-71780061D01*
X245597226Y-71580102D01*
X245519205Y-71391744D01*
X245405937Y-71222226D01*
X245334755Y-71151044D01*
X245367004Y-71118796D01*
X245396001Y-71094999D01*
X245453447Y-71025001D01*
X245490974Y-70979275D01*
X245561546Y-70847245D01*
X245569052Y-70822501D01*
X245605003Y-70703984D01*
X245616000Y-70592331D01*
X245616000Y-70592321D01*
X245619676Y-70554998D01*
X245616000Y-70517675D01*
X245616000Y-63669894D01*
X245632398Y-63658937D01*
X245720001Y-63571334D01*
X245720000Y-92304000D01*
G37*
G04 #@! TD.AperFunction*
D24*
X242939820Y-63003280D02*
X242900046Y-63203239D01*
X242900046Y-63407117D01*
X242939820Y-63607076D01*
X243017841Y-63795434D01*
X243131109Y-63964952D01*
X243275272Y-64109115D01*
X243444790Y-64222383D01*
X243575046Y-64276337D01*
X243575045Y-68081065D01*
X243433953Y-68053000D01*
X243230075Y-68053000D01*
X243030116Y-68092774D01*
X242841758Y-68170795D01*
X242672240Y-68284063D01*
X242528077Y-68428226D01*
X242414809Y-68597744D01*
X242336788Y-68786102D01*
X242297014Y-68986061D01*
X242297014Y-69048183D01*
X239462455Y-71882744D01*
X239419774Y-71840063D01*
X239250256Y-71726795D01*
X239061898Y-71648774D01*
X238861939Y-71609000D01*
X238658061Y-71609000D01*
X238458102Y-71648774D01*
X238269744Y-71726795D01*
X238100226Y-71840063D01*
X237956063Y-71984226D01*
X237842795Y-72153744D01*
X237764774Y-72342102D01*
X237725000Y-72542061D01*
X237725000Y-72745939D01*
X237764774Y-72945898D01*
X237842795Y-73134256D01*
X237956063Y-73303774D01*
X238100226Y-73447937D01*
X238269744Y-73561205D01*
X238458102Y-73639226D01*
X238658061Y-73679000D01*
X238861939Y-73679000D01*
X239061898Y-73639226D01*
X239250256Y-73561205D01*
X239419774Y-73447937D01*
X239463711Y-73404000D01*
X239738678Y-73404000D01*
X239776000Y-73407676D01*
X239813322Y-73404000D01*
X239813347Y-73404000D01*
X239925000Y-73393003D01*
X240009971Y-73367228D01*
X238248998Y-75128201D01*
X238220000Y-75151999D01*
X238196202Y-75180997D01*
X238196201Y-75180998D01*
X238125026Y-75267724D01*
X238080992Y-75350105D01*
X237980256Y-75282795D01*
X237791898Y-75204774D01*
X237591939Y-75165000D01*
X237388061Y-75165000D01*
X237188102Y-75204774D01*
X236999744Y-75282795D01*
X236830226Y-75396063D01*
X236786289Y-75440000D01*
X232470801Y-75440000D01*
X229634998Y-72604199D01*
X229634998Y-72542061D01*
X229595224Y-72342102D01*
X229517203Y-72153744D01*
X229403935Y-71984226D01*
X229259772Y-71840063D01*
X229090254Y-71726795D01*
X228901896Y-71648774D01*
X228701937Y-71609000D01*
X228498059Y-71609000D01*
X228298100Y-71648774D01*
X228109742Y-71726795D01*
X227940224Y-71840063D01*
X227796061Y-71984226D01*
X227682793Y-72153744D01*
X227604772Y-72342102D01*
X227564998Y-72542061D01*
X227564998Y-72745939D01*
X227604772Y-72945898D01*
X227682793Y-73134256D01*
X227796061Y-73303774D01*
X227940224Y-73447937D01*
X228109742Y-73561205D01*
X228298100Y-73639226D01*
X228498059Y-73679000D01*
X228560197Y-73679000D01*
X231592203Y-76711008D01*
X231615997Y-76740001D01*
X231644990Y-76763795D01*
X231644994Y-76763799D01*
X231715683Y-76821811D01*
X231731722Y-76834974D01*
X231863751Y-76905546D01*
X232007012Y-76949003D01*
X232118665Y-76960000D01*
X232118674Y-76960000D01*
X232155997Y-76963676D01*
X232193320Y-76960000D01*
X236786289Y-76960000D01*
X236830226Y-77003937D01*
X236999744Y-77117205D01*
X237188102Y-77195226D01*
X237388061Y-77235000D01*
X237591939Y-77235000D01*
X237791898Y-77195226D01*
X237980256Y-77117205D01*
X238000001Y-77104012D01*
X238000000Y-82104277D01*
X237895786Y-82000063D01*
X237726268Y-81886795D01*
X237537910Y-81808774D01*
X237337951Y-81769000D01*
X237134073Y-81769000D01*
X236934114Y-81808774D01*
X236745756Y-81886795D01*
X236576238Y-82000063D01*
X236432075Y-82144226D01*
X236318807Y-82313744D01*
X236240786Y-82502102D01*
X236201012Y-82702061D01*
X236201012Y-82905939D01*
X236240786Y-83105898D01*
X236318807Y-83294256D01*
X236432075Y-83463774D01*
X236476012Y-83507711D01*
X236476013Y-85283185D01*
X234286220Y-87472979D01*
X224633530Y-87472979D01*
X224589593Y-87429042D01*
X224420075Y-87315774D01*
X224231717Y-87237753D01*
X224031758Y-87197979D01*
X223827880Y-87197979D01*
X223627921Y-87237753D01*
X223439563Y-87315774D01*
X223281827Y-87421170D01*
X223269092Y-87357148D01*
X223191071Y-87168790D01*
X223077803Y-86999272D01*
X222933640Y-86855109D01*
X222764122Y-86741841D01*
X222575764Y-86663820D01*
X222375805Y-86624046D01*
X222171927Y-86624046D01*
X221971968Y-86663820D01*
X221783610Y-86741841D01*
X221614092Y-86855109D01*
X221542909Y-86926292D01*
X221067362Y-86450745D01*
X221175411Y-86405990D01*
X221418632Y-86243475D01*
X221625475Y-86036632D01*
X221787990Y-85793411D01*
X221899932Y-85523158D01*
X221957000Y-85236260D01*
X221957000Y-84943740D01*
X221899932Y-84656842D01*
X221787990Y-84386589D01*
X221625475Y-84143368D01*
X221418632Y-83936525D01*
X221244240Y-83820000D01*
X221418632Y-83703475D01*
X221625475Y-83496632D01*
X221787990Y-83253411D01*
X221899932Y-82983158D01*
X221957000Y-82696260D01*
X221957000Y-82403740D01*
X221899932Y-82116842D01*
X221787990Y-81846589D01*
X221625475Y-81603368D01*
X221418632Y-81396525D01*
X221244240Y-81280000D01*
X221418632Y-81163475D01*
X221625475Y-80956632D01*
X221787990Y-80713411D01*
X221899932Y-80443158D01*
X221957000Y-80156260D01*
X221957000Y-79863740D01*
X221899932Y-79576842D01*
X221787990Y-79306589D01*
X221625475Y-79063368D01*
X221418632Y-78856525D01*
X221244240Y-78740000D01*
X221418632Y-78623475D01*
X221625475Y-78416632D01*
X221787990Y-78173411D01*
X221899932Y-77903158D01*
X221957000Y-77616260D01*
X221957000Y-77323740D01*
X221899932Y-77036842D01*
X221787990Y-76766589D01*
X221625475Y-76523368D01*
X221493620Y-76391513D01*
X221566180Y-76369502D01*
X221676494Y-76310537D01*
X221773185Y-76231185D01*
X221852537Y-76134494D01*
X221911502Y-76024180D01*
X221947812Y-75904482D01*
X221960072Y-75780000D01*
X221960072Y-74080000D01*
X221947812Y-73955518D01*
X221911502Y-73835820D01*
X221852537Y-73725506D01*
X221773185Y-73628815D01*
X221676494Y-73549463D01*
X221566180Y-73490498D01*
X221446482Y-73454188D01*
X221322000Y-73441928D01*
X219622000Y-73441928D01*
X219497518Y-73454188D01*
X219377820Y-73490498D01*
X219267506Y-73549463D01*
X219170815Y-73628815D01*
X219091463Y-73725506D01*
X219032498Y-73835820D01*
X219010487Y-73908380D01*
X218878632Y-73776525D01*
X218635411Y-73614010D01*
X218563216Y-73584106D01*
X220902322Y-71245000D01*
X220911289Y-71245000D01*
X220955226Y-71288937D01*
X221124744Y-71402205D01*
X221313102Y-71480226D01*
X221513061Y-71520000D01*
X221716939Y-71520000D01*
X221916898Y-71480226D01*
X222105256Y-71402205D01*
X222274774Y-71288937D01*
X222418937Y-71144774D01*
X222532205Y-70975256D01*
X222610226Y-70786898D01*
X222650000Y-70586939D01*
X222650000Y-70383061D01*
X222610226Y-70183102D01*
X222532205Y-69994744D01*
X222446858Y-69867013D01*
X235890185Y-69867013D01*
X234071366Y-71685833D01*
X233981898Y-71648774D01*
X233781939Y-71609000D01*
X233578061Y-71609000D01*
X233378102Y-71648774D01*
X233189744Y-71726795D01*
X233020226Y-71840063D01*
X232876063Y-71984226D01*
X232762795Y-72153744D01*
X232684774Y-72342102D01*
X232645000Y-72542061D01*
X232645000Y-72745939D01*
X232684774Y-72945898D01*
X232762795Y-73134256D01*
X232876063Y-73303774D01*
X233020226Y-73447937D01*
X233189744Y-73561205D01*
X233378102Y-73639226D01*
X233578061Y-73679000D01*
X233781939Y-73679000D01*
X233981898Y-73639226D01*
X234170256Y-73561205D01*
X234339774Y-73447937D01*
X234419842Y-73367869D01*
X234480247Y-73349546D01*
X234612276Y-73278974D01*
X234728001Y-73184001D01*
X234751804Y-73154997D01*
X239815803Y-68091000D01*
X239877939Y-68091000D01*
X240077898Y-68051226D01*
X240266256Y-67973205D01*
X240435774Y-67859937D01*
X240579937Y-67715774D01*
X240693205Y-67546256D01*
X240771226Y-67357898D01*
X240811000Y-67157939D01*
X240811000Y-66954061D01*
X240771226Y-66754102D01*
X240693205Y-66565744D01*
X240579937Y-66396226D01*
X240435774Y-66252063D01*
X240266256Y-66138795D01*
X240077898Y-66060774D01*
X239877939Y-66021000D01*
X239674061Y-66021000D01*
X239474102Y-66060774D01*
X239285744Y-66138795D01*
X239116226Y-66252063D01*
X238972063Y-66396226D01*
X238885014Y-66526504D01*
X238885014Y-64711711D01*
X238928951Y-64667774D01*
X239042219Y-64498256D01*
X239120240Y-64309898D01*
X239160014Y-64109939D01*
X239160014Y-63906061D01*
X239120240Y-63706102D01*
X239042219Y-63517744D01*
X238928951Y-63348226D01*
X238784788Y-63204063D01*
X238615270Y-63090795D01*
X238426912Y-63012774D01*
X238226953Y-62973000D01*
X238023075Y-62973000D01*
X237823116Y-63012774D01*
X237634758Y-63090795D01*
X237475072Y-63197493D01*
X237475072Y-63010000D01*
X237463253Y-62890000D01*
X242986742Y-62890000D01*
X242939820Y-63003280D01*
G04 #@! TA.AperFunction,Conductor*
D25*
G36*
X242939820Y-63003280D02*
G01*
X242900046Y-63203239D01*
X242900046Y-63407117D01*
X242939820Y-63607076D01*
X243017841Y-63795434D01*
X243131109Y-63964952D01*
X243275272Y-64109115D01*
X243444790Y-64222383D01*
X243575046Y-64276337D01*
X243575045Y-68081065D01*
X243433953Y-68053000D01*
X243230075Y-68053000D01*
X243030116Y-68092774D01*
X242841758Y-68170795D01*
X242672240Y-68284063D01*
X242528077Y-68428226D01*
X242414809Y-68597744D01*
X242336788Y-68786102D01*
X242297014Y-68986061D01*
X242297014Y-69048183D01*
X239462455Y-71882744D01*
X239419774Y-71840063D01*
X239250256Y-71726795D01*
X239061898Y-71648774D01*
X238861939Y-71609000D01*
X238658061Y-71609000D01*
X238458102Y-71648774D01*
X238269744Y-71726795D01*
X238100226Y-71840063D01*
X237956063Y-71984226D01*
X237842795Y-72153744D01*
X237764774Y-72342102D01*
X237725000Y-72542061D01*
X237725000Y-72745939D01*
X237764774Y-72945898D01*
X237842795Y-73134256D01*
X237956063Y-73303774D01*
X238100226Y-73447937D01*
X238269744Y-73561205D01*
X238458102Y-73639226D01*
X238658061Y-73679000D01*
X238861939Y-73679000D01*
X239061898Y-73639226D01*
X239250256Y-73561205D01*
X239419774Y-73447937D01*
X239463711Y-73404000D01*
X239738678Y-73404000D01*
X239776000Y-73407676D01*
X239813322Y-73404000D01*
X239813347Y-73404000D01*
X239925000Y-73393003D01*
X240009971Y-73367228D01*
X238248998Y-75128201D01*
X238220000Y-75151999D01*
X238196202Y-75180997D01*
X238196201Y-75180998D01*
X238125026Y-75267724D01*
X238080992Y-75350105D01*
X237980256Y-75282795D01*
X237791898Y-75204774D01*
X237591939Y-75165000D01*
X237388061Y-75165000D01*
X237188102Y-75204774D01*
X236999744Y-75282795D01*
X236830226Y-75396063D01*
X236786289Y-75440000D01*
X232470801Y-75440000D01*
X229634998Y-72604199D01*
X229634998Y-72542061D01*
X229595224Y-72342102D01*
X229517203Y-72153744D01*
X229403935Y-71984226D01*
X229259772Y-71840063D01*
X229090254Y-71726795D01*
X228901896Y-71648774D01*
X228701937Y-71609000D01*
X228498059Y-71609000D01*
X228298100Y-71648774D01*
X228109742Y-71726795D01*
X227940224Y-71840063D01*
X227796061Y-71984226D01*
X227682793Y-72153744D01*
X227604772Y-72342102D01*
X227564998Y-72542061D01*
X227564998Y-72745939D01*
X227604772Y-72945898D01*
X227682793Y-73134256D01*
X227796061Y-73303774D01*
X227940224Y-73447937D01*
X228109742Y-73561205D01*
X228298100Y-73639226D01*
X228498059Y-73679000D01*
X228560197Y-73679000D01*
X231592203Y-76711008D01*
X231615997Y-76740001D01*
X231644990Y-76763795D01*
X231644994Y-76763799D01*
X231715683Y-76821811D01*
X231731722Y-76834974D01*
X231863751Y-76905546D01*
X232007012Y-76949003D01*
X232118665Y-76960000D01*
X232118674Y-76960000D01*
X232155997Y-76963676D01*
X232193320Y-76960000D01*
X236786289Y-76960000D01*
X236830226Y-77003937D01*
X236999744Y-77117205D01*
X237188102Y-77195226D01*
X237388061Y-77235000D01*
X237591939Y-77235000D01*
X237791898Y-77195226D01*
X237980256Y-77117205D01*
X238000001Y-77104012D01*
X238000000Y-82104277D01*
X237895786Y-82000063D01*
X237726268Y-81886795D01*
X237537910Y-81808774D01*
X237337951Y-81769000D01*
X237134073Y-81769000D01*
X236934114Y-81808774D01*
X236745756Y-81886795D01*
X236576238Y-82000063D01*
X236432075Y-82144226D01*
X236318807Y-82313744D01*
X236240786Y-82502102D01*
X236201012Y-82702061D01*
X236201012Y-82905939D01*
X236240786Y-83105898D01*
X236318807Y-83294256D01*
X236432075Y-83463774D01*
X236476012Y-83507711D01*
X236476013Y-85283185D01*
X234286220Y-87472979D01*
X224633530Y-87472979D01*
X224589593Y-87429042D01*
X224420075Y-87315774D01*
X224231717Y-87237753D01*
X224031758Y-87197979D01*
X223827880Y-87197979D01*
X223627921Y-87237753D01*
X223439563Y-87315774D01*
X223281827Y-87421170D01*
X223269092Y-87357148D01*
X223191071Y-87168790D01*
X223077803Y-86999272D01*
X222933640Y-86855109D01*
X222764122Y-86741841D01*
X222575764Y-86663820D01*
X222375805Y-86624046D01*
X222171927Y-86624046D01*
X221971968Y-86663820D01*
X221783610Y-86741841D01*
X221614092Y-86855109D01*
X221542909Y-86926292D01*
X221067362Y-86450745D01*
X221175411Y-86405990D01*
X221418632Y-86243475D01*
X221625475Y-86036632D01*
X221787990Y-85793411D01*
X221899932Y-85523158D01*
X221957000Y-85236260D01*
X221957000Y-84943740D01*
X221899932Y-84656842D01*
X221787990Y-84386589D01*
X221625475Y-84143368D01*
X221418632Y-83936525D01*
X221244240Y-83820000D01*
X221418632Y-83703475D01*
X221625475Y-83496632D01*
X221787990Y-83253411D01*
X221899932Y-82983158D01*
X221957000Y-82696260D01*
X221957000Y-82403740D01*
X221899932Y-82116842D01*
X221787990Y-81846589D01*
X221625475Y-81603368D01*
X221418632Y-81396525D01*
X221244240Y-81280000D01*
X221418632Y-81163475D01*
X221625475Y-80956632D01*
X221787990Y-80713411D01*
X221899932Y-80443158D01*
X221957000Y-80156260D01*
X221957000Y-79863740D01*
X221899932Y-79576842D01*
X221787990Y-79306589D01*
X221625475Y-79063368D01*
X221418632Y-78856525D01*
X221244240Y-78740000D01*
X221418632Y-78623475D01*
X221625475Y-78416632D01*
X221787990Y-78173411D01*
X221899932Y-77903158D01*
X221957000Y-77616260D01*
X221957000Y-77323740D01*
X221899932Y-77036842D01*
X221787990Y-76766589D01*
X221625475Y-76523368D01*
X221493620Y-76391513D01*
X221566180Y-76369502D01*
X221676494Y-76310537D01*
X221773185Y-76231185D01*
X221852537Y-76134494D01*
X221911502Y-76024180D01*
X221947812Y-75904482D01*
X221960072Y-75780000D01*
X221960072Y-74080000D01*
X221947812Y-73955518D01*
X221911502Y-73835820D01*
X221852537Y-73725506D01*
X221773185Y-73628815D01*
X221676494Y-73549463D01*
X221566180Y-73490498D01*
X221446482Y-73454188D01*
X221322000Y-73441928D01*
X219622000Y-73441928D01*
X219497518Y-73454188D01*
X219377820Y-73490498D01*
X219267506Y-73549463D01*
X219170815Y-73628815D01*
X219091463Y-73725506D01*
X219032498Y-73835820D01*
X219010487Y-73908380D01*
X218878632Y-73776525D01*
X218635411Y-73614010D01*
X218563216Y-73584106D01*
X220902322Y-71245000D01*
X220911289Y-71245000D01*
X220955226Y-71288937D01*
X221124744Y-71402205D01*
X221313102Y-71480226D01*
X221513061Y-71520000D01*
X221716939Y-71520000D01*
X221916898Y-71480226D01*
X222105256Y-71402205D01*
X222274774Y-71288937D01*
X222418937Y-71144774D01*
X222532205Y-70975256D01*
X222610226Y-70786898D01*
X222650000Y-70586939D01*
X222650000Y-70383061D01*
X222610226Y-70183102D01*
X222532205Y-69994744D01*
X222446858Y-69867013D01*
X235890185Y-69867013D01*
X234071366Y-71685833D01*
X233981898Y-71648774D01*
X233781939Y-71609000D01*
X233578061Y-71609000D01*
X233378102Y-71648774D01*
X233189744Y-71726795D01*
X233020226Y-71840063D01*
X232876063Y-71984226D01*
X232762795Y-72153744D01*
X232684774Y-72342102D01*
X232645000Y-72542061D01*
X232645000Y-72745939D01*
X232684774Y-72945898D01*
X232762795Y-73134256D01*
X232876063Y-73303774D01*
X233020226Y-73447937D01*
X233189744Y-73561205D01*
X233378102Y-73639226D01*
X233578061Y-73679000D01*
X233781939Y-73679000D01*
X233981898Y-73639226D01*
X234170256Y-73561205D01*
X234339774Y-73447937D01*
X234419842Y-73367869D01*
X234480247Y-73349546D01*
X234612276Y-73278974D01*
X234728001Y-73184001D01*
X234751804Y-73154997D01*
X239815803Y-68091000D01*
X239877939Y-68091000D01*
X240077898Y-68051226D01*
X240266256Y-67973205D01*
X240435774Y-67859937D01*
X240579937Y-67715774D01*
X240693205Y-67546256D01*
X240771226Y-67357898D01*
X240811000Y-67157939D01*
X240811000Y-66954061D01*
X240771226Y-66754102D01*
X240693205Y-66565744D01*
X240579937Y-66396226D01*
X240435774Y-66252063D01*
X240266256Y-66138795D01*
X240077898Y-66060774D01*
X239877939Y-66021000D01*
X239674061Y-66021000D01*
X239474102Y-66060774D01*
X239285744Y-66138795D01*
X239116226Y-66252063D01*
X238972063Y-66396226D01*
X238885014Y-66526504D01*
X238885014Y-64711711D01*
X238928951Y-64667774D01*
X239042219Y-64498256D01*
X239120240Y-64309898D01*
X239160014Y-64109939D01*
X239160014Y-63906061D01*
X239120240Y-63706102D01*
X239042219Y-63517744D01*
X238928951Y-63348226D01*
X238784788Y-63204063D01*
X238615270Y-63090795D01*
X238426912Y-63012774D01*
X238226953Y-62973000D01*
X238023075Y-62973000D01*
X237823116Y-63012774D01*
X237634758Y-63090795D01*
X237475072Y-63197493D01*
X237475072Y-63010000D01*
X237463253Y-62890000D01*
X242986742Y-62890000D01*
X242939820Y-63003280D01*
G37*
G04 #@! TD.AperFunction*
D24*
X218059000Y-82423000D02*
X218079000Y-82423000D01*
X218079000Y-82677000D01*
X218059000Y-82677000D01*
X218059000Y-82697000D01*
X217805000Y-82697000D01*
X217805000Y-82677000D01*
X217785000Y-82677000D01*
X217785000Y-82423000D01*
X217805000Y-82423000D01*
X217805000Y-82403000D01*
X218059000Y-82403000D01*
X218059000Y-82423000D01*
G04 #@! TA.AperFunction,Conductor*
D25*
G36*
X218059000Y-82423000D02*
G01*
X218079000Y-82423000D01*
X218079000Y-82677000D01*
X218059000Y-82677000D01*
X218059000Y-82697000D01*
X217805000Y-82697000D01*
X217805000Y-82677000D01*
X217785000Y-82677000D01*
X217785000Y-82423000D01*
X217805000Y-82423000D01*
X217805000Y-82403000D01*
X218059000Y-82403000D01*
X218059000Y-82423000D01*
G37*
G04 #@! TD.AperFunction*
D24*
X219318525Y-80956632D02*
X219525368Y-81163475D01*
X219699760Y-81280000D01*
X219525368Y-81396525D01*
X219318525Y-81603368D01*
X219200900Y-81779406D01*
X219029588Y-81549731D01*
X218813355Y-81354822D01*
X218696466Y-81285195D01*
X218878632Y-81163475D01*
X219085475Y-80956632D01*
X219202000Y-80782240D01*
X219318525Y-80956632D01*
G04 #@! TA.AperFunction,Conductor*
D25*
G36*
X219318525Y-80956632D02*
G01*
X219525368Y-81163475D01*
X219699760Y-81280000D01*
X219525368Y-81396525D01*
X219318525Y-81603368D01*
X219200900Y-81779406D01*
X219029588Y-81549731D01*
X218813355Y-81354822D01*
X218696466Y-81285195D01*
X218878632Y-81163475D01*
X219085475Y-80956632D01*
X219202000Y-80782240D01*
X219318525Y-80956632D01*
G37*
G04 #@! TD.AperFunction*
D24*
X219905748Y-64120858D02*
X219891605Y-64135000D01*
X219905748Y-64149143D01*
X219726143Y-64328748D01*
X219712000Y-64314605D01*
X219697858Y-64328748D01*
X219518253Y-64149143D01*
X219532395Y-64135000D01*
X219518253Y-64120858D01*
X219697858Y-63941253D01*
X219712000Y-63955395D01*
X219726143Y-63941253D01*
X219905748Y-64120858D01*
G04 #@! TA.AperFunction,Conductor*
D25*
G36*
X219905748Y-64120858D02*
G01*
X219891605Y-64135000D01*
X219905748Y-64149143D01*
X219726143Y-64328748D01*
X219712000Y-64314605D01*
X219697858Y-64328748D01*
X219518253Y-64149143D01*
X219532395Y-64135000D01*
X219518253Y-64120858D01*
X219697858Y-63941253D01*
X219712000Y-63955395D01*
X219726143Y-63941253D01*
X219905748Y-64120858D01*
G37*
G04 #@! TD.AperFunction*
D24*
X223905748Y-64120858D02*
X223891605Y-64135000D01*
X223905748Y-64149143D01*
X223726143Y-64328748D01*
X223712000Y-64314605D01*
X223697858Y-64328748D01*
X223518253Y-64149143D01*
X223532395Y-64135000D01*
X223518253Y-64120858D01*
X223697858Y-63941253D01*
X223712000Y-63955395D01*
X223726143Y-63941253D01*
X223905748Y-64120858D01*
G04 #@! TA.AperFunction,Conductor*
D25*
G36*
X223905748Y-64120858D02*
G01*
X223891605Y-64135000D01*
X223905748Y-64149143D01*
X223726143Y-64328748D01*
X223712000Y-64314605D01*
X223697858Y-64328748D01*
X223518253Y-64149143D01*
X223532395Y-64135000D01*
X223518253Y-64120858D01*
X223697858Y-63941253D01*
X223712000Y-63955395D01*
X223726143Y-63941253D01*
X223905748Y-64120858D01*
G37*
G04 #@! TD.AperFunction*
D24*
X237981087Y-95632537D02*
X237990252Y-95633500D01*
X238187593Y-95652850D01*
X238187598Y-95652850D01*
X238219581Y-95656000D01*
X250038001Y-95656000D01*
X250038000Y-110846000D01*
X214274000Y-110846000D01*
X214274000Y-108933581D01*
X214270751Y-108900593D01*
X214270751Y-108887409D01*
X214269788Y-108878244D01*
X214247685Y-108681192D01*
X214238856Y-108639659D01*
X214335992Y-108542523D01*
X214437714Y-108390285D01*
X214507782Y-108221126D01*
X214543503Y-108041548D01*
X214543503Y-107858452D01*
X214507782Y-107678874D01*
X214462271Y-107569000D01*
X214507782Y-107459126D01*
X214543503Y-107279548D01*
X214543503Y-107096452D01*
X214507782Y-106916874D01*
X214462271Y-106807000D01*
X214507782Y-106697126D01*
X214543503Y-106517548D01*
X214543503Y-106334452D01*
X214507782Y-106154874D01*
X214462271Y-106045000D01*
X214507782Y-105935126D01*
X214543503Y-105755548D01*
X214543503Y-105572452D01*
X214507782Y-105392874D01*
X214437714Y-105223715D01*
X214335992Y-105071477D01*
X214238773Y-104974258D01*
X214250537Y-104918913D01*
X214251500Y-104909748D01*
X214270850Y-104712407D01*
X214270850Y-104712402D01*
X214274000Y-104680419D01*
X214274000Y-102659486D01*
X226352948Y-102659486D01*
X226352948Y-102863364D01*
X226392722Y-103063323D01*
X226470743Y-103251681D01*
X226584011Y-103421199D01*
X226627949Y-103465137D01*
X226627948Y-104160625D01*
X226624272Y-104197948D01*
X226627948Y-104235270D01*
X226627948Y-104235280D01*
X226638945Y-104346933D01*
X226669735Y-104448435D01*
X226682402Y-104490194D01*
X226752974Y-104622224D01*
X226792819Y-104670774D01*
X226847947Y-104737949D01*
X226876951Y-104761752D01*
X227274196Y-105158997D01*
X227297999Y-105188001D01*
X227413724Y-105282974D01*
X227545753Y-105353546D01*
X227689014Y-105397003D01*
X227800667Y-105408000D01*
X227800675Y-105408000D01*
X227838000Y-105411676D01*
X227875325Y-105408000D01*
X233301986Y-105408000D01*
X233299175Y-105413901D01*
X233254524Y-105561110D01*
X233375845Y-105791000D01*
X234569000Y-105791000D01*
X234569000Y-105771000D01*
X234823000Y-105771000D01*
X234823000Y-105791000D01*
X234843000Y-105791000D01*
X234843000Y-106045000D01*
X234823000Y-106045000D01*
X234823000Y-106065000D01*
X234569000Y-106065000D01*
X234569000Y-106045000D01*
X233375845Y-106045000D01*
X233254524Y-106274890D01*
X233299175Y-106422099D01*
X233424359Y-106684920D01*
X233598412Y-106918269D01*
X233814645Y-107113178D01*
X233931534Y-107182805D01*
X233749368Y-107304525D01*
X233542525Y-107511368D01*
X233380010Y-107754589D01*
X233268068Y-108024842D01*
X233211000Y-108311740D01*
X233211000Y-108604260D01*
X233268068Y-108891158D01*
X233380010Y-109161411D01*
X233542525Y-109404632D01*
X233749368Y-109611475D01*
X233992589Y-109773990D01*
X234262842Y-109885932D01*
X234549740Y-109943000D01*
X234842260Y-109943000D01*
X235129158Y-109885932D01*
X235399411Y-109773990D01*
X235642632Y-109611475D01*
X235849475Y-109404632D01*
X235966000Y-109230240D01*
X236082525Y-109404632D01*
X236289368Y-109611475D01*
X236532589Y-109773990D01*
X236802842Y-109885932D01*
X237089740Y-109943000D01*
X237382260Y-109943000D01*
X237669158Y-109885932D01*
X237939411Y-109773990D01*
X238182632Y-109611475D01*
X238389475Y-109404632D01*
X238551990Y-109161411D01*
X238663932Y-108891158D01*
X238721000Y-108604260D01*
X238721000Y-108311740D01*
X238663932Y-108024842D01*
X238551990Y-107754589D01*
X238389475Y-107511368D01*
X238182632Y-107304525D01*
X238008240Y-107188000D01*
X238182632Y-107071475D01*
X238389475Y-106864632D01*
X238551990Y-106621411D01*
X238663932Y-106351158D01*
X238721000Y-106064260D01*
X238721000Y-105771740D01*
X238663932Y-105484842D01*
X238551990Y-105214589D01*
X238389475Y-104971368D01*
X238182632Y-104764525D01*
X238008240Y-104648000D01*
X238182632Y-104531475D01*
X238389475Y-104324632D01*
X238551990Y-104081411D01*
X238663932Y-103811158D01*
X238721000Y-103524260D01*
X238721000Y-103231740D01*
X238663932Y-102944842D01*
X238551990Y-102674589D01*
X238389475Y-102431368D01*
X238182632Y-102224525D01*
X238008240Y-102108000D01*
X238182632Y-101991475D01*
X238389475Y-101784632D01*
X238551990Y-101541411D01*
X238663932Y-101271158D01*
X238721000Y-100984260D01*
X238721000Y-100691740D01*
X238663932Y-100404842D01*
X238551990Y-100134589D01*
X238389475Y-99891368D01*
X238257620Y-99759513D01*
X238330180Y-99737502D01*
X238440494Y-99678537D01*
X238537185Y-99599185D01*
X238616537Y-99502494D01*
X238675502Y-99392180D01*
X238711812Y-99272482D01*
X238724072Y-99148000D01*
X238724072Y-97448000D01*
X238711812Y-97323518D01*
X238675502Y-97203820D01*
X238616537Y-97093506D01*
X238537185Y-96996815D01*
X238440494Y-96917463D01*
X238330180Y-96858498D01*
X238210482Y-96822188D01*
X238086000Y-96809928D01*
X236386000Y-96809928D01*
X236261518Y-96822188D01*
X236141820Y-96858498D01*
X236031506Y-96917463D01*
X235934815Y-96996815D01*
X235855463Y-97093506D01*
X235796498Y-97203820D01*
X235774487Y-97276380D01*
X235642632Y-97144525D01*
X235399411Y-96982010D01*
X235129158Y-96870068D01*
X234842260Y-96813000D01*
X234549740Y-96813000D01*
X234262842Y-96870068D01*
X233992589Y-96982010D01*
X233749368Y-97144525D01*
X233542525Y-97351368D01*
X233417822Y-97538000D01*
X231753910Y-97538000D01*
X231716587Y-97534324D01*
X231679264Y-97538000D01*
X231679254Y-97538000D01*
X231567601Y-97548997D01*
X231424340Y-97592454D01*
X231292311Y-97663026D01*
X231176586Y-97757999D01*
X231152788Y-97786997D01*
X227755684Y-101184102D01*
X227726680Y-101207905D01*
X227697141Y-101243899D01*
X227631707Y-101323630D01*
X227567659Y-101443454D01*
X227561135Y-101455660D01*
X227517678Y-101598921D01*
X227506681Y-101710574D01*
X227506681Y-101710584D01*
X227504828Y-101729397D01*
X227489887Y-101726425D01*
X227286009Y-101726425D01*
X227086050Y-101766199D01*
X226897692Y-101844220D01*
X226728174Y-101957488D01*
X226584011Y-102101651D01*
X226470743Y-102271169D01*
X226392722Y-102459527D01*
X226352948Y-102659486D01*
X214274000Y-102659486D01*
X214274000Y-95656000D01*
X233966419Y-95656000D01*
X233999407Y-95652751D01*
X234012591Y-95652751D01*
X234021756Y-95651788D01*
X234218808Y-95629685D01*
X234260341Y-95620856D01*
X234357477Y-95717992D01*
X234509715Y-95819714D01*
X234678874Y-95889782D01*
X234858452Y-95925503D01*
X235041548Y-95925503D01*
X235221126Y-95889782D01*
X235331000Y-95844271D01*
X235440874Y-95889782D01*
X235620452Y-95925503D01*
X235803548Y-95925503D01*
X235983126Y-95889782D01*
X236093000Y-95844271D01*
X236202874Y-95889782D01*
X236382452Y-95925503D01*
X236565548Y-95925503D01*
X236745126Y-95889782D01*
X236855000Y-95844271D01*
X236964874Y-95889782D01*
X237144452Y-95925503D01*
X237327548Y-95925503D01*
X237507126Y-95889782D01*
X237676285Y-95819714D01*
X237828523Y-95717992D01*
X237925742Y-95620773D01*
X237981087Y-95632537D01*
G04 #@! TA.AperFunction,Conductor*
D25*
G36*
X237981087Y-95632537D02*
G01*
X237990252Y-95633500D01*
X238187593Y-95652850D01*
X238187598Y-95652850D01*
X238219581Y-95656000D01*
X250038001Y-95656000D01*
X250038000Y-110846000D01*
X214274000Y-110846000D01*
X214274000Y-108933581D01*
X214270751Y-108900593D01*
X214270751Y-108887409D01*
X214269788Y-108878244D01*
X214247685Y-108681192D01*
X214238856Y-108639659D01*
X214335992Y-108542523D01*
X214437714Y-108390285D01*
X214507782Y-108221126D01*
X214543503Y-108041548D01*
X214543503Y-107858452D01*
X214507782Y-107678874D01*
X214462271Y-107569000D01*
X214507782Y-107459126D01*
X214543503Y-107279548D01*
X214543503Y-107096452D01*
X214507782Y-106916874D01*
X214462271Y-106807000D01*
X214507782Y-106697126D01*
X214543503Y-106517548D01*
X214543503Y-106334452D01*
X214507782Y-106154874D01*
X214462271Y-106045000D01*
X214507782Y-105935126D01*
X214543503Y-105755548D01*
X214543503Y-105572452D01*
X214507782Y-105392874D01*
X214437714Y-105223715D01*
X214335992Y-105071477D01*
X214238773Y-104974258D01*
X214250537Y-104918913D01*
X214251500Y-104909748D01*
X214270850Y-104712407D01*
X214270850Y-104712402D01*
X214274000Y-104680419D01*
X214274000Y-102659486D01*
X226352948Y-102659486D01*
X226352948Y-102863364D01*
X226392722Y-103063323D01*
X226470743Y-103251681D01*
X226584011Y-103421199D01*
X226627949Y-103465137D01*
X226627948Y-104160625D01*
X226624272Y-104197948D01*
X226627948Y-104235270D01*
X226627948Y-104235280D01*
X226638945Y-104346933D01*
X226669735Y-104448435D01*
X226682402Y-104490194D01*
X226752974Y-104622224D01*
X226792819Y-104670774D01*
X226847947Y-104737949D01*
X226876951Y-104761752D01*
X227274196Y-105158997D01*
X227297999Y-105188001D01*
X227413724Y-105282974D01*
X227545753Y-105353546D01*
X227689014Y-105397003D01*
X227800667Y-105408000D01*
X227800675Y-105408000D01*
X227838000Y-105411676D01*
X227875325Y-105408000D01*
X233301986Y-105408000D01*
X233299175Y-105413901D01*
X233254524Y-105561110D01*
X233375845Y-105791000D01*
X234569000Y-105791000D01*
X234569000Y-105771000D01*
X234823000Y-105771000D01*
X234823000Y-105791000D01*
X234843000Y-105791000D01*
X234843000Y-106045000D01*
X234823000Y-106045000D01*
X234823000Y-106065000D01*
X234569000Y-106065000D01*
X234569000Y-106045000D01*
X233375845Y-106045000D01*
X233254524Y-106274890D01*
X233299175Y-106422099D01*
X233424359Y-106684920D01*
X233598412Y-106918269D01*
X233814645Y-107113178D01*
X233931534Y-107182805D01*
X233749368Y-107304525D01*
X233542525Y-107511368D01*
X233380010Y-107754589D01*
X233268068Y-108024842D01*
X233211000Y-108311740D01*
X233211000Y-108604260D01*
X233268068Y-108891158D01*
X233380010Y-109161411D01*
X233542525Y-109404632D01*
X233749368Y-109611475D01*
X233992589Y-109773990D01*
X234262842Y-109885932D01*
X234549740Y-109943000D01*
X234842260Y-109943000D01*
X235129158Y-109885932D01*
X235399411Y-109773990D01*
X235642632Y-109611475D01*
X235849475Y-109404632D01*
X235966000Y-109230240D01*
X236082525Y-109404632D01*
X236289368Y-109611475D01*
X236532589Y-109773990D01*
X236802842Y-109885932D01*
X237089740Y-109943000D01*
X237382260Y-109943000D01*
X237669158Y-109885932D01*
X237939411Y-109773990D01*
X238182632Y-109611475D01*
X238389475Y-109404632D01*
X238551990Y-109161411D01*
X238663932Y-108891158D01*
X238721000Y-108604260D01*
X238721000Y-108311740D01*
X238663932Y-108024842D01*
X238551990Y-107754589D01*
X238389475Y-107511368D01*
X238182632Y-107304525D01*
X238008240Y-107188000D01*
X238182632Y-107071475D01*
X238389475Y-106864632D01*
X238551990Y-106621411D01*
X238663932Y-106351158D01*
X238721000Y-106064260D01*
X238721000Y-105771740D01*
X238663932Y-105484842D01*
X238551990Y-105214589D01*
X238389475Y-104971368D01*
X238182632Y-104764525D01*
X238008240Y-104648000D01*
X238182632Y-104531475D01*
X238389475Y-104324632D01*
X238551990Y-104081411D01*
X238663932Y-103811158D01*
X238721000Y-103524260D01*
X238721000Y-103231740D01*
X238663932Y-102944842D01*
X238551990Y-102674589D01*
X238389475Y-102431368D01*
X238182632Y-102224525D01*
X238008240Y-102108000D01*
X238182632Y-101991475D01*
X238389475Y-101784632D01*
X238551990Y-101541411D01*
X238663932Y-101271158D01*
X238721000Y-100984260D01*
X238721000Y-100691740D01*
X238663932Y-100404842D01*
X238551990Y-100134589D01*
X238389475Y-99891368D01*
X238257620Y-99759513D01*
X238330180Y-99737502D01*
X238440494Y-99678537D01*
X238537185Y-99599185D01*
X238616537Y-99502494D01*
X238675502Y-99392180D01*
X238711812Y-99272482D01*
X238724072Y-99148000D01*
X238724072Y-97448000D01*
X238711812Y-97323518D01*
X238675502Y-97203820D01*
X238616537Y-97093506D01*
X238537185Y-96996815D01*
X238440494Y-96917463D01*
X238330180Y-96858498D01*
X238210482Y-96822188D01*
X238086000Y-96809928D01*
X236386000Y-96809928D01*
X236261518Y-96822188D01*
X236141820Y-96858498D01*
X236031506Y-96917463D01*
X235934815Y-96996815D01*
X235855463Y-97093506D01*
X235796498Y-97203820D01*
X235774487Y-97276380D01*
X235642632Y-97144525D01*
X235399411Y-96982010D01*
X235129158Y-96870068D01*
X234842260Y-96813000D01*
X234549740Y-96813000D01*
X234262842Y-96870068D01*
X233992589Y-96982010D01*
X233749368Y-97144525D01*
X233542525Y-97351368D01*
X233417822Y-97538000D01*
X231753910Y-97538000D01*
X231716587Y-97534324D01*
X231679264Y-97538000D01*
X231679254Y-97538000D01*
X231567601Y-97548997D01*
X231424340Y-97592454D01*
X231292311Y-97663026D01*
X231176586Y-97757999D01*
X231152788Y-97786997D01*
X227755684Y-101184102D01*
X227726680Y-101207905D01*
X227697141Y-101243899D01*
X227631707Y-101323630D01*
X227567659Y-101443454D01*
X227561135Y-101455660D01*
X227517678Y-101598921D01*
X227506681Y-101710574D01*
X227506681Y-101710584D01*
X227504828Y-101729397D01*
X227489887Y-101726425D01*
X227286009Y-101726425D01*
X227086050Y-101766199D01*
X226897692Y-101844220D01*
X226728174Y-101957488D01*
X226584011Y-102101651D01*
X226470743Y-102271169D01*
X226392722Y-102459527D01*
X226352948Y-102659486D01*
X214274000Y-102659486D01*
X214274000Y-95656000D01*
X233966419Y-95656000D01*
X233999407Y-95652751D01*
X234012591Y-95652751D01*
X234021756Y-95651788D01*
X234218808Y-95629685D01*
X234260341Y-95620856D01*
X234357477Y-95717992D01*
X234509715Y-95819714D01*
X234678874Y-95889782D01*
X234858452Y-95925503D01*
X235041548Y-95925503D01*
X235221126Y-95889782D01*
X235331000Y-95844271D01*
X235440874Y-95889782D01*
X235620452Y-95925503D01*
X235803548Y-95925503D01*
X235983126Y-95889782D01*
X236093000Y-95844271D01*
X236202874Y-95889782D01*
X236382452Y-95925503D01*
X236565548Y-95925503D01*
X236745126Y-95889782D01*
X236855000Y-95844271D01*
X236964874Y-95889782D01*
X237144452Y-95925503D01*
X237327548Y-95925503D01*
X237507126Y-95889782D01*
X237676285Y-95819714D01*
X237828523Y-95717992D01*
X237925742Y-95620773D01*
X237981087Y-95632537D01*
G37*
G04 #@! TD.AperFunction*
M02*
