M48
INCH,TZ
T1C0.0118
T2C0.0157
T3C0.0236
T4C0.0335
T5C0.0394
T6C0.0591
T7C0.0780
%
G90
G05
T1
X79244Y-29632
X79244Y-30144
X79244Y-30656
X79244Y-31168
X79756Y-29632
X79756Y-30144
X79756Y-30656
X79756Y-31168
T2
X79100Y-27100
X81000Y-24746
X81500Y-37750
X81826Y-36409
X83900Y-30100
X84300Y-33000
X84309Y-33902
X84703Y-33900
X84800Y-32200
X85450Y-27200
X86900Y-36200
X87250Y-27750
X87500Y-29000
X87509Y-34511
X87800Y-28100
X88161Y-34737
X89523Y-40457
X89869Y-40645
X90000Y-28600
X90169Y-40900
X91300Y-39500
X91530Y-39820
X92000Y-28600
X92000Y-31000
X92024Y-26424
X93086Y-27158
X93400Y-32600
X93453Y-34053
X93500Y-30000
X93500Y-35370
X93750Y-25200
X94000Y-28600
X94000Y-34000
X94400Y-26400
X94400Y-34000
X95109Y-36045
X95250Y-25700
X95585Y-33685
X95800Y-27200
X96037Y-24923
X96315Y-35448
X96446Y-24746
T4
X78354Y-40781
X78354Y-41332
X78354Y-41883
X78354Y-42435
T5
X78300Y-25300
X79300Y-25300
X85800Y-29500
X85800Y-30500
X85800Y-31500
X85800Y-32500
X85800Y-33500
X86800Y-29500
X86800Y-30500
X86800Y-31500
X86800Y-32500
X86800Y-33500
X92400Y-38700
X92400Y-39700
X92400Y-40700
X92400Y-41700
X92400Y-42700
X93400Y-38700
X93400Y-39700
X93400Y-40700
X93400Y-41700
X93400Y-42700
T6
X81776Y-25250
X81776Y-26431
X83351Y-25250
X83351Y-26431
X84926Y-25250
X84926Y-26431
X86501Y-25250
X86501Y-26431
X88076Y-25250
X88076Y-26431
X89650Y-25250
X89650Y-26431
X91225Y-25250
X91225Y-26431
X92800Y-25250
X92800Y-26431
T7
X79700Y-40600
X79700Y-42734
X81094Y-40600
X81094Y-42734
T3
G00X78932Y-35549
M15
G01X78421Y-35549
M16
G05
G00X78932Y-38951
M15
G01X78421Y-38951
M16
G05
G00X80379Y-35549
M15
G01X79986Y-35549
M16
G05
G00X80379Y-38951
M15
G01X79986Y-38951
M16
G05
T0
M30
