G04 #@! TF.GenerationSoftware,KiCad,Pcbnew,5.1.9*
G04 #@! TF.CreationDate,2021-03-15T09:56:04+01:00*
G04 #@! TF.ProjectId,obd32,6f626433-322e-46b6-9963-61645f706362,rev?*
G04 #@! TF.SameCoordinates,Original*
G04 #@! TF.FileFunction,Paste,Top*
G04 #@! TF.FilePolarity,Positive*
%FSLAX46Y46*%
G04 Gerber Fmt 4.6, Leading zero omitted, Abs format (unit mm)*
G04 Created by KiCad (PCBNEW 5.1.9) date 2021-03-15 09:56:04*
%MOMM*%
%LPD*%
G01*
G04 APERTURE LIST*
%ADD10R,2.000000X1.000000*%
%ADD11R,1.000000X0.270000*%
%ADD12R,1.000000X0.520000*%
%ADD13R,0.254000X0.279400*%
%ADD14R,0.279400X0.254000*%
%ADD15R,1.041400X1.092200*%
%ADD16R,1.041400X2.260600*%
%ADD17R,1.900000X1.300000*%
%ADD18R,2.800000X1.000000*%
%ADD19R,0.800000X1.000000*%
%ADD20R,1.200000X1.000000*%
%ADD21R,1.200000X0.700000*%
%ADD22C,0.100000*%
%ADD23R,0.900000X1.300000*%
%ADD24R,0.900000X2.000000*%
%ADD25R,2.000000X0.900000*%
%ADD26R,5.000000X5.000000*%
%ADD27R,1.700000X0.900000*%
%ADD28R,1.400000X1.000000*%
%ADD29R,1.400000X1.200000*%
%ADD30R,1.800000X2.500000*%
%ADD31R,2.600000X3.100000*%
%ADD32R,1.550000X0.600000*%
%ADD33R,0.650000X0.400000*%
%ADD34R,2.650000X2.750000*%
%ADD35R,0.800000X0.300000*%
%ADD36R,0.300000X0.800000*%
%ADD37R,0.600000X1.000000*%
%ADD38R,0.650000X0.350000*%
G04 APERTURE END LIST*
D10*
X199838500Y-93215000D03*
X199838500Y-96015000D03*
D11*
X204038500Y-94365000D03*
X204038500Y-96365000D03*
X204038500Y-95865000D03*
X204038500Y-95365000D03*
X204038500Y-94865000D03*
X204038500Y-93865000D03*
X204038500Y-93365000D03*
X204038500Y-92865000D03*
D12*
X204038500Y-97715000D03*
X204038500Y-96965000D03*
X204038500Y-92265000D03*
X204038500Y-91515000D03*
X204038500Y-91515000D03*
X204038500Y-92265000D03*
X204038500Y-96965000D03*
X204038500Y-97715000D03*
G36*
G01*
X206560000Y-79770000D02*
X206190000Y-79770000D01*
G75*
G02*
X206055000Y-79635000I0J135000D01*
G01*
X206055000Y-79365000D01*
G75*
G02*
X206190000Y-79230000I135000J0D01*
G01*
X206560000Y-79230000D01*
G75*
G02*
X206695000Y-79365000I0J-135000D01*
G01*
X206695000Y-79635000D01*
G75*
G02*
X206560000Y-79770000I-135000J0D01*
G01*
G37*
G36*
G01*
X206560000Y-80790000D02*
X206190000Y-80790000D01*
G75*
G02*
X206055000Y-80655000I0J135000D01*
G01*
X206055000Y-80385000D01*
G75*
G02*
X206190000Y-80250000I135000J0D01*
G01*
X206560000Y-80250000D01*
G75*
G02*
X206695000Y-80385000I0J-135000D01*
G01*
X206695000Y-80655000D01*
G75*
G02*
X206560000Y-80790000I-135000J0D01*
G01*
G37*
G36*
G01*
X241115000Y-97395000D02*
X241485000Y-97395000D01*
G75*
G02*
X241620000Y-97530000I0J-135000D01*
G01*
X241620000Y-97800000D01*
G75*
G02*
X241485000Y-97935000I-135000J0D01*
G01*
X241115000Y-97935000D01*
G75*
G02*
X240980000Y-97800000I0J135000D01*
G01*
X240980000Y-97530000D01*
G75*
G02*
X241115000Y-97395000I135000J0D01*
G01*
G37*
G36*
G01*
X241115000Y-96375000D02*
X241485000Y-96375000D01*
G75*
G02*
X241620000Y-96510000I0J-135000D01*
G01*
X241620000Y-96780000D01*
G75*
G02*
X241485000Y-96915000I-135000J0D01*
G01*
X241115000Y-96915000D01*
G75*
G02*
X240980000Y-96780000I0J135000D01*
G01*
X240980000Y-96510000D01*
G75*
G02*
X241115000Y-96375000I135000J0D01*
G01*
G37*
G36*
G01*
X215025000Y-68903000D02*
X215025000Y-69273000D01*
G75*
G02*
X214890000Y-69408000I-135000J0D01*
G01*
X214620000Y-69408000D01*
G75*
G02*
X214485000Y-69273000I0J135000D01*
G01*
X214485000Y-68903000D01*
G75*
G02*
X214620000Y-68768000I135000J0D01*
G01*
X214890000Y-68768000D01*
G75*
G02*
X215025000Y-68903000I0J-135000D01*
G01*
G37*
G36*
G01*
X216045000Y-68903000D02*
X216045000Y-69273000D01*
G75*
G02*
X215910000Y-69408000I-135000J0D01*
G01*
X215640000Y-69408000D01*
G75*
G02*
X215505000Y-69273000I0J135000D01*
G01*
X215505000Y-68903000D01*
G75*
G02*
X215640000Y-68768000I135000J0D01*
G01*
X215910000Y-68768000D01*
G75*
G02*
X216045000Y-68903000I0J-135000D01*
G01*
G37*
G36*
G01*
X205555000Y-96760000D02*
X205925000Y-96760000D01*
G75*
G02*
X206060000Y-96895000I0J-135000D01*
G01*
X206060000Y-97165000D01*
G75*
G02*
X205925000Y-97300000I-135000J0D01*
G01*
X205555000Y-97300000D01*
G75*
G02*
X205420000Y-97165000I0J135000D01*
G01*
X205420000Y-96895000D01*
G75*
G02*
X205555000Y-96760000I135000J0D01*
G01*
G37*
G36*
G01*
X205555000Y-95740000D02*
X205925000Y-95740000D01*
G75*
G02*
X206060000Y-95875000I0J-135000D01*
G01*
X206060000Y-96145000D01*
G75*
G02*
X205925000Y-96280000I-135000J0D01*
G01*
X205555000Y-96280000D01*
G75*
G02*
X205420000Y-96145000I0J135000D01*
G01*
X205420000Y-95875000D01*
G75*
G02*
X205555000Y-95740000I135000J0D01*
G01*
G37*
G36*
G01*
X205555000Y-92315000D02*
X205925000Y-92315000D01*
G75*
G02*
X206060000Y-92450000I0J-135000D01*
G01*
X206060000Y-92720000D01*
G75*
G02*
X205925000Y-92855000I-135000J0D01*
G01*
X205555000Y-92855000D01*
G75*
G02*
X205420000Y-92720000I0J135000D01*
G01*
X205420000Y-92450000D01*
G75*
G02*
X205555000Y-92315000I135000J0D01*
G01*
G37*
G36*
G01*
X205555000Y-91295000D02*
X205925000Y-91295000D01*
G75*
G02*
X206060000Y-91430000I0J-135000D01*
G01*
X206060000Y-91700000D01*
G75*
G02*
X205925000Y-91835000I-135000J0D01*
G01*
X205555000Y-91835000D01*
G75*
G02*
X205420000Y-91700000I0J135000D01*
G01*
X205420000Y-91430000D01*
G75*
G02*
X205555000Y-91295000I135000J0D01*
G01*
G37*
G36*
G01*
X211270000Y-89140000D02*
X211640000Y-89140000D01*
G75*
G02*
X211775000Y-89275000I0J-135000D01*
G01*
X211775000Y-89545000D01*
G75*
G02*
X211640000Y-89680000I-135000J0D01*
G01*
X211270000Y-89680000D01*
G75*
G02*
X211135000Y-89545000I0J135000D01*
G01*
X211135000Y-89275000D01*
G75*
G02*
X211270000Y-89140000I135000J0D01*
G01*
G37*
G36*
G01*
X211270000Y-88120000D02*
X211640000Y-88120000D01*
G75*
G02*
X211775000Y-88255000I0J-135000D01*
G01*
X211775000Y-88525000D01*
G75*
G02*
X211640000Y-88660000I-135000J0D01*
G01*
X211270000Y-88660000D01*
G75*
G02*
X211135000Y-88525000I0J135000D01*
G01*
X211135000Y-88255000D01*
G75*
G02*
X211270000Y-88120000I135000J0D01*
G01*
G37*
G36*
G01*
X206560000Y-73420000D02*
X206190000Y-73420000D01*
G75*
G02*
X206055000Y-73285000I0J135000D01*
G01*
X206055000Y-73015000D01*
G75*
G02*
X206190000Y-72880000I135000J0D01*
G01*
X206560000Y-72880000D01*
G75*
G02*
X206695000Y-73015000I0J-135000D01*
G01*
X206695000Y-73285000D01*
G75*
G02*
X206560000Y-73420000I-135000J0D01*
G01*
G37*
G36*
G01*
X206560000Y-74440000D02*
X206190000Y-74440000D01*
G75*
G02*
X206055000Y-74305000I0J135000D01*
G01*
X206055000Y-74035000D01*
G75*
G02*
X206190000Y-73900000I135000J0D01*
G01*
X206560000Y-73900000D01*
G75*
G02*
X206695000Y-74035000I0J-135000D01*
G01*
X206695000Y-74305000D01*
G75*
G02*
X206560000Y-74440000I-135000J0D01*
G01*
G37*
G36*
G01*
X201150000Y-70035000D02*
X201150000Y-69665000D01*
G75*
G02*
X201285000Y-69530000I135000J0D01*
G01*
X201555000Y-69530000D01*
G75*
G02*
X201690000Y-69665000I0J-135000D01*
G01*
X201690000Y-70035000D01*
G75*
G02*
X201555000Y-70170000I-135000J0D01*
G01*
X201285000Y-70170000D01*
G75*
G02*
X201150000Y-70035000I0J135000D01*
G01*
G37*
G36*
G01*
X202170000Y-70035000D02*
X202170000Y-69665000D01*
G75*
G02*
X202305000Y-69530000I135000J0D01*
G01*
X202575000Y-69530000D01*
G75*
G02*
X202710000Y-69665000I0J-135000D01*
G01*
X202710000Y-70035000D01*
G75*
G02*
X202575000Y-70170000I-135000J0D01*
G01*
X202305000Y-70170000D01*
G75*
G02*
X202170000Y-70035000I0J135000D01*
G01*
G37*
G36*
G01*
X199245000Y-70035000D02*
X199245000Y-69665000D01*
G75*
G02*
X199380000Y-69530000I135000J0D01*
G01*
X199650000Y-69530000D01*
G75*
G02*
X199785000Y-69665000I0J-135000D01*
G01*
X199785000Y-70035000D01*
G75*
G02*
X199650000Y-70170000I-135000J0D01*
G01*
X199380000Y-70170000D01*
G75*
G02*
X199245000Y-70035000I0J135000D01*
G01*
G37*
G36*
G01*
X200265000Y-70035000D02*
X200265000Y-69665000D01*
G75*
G02*
X200400000Y-69530000I135000J0D01*
G01*
X200670000Y-69530000D01*
G75*
G02*
X200805000Y-69665000I0J-135000D01*
G01*
X200805000Y-70035000D01*
G75*
G02*
X200670000Y-70170000I-135000J0D01*
G01*
X200400000Y-70170000D01*
G75*
G02*
X200265000Y-70035000I0J135000D01*
G01*
G37*
G36*
G01*
X197427000Y-80250000D02*
X197797000Y-80250000D01*
G75*
G02*
X197932000Y-80385000I0J-135000D01*
G01*
X197932000Y-80655000D01*
G75*
G02*
X197797000Y-80790000I-135000J0D01*
G01*
X197427000Y-80790000D01*
G75*
G02*
X197292000Y-80655000I0J135000D01*
G01*
X197292000Y-80385000D01*
G75*
G02*
X197427000Y-80250000I135000J0D01*
G01*
G37*
G36*
G01*
X197427000Y-79230000D02*
X197797000Y-79230000D01*
G75*
G02*
X197932000Y-79365000I0J-135000D01*
G01*
X197932000Y-79635000D01*
G75*
G02*
X197797000Y-79770000I-135000J0D01*
G01*
X197427000Y-79770000D01*
G75*
G02*
X197292000Y-79635000I0J135000D01*
G01*
X197292000Y-79365000D01*
G75*
G02*
X197427000Y-79230000I135000J0D01*
G01*
G37*
G36*
G01*
X197427000Y-78345000D02*
X197797000Y-78345000D01*
G75*
G02*
X197932000Y-78480000I0J-135000D01*
G01*
X197932000Y-78750000D01*
G75*
G02*
X197797000Y-78885000I-135000J0D01*
G01*
X197427000Y-78885000D01*
G75*
G02*
X197292000Y-78750000I0J135000D01*
G01*
X197292000Y-78480000D01*
G75*
G02*
X197427000Y-78345000I135000J0D01*
G01*
G37*
G36*
G01*
X197427000Y-77325000D02*
X197797000Y-77325000D01*
G75*
G02*
X197932000Y-77460000I0J-135000D01*
G01*
X197932000Y-77730000D01*
G75*
G02*
X197797000Y-77865000I-135000J0D01*
G01*
X197427000Y-77865000D01*
G75*
G02*
X197292000Y-77730000I0J135000D01*
G01*
X197292000Y-77460000D01*
G75*
G02*
X197427000Y-77325000I135000J0D01*
G01*
G37*
G36*
G01*
X197797000Y-75960000D02*
X197427000Y-75960000D01*
G75*
G02*
X197292000Y-75825000I0J135000D01*
G01*
X197292000Y-75555000D01*
G75*
G02*
X197427000Y-75420000I135000J0D01*
G01*
X197797000Y-75420000D01*
G75*
G02*
X197932000Y-75555000I0J-135000D01*
G01*
X197932000Y-75825000D01*
G75*
G02*
X197797000Y-75960000I-135000J0D01*
G01*
G37*
G36*
G01*
X197797000Y-76980000D02*
X197427000Y-76980000D01*
G75*
G02*
X197292000Y-76845000I0J135000D01*
G01*
X197292000Y-76575000D01*
G75*
G02*
X197427000Y-76440000I135000J0D01*
G01*
X197797000Y-76440000D01*
G75*
G02*
X197932000Y-76575000I0J-135000D01*
G01*
X197932000Y-76845000D01*
G75*
G02*
X197797000Y-76980000I-135000J0D01*
G01*
G37*
G36*
G01*
X229630000Y-89985000D02*
X229630000Y-90355000D01*
G75*
G02*
X229495000Y-90490000I-135000J0D01*
G01*
X229225000Y-90490000D01*
G75*
G02*
X229090000Y-90355000I0J135000D01*
G01*
X229090000Y-89985000D01*
G75*
G02*
X229225000Y-89850000I135000J0D01*
G01*
X229495000Y-89850000D01*
G75*
G02*
X229630000Y-89985000I0J-135000D01*
G01*
G37*
G36*
G01*
X230650000Y-89985000D02*
X230650000Y-90355000D01*
G75*
G02*
X230515000Y-90490000I-135000J0D01*
G01*
X230245000Y-90490000D01*
G75*
G02*
X230110000Y-90355000I0J135000D01*
G01*
X230110000Y-89985000D01*
G75*
G02*
X230245000Y-89850000I135000J0D01*
G01*
X230515000Y-89850000D01*
G75*
G02*
X230650000Y-89985000I0J-135000D01*
G01*
G37*
G36*
G01*
X227598000Y-89985000D02*
X227598000Y-90355000D01*
G75*
G02*
X227463000Y-90490000I-135000J0D01*
G01*
X227193000Y-90490000D01*
G75*
G02*
X227058000Y-90355000I0J135000D01*
G01*
X227058000Y-89985000D01*
G75*
G02*
X227193000Y-89850000I135000J0D01*
G01*
X227463000Y-89850000D01*
G75*
G02*
X227598000Y-89985000I0J-135000D01*
G01*
G37*
G36*
G01*
X228618000Y-89985000D02*
X228618000Y-90355000D01*
G75*
G02*
X228483000Y-90490000I-135000J0D01*
G01*
X228213000Y-90490000D01*
G75*
G02*
X228078000Y-90355000I0J135000D01*
G01*
X228078000Y-89985000D01*
G75*
G02*
X228213000Y-89850000I135000J0D01*
G01*
X228483000Y-89850000D01*
G75*
G02*
X228618000Y-89985000I0J-135000D01*
G01*
G37*
G36*
G01*
X225185000Y-89985000D02*
X225185000Y-90355000D01*
G75*
G02*
X225050000Y-90490000I-135000J0D01*
G01*
X224780000Y-90490000D01*
G75*
G02*
X224645000Y-90355000I0J135000D01*
G01*
X224645000Y-89985000D01*
G75*
G02*
X224780000Y-89850000I135000J0D01*
G01*
X225050000Y-89850000D01*
G75*
G02*
X225185000Y-89985000I0J-135000D01*
G01*
G37*
G36*
G01*
X226205000Y-89985000D02*
X226205000Y-90355000D01*
G75*
G02*
X226070000Y-90490000I-135000J0D01*
G01*
X225800000Y-90490000D01*
G75*
G02*
X225665000Y-90355000I0J135000D01*
G01*
X225665000Y-89985000D01*
G75*
G02*
X225800000Y-89850000I135000J0D01*
G01*
X226070000Y-89850000D01*
G75*
G02*
X226205000Y-89985000I0J-135000D01*
G01*
G37*
G36*
G01*
X245096000Y-68003000D02*
X245096000Y-67633000D01*
G75*
G02*
X245231000Y-67498000I135000J0D01*
G01*
X245501000Y-67498000D01*
G75*
G02*
X245636000Y-67633000I0J-135000D01*
G01*
X245636000Y-68003000D01*
G75*
G02*
X245501000Y-68138000I-135000J0D01*
G01*
X245231000Y-68138000D01*
G75*
G02*
X245096000Y-68003000I0J135000D01*
G01*
G37*
G36*
G01*
X244076000Y-68003000D02*
X244076000Y-67633000D01*
G75*
G02*
X244211000Y-67498000I135000J0D01*
G01*
X244481000Y-67498000D01*
G75*
G02*
X244616000Y-67633000I0J-135000D01*
G01*
X244616000Y-68003000D01*
G75*
G02*
X244481000Y-68138000I-135000J0D01*
G01*
X244211000Y-68138000D01*
G75*
G02*
X244076000Y-68003000I0J135000D01*
G01*
G37*
G36*
G01*
X240215000Y-90504000D02*
X239845000Y-90504000D01*
G75*
G02*
X239710000Y-90369000I0J135000D01*
G01*
X239710000Y-90099000D01*
G75*
G02*
X239845000Y-89964000I135000J0D01*
G01*
X240215000Y-89964000D01*
G75*
G02*
X240350000Y-90099000I0J-135000D01*
G01*
X240350000Y-90369000D01*
G75*
G02*
X240215000Y-90504000I-135000J0D01*
G01*
G37*
G36*
G01*
X240215000Y-91524000D02*
X239845000Y-91524000D01*
G75*
G02*
X239710000Y-91389000I0J135000D01*
G01*
X239710000Y-91119000D01*
G75*
G02*
X239845000Y-90984000I135000J0D01*
G01*
X240215000Y-90984000D01*
G75*
G02*
X240350000Y-91119000I0J-135000D01*
G01*
X240350000Y-91389000D01*
G75*
G02*
X240215000Y-91524000I-135000J0D01*
G01*
G37*
G36*
G01*
X238575000Y-90984000D02*
X238945000Y-90984000D01*
G75*
G02*
X239080000Y-91119000I0J-135000D01*
G01*
X239080000Y-91389000D01*
G75*
G02*
X238945000Y-91524000I-135000J0D01*
G01*
X238575000Y-91524000D01*
G75*
G02*
X238440000Y-91389000I0J135000D01*
G01*
X238440000Y-91119000D01*
G75*
G02*
X238575000Y-90984000I135000J0D01*
G01*
G37*
G36*
G01*
X238575000Y-89964000D02*
X238945000Y-89964000D01*
G75*
G02*
X239080000Y-90099000I0J-135000D01*
G01*
X239080000Y-90369000D01*
G75*
G02*
X238945000Y-90504000I-135000J0D01*
G01*
X238575000Y-90504000D01*
G75*
G02*
X238440000Y-90369000I0J135000D01*
G01*
X238440000Y-90099000D01*
G75*
G02*
X238575000Y-89964000I135000J0D01*
G01*
G37*
G36*
G01*
X243640000Y-88730000D02*
X243640000Y-89070000D01*
G75*
G02*
X243500000Y-89210000I-140000J0D01*
G01*
X243220000Y-89210000D01*
G75*
G02*
X243080000Y-89070000I0J140000D01*
G01*
X243080000Y-88730000D01*
G75*
G02*
X243220000Y-88590000I140000J0D01*
G01*
X243500000Y-88590000D01*
G75*
G02*
X243640000Y-88730000I0J-140000D01*
G01*
G37*
G36*
G01*
X244600000Y-88730000D02*
X244600000Y-89070000D01*
G75*
G02*
X244460000Y-89210000I-140000J0D01*
G01*
X244180000Y-89210000D01*
G75*
G02*
X244040000Y-89070000I0J140000D01*
G01*
X244040000Y-88730000D01*
G75*
G02*
X244180000Y-88590000I140000J0D01*
G01*
X244460000Y-88590000D01*
G75*
G02*
X244600000Y-88730000I0J-140000D01*
G01*
G37*
G36*
G01*
X210355000Y-99114000D02*
X210015000Y-99114000D01*
G75*
G02*
X209875000Y-98974000I0J140000D01*
G01*
X209875000Y-98694000D01*
G75*
G02*
X210015000Y-98554000I140000J0D01*
G01*
X210355000Y-98554000D01*
G75*
G02*
X210495000Y-98694000I0J-140000D01*
G01*
X210495000Y-98974000D01*
G75*
G02*
X210355000Y-99114000I-140000J0D01*
G01*
G37*
G36*
G01*
X210355000Y-100074000D02*
X210015000Y-100074000D01*
G75*
G02*
X209875000Y-99934000I0J140000D01*
G01*
X209875000Y-99654000D01*
G75*
G02*
X210015000Y-99514000I140000J0D01*
G01*
X210355000Y-99514000D01*
G75*
G02*
X210495000Y-99654000I0J-140000D01*
G01*
X210495000Y-99934000D01*
G75*
G02*
X210355000Y-100074000I-140000J0D01*
G01*
G37*
G36*
G01*
X220810000Y-71320000D02*
X221150000Y-71320000D01*
G75*
G02*
X221290000Y-71460000I0J-140000D01*
G01*
X221290000Y-71740000D01*
G75*
G02*
X221150000Y-71880000I-140000J0D01*
G01*
X220810000Y-71880000D01*
G75*
G02*
X220670000Y-71740000I0J140000D01*
G01*
X220670000Y-71460000D01*
G75*
G02*
X220810000Y-71320000I140000J0D01*
G01*
G37*
G36*
G01*
X220810000Y-70360000D02*
X221150000Y-70360000D01*
G75*
G02*
X221290000Y-70500000I0J-140000D01*
G01*
X221290000Y-70780000D01*
G75*
G02*
X221150000Y-70920000I-140000J0D01*
G01*
X220810000Y-70920000D01*
G75*
G02*
X220670000Y-70780000I0J140000D01*
G01*
X220670000Y-70500000D01*
G75*
G02*
X220810000Y-70360000I140000J0D01*
G01*
G37*
G36*
G01*
X209115000Y-97325000D02*
X209115000Y-96985000D01*
G75*
G02*
X209255000Y-96845000I140000J0D01*
G01*
X209535000Y-96845000D01*
G75*
G02*
X209675000Y-96985000I0J-140000D01*
G01*
X209675000Y-97325000D01*
G75*
G02*
X209535000Y-97465000I-140000J0D01*
G01*
X209255000Y-97465000D01*
G75*
G02*
X209115000Y-97325000I0J140000D01*
G01*
G37*
G36*
G01*
X208155000Y-97325000D02*
X208155000Y-96985000D01*
G75*
G02*
X208295000Y-96845000I140000J0D01*
G01*
X208575000Y-96845000D01*
G75*
G02*
X208715000Y-96985000I0J-140000D01*
G01*
X208715000Y-97325000D01*
G75*
G02*
X208575000Y-97465000I-140000J0D01*
G01*
X208295000Y-97465000D01*
G75*
G02*
X208155000Y-97325000I0J140000D01*
G01*
G37*
G36*
G01*
X218240000Y-68918000D02*
X218240000Y-69258000D01*
G75*
G02*
X218100000Y-69398000I-140000J0D01*
G01*
X217820000Y-69398000D01*
G75*
G02*
X217680000Y-69258000I0J140000D01*
G01*
X217680000Y-68918000D01*
G75*
G02*
X217820000Y-68778000I140000J0D01*
G01*
X218100000Y-68778000D01*
G75*
G02*
X218240000Y-68918000I0J-140000D01*
G01*
G37*
G36*
G01*
X219200000Y-68918000D02*
X219200000Y-69258000D01*
G75*
G02*
X219060000Y-69398000I-140000J0D01*
G01*
X218780000Y-69398000D01*
G75*
G02*
X218640000Y-69258000I0J140000D01*
G01*
X218640000Y-68918000D01*
G75*
G02*
X218780000Y-68778000I140000J0D01*
G01*
X219060000Y-68778000D01*
G75*
G02*
X219200000Y-68918000I0J-140000D01*
G01*
G37*
G36*
G01*
X245280000Y-90732000D02*
X244940000Y-90732000D01*
G75*
G02*
X244800000Y-90592000I0J140000D01*
G01*
X244800000Y-90312000D01*
G75*
G02*
X244940000Y-90172000I140000J0D01*
G01*
X245280000Y-90172000D01*
G75*
G02*
X245420000Y-90312000I0J-140000D01*
G01*
X245420000Y-90592000D01*
G75*
G02*
X245280000Y-90732000I-140000J0D01*
G01*
G37*
G36*
G01*
X245280000Y-91692000D02*
X244940000Y-91692000D01*
G75*
G02*
X244800000Y-91552000I0J140000D01*
G01*
X244800000Y-91272000D01*
G75*
G02*
X244940000Y-91132000I140000J0D01*
G01*
X245280000Y-91132000D01*
G75*
G02*
X245420000Y-91272000I0J-140000D01*
G01*
X245420000Y-91552000D01*
G75*
G02*
X245280000Y-91692000I-140000J0D01*
G01*
G37*
G36*
G01*
X245534000Y-66094000D02*
X245194000Y-66094000D01*
G75*
G02*
X245054000Y-65954000I0J140000D01*
G01*
X245054000Y-65674000D01*
G75*
G02*
X245194000Y-65534000I140000J0D01*
G01*
X245534000Y-65534000D01*
G75*
G02*
X245674000Y-65674000I0J-140000D01*
G01*
X245674000Y-65954000D01*
G75*
G02*
X245534000Y-66094000I-140000J0D01*
G01*
G37*
G36*
G01*
X245534000Y-67054000D02*
X245194000Y-67054000D01*
G75*
G02*
X245054000Y-66914000I0J140000D01*
G01*
X245054000Y-66634000D01*
G75*
G02*
X245194000Y-66494000I140000J0D01*
G01*
X245534000Y-66494000D01*
G75*
G02*
X245674000Y-66634000I0J-140000D01*
G01*
X245674000Y-66914000D01*
G75*
G02*
X245534000Y-67054000I-140000J0D01*
G01*
G37*
G36*
G01*
X238590000Y-65478000D02*
X238930000Y-65478000D01*
G75*
G02*
X239070000Y-65618000I0J-140000D01*
G01*
X239070000Y-65898000D01*
G75*
G02*
X238930000Y-66038000I-140000J0D01*
G01*
X238590000Y-66038000D01*
G75*
G02*
X238450000Y-65898000I0J140000D01*
G01*
X238450000Y-65618000D01*
G75*
G02*
X238590000Y-65478000I140000J0D01*
G01*
G37*
G36*
G01*
X238590000Y-64518000D02*
X238930000Y-64518000D01*
G75*
G02*
X239070000Y-64658000I0J-140000D01*
G01*
X239070000Y-64938000D01*
G75*
G02*
X238930000Y-65078000I-140000J0D01*
G01*
X238590000Y-65078000D01*
G75*
G02*
X238450000Y-64938000I0J140000D01*
G01*
X238450000Y-64658000D01*
G75*
G02*
X238590000Y-64518000I140000J0D01*
G01*
G37*
G36*
G01*
X245194000Y-64462000D02*
X245534000Y-64462000D01*
G75*
G02*
X245674000Y-64602000I0J-140000D01*
G01*
X245674000Y-64882000D01*
G75*
G02*
X245534000Y-65022000I-140000J0D01*
G01*
X245194000Y-65022000D01*
G75*
G02*
X245054000Y-64882000I0J140000D01*
G01*
X245054000Y-64602000D01*
G75*
G02*
X245194000Y-64462000I140000J0D01*
G01*
G37*
G36*
G01*
X245194000Y-63502000D02*
X245534000Y-63502000D01*
G75*
G02*
X245674000Y-63642000I0J-140000D01*
G01*
X245674000Y-63922000D01*
G75*
G02*
X245534000Y-64062000I-140000J0D01*
G01*
X245194000Y-64062000D01*
G75*
G02*
X245054000Y-63922000I0J140000D01*
G01*
X245054000Y-63642000D01*
G75*
G02*
X245194000Y-63502000I140000J0D01*
G01*
G37*
G36*
G01*
X210355000Y-86795000D02*
X210015000Y-86795000D01*
G75*
G02*
X209875000Y-86655000I0J140000D01*
G01*
X209875000Y-86375000D01*
G75*
G02*
X210015000Y-86235000I140000J0D01*
G01*
X210355000Y-86235000D01*
G75*
G02*
X210495000Y-86375000I0J-140000D01*
G01*
X210495000Y-86655000D01*
G75*
G02*
X210355000Y-86795000I-140000J0D01*
G01*
G37*
G36*
G01*
X210355000Y-87755000D02*
X210015000Y-87755000D01*
G75*
G02*
X209875000Y-87615000I0J140000D01*
G01*
X209875000Y-87335000D01*
G75*
G02*
X210015000Y-87195000I140000J0D01*
G01*
X210355000Y-87195000D01*
G75*
G02*
X210495000Y-87335000I0J-140000D01*
G01*
X210495000Y-87615000D01*
G75*
G02*
X210355000Y-87755000I-140000J0D01*
G01*
G37*
G36*
G01*
X240992000Y-69512000D02*
X240992000Y-69172000D01*
G75*
G02*
X241132000Y-69032000I140000J0D01*
G01*
X241412000Y-69032000D01*
G75*
G02*
X241552000Y-69172000I0J-140000D01*
G01*
X241552000Y-69512000D01*
G75*
G02*
X241412000Y-69652000I-140000J0D01*
G01*
X241132000Y-69652000D01*
G75*
G02*
X240992000Y-69512000I0J140000D01*
G01*
G37*
G36*
G01*
X240032000Y-69512000D02*
X240032000Y-69172000D01*
G75*
G02*
X240172000Y-69032000I140000J0D01*
G01*
X240452000Y-69032000D01*
G75*
G02*
X240592000Y-69172000I0J-140000D01*
G01*
X240592000Y-69512000D01*
G75*
G02*
X240452000Y-69652000I-140000J0D01*
G01*
X240172000Y-69652000D01*
G75*
G02*
X240032000Y-69512000I0J140000D01*
G01*
G37*
G36*
G01*
X211625000Y-86795000D02*
X211285000Y-86795000D01*
G75*
G02*
X211145000Y-86655000I0J140000D01*
G01*
X211145000Y-86375000D01*
G75*
G02*
X211285000Y-86235000I140000J0D01*
G01*
X211625000Y-86235000D01*
G75*
G02*
X211765000Y-86375000I0J-140000D01*
G01*
X211765000Y-86655000D01*
G75*
G02*
X211625000Y-86795000I-140000J0D01*
G01*
G37*
G36*
G01*
X211625000Y-87755000D02*
X211285000Y-87755000D01*
G75*
G02*
X211145000Y-87615000I0J140000D01*
G01*
X211145000Y-87335000D01*
G75*
G02*
X211285000Y-87195000I140000J0D01*
G01*
X211625000Y-87195000D01*
G75*
G02*
X211765000Y-87335000I0J-140000D01*
G01*
X211765000Y-87615000D01*
G75*
G02*
X211625000Y-87755000I-140000J0D01*
G01*
G37*
G36*
G01*
X244656000Y-68664000D02*
X244656000Y-69004000D01*
G75*
G02*
X244516000Y-69144000I-140000J0D01*
G01*
X244236000Y-69144000D01*
G75*
G02*
X244096000Y-69004000I0J140000D01*
G01*
X244096000Y-68664000D01*
G75*
G02*
X244236000Y-68524000I140000J0D01*
G01*
X244516000Y-68524000D01*
G75*
G02*
X244656000Y-68664000I0J-140000D01*
G01*
G37*
G36*
G01*
X245616000Y-68664000D02*
X245616000Y-69004000D01*
G75*
G02*
X245476000Y-69144000I-140000J0D01*
G01*
X245196000Y-69144000D01*
G75*
G02*
X245056000Y-69004000I0J140000D01*
G01*
X245056000Y-68664000D01*
G75*
G02*
X245196000Y-68524000I140000J0D01*
G01*
X245476000Y-68524000D01*
G75*
G02*
X245616000Y-68664000I0J-140000D01*
G01*
G37*
D13*
X242828000Y-90424000D03*
X243328000Y-90424000D03*
D14*
X243840000Y-90686001D03*
X243840000Y-91186000D03*
X243840000Y-91685999D03*
D13*
X243328000Y-91948000D03*
X242828000Y-91948000D03*
D14*
X242316000Y-91685999D03*
X242316000Y-91186000D03*
X242316000Y-90686001D03*
D15*
X247957500Y-98370000D03*
D16*
X249428000Y-96774000D03*
X246487000Y-96774000D03*
G36*
G01*
X240377000Y-101306000D02*
X240027000Y-101306000D01*
G75*
G02*
X239852000Y-101131000I0J175000D01*
G01*
X239852000Y-99681000D01*
G75*
G02*
X240027000Y-99506000I175000J0D01*
G01*
X240377000Y-99506000D01*
G75*
G02*
X240552000Y-99681000I0J-175000D01*
G01*
X240552000Y-101131000D01*
G75*
G02*
X240377000Y-101306000I-175000J0D01*
G01*
G37*
G36*
G01*
X241502000Y-101306000D02*
X241102000Y-101306000D01*
G75*
G02*
X240902000Y-101106000I0J200000D01*
G01*
X240902000Y-99706000D01*
G75*
G02*
X241102000Y-99506000I200000J0D01*
G01*
X241502000Y-99506000D01*
G75*
G02*
X241702000Y-99706000I0J-200000D01*
G01*
X241702000Y-101106000D01*
G75*
G02*
X241502000Y-101306000I-200000J0D01*
G01*
G37*
G36*
G01*
X242602000Y-101306000D02*
X242202000Y-101306000D01*
G75*
G02*
X242002000Y-101106000I0J200000D01*
G01*
X242002000Y-99706000D01*
G75*
G02*
X242202000Y-99506000I200000J0D01*
G01*
X242602000Y-99506000D01*
G75*
G02*
X242802000Y-99706000I0J-200000D01*
G01*
X242802000Y-101106000D01*
G75*
G02*
X242602000Y-101306000I-200000J0D01*
G01*
G37*
G36*
G01*
X243702000Y-101306000D02*
X243302000Y-101306000D01*
G75*
G02*
X243102000Y-101106000I0J200000D01*
G01*
X243102000Y-99706000D01*
G75*
G02*
X243302000Y-99506000I200000J0D01*
G01*
X243702000Y-99506000D01*
G75*
G02*
X243902000Y-99706000I0J-200000D01*
G01*
X243902000Y-101106000D01*
G75*
G02*
X243702000Y-101306000I-200000J0D01*
G01*
G37*
G36*
G01*
X244802000Y-101306000D02*
X244402000Y-101306000D01*
G75*
G02*
X244202000Y-101106000I0J200000D01*
G01*
X244202000Y-99706000D01*
G75*
G02*
X244402000Y-99506000I200000J0D01*
G01*
X244802000Y-99506000D01*
G75*
G02*
X245002000Y-99706000I0J-200000D01*
G01*
X245002000Y-101106000D01*
G75*
G02*
X244802000Y-101306000I-200000J0D01*
G01*
G37*
G36*
G01*
X245902000Y-101306000D02*
X245502000Y-101306000D01*
G75*
G02*
X245302000Y-101106000I0J200000D01*
G01*
X245302000Y-99706000D01*
G75*
G02*
X245502000Y-99506000I200000J0D01*
G01*
X245902000Y-99506000D01*
G75*
G02*
X246102000Y-99706000I0J-200000D01*
G01*
X246102000Y-101106000D01*
G75*
G02*
X245902000Y-101306000I-200000J0D01*
G01*
G37*
G36*
G01*
X247002000Y-101306000D02*
X246602000Y-101306000D01*
G75*
G02*
X246402000Y-101106000I0J200000D01*
G01*
X246402000Y-99706000D01*
G75*
G02*
X246602000Y-99506000I200000J0D01*
G01*
X247002000Y-99506000D01*
G75*
G02*
X247202000Y-99706000I0J-200000D01*
G01*
X247202000Y-101106000D01*
G75*
G02*
X247002000Y-101306000I-200000J0D01*
G01*
G37*
G36*
G01*
X248102000Y-101306000D02*
X247702000Y-101306000D01*
G75*
G02*
X247502000Y-101106000I0J200000D01*
G01*
X247502000Y-99706000D01*
G75*
G02*
X247702000Y-99506000I200000J0D01*
G01*
X248102000Y-99506000D01*
G75*
G02*
X248302000Y-99706000I0J-200000D01*
G01*
X248302000Y-101106000D01*
G75*
G02*
X248102000Y-101306000I-200000J0D01*
G01*
G37*
G36*
G01*
X249177000Y-101306000D02*
X248827000Y-101306000D01*
G75*
G02*
X248652000Y-101131000I0J175000D01*
G01*
X248652000Y-99681000D01*
G75*
G02*
X248827000Y-99506000I175000J0D01*
G01*
X249177000Y-99506000D01*
G75*
G02*
X249352000Y-99681000I0J-175000D01*
G01*
X249352000Y-101131000D01*
G75*
G02*
X249177000Y-101306000I-175000J0D01*
G01*
G37*
G36*
G01*
X249177000Y-110806000D02*
X248827000Y-110806000D01*
G75*
G02*
X248652000Y-110631000I0J175000D01*
G01*
X248652000Y-109181000D01*
G75*
G02*
X248827000Y-109006000I175000J0D01*
G01*
X249177000Y-109006000D01*
G75*
G02*
X249352000Y-109181000I0J-175000D01*
G01*
X249352000Y-110631000D01*
G75*
G02*
X249177000Y-110806000I-175000J0D01*
G01*
G37*
G36*
G01*
X248102000Y-110806000D02*
X247702000Y-110806000D01*
G75*
G02*
X247502000Y-110606000I0J200000D01*
G01*
X247502000Y-109206000D01*
G75*
G02*
X247702000Y-109006000I200000J0D01*
G01*
X248102000Y-109006000D01*
G75*
G02*
X248302000Y-109206000I0J-200000D01*
G01*
X248302000Y-110606000D01*
G75*
G02*
X248102000Y-110806000I-200000J0D01*
G01*
G37*
G36*
G01*
X247002000Y-110806000D02*
X246602000Y-110806000D01*
G75*
G02*
X246402000Y-110606000I0J200000D01*
G01*
X246402000Y-109206000D01*
G75*
G02*
X246602000Y-109006000I200000J0D01*
G01*
X247002000Y-109006000D01*
G75*
G02*
X247202000Y-109206000I0J-200000D01*
G01*
X247202000Y-110606000D01*
G75*
G02*
X247002000Y-110806000I-200000J0D01*
G01*
G37*
G36*
G01*
X245902000Y-110806000D02*
X245502000Y-110806000D01*
G75*
G02*
X245302000Y-110606000I0J200000D01*
G01*
X245302000Y-109206000D01*
G75*
G02*
X245502000Y-109006000I200000J0D01*
G01*
X245902000Y-109006000D01*
G75*
G02*
X246102000Y-109206000I0J-200000D01*
G01*
X246102000Y-110606000D01*
G75*
G02*
X245902000Y-110806000I-200000J0D01*
G01*
G37*
G36*
G01*
X244802000Y-110806000D02*
X244402000Y-110806000D01*
G75*
G02*
X244202000Y-110606000I0J200000D01*
G01*
X244202000Y-109206000D01*
G75*
G02*
X244402000Y-109006000I200000J0D01*
G01*
X244802000Y-109006000D01*
G75*
G02*
X245002000Y-109206000I0J-200000D01*
G01*
X245002000Y-110606000D01*
G75*
G02*
X244802000Y-110806000I-200000J0D01*
G01*
G37*
G36*
G01*
X243702000Y-110806000D02*
X243302000Y-110806000D01*
G75*
G02*
X243102000Y-110606000I0J200000D01*
G01*
X243102000Y-109206000D01*
G75*
G02*
X243302000Y-109006000I200000J0D01*
G01*
X243702000Y-109006000D01*
G75*
G02*
X243902000Y-109206000I0J-200000D01*
G01*
X243902000Y-110606000D01*
G75*
G02*
X243702000Y-110806000I-200000J0D01*
G01*
G37*
G36*
G01*
X242602000Y-110806000D02*
X242202000Y-110806000D01*
G75*
G02*
X242002000Y-110606000I0J200000D01*
G01*
X242002000Y-109206000D01*
G75*
G02*
X242202000Y-109006000I200000J0D01*
G01*
X242602000Y-109006000D01*
G75*
G02*
X242802000Y-109206000I0J-200000D01*
G01*
X242802000Y-110606000D01*
G75*
G02*
X242602000Y-110806000I-200000J0D01*
G01*
G37*
G36*
G01*
X241502000Y-110806000D02*
X241102000Y-110806000D01*
G75*
G02*
X240902000Y-110606000I0J200000D01*
G01*
X240902000Y-109206000D01*
G75*
G02*
X241102000Y-109006000I200000J0D01*
G01*
X241502000Y-109006000D01*
G75*
G02*
X241702000Y-109206000I0J-200000D01*
G01*
X241702000Y-110606000D01*
G75*
G02*
X241502000Y-110806000I-200000J0D01*
G01*
G37*
G36*
G01*
X240377000Y-110806000D02*
X240027000Y-110806000D01*
G75*
G02*
X239852000Y-110631000I0J175000D01*
G01*
X239852000Y-109181000D01*
G75*
G02*
X240027000Y-109006000I175000J0D01*
G01*
X240377000Y-109006000D01*
G75*
G02*
X240552000Y-109181000I0J-175000D01*
G01*
X240552000Y-110631000D01*
G75*
G02*
X240377000Y-110806000I-175000J0D01*
G01*
G37*
D17*
X215383000Y-110053000D03*
D18*
X215833000Y-96553000D03*
D19*
X219983000Y-96553000D03*
D20*
X226183000Y-96553000D03*
X230483000Y-107703000D03*
D21*
X230483000Y-99553000D03*
X230483000Y-100653000D03*
X230483000Y-101753000D03*
X230483000Y-102853000D03*
X230483000Y-103953000D03*
X230483000Y-105053000D03*
X230483000Y-106153000D03*
X230483000Y-98453000D03*
X230483000Y-97503000D03*
G36*
G01*
X249868000Y-98906500D02*
X249868000Y-98705500D01*
G75*
G02*
X249947500Y-98626000I79500J0D01*
G01*
X250106500Y-98626000D01*
G75*
G02*
X250186000Y-98705500I0J-79500D01*
G01*
X250186000Y-98906500D01*
G75*
G02*
X250106500Y-98986000I-79500J0D01*
G01*
X249947500Y-98986000D01*
G75*
G02*
X249868000Y-98906500I0J79500D01*
G01*
G37*
G36*
G01*
X249178000Y-98906500D02*
X249178000Y-98705500D01*
G75*
G02*
X249257500Y-98626000I79500J0D01*
G01*
X249416500Y-98626000D01*
G75*
G02*
X249496000Y-98705500I0J-79500D01*
G01*
X249496000Y-98906500D01*
G75*
G02*
X249416500Y-98986000I-79500J0D01*
G01*
X249257500Y-98986000D01*
G75*
G02*
X249178000Y-98906500I0J79500D01*
G01*
G37*
D22*
G36*
X200047500Y-87898000D02*
G01*
X200047500Y-84773000D01*
X200464000Y-84773000D01*
X200464000Y-83298000D01*
X201364000Y-83298000D01*
X201364000Y-84773000D01*
X201780500Y-84773000D01*
X201780500Y-87898000D01*
X200047500Y-87898000D01*
G37*
D23*
X199414000Y-83948000D03*
X202414000Y-83948000D03*
D24*
X241180000Y-88240000D03*
X239910000Y-88240000D03*
X238640000Y-88240000D03*
X237370000Y-88240000D03*
X236100000Y-88240000D03*
X234830000Y-88240000D03*
X233560000Y-88240000D03*
X232290000Y-88240000D03*
X231020000Y-88240000D03*
X229750000Y-88240000D03*
X228480000Y-88240000D03*
X227210000Y-88240000D03*
X225940000Y-88240000D03*
X224670000Y-88240000D03*
D25*
X223670000Y-85455000D03*
X223670000Y-84185000D03*
X223670000Y-82915000D03*
X223670000Y-81645000D03*
X223670000Y-80375000D03*
X223670000Y-79105000D03*
X223670000Y-77835000D03*
X223670000Y-76565000D03*
X223670000Y-75295000D03*
X223670000Y-74025000D03*
D24*
X224670000Y-71240000D03*
X225940000Y-71240000D03*
X227210000Y-71240000D03*
X228480000Y-71240000D03*
X229750000Y-71240000D03*
X231020000Y-71240000D03*
X232290000Y-71240000D03*
X233560000Y-71240000D03*
X234830000Y-71240000D03*
X236100000Y-71240000D03*
X237370000Y-71240000D03*
X238640000Y-71240000D03*
X239910000Y-71240000D03*
X241180000Y-71240000D03*
D26*
X233680000Y-78740000D03*
G36*
G01*
X229680000Y-91267500D02*
X229680000Y-91612500D01*
G75*
G02*
X229532500Y-91760000I-147500J0D01*
G01*
X229237500Y-91760000D01*
G75*
G02*
X229090000Y-91612500I0J147500D01*
G01*
X229090000Y-91267500D01*
G75*
G02*
X229237500Y-91120000I147500J0D01*
G01*
X229532500Y-91120000D01*
G75*
G02*
X229680000Y-91267500I0J-147500D01*
G01*
G37*
G36*
G01*
X230650000Y-91267500D02*
X230650000Y-91612500D01*
G75*
G02*
X230502500Y-91760000I-147500J0D01*
G01*
X230207500Y-91760000D01*
G75*
G02*
X230060000Y-91612500I0J147500D01*
G01*
X230060000Y-91267500D01*
G75*
G02*
X230207500Y-91120000I147500J0D01*
G01*
X230502500Y-91120000D01*
G75*
G02*
X230650000Y-91267500I0J-147500D01*
G01*
G37*
D27*
X244602000Y-83742000D03*
X244602000Y-80342000D03*
G36*
G01*
X238727000Y-67622000D02*
X237777000Y-67622000D01*
G75*
G02*
X237527000Y-67372000I0J250000D01*
G01*
X237527000Y-66872000D01*
G75*
G02*
X237777000Y-66622000I250000J0D01*
G01*
X238727000Y-66622000D01*
G75*
G02*
X238977000Y-66872000I0J-250000D01*
G01*
X238977000Y-67372000D01*
G75*
G02*
X238727000Y-67622000I-250000J0D01*
G01*
G37*
G36*
G01*
X238727000Y-69522000D02*
X237777000Y-69522000D01*
G75*
G02*
X237527000Y-69272000I0J250000D01*
G01*
X237527000Y-68772000D01*
G75*
G02*
X237777000Y-68522000I250000J0D01*
G01*
X238727000Y-68522000D01*
G75*
G02*
X238977000Y-68772000I0J-250000D01*
G01*
X238977000Y-69272000D01*
G75*
G02*
X238727000Y-69522000I-250000J0D01*
G01*
G37*
D28*
X207434000Y-95184000D03*
X207434000Y-93284000D03*
X209634000Y-93284000D03*
D29*
X209634000Y-95004000D03*
G36*
G01*
X213704999Y-89787000D02*
X214255001Y-89787000D01*
G75*
G02*
X214505000Y-90036999I0J-249999D01*
G01*
X214505000Y-90587001D01*
G75*
G02*
X214255001Y-90837000I-249999J0D01*
G01*
X213704999Y-90837000D01*
G75*
G02*
X213455000Y-90587001I0J249999D01*
G01*
X213455000Y-90036999D01*
G75*
G02*
X213704999Y-89787000I249999J0D01*
G01*
G37*
G36*
G01*
X215004999Y-89787000D02*
X215555001Y-89787000D01*
G75*
G02*
X215805000Y-90036999I0J-249999D01*
G01*
X215805000Y-90587001D01*
G75*
G02*
X215555001Y-90837000I-249999J0D01*
G01*
X215004999Y-90837000D01*
G75*
G02*
X214755000Y-90587001I0J249999D01*
G01*
X214755000Y-90036999D01*
G75*
G02*
X215004999Y-89787000I249999J0D01*
G01*
G37*
G36*
G01*
X213704999Y-88487000D02*
X214255001Y-88487000D01*
G75*
G02*
X214505000Y-88736999I0J-249999D01*
G01*
X214505000Y-89287001D01*
G75*
G02*
X214255001Y-89537000I-249999J0D01*
G01*
X213704999Y-89537000D01*
G75*
G02*
X213455000Y-89287001I0J249999D01*
G01*
X213455000Y-88736999D01*
G75*
G02*
X213704999Y-88487000I249999J0D01*
G01*
G37*
G36*
G01*
X215004999Y-88487000D02*
X215555001Y-88487000D01*
G75*
G02*
X215805000Y-88736999I0J-249999D01*
G01*
X215805000Y-89287001D01*
G75*
G02*
X215555001Y-89537000I-249999J0D01*
G01*
X215004999Y-89537000D01*
G75*
G02*
X214755000Y-89287001I0J249999D01*
G01*
X214755000Y-88736999D01*
G75*
G02*
X215004999Y-88487000I249999J0D01*
G01*
G37*
G36*
G01*
X216217500Y-88287000D02*
X216917500Y-88287000D01*
G75*
G02*
X216980000Y-88349500I0J-62500D01*
G01*
X216980000Y-88474500D01*
G75*
G02*
X216917500Y-88537000I-62500J0D01*
G01*
X216217500Y-88537000D01*
G75*
G02*
X216155000Y-88474500I0J62500D01*
G01*
X216155000Y-88349500D01*
G75*
G02*
X216217500Y-88287000I62500J0D01*
G01*
G37*
G36*
G01*
X216217500Y-88787000D02*
X216917500Y-88787000D01*
G75*
G02*
X216980000Y-88849500I0J-62500D01*
G01*
X216980000Y-88974500D01*
G75*
G02*
X216917500Y-89037000I-62500J0D01*
G01*
X216217500Y-89037000D01*
G75*
G02*
X216155000Y-88974500I0J62500D01*
G01*
X216155000Y-88849500D01*
G75*
G02*
X216217500Y-88787000I62500J0D01*
G01*
G37*
G36*
G01*
X216217500Y-89287000D02*
X216917500Y-89287000D01*
G75*
G02*
X216980000Y-89349500I0J-62500D01*
G01*
X216980000Y-89474500D01*
G75*
G02*
X216917500Y-89537000I-62500J0D01*
G01*
X216217500Y-89537000D01*
G75*
G02*
X216155000Y-89474500I0J62500D01*
G01*
X216155000Y-89349500D01*
G75*
G02*
X216217500Y-89287000I62500J0D01*
G01*
G37*
G36*
G01*
X216217500Y-89787000D02*
X216917500Y-89787000D01*
G75*
G02*
X216980000Y-89849500I0J-62500D01*
G01*
X216980000Y-89974500D01*
G75*
G02*
X216917500Y-90037000I-62500J0D01*
G01*
X216217500Y-90037000D01*
G75*
G02*
X216155000Y-89974500I0J62500D01*
G01*
X216155000Y-89849500D01*
G75*
G02*
X216217500Y-89787000I62500J0D01*
G01*
G37*
G36*
G01*
X216217500Y-90287000D02*
X216917500Y-90287000D01*
G75*
G02*
X216980000Y-90349500I0J-62500D01*
G01*
X216980000Y-90474500D01*
G75*
G02*
X216917500Y-90537000I-62500J0D01*
G01*
X216217500Y-90537000D01*
G75*
G02*
X216155000Y-90474500I0J62500D01*
G01*
X216155000Y-90349500D01*
G75*
G02*
X216217500Y-90287000I62500J0D01*
G01*
G37*
G36*
G01*
X216217500Y-90787000D02*
X216917500Y-90787000D01*
G75*
G02*
X216980000Y-90849500I0J-62500D01*
G01*
X216980000Y-90974500D01*
G75*
G02*
X216917500Y-91037000I-62500J0D01*
G01*
X216217500Y-91037000D01*
G75*
G02*
X216155000Y-90974500I0J62500D01*
G01*
X216155000Y-90849500D01*
G75*
G02*
X216217500Y-90787000I62500J0D01*
G01*
G37*
G36*
G01*
X215817500Y-91187000D02*
X215942500Y-91187000D01*
G75*
G02*
X216005000Y-91249500I0J-62500D01*
G01*
X216005000Y-91949500D01*
G75*
G02*
X215942500Y-92012000I-62500J0D01*
G01*
X215817500Y-92012000D01*
G75*
G02*
X215755000Y-91949500I0J62500D01*
G01*
X215755000Y-91249500D01*
G75*
G02*
X215817500Y-91187000I62500J0D01*
G01*
G37*
G36*
G01*
X215317500Y-91187000D02*
X215442500Y-91187000D01*
G75*
G02*
X215505000Y-91249500I0J-62500D01*
G01*
X215505000Y-91949500D01*
G75*
G02*
X215442500Y-92012000I-62500J0D01*
G01*
X215317500Y-92012000D01*
G75*
G02*
X215255000Y-91949500I0J62500D01*
G01*
X215255000Y-91249500D01*
G75*
G02*
X215317500Y-91187000I62500J0D01*
G01*
G37*
G36*
G01*
X214817500Y-91187000D02*
X214942500Y-91187000D01*
G75*
G02*
X215005000Y-91249500I0J-62500D01*
G01*
X215005000Y-91949500D01*
G75*
G02*
X214942500Y-92012000I-62500J0D01*
G01*
X214817500Y-92012000D01*
G75*
G02*
X214755000Y-91949500I0J62500D01*
G01*
X214755000Y-91249500D01*
G75*
G02*
X214817500Y-91187000I62500J0D01*
G01*
G37*
G36*
G01*
X214317500Y-91187000D02*
X214442500Y-91187000D01*
G75*
G02*
X214505000Y-91249500I0J-62500D01*
G01*
X214505000Y-91949500D01*
G75*
G02*
X214442500Y-92012000I-62500J0D01*
G01*
X214317500Y-92012000D01*
G75*
G02*
X214255000Y-91949500I0J62500D01*
G01*
X214255000Y-91249500D01*
G75*
G02*
X214317500Y-91187000I62500J0D01*
G01*
G37*
G36*
G01*
X213817500Y-91187000D02*
X213942500Y-91187000D01*
G75*
G02*
X214005000Y-91249500I0J-62500D01*
G01*
X214005000Y-91949500D01*
G75*
G02*
X213942500Y-92012000I-62500J0D01*
G01*
X213817500Y-92012000D01*
G75*
G02*
X213755000Y-91949500I0J62500D01*
G01*
X213755000Y-91249500D01*
G75*
G02*
X213817500Y-91187000I62500J0D01*
G01*
G37*
G36*
G01*
X213317500Y-91187000D02*
X213442500Y-91187000D01*
G75*
G02*
X213505000Y-91249500I0J-62500D01*
G01*
X213505000Y-91949500D01*
G75*
G02*
X213442500Y-92012000I-62500J0D01*
G01*
X213317500Y-92012000D01*
G75*
G02*
X213255000Y-91949500I0J62500D01*
G01*
X213255000Y-91249500D01*
G75*
G02*
X213317500Y-91187000I62500J0D01*
G01*
G37*
G36*
G01*
X212342500Y-90787000D02*
X213042500Y-90787000D01*
G75*
G02*
X213105000Y-90849500I0J-62500D01*
G01*
X213105000Y-90974500D01*
G75*
G02*
X213042500Y-91037000I-62500J0D01*
G01*
X212342500Y-91037000D01*
G75*
G02*
X212280000Y-90974500I0J62500D01*
G01*
X212280000Y-90849500D01*
G75*
G02*
X212342500Y-90787000I62500J0D01*
G01*
G37*
G36*
G01*
X212342500Y-90287000D02*
X213042500Y-90287000D01*
G75*
G02*
X213105000Y-90349500I0J-62500D01*
G01*
X213105000Y-90474500D01*
G75*
G02*
X213042500Y-90537000I-62500J0D01*
G01*
X212342500Y-90537000D01*
G75*
G02*
X212280000Y-90474500I0J62500D01*
G01*
X212280000Y-90349500D01*
G75*
G02*
X212342500Y-90287000I62500J0D01*
G01*
G37*
G36*
G01*
X212342500Y-89787000D02*
X213042500Y-89787000D01*
G75*
G02*
X213105000Y-89849500I0J-62500D01*
G01*
X213105000Y-89974500D01*
G75*
G02*
X213042500Y-90037000I-62500J0D01*
G01*
X212342500Y-90037000D01*
G75*
G02*
X212280000Y-89974500I0J62500D01*
G01*
X212280000Y-89849500D01*
G75*
G02*
X212342500Y-89787000I62500J0D01*
G01*
G37*
G36*
G01*
X212342500Y-89287000D02*
X213042500Y-89287000D01*
G75*
G02*
X213105000Y-89349500I0J-62500D01*
G01*
X213105000Y-89474500D01*
G75*
G02*
X213042500Y-89537000I-62500J0D01*
G01*
X212342500Y-89537000D01*
G75*
G02*
X212280000Y-89474500I0J62500D01*
G01*
X212280000Y-89349500D01*
G75*
G02*
X212342500Y-89287000I62500J0D01*
G01*
G37*
G36*
G01*
X212342500Y-88787000D02*
X213042500Y-88787000D01*
G75*
G02*
X213105000Y-88849500I0J-62500D01*
G01*
X213105000Y-88974500D01*
G75*
G02*
X213042500Y-89037000I-62500J0D01*
G01*
X212342500Y-89037000D01*
G75*
G02*
X212280000Y-88974500I0J62500D01*
G01*
X212280000Y-88849500D01*
G75*
G02*
X212342500Y-88787000I62500J0D01*
G01*
G37*
G36*
G01*
X212342500Y-88287000D02*
X213042500Y-88287000D01*
G75*
G02*
X213105000Y-88349500I0J-62500D01*
G01*
X213105000Y-88474500D01*
G75*
G02*
X213042500Y-88537000I-62500J0D01*
G01*
X212342500Y-88537000D01*
G75*
G02*
X212280000Y-88474500I0J62500D01*
G01*
X212280000Y-88349500D01*
G75*
G02*
X212342500Y-88287000I62500J0D01*
G01*
G37*
G36*
G01*
X213317500Y-87312000D02*
X213442500Y-87312000D01*
G75*
G02*
X213505000Y-87374500I0J-62500D01*
G01*
X213505000Y-88074500D01*
G75*
G02*
X213442500Y-88137000I-62500J0D01*
G01*
X213317500Y-88137000D01*
G75*
G02*
X213255000Y-88074500I0J62500D01*
G01*
X213255000Y-87374500D01*
G75*
G02*
X213317500Y-87312000I62500J0D01*
G01*
G37*
G36*
G01*
X213817500Y-87312000D02*
X213942500Y-87312000D01*
G75*
G02*
X214005000Y-87374500I0J-62500D01*
G01*
X214005000Y-88074500D01*
G75*
G02*
X213942500Y-88137000I-62500J0D01*
G01*
X213817500Y-88137000D01*
G75*
G02*
X213755000Y-88074500I0J62500D01*
G01*
X213755000Y-87374500D01*
G75*
G02*
X213817500Y-87312000I62500J0D01*
G01*
G37*
G36*
G01*
X214317500Y-87312000D02*
X214442500Y-87312000D01*
G75*
G02*
X214505000Y-87374500I0J-62500D01*
G01*
X214505000Y-88074500D01*
G75*
G02*
X214442500Y-88137000I-62500J0D01*
G01*
X214317500Y-88137000D01*
G75*
G02*
X214255000Y-88074500I0J62500D01*
G01*
X214255000Y-87374500D01*
G75*
G02*
X214317500Y-87312000I62500J0D01*
G01*
G37*
G36*
G01*
X214817500Y-87312000D02*
X214942500Y-87312000D01*
G75*
G02*
X215005000Y-87374500I0J-62500D01*
G01*
X215005000Y-88074500D01*
G75*
G02*
X214942500Y-88137000I-62500J0D01*
G01*
X214817500Y-88137000D01*
G75*
G02*
X214755000Y-88074500I0J62500D01*
G01*
X214755000Y-87374500D01*
G75*
G02*
X214817500Y-87312000I62500J0D01*
G01*
G37*
G36*
G01*
X215317500Y-87312000D02*
X215442500Y-87312000D01*
G75*
G02*
X215505000Y-87374500I0J-62500D01*
G01*
X215505000Y-88074500D01*
G75*
G02*
X215442500Y-88137000I-62500J0D01*
G01*
X215317500Y-88137000D01*
G75*
G02*
X215255000Y-88074500I0J62500D01*
G01*
X215255000Y-87374500D01*
G75*
G02*
X215317500Y-87312000I62500J0D01*
G01*
G37*
G36*
G01*
X215817500Y-87312000D02*
X215942500Y-87312000D01*
G75*
G02*
X216005000Y-87374500I0J-62500D01*
G01*
X216005000Y-88074500D01*
G75*
G02*
X215942500Y-88137000I-62500J0D01*
G01*
X215817500Y-88137000D01*
G75*
G02*
X215755000Y-88074500I0J62500D01*
G01*
X215755000Y-87374500D01*
G75*
G02*
X215817500Y-87312000I62500J0D01*
G01*
G37*
G36*
G01*
X206545000Y-75492000D02*
X206205000Y-75492000D01*
G75*
G02*
X206065000Y-75352000I0J140000D01*
G01*
X206065000Y-75072000D01*
G75*
G02*
X206205000Y-74932000I140000J0D01*
G01*
X206545000Y-74932000D01*
G75*
G02*
X206685000Y-75072000I0J-140000D01*
G01*
X206685000Y-75352000D01*
G75*
G02*
X206545000Y-75492000I-140000J0D01*
G01*
G37*
G36*
G01*
X206545000Y-76452000D02*
X206205000Y-76452000D01*
G75*
G02*
X206065000Y-76312000I0J140000D01*
G01*
X206065000Y-76032000D01*
G75*
G02*
X206205000Y-75892000I140000J0D01*
G01*
X206545000Y-75892000D01*
G75*
G02*
X206685000Y-76032000I0J-140000D01*
G01*
X206685000Y-76312000D01*
G75*
G02*
X206545000Y-76452000I-140000J0D01*
G01*
G37*
G36*
G01*
X200348000Y-82517000D02*
X200348000Y-81567000D01*
G75*
G02*
X200598000Y-81317000I250000J0D01*
G01*
X201098000Y-81317000D01*
G75*
G02*
X201348000Y-81567000I0J-250000D01*
G01*
X201348000Y-82517000D01*
G75*
G02*
X201098000Y-82767000I-250000J0D01*
G01*
X200598000Y-82767000D01*
G75*
G02*
X200348000Y-82517000I0J250000D01*
G01*
G37*
G36*
G01*
X198448000Y-82517000D02*
X198448000Y-81567000D01*
G75*
G02*
X198698000Y-81317000I250000J0D01*
G01*
X199198000Y-81317000D01*
G75*
G02*
X199448000Y-81567000I0J-250000D01*
G01*
X199448000Y-82517000D01*
G75*
G02*
X199198000Y-82767000I-250000J0D01*
G01*
X198698000Y-82767000D01*
G75*
G02*
X198448000Y-82517000I0J250000D01*
G01*
G37*
G36*
G01*
X227648000Y-91267500D02*
X227648000Y-91612500D01*
G75*
G02*
X227500500Y-91760000I-147500J0D01*
G01*
X227205500Y-91760000D01*
G75*
G02*
X227058000Y-91612500I0J147500D01*
G01*
X227058000Y-91267500D01*
G75*
G02*
X227205500Y-91120000I147500J0D01*
G01*
X227500500Y-91120000D01*
G75*
G02*
X227648000Y-91267500I0J-147500D01*
G01*
G37*
G36*
G01*
X228618000Y-91267500D02*
X228618000Y-91612500D01*
G75*
G02*
X228470500Y-91760000I-147500J0D01*
G01*
X228175500Y-91760000D01*
G75*
G02*
X228028000Y-91612500I0J147500D01*
G01*
X228028000Y-91267500D01*
G75*
G02*
X228175500Y-91120000I147500J0D01*
G01*
X228470500Y-91120000D01*
G75*
G02*
X228618000Y-91267500I0J-147500D01*
G01*
G37*
G36*
G01*
X225235000Y-91267500D02*
X225235000Y-91612500D01*
G75*
G02*
X225087500Y-91760000I-147500J0D01*
G01*
X224792500Y-91760000D01*
G75*
G02*
X224645000Y-91612500I0J147500D01*
G01*
X224645000Y-91267500D01*
G75*
G02*
X224792500Y-91120000I147500J0D01*
G01*
X225087500Y-91120000D01*
G75*
G02*
X225235000Y-91267500I0J-147500D01*
G01*
G37*
G36*
G01*
X226205000Y-91267500D02*
X226205000Y-91612500D01*
G75*
G02*
X226057500Y-91760000I-147500J0D01*
G01*
X225762500Y-91760000D01*
G75*
G02*
X225615000Y-91612500I0J147500D01*
G01*
X225615000Y-91267500D01*
G75*
G02*
X225762500Y-91120000I147500J0D01*
G01*
X226057500Y-91120000D01*
G75*
G02*
X226205000Y-91267500I0J-147500D01*
G01*
G37*
D27*
X244602000Y-78662000D03*
X244602000Y-75262000D03*
D30*
X210566000Y-79788000D03*
X210566000Y-83788000D03*
D31*
X201930000Y-77216000D03*
D32*
X204630000Y-75311000D03*
X204630000Y-76581000D03*
X204630000Y-77851000D03*
X204630000Y-79121000D03*
X199230000Y-79121000D03*
X199230000Y-77851000D03*
X199230000Y-76581000D03*
X199230000Y-75311000D03*
G36*
G01*
X208900000Y-74900000D02*
X210200000Y-74900000D01*
G75*
G02*
X210850000Y-75550000I0J-650000D01*
G01*
X210850000Y-76850000D01*
G75*
G02*
X210200000Y-77500000I-650000J0D01*
G01*
X208900000Y-77500000D01*
G75*
G02*
X208250000Y-76850000I0J650000D01*
G01*
X208250000Y-75550000D01*
G75*
G02*
X208900000Y-74900000I650000J0D01*
G01*
G37*
G36*
G01*
X208900000Y-70074000D02*
X210200000Y-70074000D01*
G75*
G02*
X210850000Y-70724000I0J-650000D01*
G01*
X210850000Y-72024000D01*
G75*
G02*
X210200000Y-72674000I-650000J0D01*
G01*
X208900000Y-72674000D01*
G75*
G02*
X208250000Y-72024000I0J650000D01*
G01*
X208250000Y-70724000D01*
G75*
G02*
X208900000Y-70074000I650000J0D01*
G01*
G37*
G36*
G01*
X206205000Y-77924000D02*
X206545000Y-77924000D01*
G75*
G02*
X206685000Y-78064000I0J-140000D01*
G01*
X206685000Y-78344000D01*
G75*
G02*
X206545000Y-78484000I-140000J0D01*
G01*
X206205000Y-78484000D01*
G75*
G02*
X206065000Y-78344000I0J140000D01*
G01*
X206065000Y-78064000D01*
G75*
G02*
X206205000Y-77924000I140000J0D01*
G01*
G37*
G36*
G01*
X206205000Y-76964000D02*
X206545000Y-76964000D01*
G75*
G02*
X206685000Y-77104000I0J-140000D01*
G01*
X206685000Y-77384000D01*
G75*
G02*
X206545000Y-77524000I-140000J0D01*
G01*
X206205000Y-77524000D01*
G75*
G02*
X206065000Y-77384000I0J140000D01*
G01*
X206065000Y-77104000D01*
G75*
G02*
X206205000Y-76964000I140000J0D01*
G01*
G37*
D27*
X244602000Y-73582000D03*
X244602000Y-70182000D03*
D33*
X207142000Y-99710000D03*
X207142000Y-98410000D03*
X209042000Y-99060000D03*
X207142000Y-99060000D03*
X209042000Y-98410000D03*
X209042000Y-99710000D03*
D34*
X241935000Y-65278000D03*
D35*
X243885000Y-64028000D03*
X243885000Y-64528000D03*
X243885000Y-65028000D03*
X243885000Y-65528000D03*
X243885000Y-66028000D03*
X243885000Y-66528000D03*
D36*
X243185000Y-67228000D03*
X242685000Y-67228000D03*
X242185000Y-67228000D03*
X241685000Y-67228000D03*
X241185000Y-67228000D03*
X240685000Y-67228000D03*
D35*
X239985000Y-66528000D03*
X239985000Y-66028000D03*
X239985000Y-65528000D03*
X239985000Y-65028000D03*
X239985000Y-64528000D03*
X239985000Y-64028000D03*
D36*
X240685000Y-63328000D03*
X241185000Y-63328000D03*
X241685000Y-63328000D03*
X242185000Y-63328000D03*
X242685000Y-63328000D03*
X243185000Y-63328000D03*
D37*
X218573500Y-71974000D03*
X217798500Y-71974000D03*
X217798500Y-70774000D03*
X218573500Y-70774000D03*
D38*
X216636000Y-72349000D03*
X216636000Y-71699000D03*
X216636000Y-71049000D03*
X216636000Y-70399000D03*
X219736000Y-70399000D03*
X219736000Y-71049000D03*
X219736000Y-71699000D03*
X219736000Y-72349000D03*
D30*
X207010000Y-87852000D03*
X207010000Y-83852000D03*
G36*
G01*
X203004000Y-81567000D02*
X203004000Y-82517000D01*
G75*
G02*
X202754000Y-82767000I-250000J0D01*
G01*
X202254000Y-82767000D01*
G75*
G02*
X202004000Y-82517000I0J250000D01*
G01*
X202004000Y-81567000D01*
G75*
G02*
X202254000Y-81317000I250000J0D01*
G01*
X202754000Y-81317000D01*
G75*
G02*
X203004000Y-81567000I0J-250000D01*
G01*
G37*
G36*
G01*
X204904000Y-81567000D02*
X204904000Y-82517000D01*
G75*
G02*
X204654000Y-82767000I-250000J0D01*
G01*
X204154000Y-82767000D01*
G75*
G02*
X203904000Y-82517000I0J250000D01*
G01*
X203904000Y-81567000D01*
G75*
G02*
X204154000Y-81317000I250000J0D01*
G01*
X204654000Y-81317000D01*
G75*
G02*
X204904000Y-81567000I0J-250000D01*
G01*
G37*
G36*
G01*
X203512000Y-72931000D02*
X203512000Y-73881000D01*
G75*
G02*
X203262000Y-74131000I-250000J0D01*
G01*
X202762000Y-74131000D01*
G75*
G02*
X202512000Y-73881000I0J250000D01*
G01*
X202512000Y-72931000D01*
G75*
G02*
X202762000Y-72681000I250000J0D01*
G01*
X203262000Y-72681000D01*
G75*
G02*
X203512000Y-72931000I0J-250000D01*
G01*
G37*
G36*
G01*
X205412000Y-72931000D02*
X205412000Y-73881000D01*
G75*
G02*
X205162000Y-74131000I-250000J0D01*
G01*
X204662000Y-74131000D01*
G75*
G02*
X204412000Y-73881000I0J250000D01*
G01*
X204412000Y-72931000D01*
G75*
G02*
X204662000Y-72681000I250000J0D01*
G01*
X205162000Y-72681000D01*
G75*
G02*
X205412000Y-72931000I0J-250000D01*
G01*
G37*
G36*
G01*
X203512000Y-70899000D02*
X203512000Y-71849000D01*
G75*
G02*
X203262000Y-72099000I-250000J0D01*
G01*
X202762000Y-72099000D01*
G75*
G02*
X202512000Y-71849000I0J250000D01*
G01*
X202512000Y-70899000D01*
G75*
G02*
X202762000Y-70649000I250000J0D01*
G01*
X203262000Y-70649000D01*
G75*
G02*
X203512000Y-70899000I0J-250000D01*
G01*
G37*
G36*
G01*
X205412000Y-70899000D02*
X205412000Y-71849000D01*
G75*
G02*
X205162000Y-72099000I-250000J0D01*
G01*
X204662000Y-72099000D01*
G75*
G02*
X204412000Y-71849000I0J250000D01*
G01*
X204412000Y-70899000D01*
G75*
G02*
X204662000Y-70649000I250000J0D01*
G01*
X205162000Y-70649000D01*
G75*
G02*
X205412000Y-70899000I0J-250000D01*
G01*
G37*
G36*
G01*
X199956000Y-72931000D02*
X199956000Y-73881000D01*
G75*
G02*
X199706000Y-74131000I-250000J0D01*
G01*
X199206000Y-74131000D01*
G75*
G02*
X198956000Y-73881000I0J250000D01*
G01*
X198956000Y-72931000D01*
G75*
G02*
X199206000Y-72681000I250000J0D01*
G01*
X199706000Y-72681000D01*
G75*
G02*
X199956000Y-72931000I0J-250000D01*
G01*
G37*
G36*
G01*
X201856000Y-72931000D02*
X201856000Y-73881000D01*
G75*
G02*
X201606000Y-74131000I-250000J0D01*
G01*
X201106000Y-74131000D01*
G75*
G02*
X200856000Y-73881000I0J250000D01*
G01*
X200856000Y-72931000D01*
G75*
G02*
X201106000Y-72681000I250000J0D01*
G01*
X201606000Y-72681000D01*
G75*
G02*
X201856000Y-72931000I0J-250000D01*
G01*
G37*
G36*
G01*
X200856000Y-71849000D02*
X200856000Y-70899000D01*
G75*
G02*
X201106000Y-70649000I250000J0D01*
G01*
X201606000Y-70649000D01*
G75*
G02*
X201856000Y-70899000I0J-250000D01*
G01*
X201856000Y-71849000D01*
G75*
G02*
X201606000Y-72099000I-250000J0D01*
G01*
X201106000Y-72099000D01*
G75*
G02*
X200856000Y-71849000I0J250000D01*
G01*
G37*
G36*
G01*
X198956000Y-71849000D02*
X198956000Y-70899000D01*
G75*
G02*
X199206000Y-70649000I250000J0D01*
G01*
X199706000Y-70649000D01*
G75*
G02*
X199956000Y-70899000I0J-250000D01*
G01*
X199956000Y-71849000D01*
G75*
G02*
X199706000Y-72099000I-250000J0D01*
G01*
X199206000Y-72099000D01*
G75*
G02*
X198956000Y-71849000I0J250000D01*
G01*
G37*
M02*
