G04 #@! TF.GenerationSoftware,KiCad,Pcbnew,5.1.9*
G04 #@! TF.CreationDate,2021-03-15T09:56:04+01:00*
G04 #@! TF.ProjectId,obd32,6f626433-322e-46b6-9963-61645f706362,rev?*
G04 #@! TF.SameCoordinates,Original*
G04 #@! TF.FileFunction,Legend,Top*
G04 #@! TF.FilePolarity,Positive*
%FSLAX46Y46*%
G04 Gerber Fmt 4.6, Leading zero omitted, Abs format (unit mm)*
G04 Created by KiCad (PCBNEW 5.1.9) date 2021-03-15 09:56:04*
%MOMM*%
%LPD*%
G01*
G04 APERTURE LIST*
%ADD10C,0.150000*%
%ADD11C,0.120000*%
%ADD12C,0.152400*%
%ADD13C,0.100000*%
%ADD14C,0.200000*%
%ADD15C,0.254000*%
G04 APERTURE END LIST*
D10*
X197064380Y-88359904D02*
X197064380Y-87740857D01*
X197445333Y-88074190D01*
X197445333Y-87931333D01*
X197492952Y-87836095D01*
X197540571Y-87788476D01*
X197635809Y-87740857D01*
X197873904Y-87740857D01*
X197969142Y-87788476D01*
X198016761Y-87836095D01*
X198064380Y-87931333D01*
X198064380Y-88217047D01*
X198016761Y-88312285D01*
X197969142Y-88359904D01*
X197969142Y-87312285D02*
X198016761Y-87264666D01*
X198064380Y-87312285D01*
X198016761Y-87359904D01*
X197969142Y-87312285D01*
X198064380Y-87312285D01*
X197064380Y-86931333D02*
X197064380Y-86312285D01*
X197445333Y-86645619D01*
X197445333Y-86502761D01*
X197492952Y-86407523D01*
X197540571Y-86359904D01*
X197635809Y-86312285D01*
X197873904Y-86312285D01*
X197969142Y-86359904D01*
X198016761Y-86407523D01*
X198064380Y-86502761D01*
X198064380Y-86788476D01*
X198016761Y-86883714D01*
X197969142Y-86931333D01*
X197064380Y-86026571D02*
X198064380Y-85693238D01*
X197064380Y-85359904D01*
X198064380Y-83740857D02*
X198064380Y-84312285D01*
X198064380Y-84026571D02*
X197064380Y-84026571D01*
X197207238Y-84121809D01*
X197302476Y-84217047D01*
X197350095Y-84312285D01*
X197778666Y-83359904D02*
X197778666Y-82883714D01*
X198064380Y-83455142D02*
X197064380Y-83121809D01*
X198064380Y-82788476D01*
D11*
X206502000Y-82042000D02*
X212090000Y-76454000D01*
X212090000Y-69088000D02*
X212090000Y-76454000D01*
D10*
X202739809Y-67778380D02*
X202263619Y-67778380D01*
X202216000Y-68254571D01*
X202263619Y-68206952D01*
X202358857Y-68159333D01*
X202596952Y-68159333D01*
X202692190Y-68206952D01*
X202739809Y-68254571D01*
X202787428Y-68349809D01*
X202787428Y-68587904D01*
X202739809Y-68683142D01*
X202692190Y-68730761D01*
X202596952Y-68778380D01*
X202358857Y-68778380D01*
X202263619Y-68730761D01*
X202216000Y-68683142D01*
X203073142Y-67778380D02*
X203406476Y-68778380D01*
X203739809Y-67778380D01*
X204739809Y-67778380D02*
X205358857Y-67778380D01*
X205025523Y-68159333D01*
X205168380Y-68159333D01*
X205263619Y-68206952D01*
X205311238Y-68254571D01*
X205358857Y-68349809D01*
X205358857Y-68587904D01*
X205311238Y-68683142D01*
X205263619Y-68730761D01*
X205168380Y-68778380D01*
X204882666Y-68778380D01*
X204787428Y-68730761D01*
X204739809Y-68683142D01*
X205739809Y-68492666D02*
X206216000Y-68492666D01*
X205644571Y-68778380D02*
X205977904Y-67778380D01*
X206311238Y-68778380D01*
D11*
X197104000Y-69088000D02*
X197104000Y-82042000D01*
X212090000Y-69088000D02*
X197104000Y-69088000D01*
X197104000Y-82042000D02*
X206502000Y-82042000D01*
X205236000Y-98515000D02*
X205236000Y-99615000D01*
X205236000Y-89615000D02*
X205236000Y-90715000D01*
X205347803Y-91515000D02*
G75*
G03*
X205347803Y-91515000I-111803J0D01*
G01*
X201488500Y-89615000D02*
X198438500Y-89615000D01*
X205236000Y-89615000D02*
X202838500Y-89615000D01*
X201488500Y-99615000D02*
X198438500Y-99615000D01*
X205236000Y-99615000D02*
X202838500Y-99615000D01*
X205995000Y-80163641D02*
X205995000Y-79856359D01*
X206755000Y-80163641D02*
X206755000Y-79856359D01*
X241680000Y-97001359D02*
X241680000Y-97308641D01*
X240920000Y-97001359D02*
X240920000Y-97308641D01*
X215418641Y-69468000D02*
X215111359Y-69468000D01*
X215418641Y-68708000D02*
X215111359Y-68708000D01*
X206120000Y-96366359D02*
X206120000Y-96673641D01*
X205360000Y-96366359D02*
X205360000Y-96673641D01*
X206120000Y-91921359D02*
X206120000Y-92228641D01*
X205360000Y-91921359D02*
X205360000Y-92228641D01*
X211835000Y-88746359D02*
X211835000Y-89053641D01*
X211075000Y-88746359D02*
X211075000Y-89053641D01*
X205995000Y-73813641D02*
X205995000Y-73506359D01*
X206755000Y-73813641D02*
X206755000Y-73506359D01*
X201776359Y-70230000D02*
X202083641Y-70230000D01*
X201776359Y-69470000D02*
X202083641Y-69470000D01*
X199871359Y-70230000D02*
X200178641Y-70230000D01*
X199871359Y-69470000D02*
X200178641Y-69470000D01*
X197992000Y-79856359D02*
X197992000Y-80163641D01*
X197232000Y-79856359D02*
X197232000Y-80163641D01*
X197992000Y-77951359D02*
X197992000Y-78258641D01*
X197232000Y-77951359D02*
X197232000Y-78258641D01*
X197232000Y-76353641D02*
X197232000Y-76046359D01*
X197992000Y-76353641D02*
X197992000Y-76046359D01*
X230023641Y-90550000D02*
X229716359Y-90550000D01*
X230023641Y-89790000D02*
X229716359Y-89790000D01*
X227991641Y-90550000D02*
X227684359Y-90550000D01*
X227991641Y-89790000D02*
X227684359Y-89790000D01*
X225578641Y-90550000D02*
X225271359Y-90550000D01*
X225578641Y-89790000D02*
X225271359Y-89790000D01*
X244702359Y-67438000D02*
X245009641Y-67438000D01*
X244702359Y-68198000D02*
X245009641Y-68198000D01*
X239650000Y-90897641D02*
X239650000Y-90590359D01*
X240410000Y-90897641D02*
X240410000Y-90590359D01*
X239140000Y-90590359D02*
X239140000Y-90897641D01*
X238380000Y-90590359D02*
X238380000Y-90897641D01*
X243947836Y-89260000D02*
X243732164Y-89260000D01*
X243947836Y-88540000D02*
X243732164Y-88540000D01*
X209825000Y-99421836D02*
X209825000Y-99206164D01*
X210545000Y-99421836D02*
X210545000Y-99206164D01*
X221340000Y-71012164D02*
X221340000Y-71227836D01*
X220620000Y-71012164D02*
X220620000Y-71227836D01*
X208807164Y-96795000D02*
X209022836Y-96795000D01*
X208807164Y-97515000D02*
X209022836Y-97515000D01*
X218547836Y-69448000D02*
X218332164Y-69448000D01*
X218547836Y-68728000D02*
X218332164Y-68728000D01*
X244750000Y-91039836D02*
X244750000Y-90824164D01*
X245470000Y-91039836D02*
X245470000Y-90824164D01*
X245004000Y-66401836D02*
X245004000Y-66186164D01*
X245724000Y-66401836D02*
X245724000Y-66186164D01*
X239120000Y-65170164D02*
X239120000Y-65385836D01*
X238400000Y-65170164D02*
X238400000Y-65385836D01*
X245724000Y-64154164D02*
X245724000Y-64369836D01*
X245004000Y-64154164D02*
X245004000Y-64369836D01*
X209825000Y-87102836D02*
X209825000Y-86887164D01*
X210545000Y-87102836D02*
X210545000Y-86887164D01*
X240684164Y-68982000D02*
X240899836Y-68982000D01*
X240684164Y-69702000D02*
X240899836Y-69702000D01*
X211095000Y-87102836D02*
X211095000Y-86887164D01*
X211815000Y-87102836D02*
X211815000Y-86887164D01*
X244963836Y-69194000D02*
X244748164Y-69194000D01*
X244963836Y-68474000D02*
X244748164Y-68474000D01*
D12*
X243018501Y-90030300D02*
X242637500Y-90030300D01*
X243018501Y-89776300D02*
X243018501Y-90030300D01*
X242637500Y-89776300D02*
X243018501Y-89776300D01*
X242637500Y-90030300D02*
X242637500Y-89776300D01*
X242486059Y-90030300D02*
X241922300Y-90030300D01*
X244233700Y-90344059D02*
X244233700Y-90030300D01*
X243669941Y-92341700D02*
X244233700Y-92341700D01*
X241922300Y-92027941D02*
X241922300Y-92341700D01*
X241922300Y-90030300D02*
X241922300Y-90344059D01*
X244233700Y-90030300D02*
X243669941Y-90030300D01*
X244233700Y-92341700D02*
X244233700Y-92027941D01*
X241922300Y-92341700D02*
X242486059Y-92341700D01*
D11*
X202752000Y-62932000D02*
X202752000Y-64262000D01*
X201422000Y-62932000D02*
X202752000Y-62932000D01*
X200152000Y-62932000D02*
X200152000Y-65592000D01*
X200152000Y-65592000D02*
X197552000Y-65592000D01*
X200152000Y-62932000D02*
X197552000Y-62932000D01*
X197552000Y-62932000D02*
X197552000Y-65592000D01*
D13*
X242362000Y-41385000D02*
X242362000Y-61885000D01*
X201062000Y-41385000D02*
X242362000Y-41385000D01*
X201062000Y-61885000D02*
X201062000Y-41385000D01*
X242362000Y-61885000D02*
X201062000Y-61885000D01*
D11*
X242440000Y-97328000D02*
X242440000Y-96728000D01*
X244540000Y-98028000D02*
X243140000Y-98028000D01*
X245240000Y-96728000D02*
X245240000Y-97328000D01*
X243140000Y-96028000D02*
X244540000Y-96028000D01*
X242440000Y-96728000D02*
G75*
G02*
X243140000Y-96028000I700000J0D01*
G01*
X243140000Y-98028000D02*
G75*
G02*
X242440000Y-97328000I0J700000D01*
G01*
X245240000Y-97328000D02*
G75*
G02*
X244540000Y-98028000I-700000J0D01*
G01*
X244540000Y-96028000D02*
G75*
G02*
X245240000Y-96728000I0J-700000D01*
G01*
D12*
X248374060Y-95351500D02*
X247540940Y-95351500D01*
X246102729Y-96057855D02*
G75*
G03*
X245671500Y-95932281I-431229J-677645D01*
G01*
D11*
X239442000Y-110116000D02*
X239442000Y-100196000D01*
X249762000Y-110116000D02*
X249762000Y-100196000D01*
X249612000Y-100196000D02*
X249762000Y-100196000D01*
X249612000Y-110116000D02*
X249762000Y-110116000D01*
X239442000Y-100196000D02*
X239592000Y-100196000D01*
X239442000Y-110116000D02*
X239592000Y-110116000D01*
X239592000Y-110806000D02*
X239592000Y-110116000D01*
X214373000Y-106383000D02*
X214723000Y-105873000D01*
X214573000Y-108893000D02*
X214573000Y-109153000D01*
X214373000Y-108693000D02*
X214573000Y-108893000D01*
X214373000Y-99293000D02*
X214573000Y-99503000D01*
X214723000Y-99503000D02*
X214573000Y-99503000D01*
X214723000Y-99503000D02*
X214723000Y-105873000D01*
X219333000Y-96403000D02*
X217533000Y-96403000D01*
X225333000Y-96403000D02*
X220633000Y-96403000D01*
X214373000Y-97433000D02*
X214573000Y-97233000D01*
X214373000Y-97433000D02*
X214373000Y-99293000D01*
X214373000Y-108693000D02*
X214373000Y-106383000D01*
X230643000Y-96403000D02*
X227033000Y-96403000D01*
X230643000Y-96853000D02*
X230643000Y-96403000D01*
X230643000Y-110373000D02*
X216633000Y-110373000D01*
X230643000Y-108453000D02*
X230643000Y-110373000D01*
D13*
X248872000Y-98806000D02*
G75*
G03*
X248872000Y-98806000I-50000J0D01*
G01*
D11*
X198554000Y-84538000D02*
X198784000Y-84538000D01*
X203274000Y-84538000D02*
X203044000Y-84538000D01*
X203274000Y-84538000D02*
X203274000Y-87258000D01*
X203274000Y-87258000D02*
X201964000Y-87258000D01*
X203044000Y-83398000D02*
X203044000Y-84538000D01*
X198554000Y-87258000D02*
X198554000Y-84538000D01*
X199864000Y-87258000D02*
X198554000Y-87258000D01*
X213534000Y-69866000D02*
X214934000Y-69866000D01*
X215634000Y-70566000D02*
X215634000Y-71166000D01*
X214934000Y-71866000D02*
X213534000Y-71866000D01*
X212834000Y-71166000D02*
X212834000Y-70566000D01*
X212834000Y-70566000D02*
G75*
G02*
X213534000Y-69866000I700000J0D01*
G01*
X213534000Y-71866000D02*
G75*
G02*
X212834000Y-71166000I0J700000D01*
G01*
X215634000Y-71166000D02*
G75*
G02*
X214934000Y-71866000I-700000J0D01*
G01*
X214934000Y-69866000D02*
G75*
G02*
X215634000Y-70566000I0J-700000D01*
G01*
X242225000Y-70620000D02*
X242225000Y-70240000D01*
X242645000Y-70620000D02*
X242225000Y-70620000D01*
X242645000Y-88860000D02*
X242225000Y-88860000D01*
X242645000Y-70620000D02*
X242645000Y-88860000D01*
X223205000Y-88860000D02*
X223205000Y-87860000D01*
X223825000Y-88860000D02*
X223205000Y-88860000D01*
X223205000Y-70620000D02*
X223205000Y-71620000D01*
X223825000Y-70620000D02*
X223205000Y-70620000D01*
X220472000Y-73600000D02*
X221802000Y-73600000D01*
X221802000Y-73600000D02*
X221802000Y-74930000D01*
X219202000Y-73600000D02*
X219202000Y-76200000D01*
X219202000Y-76200000D02*
X221802000Y-76200000D01*
X221802000Y-76200000D02*
X221802000Y-86420000D01*
X216602000Y-86420000D02*
X221802000Y-86420000D01*
X216602000Y-73600000D02*
X216602000Y-86420000D01*
X216602000Y-73600000D02*
X219202000Y-73600000D01*
D13*
X231010000Y-91440000D02*
G75*
G03*
X231010000Y-91440000I-50000J0D01*
G01*
D11*
X246702000Y-81542000D02*
X246322000Y-81042000D01*
X246322000Y-81042000D02*
X246002000Y-81042000D01*
X246702000Y-81542000D02*
X246702000Y-82542000D01*
X246702000Y-82542000D02*
X246322000Y-83042000D01*
X246322000Y-83042000D02*
X246002000Y-83042000D01*
X243202000Y-80392000D02*
X243202000Y-83692000D01*
X243502000Y-80392000D02*
X243202000Y-80392000D01*
X243202000Y-83692000D02*
X243502000Y-83692000D01*
X245702000Y-80392000D02*
X246002000Y-80392000D01*
X246002000Y-80392000D02*
X246002000Y-83692000D01*
X246002000Y-83692000D02*
X245702000Y-83692000D01*
X237517000Y-68333252D02*
X237517000Y-67810748D01*
X238987000Y-68333252D02*
X238987000Y-67810748D01*
D14*
X199018000Y-101684000D02*
X199018000Y-101684000D01*
X199018000Y-101584000D02*
X199018000Y-101584000D01*
X199018000Y-101684000D02*
X199018000Y-101684000D01*
D13*
X211588000Y-109334000D02*
X211588000Y-109334000D01*
X211588000Y-102334000D02*
X211588000Y-109334000D01*
X211588000Y-102334000D02*
X211588000Y-102334000D01*
X211588000Y-109334000D02*
X211588000Y-102334000D01*
X211588000Y-109334000D02*
X208018000Y-109334000D01*
X211588000Y-109334000D02*
X211588000Y-109334000D01*
X208018000Y-109334000D02*
X211588000Y-109334000D01*
X208018000Y-109334000D02*
X208018000Y-109334000D01*
X211588000Y-102334000D02*
X208018000Y-102334000D01*
X211588000Y-102334000D02*
X211588000Y-102334000D01*
X208018000Y-102334000D02*
X211588000Y-102334000D01*
X208018000Y-102334000D02*
X208018000Y-102334000D01*
X200518000Y-102334000D02*
X197908000Y-102334000D01*
X200518000Y-102334000D02*
X200518000Y-102334000D01*
X197908000Y-102334000D02*
X200518000Y-102334000D01*
X197908000Y-102334000D02*
X197908000Y-102334000D01*
X197908000Y-102684000D02*
X197908000Y-102684000D01*
X197908000Y-102334000D02*
X197908000Y-102684000D01*
X197908000Y-102334000D02*
X197908000Y-102334000D01*
X197908000Y-102684000D02*
X197908000Y-102334000D01*
X200518000Y-109334000D02*
X197908000Y-109334000D01*
X200518000Y-109334000D02*
X200518000Y-109334000D01*
X197908000Y-109334000D02*
X200518000Y-109334000D01*
X197908000Y-109334000D02*
X197908000Y-109334000D01*
X197908000Y-109334000D02*
X197908000Y-109334000D01*
X197908000Y-108934000D02*
X197908000Y-109334000D01*
X197908000Y-108934000D02*
X197908000Y-108934000D01*
X197908000Y-109334000D02*
X197908000Y-108934000D01*
D14*
X199018000Y-101584000D02*
G75*
G02*
X199018000Y-101684000I0J-50000D01*
G01*
X199018000Y-101684000D02*
G75*
G02*
X199018000Y-101584000I0J50000D01*
G01*
X199018000Y-101584000D02*
G75*
G02*
X199018000Y-101684000I0J-50000D01*
G01*
D11*
X199836000Y-68818000D02*
X198436000Y-68818000D01*
X197736000Y-68118000D02*
X197736000Y-67518000D01*
X198436000Y-66818000D02*
X199836000Y-66818000D01*
X200536000Y-67518000D02*
X200536000Y-68118000D01*
X200536000Y-68118000D02*
G75*
G02*
X199836000Y-68818000I-700000J0D01*
G01*
X199836000Y-66818000D02*
G75*
G02*
X200536000Y-67518000I0J-700000D01*
G01*
X197736000Y-67518000D02*
G75*
G02*
X198436000Y-66818000I700000J0D01*
G01*
X198436000Y-68818000D02*
G75*
G02*
X197736000Y-68118000I0J700000D01*
G01*
X207334000Y-95784000D02*
X210284000Y-95784000D01*
X209734000Y-92684000D02*
X207334000Y-92684000D01*
X216740000Y-88027000D02*
X216740000Y-87552000D01*
X212520000Y-91772000D02*
X212995000Y-91772000D01*
X212520000Y-91297000D02*
X212520000Y-91772000D01*
X212520000Y-87552000D02*
X212995000Y-87552000D01*
X212520000Y-88027000D02*
X212520000Y-87552000D01*
X216740000Y-91772000D02*
X216265000Y-91772000D01*
X216740000Y-91297000D02*
X216740000Y-91772000D01*
X206735000Y-75799836D02*
X206735000Y-75584164D01*
X206015000Y-75799836D02*
X206015000Y-75584164D01*
X199636748Y-82777000D02*
X200159252Y-82777000D01*
X199636748Y-81307000D02*
X200159252Y-81307000D01*
D13*
X228978000Y-91440000D02*
G75*
G03*
X228978000Y-91440000I-50000J0D01*
G01*
X226565000Y-91440000D02*
G75*
G03*
X226565000Y-91440000I-50000J0D01*
G01*
D11*
X246002000Y-78612000D02*
X245702000Y-78612000D01*
X246002000Y-75312000D02*
X246002000Y-78612000D01*
X245702000Y-75312000D02*
X246002000Y-75312000D01*
X243202000Y-78612000D02*
X243502000Y-78612000D01*
X243502000Y-75312000D02*
X243202000Y-75312000D01*
X243202000Y-75312000D02*
X243202000Y-78612000D01*
X246322000Y-77962000D02*
X246002000Y-77962000D01*
X246702000Y-77462000D02*
X246322000Y-77962000D01*
X246702000Y-76462000D02*
X246702000Y-77462000D01*
X246322000Y-75962000D02*
X246002000Y-75962000D01*
X246702000Y-76462000D02*
X246322000Y-75962000D01*
X208916000Y-85188000D02*
X212216000Y-85188000D01*
X212216000Y-85188000D02*
X212216000Y-79788000D01*
X208916000Y-85188000D02*
X208916000Y-79788000D01*
D10*
X199855000Y-74641000D02*
X199855000Y-74691000D01*
X204005000Y-74641000D02*
X204005000Y-74786000D01*
X204005000Y-79791000D02*
X204005000Y-79646000D01*
X199855000Y-79791000D02*
X199855000Y-79646000D01*
X199855000Y-74641000D02*
X204005000Y-74641000D01*
X199855000Y-79791000D02*
X204005000Y-79791000D01*
X199855000Y-74691000D02*
X198455000Y-74691000D01*
D11*
X206990000Y-76420000D02*
X212090000Y-76420000D01*
X206990000Y-71120000D02*
X206990000Y-76420000D01*
X212090000Y-71120000D02*
X212090000Y-76420000D01*
X212090000Y-71120000D02*
X206990000Y-71120000D01*
X206735000Y-77616164D02*
X206735000Y-77831836D01*
X206015000Y-77616164D02*
X206015000Y-77831836D01*
X246702000Y-71382000D02*
X246322000Y-70882000D01*
X246322000Y-70882000D02*
X246002000Y-70882000D01*
X246702000Y-71382000D02*
X246702000Y-72382000D01*
X246702000Y-72382000D02*
X246322000Y-72882000D01*
X246322000Y-72882000D02*
X246002000Y-72882000D01*
X243202000Y-70232000D02*
X243202000Y-73532000D01*
X243502000Y-70232000D02*
X243202000Y-70232000D01*
X243202000Y-73532000D02*
X243502000Y-73532000D01*
X245702000Y-70232000D02*
X246002000Y-70232000D01*
X246002000Y-70232000D02*
X246002000Y-73532000D01*
X246002000Y-73532000D02*
X245702000Y-73532000D01*
X208792000Y-97900000D02*
X207392000Y-97900000D01*
X207392000Y-100220000D02*
X209292000Y-100220000D01*
D15*
X244060000Y-62928000D02*
G75*
G03*
X244060000Y-62928000I-125000J0D01*
G01*
D11*
X216626000Y-72934000D02*
X216626000Y-72784000D01*
X219746000Y-69814000D02*
X219746000Y-69964000D01*
X218186000Y-72934000D02*
X216626000Y-72934000D01*
X219746000Y-69814000D02*
X216626000Y-69814000D01*
X216626000Y-69814000D02*
X216626000Y-69964000D01*
X208660000Y-82452000D02*
X208660000Y-87852000D01*
X205360000Y-82452000D02*
X205360000Y-87852000D01*
X208660000Y-82452000D02*
X205360000Y-82452000D01*
X203715252Y-81307000D02*
X203192748Y-81307000D01*
X203715252Y-82777000D02*
X203192748Y-82777000D01*
X204223252Y-72671000D02*
X203700748Y-72671000D01*
X204223252Y-74141000D02*
X203700748Y-74141000D01*
X204223252Y-70639000D02*
X203700748Y-70639000D01*
X204223252Y-72109000D02*
X203700748Y-72109000D01*
X200667252Y-72671000D02*
X200144748Y-72671000D01*
X200667252Y-74141000D02*
X200144748Y-74141000D01*
X200144748Y-72109000D02*
X200667252Y-72109000D01*
X200144748Y-70639000D02*
X200667252Y-70639000D01*
D10*
X205390880Y-94948333D02*
X206105166Y-94948333D01*
X206248023Y-94995952D01*
X206343261Y-95091190D01*
X206390880Y-95234047D01*
X206390880Y-95329285D01*
X205486119Y-94519761D02*
X205438500Y-94472142D01*
X205390880Y-94376904D01*
X205390880Y-94138809D01*
X205438500Y-94043571D01*
X205486119Y-93995952D01*
X205581357Y-93948333D01*
X205676595Y-93948333D01*
X205819452Y-93995952D01*
X206390880Y-94567380D01*
X206390880Y-93948333D01*
X205657380Y-80652857D02*
X205181190Y-80986190D01*
X205657380Y-81224285D02*
X204657380Y-81224285D01*
X204657380Y-80843333D01*
X204705000Y-80748095D01*
X204752619Y-80700476D01*
X204847857Y-80652857D01*
X204990714Y-80652857D01*
X205085952Y-80700476D01*
X205133571Y-80748095D01*
X205181190Y-80843333D01*
X205181190Y-81224285D01*
X205657380Y-79700476D02*
X205657380Y-80271904D01*
X205657380Y-79986190D02*
X204657380Y-79986190D01*
X204800238Y-80081428D01*
X204895476Y-80176666D01*
X204943095Y-80271904D01*
X204657380Y-79367142D02*
X204657380Y-78748095D01*
X205038333Y-79081428D01*
X205038333Y-78938571D01*
X205085952Y-78843333D01*
X205133571Y-78795714D01*
X205228809Y-78748095D01*
X205466904Y-78748095D01*
X205562142Y-78795714D01*
X205609761Y-78843333D01*
X205657380Y-78938571D01*
X205657380Y-79224285D01*
X205609761Y-79319523D01*
X205562142Y-79367142D01*
X240482380Y-97162857D02*
X240006190Y-97496190D01*
X240482380Y-97734285D02*
X239482380Y-97734285D01*
X239482380Y-97353333D01*
X239530000Y-97258095D01*
X239577619Y-97210476D01*
X239672857Y-97162857D01*
X239815714Y-97162857D01*
X239910952Y-97210476D01*
X239958571Y-97258095D01*
X240006190Y-97353333D01*
X240006190Y-97734285D01*
X240482380Y-96210476D02*
X240482380Y-96781904D01*
X240482380Y-96496190D02*
X239482380Y-96496190D01*
X239625238Y-96591428D01*
X239720476Y-96686666D01*
X239768095Y-96781904D01*
X239910952Y-95639047D02*
X239863333Y-95734285D01*
X239815714Y-95781904D01*
X239720476Y-95829523D01*
X239672857Y-95829523D01*
X239577619Y-95781904D01*
X239530000Y-95734285D01*
X239482380Y-95639047D01*
X239482380Y-95448571D01*
X239530000Y-95353333D01*
X239577619Y-95305714D01*
X239672857Y-95258095D01*
X239720476Y-95258095D01*
X239815714Y-95305714D01*
X239863333Y-95353333D01*
X239910952Y-95448571D01*
X239910952Y-95639047D01*
X239958571Y-95734285D01*
X240006190Y-95781904D01*
X240101428Y-95829523D01*
X240291904Y-95829523D01*
X240387142Y-95781904D01*
X240434761Y-95734285D01*
X240482380Y-95639047D01*
X240482380Y-95448571D01*
X240434761Y-95353333D01*
X240387142Y-95305714D01*
X240291904Y-95258095D01*
X240101428Y-95258095D01*
X240006190Y-95305714D01*
X239958571Y-95353333D01*
X239910952Y-95448571D01*
X214622142Y-70710380D02*
X214288809Y-70234190D01*
X214050714Y-70710380D02*
X214050714Y-69710380D01*
X214431666Y-69710380D01*
X214526904Y-69758000D01*
X214574523Y-69805619D01*
X214622142Y-69900857D01*
X214622142Y-70043714D01*
X214574523Y-70138952D01*
X214526904Y-70186571D01*
X214431666Y-70234190D01*
X214050714Y-70234190D01*
X215574523Y-70710380D02*
X215003095Y-70710380D01*
X215288809Y-70710380D02*
X215288809Y-69710380D01*
X215193571Y-69853238D01*
X215098333Y-69948476D01*
X215003095Y-69996095D01*
X215907857Y-69710380D02*
X216574523Y-69710380D01*
X216145952Y-70710380D01*
X206192380Y-99702857D02*
X205716190Y-100036190D01*
X206192380Y-100274285D02*
X205192380Y-100274285D01*
X205192380Y-99893333D01*
X205240000Y-99798095D01*
X205287619Y-99750476D01*
X205382857Y-99702857D01*
X205525714Y-99702857D01*
X205620952Y-99750476D01*
X205668571Y-99798095D01*
X205716190Y-99893333D01*
X205716190Y-100274285D01*
X206192380Y-98750476D02*
X206192380Y-99321904D01*
X206192380Y-99036190D02*
X205192380Y-99036190D01*
X205335238Y-99131428D01*
X205430476Y-99226666D01*
X205478095Y-99321904D01*
X205192380Y-97893333D02*
X205192380Y-98083809D01*
X205240000Y-98179047D01*
X205287619Y-98226666D01*
X205430476Y-98321904D01*
X205620952Y-98369523D01*
X206001904Y-98369523D01*
X206097142Y-98321904D01*
X206144761Y-98274285D01*
X206192380Y-98179047D01*
X206192380Y-97988571D01*
X206144761Y-97893333D01*
X206097142Y-97845714D01*
X206001904Y-97798095D01*
X205763809Y-97798095D01*
X205668571Y-97845714D01*
X205620952Y-97893333D01*
X205573333Y-97988571D01*
X205573333Y-98179047D01*
X205620952Y-98274285D01*
X205668571Y-98321904D01*
X205763809Y-98369523D01*
X207362380Y-91447857D02*
X206886190Y-91781190D01*
X207362380Y-92019285D02*
X206362380Y-92019285D01*
X206362380Y-91638333D01*
X206410000Y-91543095D01*
X206457619Y-91495476D01*
X206552857Y-91447857D01*
X206695714Y-91447857D01*
X206790952Y-91495476D01*
X206838571Y-91543095D01*
X206886190Y-91638333D01*
X206886190Y-92019285D01*
X207362380Y-90495476D02*
X207362380Y-91066904D01*
X207362380Y-90781190D02*
X206362380Y-90781190D01*
X206505238Y-90876428D01*
X206600476Y-90971666D01*
X206648095Y-91066904D01*
X206362380Y-89590714D02*
X206362380Y-90066904D01*
X206838571Y-90114523D01*
X206790952Y-90066904D01*
X206743333Y-89971666D01*
X206743333Y-89733571D01*
X206790952Y-89638333D01*
X206838571Y-89590714D01*
X206933809Y-89543095D01*
X207171904Y-89543095D01*
X207267142Y-89590714D01*
X207314761Y-89638333D01*
X207362380Y-89733571D01*
X207362380Y-89971666D01*
X207314761Y-90066904D01*
X207267142Y-90114523D01*
X213077380Y-89542857D02*
X212601190Y-89876190D01*
X213077380Y-90114285D02*
X212077380Y-90114285D01*
X212077380Y-89733333D01*
X212125000Y-89638095D01*
X212172619Y-89590476D01*
X212267857Y-89542857D01*
X212410714Y-89542857D01*
X212505952Y-89590476D01*
X212553571Y-89638095D01*
X212601190Y-89733333D01*
X212601190Y-90114285D01*
X213077380Y-88590476D02*
X213077380Y-89161904D01*
X213077380Y-88876190D02*
X212077380Y-88876190D01*
X212220238Y-88971428D01*
X212315476Y-89066666D01*
X212363095Y-89161904D01*
X212410714Y-87733333D02*
X213077380Y-87733333D01*
X212029761Y-87971428D02*
X212744047Y-88209523D01*
X212744047Y-87590476D01*
X205657380Y-74302857D02*
X205181190Y-74636190D01*
X205657380Y-74874285D02*
X204657380Y-74874285D01*
X204657380Y-74493333D01*
X204705000Y-74398095D01*
X204752619Y-74350476D01*
X204847857Y-74302857D01*
X204990714Y-74302857D01*
X205085952Y-74350476D01*
X205133571Y-74398095D01*
X205181190Y-74493333D01*
X205181190Y-74874285D01*
X205657380Y-73350476D02*
X205657380Y-73921904D01*
X205657380Y-73636190D02*
X204657380Y-73636190D01*
X204800238Y-73731428D01*
X204895476Y-73826666D01*
X204943095Y-73921904D01*
X204752619Y-72969523D02*
X204705000Y-72921904D01*
X204657380Y-72826666D01*
X204657380Y-72588571D01*
X204705000Y-72493333D01*
X204752619Y-72445714D01*
X204847857Y-72398095D01*
X204943095Y-72398095D01*
X205085952Y-72445714D01*
X205657380Y-73017142D01*
X205657380Y-72398095D01*
X201287142Y-69132380D02*
X200953809Y-68656190D01*
X200715714Y-69132380D02*
X200715714Y-68132380D01*
X201096666Y-68132380D01*
X201191904Y-68180000D01*
X201239523Y-68227619D01*
X201287142Y-68322857D01*
X201287142Y-68465714D01*
X201239523Y-68560952D01*
X201191904Y-68608571D01*
X201096666Y-68656190D01*
X200715714Y-68656190D01*
X202239523Y-69132380D02*
X201668095Y-69132380D01*
X201953809Y-69132380D02*
X201953809Y-68132380D01*
X201858571Y-68275238D01*
X201763333Y-68370476D01*
X201668095Y-68418095D01*
X203191904Y-69132380D02*
X202620476Y-69132380D01*
X202906190Y-69132380D02*
X202906190Y-68132380D01*
X202810952Y-68275238D01*
X202715714Y-68370476D01*
X202620476Y-68418095D01*
X199382142Y-69132380D02*
X199048809Y-68656190D01*
X198810714Y-69132380D02*
X198810714Y-68132380D01*
X199191666Y-68132380D01*
X199286904Y-68180000D01*
X199334523Y-68227619D01*
X199382142Y-68322857D01*
X199382142Y-68465714D01*
X199334523Y-68560952D01*
X199286904Y-68608571D01*
X199191666Y-68656190D01*
X198810714Y-68656190D01*
X200334523Y-69132380D02*
X199763095Y-69132380D01*
X200048809Y-69132380D02*
X200048809Y-68132380D01*
X199953571Y-68275238D01*
X199858333Y-68370476D01*
X199763095Y-68418095D01*
X200953571Y-68132380D02*
X201048809Y-68132380D01*
X201144047Y-68180000D01*
X201191666Y-68227619D01*
X201239285Y-68322857D01*
X201286904Y-68513333D01*
X201286904Y-68751428D01*
X201239285Y-68941904D01*
X201191666Y-69037142D01*
X201144047Y-69084761D01*
X201048809Y-69132380D01*
X200953571Y-69132380D01*
X200858333Y-69084761D01*
X200810714Y-69037142D01*
X200763095Y-68941904D01*
X200715476Y-68751428D01*
X200715476Y-68513333D01*
X200763095Y-68322857D01*
X200810714Y-68227619D01*
X200858333Y-68180000D01*
X200953571Y-68132380D01*
X199234380Y-80176666D02*
X198758190Y-80510000D01*
X199234380Y-80748095D02*
X198234380Y-80748095D01*
X198234380Y-80367142D01*
X198282000Y-80271904D01*
X198329619Y-80224285D01*
X198424857Y-80176666D01*
X198567714Y-80176666D01*
X198662952Y-80224285D01*
X198710571Y-80271904D01*
X198758190Y-80367142D01*
X198758190Y-80748095D01*
X199234380Y-79700476D02*
X199234380Y-79510000D01*
X199186761Y-79414761D01*
X199139142Y-79367142D01*
X198996285Y-79271904D01*
X198805809Y-79224285D01*
X198424857Y-79224285D01*
X198329619Y-79271904D01*
X198282000Y-79319523D01*
X198234380Y-79414761D01*
X198234380Y-79605238D01*
X198282000Y-79700476D01*
X198329619Y-79748095D01*
X198424857Y-79795714D01*
X198662952Y-79795714D01*
X198758190Y-79748095D01*
X198805809Y-79700476D01*
X198853428Y-79605238D01*
X198853428Y-79414761D01*
X198805809Y-79319523D01*
X198758190Y-79271904D01*
X198662952Y-79224285D01*
X199234380Y-78271666D02*
X198758190Y-78605000D01*
X199234380Y-78843095D02*
X198234380Y-78843095D01*
X198234380Y-78462142D01*
X198282000Y-78366904D01*
X198329619Y-78319285D01*
X198424857Y-78271666D01*
X198567714Y-78271666D01*
X198662952Y-78319285D01*
X198710571Y-78366904D01*
X198758190Y-78462142D01*
X198758190Y-78843095D01*
X198662952Y-77700238D02*
X198615333Y-77795476D01*
X198567714Y-77843095D01*
X198472476Y-77890714D01*
X198424857Y-77890714D01*
X198329619Y-77843095D01*
X198282000Y-77795476D01*
X198234380Y-77700238D01*
X198234380Y-77509761D01*
X198282000Y-77414523D01*
X198329619Y-77366904D01*
X198424857Y-77319285D01*
X198472476Y-77319285D01*
X198567714Y-77366904D01*
X198615333Y-77414523D01*
X198662952Y-77509761D01*
X198662952Y-77700238D01*
X198710571Y-77795476D01*
X198758190Y-77843095D01*
X198853428Y-77890714D01*
X199043904Y-77890714D01*
X199139142Y-77843095D01*
X199186761Y-77795476D01*
X199234380Y-77700238D01*
X199234380Y-77509761D01*
X199186761Y-77414523D01*
X199139142Y-77366904D01*
X199043904Y-77319285D01*
X198853428Y-77319285D01*
X198758190Y-77366904D01*
X198710571Y-77414523D01*
X198662952Y-77509761D01*
X196894380Y-76366666D02*
X196418190Y-76700000D01*
X196894380Y-76938095D02*
X195894380Y-76938095D01*
X195894380Y-76557142D01*
X195942000Y-76461904D01*
X195989619Y-76414285D01*
X196084857Y-76366666D01*
X196227714Y-76366666D01*
X196322952Y-76414285D01*
X196370571Y-76461904D01*
X196418190Y-76557142D01*
X196418190Y-76938095D01*
X195894380Y-76033333D02*
X195894380Y-75366666D01*
X196894380Y-75795238D01*
X231608333Y-90622380D02*
X231275000Y-90146190D01*
X231036904Y-90622380D02*
X231036904Y-89622380D01*
X231417857Y-89622380D01*
X231513095Y-89670000D01*
X231560714Y-89717619D01*
X231608333Y-89812857D01*
X231608333Y-89955714D01*
X231560714Y-90050952D01*
X231513095Y-90098571D01*
X231417857Y-90146190D01*
X231036904Y-90146190D01*
X232465476Y-89622380D02*
X232275000Y-89622380D01*
X232179761Y-89670000D01*
X232132142Y-89717619D01*
X232036904Y-89860476D01*
X231989285Y-90050952D01*
X231989285Y-90431904D01*
X232036904Y-90527142D01*
X232084523Y-90574761D01*
X232179761Y-90622380D01*
X232370238Y-90622380D01*
X232465476Y-90574761D01*
X232513095Y-90527142D01*
X232560714Y-90431904D01*
X232560714Y-90193809D01*
X232513095Y-90098571D01*
X232465476Y-90050952D01*
X232370238Y-90003333D01*
X232179761Y-90003333D01*
X232084523Y-90050952D01*
X232036904Y-90098571D01*
X231989285Y-90193809D01*
X229068333Y-92781380D02*
X228735000Y-92305190D01*
X228496904Y-92781380D02*
X228496904Y-91781380D01*
X228877857Y-91781380D01*
X228973095Y-91829000D01*
X229020714Y-91876619D01*
X229068333Y-91971857D01*
X229068333Y-92114714D01*
X229020714Y-92209952D01*
X228973095Y-92257571D01*
X228877857Y-92305190D01*
X228496904Y-92305190D01*
X229973095Y-91781380D02*
X229496904Y-91781380D01*
X229449285Y-92257571D01*
X229496904Y-92209952D01*
X229592142Y-92162333D01*
X229830238Y-92162333D01*
X229925476Y-92209952D01*
X229973095Y-92257571D01*
X230020714Y-92352809D01*
X230020714Y-92590904D01*
X229973095Y-92686142D01*
X229925476Y-92733761D01*
X229830238Y-92781380D01*
X229592142Y-92781380D01*
X229496904Y-92733761D01*
X229449285Y-92686142D01*
X223353333Y-90622380D02*
X223020000Y-90146190D01*
X222781904Y-90622380D02*
X222781904Y-89622380D01*
X223162857Y-89622380D01*
X223258095Y-89670000D01*
X223305714Y-89717619D01*
X223353333Y-89812857D01*
X223353333Y-89955714D01*
X223305714Y-90050952D01*
X223258095Y-90098571D01*
X223162857Y-90146190D01*
X222781904Y-90146190D01*
X224210476Y-89955714D02*
X224210476Y-90622380D01*
X223972380Y-89574761D02*
X223734285Y-90289047D01*
X224353333Y-90289047D01*
X244689333Y-67100380D02*
X244356000Y-66624190D01*
X244117904Y-67100380D02*
X244117904Y-66100380D01*
X244498857Y-66100380D01*
X244594095Y-66148000D01*
X244641714Y-66195619D01*
X244689333Y-66290857D01*
X244689333Y-66433714D01*
X244641714Y-66528952D01*
X244594095Y-66576571D01*
X244498857Y-66624190D01*
X244117904Y-66624190D01*
X245022666Y-66100380D02*
X245641714Y-66100380D01*
X245308380Y-66481333D01*
X245451238Y-66481333D01*
X245546476Y-66528952D01*
X245594095Y-66576571D01*
X245641714Y-66671809D01*
X245641714Y-66909904D01*
X245594095Y-67005142D01*
X245546476Y-67052761D01*
X245451238Y-67100380D01*
X245165523Y-67100380D01*
X245070285Y-67052761D01*
X245022666Y-67005142D01*
X239312380Y-90910666D02*
X238836190Y-91244000D01*
X239312380Y-91482095D02*
X238312380Y-91482095D01*
X238312380Y-91101142D01*
X238360000Y-91005904D01*
X238407619Y-90958285D01*
X238502857Y-90910666D01*
X238645714Y-90910666D01*
X238740952Y-90958285D01*
X238788571Y-91005904D01*
X238836190Y-91101142D01*
X238836190Y-91482095D01*
X238407619Y-90529714D02*
X238360000Y-90482095D01*
X238312380Y-90386857D01*
X238312380Y-90148761D01*
X238360000Y-90053523D01*
X238407619Y-90005904D01*
X238502857Y-89958285D01*
X238598095Y-89958285D01*
X238740952Y-90005904D01*
X239312380Y-90577333D01*
X239312380Y-89958285D01*
X240382380Y-90910666D02*
X239906190Y-91244000D01*
X240382380Y-91482095D02*
X239382380Y-91482095D01*
X239382380Y-91101142D01*
X239430000Y-91005904D01*
X239477619Y-90958285D01*
X239572857Y-90910666D01*
X239715714Y-90910666D01*
X239810952Y-90958285D01*
X239858571Y-91005904D01*
X239906190Y-91101142D01*
X239906190Y-91482095D01*
X240382380Y-89958285D02*
X240382380Y-90529714D01*
X240382380Y-90244000D02*
X239382380Y-90244000D01*
X239525238Y-90339238D01*
X239620476Y-90434476D01*
X239668095Y-90529714D01*
X243197142Y-90417142D02*
X243149523Y-90464761D01*
X243006666Y-90512380D01*
X242911428Y-90512380D01*
X242768571Y-90464761D01*
X242673333Y-90369523D01*
X242625714Y-90274285D01*
X242578095Y-90083809D01*
X242578095Y-89940952D01*
X242625714Y-89750476D01*
X242673333Y-89655238D01*
X242768571Y-89560000D01*
X242911428Y-89512380D01*
X243006666Y-89512380D01*
X243149523Y-89560000D01*
X243197142Y-89607619D01*
X243578095Y-89607619D02*
X243625714Y-89560000D01*
X243720952Y-89512380D01*
X243959047Y-89512380D01*
X244054285Y-89560000D01*
X244101904Y-89607619D01*
X244149523Y-89702857D01*
X244149523Y-89798095D01*
X244101904Y-89940952D01*
X243530476Y-90512380D01*
X244149523Y-90512380D01*
X244530476Y-89607619D02*
X244578095Y-89560000D01*
X244673333Y-89512380D01*
X244911428Y-89512380D01*
X245006666Y-89560000D01*
X245054285Y-89607619D01*
X245101904Y-89702857D01*
X245101904Y-89798095D01*
X245054285Y-89940952D01*
X244482857Y-90512380D01*
X245101904Y-90512380D01*
X211177142Y-97797857D02*
X211224761Y-97845476D01*
X211272380Y-97988333D01*
X211272380Y-98083571D01*
X211224761Y-98226428D01*
X211129523Y-98321666D01*
X211034285Y-98369285D01*
X210843809Y-98416904D01*
X210700952Y-98416904D01*
X210510476Y-98369285D01*
X210415238Y-98321666D01*
X210320000Y-98226428D01*
X210272380Y-98083571D01*
X210272380Y-97988333D01*
X210320000Y-97845476D01*
X210367619Y-97797857D01*
X210367619Y-97416904D02*
X210320000Y-97369285D01*
X210272380Y-97274047D01*
X210272380Y-97035952D01*
X210320000Y-96940714D01*
X210367619Y-96893095D01*
X210462857Y-96845476D01*
X210558095Y-96845476D01*
X210700952Y-96893095D01*
X211272380Y-97464523D01*
X211272380Y-96845476D01*
X211272380Y-95893095D02*
X211272380Y-96464523D01*
X211272380Y-96178809D02*
X210272380Y-96178809D01*
X210415238Y-96274047D01*
X210510476Y-96369285D01*
X210558095Y-96464523D01*
X222497142Y-71762857D02*
X222544761Y-71810476D01*
X222592380Y-71953333D01*
X222592380Y-72048571D01*
X222544761Y-72191428D01*
X222449523Y-72286666D01*
X222354285Y-72334285D01*
X222163809Y-72381904D01*
X222020952Y-72381904D01*
X221830476Y-72334285D01*
X221735238Y-72286666D01*
X221640000Y-72191428D01*
X221592380Y-72048571D01*
X221592380Y-71953333D01*
X221640000Y-71810476D01*
X221687619Y-71762857D01*
X221687619Y-71381904D02*
X221640000Y-71334285D01*
X221592380Y-71239047D01*
X221592380Y-71000952D01*
X221640000Y-70905714D01*
X221687619Y-70858095D01*
X221782857Y-70810476D01*
X221878095Y-70810476D01*
X222020952Y-70858095D01*
X222592380Y-71429523D01*
X222592380Y-70810476D01*
X221592380Y-70191428D02*
X221592380Y-70096190D01*
X221640000Y-70000952D01*
X221687619Y-69953333D01*
X221782857Y-69905714D01*
X221973333Y-69858095D01*
X222211428Y-69858095D01*
X222401904Y-69905714D01*
X222497142Y-69953333D01*
X222544761Y-70000952D01*
X222592380Y-70096190D01*
X222592380Y-70191428D01*
X222544761Y-70286666D01*
X222497142Y-70334285D01*
X222401904Y-70381904D01*
X222211428Y-70429523D01*
X221973333Y-70429523D01*
X221782857Y-70381904D01*
X221687619Y-70334285D01*
X221640000Y-70286666D01*
X221592380Y-70191428D01*
X208272142Y-96352142D02*
X208224523Y-96399761D01*
X208081666Y-96447380D01*
X207986428Y-96447380D01*
X207843571Y-96399761D01*
X207748333Y-96304523D01*
X207700714Y-96209285D01*
X207653095Y-96018809D01*
X207653095Y-95875952D01*
X207700714Y-95685476D01*
X207748333Y-95590238D01*
X207843571Y-95495000D01*
X207986428Y-95447380D01*
X208081666Y-95447380D01*
X208224523Y-95495000D01*
X208272142Y-95542619D01*
X209224523Y-96447380D02*
X208653095Y-96447380D01*
X208938809Y-96447380D02*
X208938809Y-95447380D01*
X208843571Y-95590238D01*
X208748333Y-95685476D01*
X208653095Y-95733095D01*
X209700714Y-96447380D02*
X209891190Y-96447380D01*
X209986428Y-96399761D01*
X210034047Y-96352142D01*
X210129285Y-96209285D01*
X210176904Y-96018809D01*
X210176904Y-95637857D01*
X210129285Y-95542619D01*
X210081666Y-95495000D01*
X209986428Y-95447380D01*
X209795952Y-95447380D01*
X209700714Y-95495000D01*
X209653095Y-95542619D01*
X209605476Y-95637857D01*
X209605476Y-95875952D01*
X209653095Y-95971190D01*
X209700714Y-96018809D01*
X209795952Y-96066428D01*
X209986428Y-96066428D01*
X210081666Y-96018809D01*
X210129285Y-95971190D01*
X210176904Y-95875952D01*
X217797142Y-70605142D02*
X217749523Y-70652761D01*
X217606666Y-70700380D01*
X217511428Y-70700380D01*
X217368571Y-70652761D01*
X217273333Y-70557523D01*
X217225714Y-70462285D01*
X217178095Y-70271809D01*
X217178095Y-70128952D01*
X217225714Y-69938476D01*
X217273333Y-69843238D01*
X217368571Y-69748000D01*
X217511428Y-69700380D01*
X217606666Y-69700380D01*
X217749523Y-69748000D01*
X217797142Y-69795619D01*
X218749523Y-70700380D02*
X218178095Y-70700380D01*
X218463809Y-70700380D02*
X218463809Y-69700380D01*
X218368571Y-69843238D01*
X218273333Y-69938476D01*
X218178095Y-69986095D01*
X219320952Y-70128952D02*
X219225714Y-70081333D01*
X219178095Y-70033714D01*
X219130476Y-69938476D01*
X219130476Y-69890857D01*
X219178095Y-69795619D01*
X219225714Y-69748000D01*
X219320952Y-69700380D01*
X219511428Y-69700380D01*
X219606666Y-69748000D01*
X219654285Y-69795619D01*
X219701904Y-69890857D01*
X219701904Y-69938476D01*
X219654285Y-70033714D01*
X219606666Y-70081333D01*
X219511428Y-70128952D01*
X219320952Y-70128952D01*
X219225714Y-70176571D01*
X219178095Y-70224190D01*
X219130476Y-70319428D01*
X219130476Y-70509904D01*
X219178095Y-70605142D01*
X219225714Y-70652761D01*
X219320952Y-70700380D01*
X219511428Y-70700380D01*
X219606666Y-70652761D01*
X219654285Y-70605142D01*
X219701904Y-70509904D01*
X219701904Y-70319428D01*
X219654285Y-70224190D01*
X219606666Y-70176571D01*
X219511428Y-70128952D01*
X244307142Y-91574857D02*
X244354761Y-91622476D01*
X244402380Y-91765333D01*
X244402380Y-91860571D01*
X244354761Y-92003428D01*
X244259523Y-92098666D01*
X244164285Y-92146285D01*
X243973809Y-92193904D01*
X243830952Y-92193904D01*
X243640476Y-92146285D01*
X243545238Y-92098666D01*
X243450000Y-92003428D01*
X243402380Y-91860571D01*
X243402380Y-91765333D01*
X243450000Y-91622476D01*
X243497619Y-91574857D01*
X244402380Y-90622476D02*
X244402380Y-91193904D01*
X244402380Y-90908190D02*
X243402380Y-90908190D01*
X243545238Y-91003428D01*
X243640476Y-91098666D01*
X243688095Y-91193904D01*
X243402380Y-90289142D02*
X243402380Y-89622476D01*
X244402380Y-90051047D01*
X244561142Y-66936857D02*
X244608761Y-66984476D01*
X244656380Y-67127333D01*
X244656380Y-67222571D01*
X244608761Y-67365428D01*
X244513523Y-67460666D01*
X244418285Y-67508285D01*
X244227809Y-67555904D01*
X244084952Y-67555904D01*
X243894476Y-67508285D01*
X243799238Y-67460666D01*
X243704000Y-67365428D01*
X243656380Y-67222571D01*
X243656380Y-67127333D01*
X243704000Y-66984476D01*
X243751619Y-66936857D01*
X244656380Y-65984476D02*
X244656380Y-66555904D01*
X244656380Y-66270190D02*
X243656380Y-66270190D01*
X243799238Y-66365428D01*
X243894476Y-66460666D01*
X243942095Y-66555904D01*
X243656380Y-65127333D02*
X243656380Y-65317809D01*
X243704000Y-65413047D01*
X243751619Y-65460666D01*
X243894476Y-65555904D01*
X244084952Y-65603523D01*
X244465904Y-65603523D01*
X244561142Y-65555904D01*
X244608761Y-65508285D01*
X244656380Y-65413047D01*
X244656380Y-65222571D01*
X244608761Y-65127333D01*
X244561142Y-65079714D01*
X244465904Y-65032095D01*
X244227809Y-65032095D01*
X244132571Y-65079714D01*
X244084952Y-65127333D01*
X244037333Y-65222571D01*
X244037333Y-65413047D01*
X244084952Y-65508285D01*
X244132571Y-65555904D01*
X244227809Y-65603523D01*
X240277142Y-65920857D02*
X240324761Y-65968476D01*
X240372380Y-66111333D01*
X240372380Y-66206571D01*
X240324761Y-66349428D01*
X240229523Y-66444666D01*
X240134285Y-66492285D01*
X239943809Y-66539904D01*
X239800952Y-66539904D01*
X239610476Y-66492285D01*
X239515238Y-66444666D01*
X239420000Y-66349428D01*
X239372380Y-66206571D01*
X239372380Y-66111333D01*
X239420000Y-65968476D01*
X239467619Y-65920857D01*
X240372380Y-64968476D02*
X240372380Y-65539904D01*
X240372380Y-65254190D02*
X239372380Y-65254190D01*
X239515238Y-65349428D01*
X239610476Y-65444666D01*
X239658095Y-65539904D01*
X239372380Y-64063714D02*
X239372380Y-64539904D01*
X239848571Y-64587523D01*
X239800952Y-64539904D01*
X239753333Y-64444666D01*
X239753333Y-64206571D01*
X239800952Y-64111333D01*
X239848571Y-64063714D01*
X239943809Y-64016095D01*
X240181904Y-64016095D01*
X240277142Y-64063714D01*
X240324761Y-64111333D01*
X240372380Y-64206571D01*
X240372380Y-64444666D01*
X240324761Y-64539904D01*
X240277142Y-64587523D01*
X246881142Y-64904857D02*
X246928761Y-64952476D01*
X246976380Y-65095333D01*
X246976380Y-65190571D01*
X246928761Y-65333428D01*
X246833523Y-65428666D01*
X246738285Y-65476285D01*
X246547809Y-65523904D01*
X246404952Y-65523904D01*
X246214476Y-65476285D01*
X246119238Y-65428666D01*
X246024000Y-65333428D01*
X245976380Y-65190571D01*
X245976380Y-65095333D01*
X246024000Y-64952476D01*
X246071619Y-64904857D01*
X246976380Y-63952476D02*
X246976380Y-64523904D01*
X246976380Y-64238190D02*
X245976380Y-64238190D01*
X246119238Y-64333428D01*
X246214476Y-64428666D01*
X246262095Y-64523904D01*
X246309714Y-63095333D02*
X246976380Y-63095333D01*
X245928761Y-63333428D02*
X246643047Y-63571523D01*
X246643047Y-62952476D01*
X209382142Y-87637857D02*
X209429761Y-87685476D01*
X209477380Y-87828333D01*
X209477380Y-87923571D01*
X209429761Y-88066428D01*
X209334523Y-88161666D01*
X209239285Y-88209285D01*
X209048809Y-88256904D01*
X208905952Y-88256904D01*
X208715476Y-88209285D01*
X208620238Y-88161666D01*
X208525000Y-88066428D01*
X208477380Y-87923571D01*
X208477380Y-87828333D01*
X208525000Y-87685476D01*
X208572619Y-87637857D01*
X209477380Y-86685476D02*
X209477380Y-87256904D01*
X209477380Y-86971190D02*
X208477380Y-86971190D01*
X208620238Y-87066428D01*
X208715476Y-87161666D01*
X208763095Y-87256904D01*
X208477380Y-86066428D02*
X208477380Y-85971190D01*
X208525000Y-85875952D01*
X208572619Y-85828333D01*
X208667857Y-85780714D01*
X208858333Y-85733095D01*
X209096428Y-85733095D01*
X209286904Y-85780714D01*
X209382142Y-85828333D01*
X209429761Y-85875952D01*
X209477380Y-85971190D01*
X209477380Y-86066428D01*
X209429761Y-86161666D01*
X209382142Y-86209285D01*
X209286904Y-86256904D01*
X209096428Y-86304523D01*
X208858333Y-86304523D01*
X208667857Y-86256904D01*
X208572619Y-86209285D01*
X208525000Y-86161666D01*
X208477380Y-86066428D01*
X240625333Y-68539142D02*
X240577714Y-68586761D01*
X240434857Y-68634380D01*
X240339619Y-68634380D01*
X240196761Y-68586761D01*
X240101523Y-68491523D01*
X240053904Y-68396285D01*
X240006285Y-68205809D01*
X240006285Y-68062952D01*
X240053904Y-67872476D01*
X240101523Y-67777238D01*
X240196761Y-67682000D01*
X240339619Y-67634380D01*
X240434857Y-67634380D01*
X240577714Y-67682000D01*
X240625333Y-67729619D01*
X241101523Y-68634380D02*
X241292000Y-68634380D01*
X241387238Y-68586761D01*
X241434857Y-68539142D01*
X241530095Y-68396285D01*
X241577714Y-68205809D01*
X241577714Y-67824857D01*
X241530095Y-67729619D01*
X241482476Y-67682000D01*
X241387238Y-67634380D01*
X241196761Y-67634380D01*
X241101523Y-67682000D01*
X241053904Y-67729619D01*
X241006285Y-67824857D01*
X241006285Y-68062952D01*
X241053904Y-68158190D01*
X241101523Y-68205809D01*
X241196761Y-68253428D01*
X241387238Y-68253428D01*
X241482476Y-68205809D01*
X241530095Y-68158190D01*
X241577714Y-68062952D01*
X210652142Y-87161666D02*
X210699761Y-87209285D01*
X210747380Y-87352142D01*
X210747380Y-87447380D01*
X210699761Y-87590238D01*
X210604523Y-87685476D01*
X210509285Y-87733095D01*
X210318809Y-87780714D01*
X210175952Y-87780714D01*
X209985476Y-87733095D01*
X209890238Y-87685476D01*
X209795000Y-87590238D01*
X209747380Y-87447380D01*
X209747380Y-87352142D01*
X209795000Y-87209285D01*
X209842619Y-87161666D01*
X209747380Y-86828333D02*
X209747380Y-86161666D01*
X210747380Y-86590238D01*
X244689333Y-70351142D02*
X244641714Y-70398761D01*
X244498857Y-70446380D01*
X244403619Y-70446380D01*
X244260761Y-70398761D01*
X244165523Y-70303523D01*
X244117904Y-70208285D01*
X244070285Y-70017809D01*
X244070285Y-69874952D01*
X244117904Y-69684476D01*
X244165523Y-69589238D01*
X244260761Y-69494000D01*
X244403619Y-69446380D01*
X244498857Y-69446380D01*
X244641714Y-69494000D01*
X244689333Y-69541619D01*
X245070285Y-69541619D02*
X245117904Y-69494000D01*
X245213142Y-69446380D01*
X245451238Y-69446380D01*
X245546476Y-69494000D01*
X245594095Y-69541619D01*
X245641714Y-69636857D01*
X245641714Y-69732095D01*
X245594095Y-69874952D01*
X245022666Y-70446380D01*
X245641714Y-70446380D01*
X244348095Y-88860380D02*
X244348095Y-89669904D01*
X244395714Y-89765142D01*
X244443333Y-89812761D01*
X244538571Y-89860380D01*
X244729047Y-89860380D01*
X244824285Y-89812761D01*
X244871904Y-89765142D01*
X244919523Y-89669904D01*
X244919523Y-88860380D01*
X245824285Y-88860380D02*
X245633809Y-88860380D01*
X245538571Y-88908000D01*
X245490952Y-88955619D01*
X245395714Y-89098476D01*
X245348095Y-89288952D01*
X245348095Y-89669904D01*
X245395714Y-89765142D01*
X245443333Y-89812761D01*
X245538571Y-89860380D01*
X245729047Y-89860380D01*
X245824285Y-89812761D01*
X245871904Y-89765142D01*
X245919523Y-89669904D01*
X245919523Y-89431809D01*
X245871904Y-89336571D01*
X245824285Y-89288952D01*
X245729047Y-89241333D01*
X245538571Y-89241333D01*
X245443333Y-89288952D01*
X245395714Y-89336571D01*
X245348095Y-89431809D01*
X240649428Y-91114571D02*
X240792285Y-91162190D01*
X240839904Y-91209809D01*
X240887523Y-91305047D01*
X240887523Y-91447904D01*
X240839904Y-91543142D01*
X240792285Y-91590761D01*
X240697047Y-91638380D01*
X240316095Y-91638380D01*
X240316095Y-90638380D01*
X240649428Y-90638380D01*
X240744666Y-90686000D01*
X240792285Y-90733619D01*
X240839904Y-90828857D01*
X240839904Y-90924095D01*
X240792285Y-91019333D01*
X240744666Y-91066952D01*
X240649428Y-91114571D01*
X240316095Y-91114571D01*
X241316095Y-91638380D02*
X241316095Y-90638380D01*
X241649428Y-91352666D01*
X241982761Y-90638380D01*
X241982761Y-91638380D01*
X242458952Y-91638380D02*
X242458952Y-90638380D01*
X242839904Y-90638380D01*
X242935142Y-90686000D01*
X242982761Y-90733619D01*
X243030380Y-90828857D01*
X243030380Y-90971714D01*
X242982761Y-91066952D01*
X242935142Y-91114571D01*
X242839904Y-91162190D01*
X242458952Y-91162190D01*
X243363714Y-90638380D02*
X243982761Y-90638380D01*
X243649428Y-91019333D01*
X243792285Y-91019333D01*
X243887523Y-91066952D01*
X243935142Y-91114571D01*
X243982761Y-91209809D01*
X243982761Y-91447904D01*
X243935142Y-91543142D01*
X243887523Y-91590761D01*
X243792285Y-91638380D01*
X243506571Y-91638380D01*
X243411333Y-91590761D01*
X243363714Y-91543142D01*
X244554190Y-91066952D02*
X244458952Y-91019333D01*
X244411333Y-90971714D01*
X244363714Y-90876476D01*
X244363714Y-90828857D01*
X244411333Y-90733619D01*
X244458952Y-90686000D01*
X244554190Y-90638380D01*
X244744666Y-90638380D01*
X244839904Y-90686000D01*
X244887523Y-90733619D01*
X244935142Y-90828857D01*
X244935142Y-90876476D01*
X244887523Y-90971714D01*
X244839904Y-91019333D01*
X244744666Y-91066952D01*
X244554190Y-91066952D01*
X244458952Y-91114571D01*
X244411333Y-91162190D01*
X244363714Y-91257428D01*
X244363714Y-91447904D01*
X244411333Y-91543142D01*
X244458952Y-91590761D01*
X244554190Y-91638380D01*
X244744666Y-91638380D01*
X244839904Y-91590761D01*
X244887523Y-91543142D01*
X244935142Y-91447904D01*
X244935142Y-91257428D01*
X244887523Y-91162190D01*
X244839904Y-91114571D01*
X244744666Y-91066952D01*
X245506571Y-91066952D02*
X245411333Y-91019333D01*
X245363714Y-90971714D01*
X245316095Y-90876476D01*
X245316095Y-90828857D01*
X245363714Y-90733619D01*
X245411333Y-90686000D01*
X245506571Y-90638380D01*
X245697047Y-90638380D01*
X245792285Y-90686000D01*
X245839904Y-90733619D01*
X245887523Y-90828857D01*
X245887523Y-90876476D01*
X245839904Y-90971714D01*
X245792285Y-91019333D01*
X245697047Y-91066952D01*
X245506571Y-91066952D01*
X245411333Y-91114571D01*
X245363714Y-91162190D01*
X245316095Y-91257428D01*
X245316095Y-91447904D01*
X245363714Y-91543142D01*
X245411333Y-91590761D01*
X245506571Y-91638380D01*
X245697047Y-91638380D01*
X245792285Y-91590761D01*
X245839904Y-91543142D01*
X245887523Y-91447904D01*
X245887523Y-91257428D01*
X245839904Y-91162190D01*
X245792285Y-91114571D01*
X245697047Y-91066952D01*
X241541300Y-89888380D02*
X241541300Y-90126476D01*
X241303204Y-90031238D02*
X241541300Y-90126476D01*
X241779395Y-90031238D01*
X241398442Y-90316952D02*
X241541300Y-90126476D01*
X241684157Y-90316952D01*
X241541300Y-89888380D02*
X241541300Y-90126476D01*
X241303204Y-90031238D02*
X241541300Y-90126476D01*
X241779395Y-90031238D01*
X241398442Y-90316952D02*
X241541300Y-90126476D01*
X241684157Y-90316952D01*
X203204380Y-65095333D02*
X203918666Y-65095333D01*
X204061523Y-65142952D01*
X204156761Y-65238190D01*
X204204380Y-65381047D01*
X204204380Y-65476285D01*
X204204380Y-64619142D02*
X203204380Y-64619142D01*
X203204380Y-64238190D01*
X203252000Y-64142952D01*
X203299619Y-64095333D01*
X203394857Y-64047714D01*
X203537714Y-64047714D01*
X203632952Y-64095333D01*
X203680571Y-64142952D01*
X203728190Y-64238190D01*
X203728190Y-64619142D01*
X203537714Y-63190571D02*
X204204380Y-63190571D01*
X203156761Y-63428666D02*
X203871047Y-63666761D01*
X203871047Y-63047714D01*
D15*
X221288666Y-54126523D02*
X221288666Y-55033666D01*
X221228190Y-55215095D01*
X221107238Y-55336047D01*
X220925809Y-55396523D01*
X220804857Y-55396523D01*
X221772476Y-54126523D02*
X222558666Y-54126523D01*
X222135333Y-54610333D01*
X222316761Y-54610333D01*
X222437714Y-54670809D01*
X222498190Y-54731285D01*
X222558666Y-54852238D01*
X222558666Y-55154619D01*
X222498190Y-55275571D01*
X222437714Y-55336047D01*
X222316761Y-55396523D01*
X221953904Y-55396523D01*
X221832952Y-55336047D01*
X221772476Y-55275571D01*
D10*
X242752666Y-98258380D02*
X242752666Y-98972666D01*
X242705047Y-99115523D01*
X242609809Y-99210761D01*
X242466952Y-99258380D01*
X242371714Y-99258380D01*
X243228857Y-99258380D02*
X243228857Y-98258380D01*
X243609809Y-98258380D01*
X243705047Y-98306000D01*
X243752666Y-98353619D01*
X243800285Y-98448857D01*
X243800285Y-98591714D01*
X243752666Y-98686952D01*
X243705047Y-98734571D01*
X243609809Y-98782190D01*
X243228857Y-98782190D01*
X244133619Y-98258380D02*
X244752666Y-98258380D01*
X244419333Y-98639333D01*
X244562190Y-98639333D01*
X244657428Y-98686952D01*
X244705047Y-98734571D01*
X244752666Y-98829809D01*
X244752666Y-99067904D01*
X244705047Y-99163142D01*
X244657428Y-99210761D01*
X244562190Y-99258380D01*
X244276476Y-99258380D01*
X244181238Y-99210761D01*
X244133619Y-99163142D01*
X245792666Y-98258380D02*
X245792666Y-98972666D01*
X245745047Y-99115523D01*
X245649809Y-99210761D01*
X245506952Y-99258380D01*
X245411714Y-99258380D01*
X246173619Y-98258380D02*
X246840285Y-98258380D01*
X246411714Y-99258380D01*
X247957500Y-96226280D02*
X247957500Y-96464376D01*
X247719404Y-96369138D02*
X247957500Y-96464376D01*
X248195595Y-96369138D01*
X247814642Y-96654852D02*
X247957500Y-96464376D01*
X248100357Y-96654852D01*
X239268095Y-98004380D02*
X239268095Y-98813904D01*
X239315714Y-98909142D01*
X239363333Y-98956761D01*
X239458571Y-99004380D01*
X239649047Y-99004380D01*
X239744285Y-98956761D01*
X239791904Y-98909142D01*
X239839523Y-98813904D01*
X239839523Y-98004380D01*
X240363333Y-99004380D02*
X240553809Y-99004380D01*
X240649047Y-98956761D01*
X240696666Y-98909142D01*
X240791904Y-98766285D01*
X240839523Y-98575809D01*
X240839523Y-98194857D01*
X240791904Y-98099619D01*
X240744285Y-98052000D01*
X240649047Y-98004380D01*
X240458571Y-98004380D01*
X240363333Y-98052000D01*
X240315714Y-98099619D01*
X240268095Y-98194857D01*
X240268095Y-98432952D01*
X240315714Y-98528190D01*
X240363333Y-98575809D01*
X240458571Y-98623428D01*
X240649047Y-98623428D01*
X240744285Y-98575809D01*
X240791904Y-98528190D01*
X240839523Y-98432952D01*
X231735380Y-103636333D02*
X232449666Y-103636333D01*
X232592523Y-103683952D01*
X232687761Y-103779190D01*
X232735380Y-103922047D01*
X232735380Y-104017285D01*
X231735380Y-102731571D02*
X231735380Y-102922047D01*
X231783000Y-103017285D01*
X231830619Y-103064904D01*
X231973476Y-103160142D01*
X232163952Y-103207761D01*
X232544904Y-103207761D01*
X232640142Y-103160142D01*
X232687761Y-103112523D01*
X232735380Y-103017285D01*
X232735380Y-102826809D01*
X232687761Y-102731571D01*
X232640142Y-102683952D01*
X232544904Y-102636333D01*
X232306809Y-102636333D01*
X232211571Y-102683952D01*
X232163952Y-102731571D01*
X232116333Y-102826809D01*
X232116333Y-103017285D01*
X232163952Y-103112523D01*
X232211571Y-103160142D01*
X232306809Y-103207761D01*
X250642380Y-101068095D02*
X249642380Y-101068095D01*
X249642380Y-100830000D01*
X249690000Y-100687142D01*
X249785238Y-100591904D01*
X249880476Y-100544285D01*
X250070952Y-100496666D01*
X250213809Y-100496666D01*
X250404285Y-100544285D01*
X250499523Y-100591904D01*
X250594761Y-100687142D01*
X250642380Y-100830000D01*
X250642380Y-101068095D01*
X249642380Y-100163333D02*
X249642380Y-99496666D01*
X250642380Y-99925238D01*
X200152095Y-88098380D02*
X200152095Y-88907904D01*
X200199714Y-89003142D01*
X200247333Y-89050761D01*
X200342571Y-89098380D01*
X200533047Y-89098380D01*
X200628285Y-89050761D01*
X200675904Y-89003142D01*
X200723523Y-88907904D01*
X200723523Y-88098380D01*
X201104476Y-88098380D02*
X201723523Y-88098380D01*
X201390190Y-88479333D01*
X201533047Y-88479333D01*
X201628285Y-88526952D01*
X201675904Y-88574571D01*
X201723523Y-88669809D01*
X201723523Y-88907904D01*
X201675904Y-89003142D01*
X201628285Y-89050761D01*
X201533047Y-89098380D01*
X201247333Y-89098380D01*
X201152095Y-89050761D01*
X201104476Y-89003142D01*
X213288666Y-72350380D02*
X213288666Y-73064666D01*
X213241047Y-73207523D01*
X213145809Y-73302761D01*
X213002952Y-73350380D01*
X212907714Y-73350380D01*
X213764857Y-73350380D02*
X213764857Y-72350380D01*
X214145809Y-72350380D01*
X214241047Y-72398000D01*
X214288666Y-72445619D01*
X214336285Y-72540857D01*
X214336285Y-72683714D01*
X214288666Y-72778952D01*
X214241047Y-72826571D01*
X214145809Y-72874190D01*
X213764857Y-72874190D01*
X214717238Y-72445619D02*
X214764857Y-72398000D01*
X214860095Y-72350380D01*
X215098190Y-72350380D01*
X215193428Y-72398000D01*
X215241047Y-72445619D01*
X215288666Y-72540857D01*
X215288666Y-72636095D01*
X215241047Y-72778952D01*
X214669619Y-73350380D01*
X215288666Y-73350380D01*
X243038380Y-87121904D02*
X243847904Y-87121904D01*
X243943142Y-87074285D01*
X243990761Y-87026666D01*
X244038380Y-86931428D01*
X244038380Y-86740952D01*
X243990761Y-86645714D01*
X243943142Y-86598095D01*
X243847904Y-86550476D01*
X243038380Y-86550476D01*
X243133619Y-86121904D02*
X243086000Y-86074285D01*
X243038380Y-85979047D01*
X243038380Y-85740952D01*
X243086000Y-85645714D01*
X243133619Y-85598095D01*
X243228857Y-85550476D01*
X243324095Y-85550476D01*
X243466952Y-85598095D01*
X244038380Y-86169523D01*
X244038380Y-85550476D01*
X215312666Y-77430380D02*
X215312666Y-78144666D01*
X215265047Y-78287523D01*
X215169809Y-78382761D01*
X215026952Y-78430380D01*
X214931714Y-78430380D01*
X216217428Y-77763714D02*
X216217428Y-78430380D01*
X215979333Y-77382761D02*
X215741238Y-78097047D01*
X216360285Y-78097047D01*
X231036904Y-91892380D02*
X231036904Y-90892380D01*
X231275000Y-90892380D01*
X231417857Y-90940000D01*
X231513095Y-91035238D01*
X231560714Y-91130476D01*
X231608333Y-91320952D01*
X231608333Y-91463809D01*
X231560714Y-91654285D01*
X231513095Y-91749523D01*
X231417857Y-91844761D01*
X231275000Y-91892380D01*
X231036904Y-91892380D01*
X231941666Y-90892380D02*
X232560714Y-90892380D01*
X232227380Y-91273333D01*
X232370238Y-91273333D01*
X232465476Y-91320952D01*
X232513095Y-91368571D01*
X232560714Y-91463809D01*
X232560714Y-91701904D01*
X232513095Y-91797142D01*
X232465476Y-91844761D01*
X232370238Y-91892380D01*
X232084523Y-91892380D01*
X231989285Y-91844761D01*
X231941666Y-91797142D01*
X245260761Y-87439333D02*
X245308380Y-87296476D01*
X245308380Y-87058380D01*
X245260761Y-86963142D01*
X245213142Y-86915523D01*
X245117904Y-86867904D01*
X245022666Y-86867904D01*
X244927428Y-86915523D01*
X244879809Y-86963142D01*
X244832190Y-87058380D01*
X244784571Y-87248857D01*
X244736952Y-87344095D01*
X244689333Y-87391714D01*
X244594095Y-87439333D01*
X244498857Y-87439333D01*
X244403619Y-87391714D01*
X244356000Y-87344095D01*
X244308380Y-87248857D01*
X244308380Y-87010761D01*
X244356000Y-86867904D01*
X244308380Y-86534571D02*
X245308380Y-86296476D01*
X244594095Y-86106000D01*
X245308380Y-85915523D01*
X244308380Y-85677428D01*
X244308380Y-85391714D02*
X244308380Y-84772666D01*
X244689333Y-85106000D01*
X244689333Y-84963142D01*
X244736952Y-84867904D01*
X244784571Y-84820285D01*
X244879809Y-84772666D01*
X245117904Y-84772666D01*
X245213142Y-84820285D01*
X245260761Y-84867904D01*
X245308380Y-84963142D01*
X245308380Y-85248857D01*
X245260761Y-85344095D01*
X245213142Y-85391714D01*
X238101142Y-65190666D02*
X238148761Y-65238285D01*
X238196380Y-65381142D01*
X238196380Y-65476380D01*
X238148761Y-65619238D01*
X238053523Y-65714476D01*
X237958285Y-65762095D01*
X237767809Y-65809714D01*
X237624952Y-65809714D01*
X237434476Y-65762095D01*
X237339238Y-65714476D01*
X237244000Y-65619238D01*
X237196380Y-65476380D01*
X237196380Y-65381142D01*
X237244000Y-65238285D01*
X237291619Y-65190666D01*
X237196380Y-64333523D02*
X237196380Y-64524000D01*
X237244000Y-64619238D01*
X237291619Y-64666857D01*
X237434476Y-64762095D01*
X237624952Y-64809714D01*
X238005904Y-64809714D01*
X238101142Y-64762095D01*
X238148761Y-64714476D01*
X238196380Y-64619238D01*
X238196380Y-64428761D01*
X238148761Y-64333523D01*
X238101142Y-64285904D01*
X238005904Y-64238285D01*
X237767809Y-64238285D01*
X237672571Y-64285904D01*
X237624952Y-64333523D01*
X237577333Y-64428761D01*
X237577333Y-64619238D01*
X237624952Y-64714476D01*
X237672571Y-64762095D01*
X237767809Y-64809714D01*
D15*
X199982666Y-100396523D02*
X199982666Y-101303666D01*
X199922190Y-101485095D01*
X199801238Y-101606047D01*
X199619809Y-101666523D01*
X199498857Y-101666523D01*
X201252666Y-101666523D02*
X200526952Y-101666523D01*
X200889809Y-101666523D02*
X200889809Y-100396523D01*
X200768857Y-100577952D01*
X200647904Y-100698904D01*
X200526952Y-100759380D01*
D10*
X201096666Y-66254380D02*
X201096666Y-66968666D01*
X201049047Y-67111523D01*
X200953809Y-67206761D01*
X200810952Y-67254380D01*
X200715714Y-67254380D01*
X201572857Y-67254380D02*
X201572857Y-66254380D01*
X201953809Y-66254380D01*
X202049047Y-66302000D01*
X202096666Y-66349619D01*
X202144285Y-66444857D01*
X202144285Y-66587714D01*
X202096666Y-66682952D01*
X202049047Y-66730571D01*
X201953809Y-66778190D01*
X201572857Y-66778190D01*
X203096666Y-67254380D02*
X202525238Y-67254380D01*
X202810952Y-67254380D02*
X202810952Y-66254380D01*
X202715714Y-66397238D01*
X202620476Y-66492476D01*
X202525238Y-66540095D01*
X211526380Y-94972095D02*
X210526380Y-94972095D01*
X210526380Y-94734000D01*
X210574000Y-94591142D01*
X210669238Y-94495904D01*
X210764476Y-94448285D01*
X210954952Y-94400666D01*
X211097809Y-94400666D01*
X211288285Y-94448285D01*
X211383523Y-94495904D01*
X211478761Y-94591142D01*
X211526380Y-94734000D01*
X211526380Y-94972095D01*
X210526380Y-93543523D02*
X210526380Y-93734000D01*
X210574000Y-93829238D01*
X210621619Y-93876857D01*
X210764476Y-93972095D01*
X210954952Y-94019714D01*
X211335904Y-94019714D01*
X211431142Y-93972095D01*
X211478761Y-93924476D01*
X211526380Y-93829238D01*
X211526380Y-93638761D01*
X211478761Y-93543523D01*
X211431142Y-93495904D01*
X211335904Y-93448285D01*
X211097809Y-93448285D01*
X211002571Y-93495904D01*
X210954952Y-93543523D01*
X210907333Y-93638761D01*
X210907333Y-93829238D01*
X210954952Y-93924476D01*
X211002571Y-93972095D01*
X211097809Y-94019714D01*
X217382380Y-90423904D02*
X218191904Y-90423904D01*
X218287142Y-90376285D01*
X218334761Y-90328666D01*
X218382380Y-90233428D01*
X218382380Y-90042952D01*
X218334761Y-89947714D01*
X218287142Y-89900095D01*
X218191904Y-89852476D01*
X217382380Y-89852476D01*
X217715714Y-88947714D02*
X218382380Y-88947714D01*
X217334761Y-89185809D02*
X218049047Y-89423904D01*
X218049047Y-88804857D01*
X205572142Y-75858666D02*
X205619761Y-75906285D01*
X205667380Y-76049142D01*
X205667380Y-76144380D01*
X205619761Y-76287238D01*
X205524523Y-76382476D01*
X205429285Y-76430095D01*
X205238809Y-76477714D01*
X205095952Y-76477714D01*
X204905476Y-76430095D01*
X204810238Y-76382476D01*
X204715000Y-76287238D01*
X204667380Y-76144380D01*
X204667380Y-76049142D01*
X204715000Y-75906285D01*
X204762619Y-75858666D01*
X204667380Y-74953904D02*
X204667380Y-75430095D01*
X205143571Y-75477714D01*
X205095952Y-75430095D01*
X205048333Y-75334857D01*
X205048333Y-75096761D01*
X205095952Y-75001523D01*
X205143571Y-74953904D01*
X205238809Y-74906285D01*
X205476904Y-74906285D01*
X205572142Y-74953904D01*
X205619761Y-75001523D01*
X205667380Y-75096761D01*
X205667380Y-75334857D01*
X205619761Y-75430095D01*
X205572142Y-75477714D01*
X198747142Y-80875142D02*
X198699523Y-80922761D01*
X198556666Y-80970380D01*
X198461428Y-80970380D01*
X198318571Y-80922761D01*
X198223333Y-80827523D01*
X198175714Y-80732285D01*
X198128095Y-80541809D01*
X198128095Y-80398952D01*
X198175714Y-80208476D01*
X198223333Y-80113238D01*
X198318571Y-80018000D01*
X198461428Y-79970380D01*
X198556666Y-79970380D01*
X198699523Y-80018000D01*
X198747142Y-80065619D01*
X199699523Y-80970380D02*
X199128095Y-80970380D01*
X199413809Y-80970380D02*
X199413809Y-79970380D01*
X199318571Y-80113238D01*
X199223333Y-80208476D01*
X199128095Y-80256095D01*
X200080476Y-80065619D02*
X200128095Y-80018000D01*
X200223333Y-79970380D01*
X200461428Y-79970380D01*
X200556666Y-80018000D01*
X200604285Y-80065619D01*
X200651904Y-80160857D01*
X200651904Y-80256095D01*
X200604285Y-80398952D01*
X200032857Y-80970380D01*
X200651904Y-80970380D01*
X226464904Y-92781380D02*
X226464904Y-91781380D01*
X226703000Y-91781380D01*
X226845857Y-91829000D01*
X226941095Y-91924238D01*
X226988714Y-92019476D01*
X227036333Y-92209952D01*
X227036333Y-92352809D01*
X226988714Y-92543285D01*
X226941095Y-92638523D01*
X226845857Y-92733761D01*
X226703000Y-92781380D01*
X226464904Y-92781380D01*
X227417285Y-91876619D02*
X227464904Y-91829000D01*
X227560142Y-91781380D01*
X227798238Y-91781380D01*
X227893476Y-91829000D01*
X227941095Y-91876619D01*
X227988714Y-91971857D01*
X227988714Y-92067095D01*
X227941095Y-92209952D01*
X227369666Y-92781380D01*
X227988714Y-92781380D01*
X222781904Y-92527380D02*
X222781904Y-91527380D01*
X223020000Y-91527380D01*
X223162857Y-91575000D01*
X223258095Y-91670238D01*
X223305714Y-91765476D01*
X223353333Y-91955952D01*
X223353333Y-92098809D01*
X223305714Y-92289285D01*
X223258095Y-92384523D01*
X223162857Y-92479761D01*
X223020000Y-92527380D01*
X222781904Y-92527380D01*
X224305714Y-92527380D02*
X223734285Y-92527380D01*
X224020000Y-92527380D02*
X224020000Y-91527380D01*
X223924761Y-91670238D01*
X223829523Y-91765476D01*
X223734285Y-91813095D01*
X243736761Y-77279333D02*
X243784380Y-77136476D01*
X243784380Y-76898380D01*
X243736761Y-76803142D01*
X243689142Y-76755523D01*
X243593904Y-76707904D01*
X243498666Y-76707904D01*
X243403428Y-76755523D01*
X243355809Y-76803142D01*
X243308190Y-76898380D01*
X243260571Y-77088857D01*
X243212952Y-77184095D01*
X243165333Y-77231714D01*
X243070095Y-77279333D01*
X242974857Y-77279333D01*
X242879619Y-77231714D01*
X242832000Y-77184095D01*
X242784380Y-77088857D01*
X242784380Y-76850761D01*
X242832000Y-76707904D01*
X242784380Y-76374571D02*
X243784380Y-76136476D01*
X243070095Y-75946000D01*
X243784380Y-75755523D01*
X242784380Y-75517428D01*
X243784380Y-74612666D02*
X243784380Y-75184095D01*
X243784380Y-74898380D02*
X242784380Y-74898380D01*
X242927238Y-74993619D01*
X243022476Y-75088857D01*
X243070095Y-75184095D01*
X213558380Y-82526095D02*
X212558380Y-82526095D01*
X212558380Y-82288000D01*
X212606000Y-82145142D01*
X212701238Y-82049904D01*
X212796476Y-82002285D01*
X212986952Y-81954666D01*
X213129809Y-81954666D01*
X213320285Y-82002285D01*
X213415523Y-82049904D01*
X213510761Y-82145142D01*
X213558380Y-82288000D01*
X213558380Y-82526095D01*
X212891714Y-81097523D02*
X213558380Y-81097523D01*
X212510761Y-81335619D02*
X213225047Y-81573714D01*
X213225047Y-80954666D01*
X200914095Y-79970380D02*
X200914095Y-80779904D01*
X200961714Y-80875142D01*
X201009333Y-80922761D01*
X201104571Y-80970380D01*
X201295047Y-80970380D01*
X201390285Y-80922761D01*
X201437904Y-80875142D01*
X201485523Y-80779904D01*
X201485523Y-79970380D01*
X202485523Y-80970380D02*
X201914095Y-80970380D01*
X202199809Y-80970380D02*
X202199809Y-79970380D01*
X202104571Y-80113238D01*
X202009333Y-80208476D01*
X201914095Y-80256095D01*
X205692380Y-74080666D02*
X205692380Y-74556857D01*
X204692380Y-74556857D01*
X205692380Y-73223523D02*
X205692380Y-73794952D01*
X205692380Y-73509238D02*
X204692380Y-73509238D01*
X204835238Y-73604476D01*
X204930476Y-73699714D01*
X204978095Y-73794952D01*
X208002142Y-78398666D02*
X208049761Y-78446285D01*
X208097380Y-78589142D01*
X208097380Y-78684380D01*
X208049761Y-78827238D01*
X207954523Y-78922476D01*
X207859285Y-78970095D01*
X207668809Y-79017714D01*
X207525952Y-79017714D01*
X207335476Y-78970095D01*
X207240238Y-78922476D01*
X207145000Y-78827238D01*
X207097380Y-78684380D01*
X207097380Y-78589142D01*
X207145000Y-78446285D01*
X207192619Y-78398666D01*
X207430714Y-77541523D02*
X208097380Y-77541523D01*
X207049761Y-77779619D02*
X207764047Y-78017714D01*
X207764047Y-77398666D01*
X243736761Y-72199333D02*
X243784380Y-72056476D01*
X243784380Y-71818380D01*
X243736761Y-71723142D01*
X243689142Y-71675523D01*
X243593904Y-71627904D01*
X243498666Y-71627904D01*
X243403428Y-71675523D01*
X243355809Y-71723142D01*
X243308190Y-71818380D01*
X243260571Y-72008857D01*
X243212952Y-72104095D01*
X243165333Y-72151714D01*
X243070095Y-72199333D01*
X242974857Y-72199333D01*
X242879619Y-72151714D01*
X242832000Y-72104095D01*
X242784380Y-72008857D01*
X242784380Y-71770761D01*
X242832000Y-71627904D01*
X242784380Y-71294571D02*
X243784380Y-71056476D01*
X243070095Y-70866000D01*
X243784380Y-70675523D01*
X242784380Y-70437428D01*
X242879619Y-70104095D02*
X242832000Y-70056476D01*
X242784380Y-69961238D01*
X242784380Y-69723142D01*
X242832000Y-69627904D01*
X242879619Y-69580285D01*
X242974857Y-69532666D01*
X243070095Y-69532666D01*
X243212952Y-69580285D01*
X243784380Y-70151714D01*
X243784380Y-69532666D01*
X206822095Y-100544380D02*
X206822095Y-101353904D01*
X206869714Y-101449142D01*
X206917333Y-101496761D01*
X207012571Y-101544380D01*
X207203047Y-101544380D01*
X207298285Y-101496761D01*
X207345904Y-101449142D01*
X207393523Y-101353904D01*
X207393523Y-100544380D01*
X208012571Y-100972952D02*
X207917333Y-100925333D01*
X207869714Y-100877714D01*
X207822095Y-100782476D01*
X207822095Y-100734857D01*
X207869714Y-100639619D01*
X207917333Y-100592000D01*
X208012571Y-100544380D01*
X208203047Y-100544380D01*
X208298285Y-100592000D01*
X208345904Y-100639619D01*
X208393523Y-100734857D01*
X208393523Y-100782476D01*
X208345904Y-100877714D01*
X208298285Y-100925333D01*
X208203047Y-100972952D01*
X208012571Y-100972952D01*
X207917333Y-101020571D01*
X207869714Y-101068190D01*
X207822095Y-101163428D01*
X207822095Y-101353904D01*
X207869714Y-101449142D01*
X207917333Y-101496761D01*
X208012571Y-101544380D01*
X208203047Y-101544380D01*
X208298285Y-101496761D01*
X208345904Y-101449142D01*
X208393523Y-101353904D01*
X208393523Y-101163428D01*
X208345904Y-101068190D01*
X208298285Y-101020571D01*
X208203047Y-100972952D01*
D15*
X243761380Y-62550523D02*
X243761380Y-63578619D01*
X243821857Y-63699571D01*
X243882333Y-63760047D01*
X244003285Y-63820523D01*
X244245190Y-63820523D01*
X244366142Y-63760047D01*
X244426619Y-63699571D01*
X244487095Y-63578619D01*
X244487095Y-62550523D01*
X245696619Y-62550523D02*
X245091857Y-62550523D01*
X245031380Y-63155285D01*
X245091857Y-63094809D01*
X245212809Y-63034333D01*
X245515190Y-63034333D01*
X245636142Y-63094809D01*
X245696619Y-63155285D01*
X245757095Y-63276238D01*
X245757095Y-63578619D01*
X245696619Y-63699571D01*
X245636142Y-63760047D01*
X245515190Y-63820523D01*
X245212809Y-63820523D01*
X245091857Y-63760047D01*
X245031380Y-63699571D01*
D10*
X219964095Y-68540380D02*
X219964095Y-69349904D01*
X220011714Y-69445142D01*
X220059333Y-69492761D01*
X220154571Y-69540380D01*
X220345047Y-69540380D01*
X220440285Y-69492761D01*
X220487904Y-69445142D01*
X220535523Y-69349904D01*
X220535523Y-68540380D01*
X220916476Y-68540380D02*
X221583142Y-68540380D01*
X221154571Y-69540380D01*
X205176380Y-86590095D02*
X204176380Y-86590095D01*
X204176380Y-86352000D01*
X204224000Y-86209142D01*
X204319238Y-86113904D01*
X204414476Y-86066285D01*
X204604952Y-86018666D01*
X204747809Y-86018666D01*
X204938285Y-86066285D01*
X205033523Y-86113904D01*
X205128761Y-86209142D01*
X205176380Y-86352000D01*
X205176380Y-86590095D01*
X204176380Y-85113904D02*
X204176380Y-85590095D01*
X204652571Y-85637714D01*
X204604952Y-85590095D01*
X204557333Y-85494857D01*
X204557333Y-85256761D01*
X204604952Y-85161523D01*
X204652571Y-85113904D01*
X204747809Y-85066285D01*
X204985904Y-85066285D01*
X205081142Y-85113904D01*
X205128761Y-85161523D01*
X205176380Y-85256761D01*
X205176380Y-85494857D01*
X205128761Y-85590095D01*
X205081142Y-85637714D01*
X203319142Y-80875142D02*
X203271523Y-80922761D01*
X203128666Y-80970380D01*
X203033428Y-80970380D01*
X202890571Y-80922761D01*
X202795333Y-80827523D01*
X202747714Y-80732285D01*
X202700095Y-80541809D01*
X202700095Y-80398952D01*
X202747714Y-80208476D01*
X202795333Y-80113238D01*
X202890571Y-80018000D01*
X203033428Y-79970380D01*
X203128666Y-79970380D01*
X203271523Y-80018000D01*
X203319142Y-80065619D01*
X204271523Y-80970380D02*
X203700095Y-80970380D01*
X203985809Y-80970380D02*
X203985809Y-79970380D01*
X203890571Y-80113238D01*
X203795333Y-80208476D01*
X203700095Y-80256095D01*
X204604857Y-79970380D02*
X205223904Y-79970380D01*
X204890571Y-80351333D01*
X205033428Y-80351333D01*
X205128666Y-80398952D01*
X205176285Y-80446571D01*
X205223904Y-80541809D01*
X205223904Y-80779904D01*
X205176285Y-80875142D01*
X205128666Y-80922761D01*
X205033428Y-80970380D01*
X204747714Y-80970380D01*
X204652476Y-80922761D01*
X204604857Y-80875142D01*
X206605142Y-73540857D02*
X206652761Y-73588476D01*
X206700380Y-73731333D01*
X206700380Y-73826571D01*
X206652761Y-73969428D01*
X206557523Y-74064666D01*
X206462285Y-74112285D01*
X206271809Y-74159904D01*
X206128952Y-74159904D01*
X205938476Y-74112285D01*
X205843238Y-74064666D01*
X205748000Y-73969428D01*
X205700380Y-73826571D01*
X205700380Y-73731333D01*
X205748000Y-73588476D01*
X205795619Y-73540857D01*
X206700380Y-72588476D02*
X206700380Y-73159904D01*
X206700380Y-72874190D02*
X205700380Y-72874190D01*
X205843238Y-72969428D01*
X205938476Y-73064666D01*
X205986095Y-73159904D01*
X206700380Y-71636095D02*
X206700380Y-72207523D01*
X206700380Y-71921809D02*
X205700380Y-71921809D01*
X205843238Y-72017047D01*
X205938476Y-72112285D01*
X205986095Y-72207523D01*
X206605142Y-71286666D02*
X206652761Y-71334285D01*
X206700380Y-71477142D01*
X206700380Y-71572380D01*
X206652761Y-71715238D01*
X206557523Y-71810476D01*
X206462285Y-71858095D01*
X206271809Y-71905714D01*
X206128952Y-71905714D01*
X205938476Y-71858095D01*
X205843238Y-71810476D01*
X205748000Y-71715238D01*
X205700380Y-71572380D01*
X205700380Y-71477142D01*
X205748000Y-71334285D01*
X205795619Y-71286666D01*
X206128952Y-70715238D02*
X206081333Y-70810476D01*
X206033714Y-70858095D01*
X205938476Y-70905714D01*
X205890857Y-70905714D01*
X205795619Y-70858095D01*
X205748000Y-70810476D01*
X205700380Y-70715238D01*
X205700380Y-70524761D01*
X205748000Y-70429523D01*
X205795619Y-70381904D01*
X205890857Y-70334285D01*
X205938476Y-70334285D01*
X206033714Y-70381904D01*
X206081333Y-70429523D01*
X206128952Y-70524761D01*
X206128952Y-70715238D01*
X206176571Y-70810476D01*
X206224190Y-70858095D01*
X206319428Y-70905714D01*
X206509904Y-70905714D01*
X206605142Y-70858095D01*
X206652761Y-70810476D01*
X206700380Y-70715238D01*
X206700380Y-70524761D01*
X206652761Y-70429523D01*
X206605142Y-70381904D01*
X206509904Y-70334285D01*
X206319428Y-70334285D01*
X206224190Y-70381904D01*
X206176571Y-70429523D01*
X206128952Y-70524761D01*
X198223142Y-73572666D02*
X198270761Y-73620285D01*
X198318380Y-73763142D01*
X198318380Y-73858380D01*
X198270761Y-74001238D01*
X198175523Y-74096476D01*
X198080285Y-74144095D01*
X197889809Y-74191714D01*
X197746952Y-74191714D01*
X197556476Y-74144095D01*
X197461238Y-74096476D01*
X197366000Y-74001238D01*
X197318380Y-73858380D01*
X197318380Y-73763142D01*
X197366000Y-73620285D01*
X197413619Y-73572666D01*
X197318380Y-73239333D02*
X197318380Y-72620285D01*
X197699333Y-72953619D01*
X197699333Y-72810761D01*
X197746952Y-72715523D01*
X197794571Y-72667904D01*
X197889809Y-72620285D01*
X198127904Y-72620285D01*
X198223142Y-72667904D01*
X198270761Y-72715523D01*
X198318380Y-72810761D01*
X198318380Y-73096476D01*
X198270761Y-73191714D01*
X198223142Y-73239333D01*
X197508857Y-71207333D02*
X197461238Y-71159714D01*
X197413619Y-71016857D01*
X197413619Y-70921619D01*
X197461238Y-70778761D01*
X197556476Y-70683523D01*
X197651714Y-70635904D01*
X197842190Y-70588285D01*
X197985047Y-70588285D01*
X198175523Y-70635904D01*
X198270761Y-70683523D01*
X198366000Y-70778761D01*
X198413619Y-70921619D01*
X198413619Y-71016857D01*
X198366000Y-71159714D01*
X198318380Y-71207333D01*
X197413619Y-72159714D02*
X197413619Y-71588285D01*
X197413619Y-71874000D02*
X198413619Y-71874000D01*
X198270761Y-71778761D01*
X198175523Y-71683523D01*
X198127904Y-71588285D01*
M02*
