%TF.GenerationSoftware,KiCad,Pcbnew,5.1.9*%
%TF.CreationDate,2021-03-07T20:19:58+01:00*%
%TF.ProjectId,obd32,6f626433-322e-46b6-9963-61645f706362,rev?*%
%TF.SameCoordinates,Original*%
%TF.FileFunction,Legend,Bot*%
%TF.FilePolarity,Positive*%
%FSLAX46Y46*%
G04 Gerber Fmt 4.6, Leading zero omitted, Abs format (unit mm)*
G04 Created by KiCad (PCBNEW 5.1.9) date 2021-03-07 20:19:58*
%MOMM*%
%LPD*%
G01*
G04 APERTURE LIST*
%ADD10C,0.120000*%
%ADD11C,0.152400*%
%ADD12C,0.150000*%
G04 APERTURE END LIST*
D10*
%TO.C,J5*%
X238566000Y-109788000D02*
X233366000Y-109788000D01*
X238566000Y-99568000D02*
X238566000Y-109788000D01*
X233366000Y-96968000D02*
X233366000Y-109788000D01*
X238566000Y-99568000D02*
X235966000Y-99568000D01*
X235966000Y-99568000D02*
X235966000Y-96968000D01*
X235966000Y-96968000D02*
X233366000Y-96968000D01*
X238566000Y-98298000D02*
X238566000Y-96968000D01*
X238566000Y-96968000D02*
X237236000Y-96968000D01*
D11*
%TO.C,J7*%
X245544500Y-96735500D02*
G75*
G03*
X245544500Y-96735500I-381000J0D01*
G01*
%TO.C,J5*%
D12*
X236299333Y-95420380D02*
X236299333Y-96134666D01*
X236346952Y-96277523D01*
X236442190Y-96372761D01*
X236585047Y-96420380D01*
X236680285Y-96420380D01*
X235346952Y-95420380D02*
X235823142Y-95420380D01*
X235870761Y-95896571D01*
X235823142Y-95848952D01*
X235727904Y-95801333D01*
X235489809Y-95801333D01*
X235394571Y-95848952D01*
X235346952Y-95896571D01*
X235299333Y-95991809D01*
X235299333Y-96229904D01*
X235346952Y-96325142D01*
X235394571Y-96372761D01*
X235489809Y-96420380D01*
X235727904Y-96420380D01*
X235823142Y-96372761D01*
X235870761Y-96325142D01*
%TD*%
M02*
