G04 #@! TF.GenerationSoftware,KiCad,Pcbnew,5.1.10*
G04 #@! TF.CreationDate,2021-05-11T19:26:58+02:00*
G04 #@! TF.ProjectId,obd32,6f626433-322e-46b6-9963-61645f706362,rev?*
G04 #@! TF.SameCoordinates,Original*
G04 #@! TF.FileFunction,Copper,L2,Bot*
G04 #@! TF.FilePolarity,Positive*
%FSLAX46Y46*%
G04 Gerber Fmt 4.6, Leading zero omitted, Abs format (unit mm)*
G04 Created by KiCad (PCBNEW 5.1.10) date 2021-05-11 19:26:58*
%MOMM*%
%LPD*%
G01*
G04 APERTURE LIST*
G04 #@! TA.AperFunction,ComponentPad*
%ADD10C,2.250000*%
G04 #@! TD*
G04 #@! TA.AperFunction,ComponentPad*
%ADD11R,2.250000X2.250000*%
G04 #@! TD*
G04 #@! TA.AperFunction,ComponentPad*
%ADD12C,0.600000*%
G04 #@! TD*
G04 #@! TA.AperFunction,SMDPad,CuDef*
%ADD13R,2.950000X4.900000*%
G04 #@! TD*
G04 #@! TA.AperFunction,ComponentPad*
%ADD14O,1.700000X1.700000*%
G04 #@! TD*
G04 #@! TA.AperFunction,ComponentPad*
%ADD15R,1.700000X1.700000*%
G04 #@! TD*
G04 #@! TA.AperFunction,ComponentPad*
%ADD16O,2.300000X1.000000*%
G04 #@! TD*
G04 #@! TA.AperFunction,ComponentPad*
%ADD17O,2.000000X1.000000*%
G04 #@! TD*
G04 #@! TA.AperFunction,ComponentPad*
%ADD18C,2.970000*%
G04 #@! TD*
G04 #@! TA.AperFunction,ComponentPad*
%ADD19C,1.200000*%
G04 #@! TD*
G04 #@! TA.AperFunction,ViaPad*
%ADD20C,0.800000*%
G04 #@! TD*
G04 #@! TA.AperFunction,Conductor*
%ADD21C,0.250000*%
G04 #@! TD*
G04 #@! TA.AperFunction,Conductor*
%ADD22C,0.200000*%
G04 #@! TD*
G04 #@! TA.AperFunction,Conductor*
%ADD23C,0.500000*%
G04 #@! TD*
G04 #@! TA.AperFunction,Conductor*
%ADD24C,0.254000*%
G04 #@! TD*
G04 #@! TA.AperFunction,Conductor*
%ADD25C,0.100000*%
G04 #@! TD*
G04 APERTURE END LIST*
D10*
X207710000Y-66040000D03*
X211710000Y-66040000D03*
X215710000Y-66040000D03*
X219710000Y-66040000D03*
X223710000Y-66040000D03*
X227710000Y-66040000D03*
X231710000Y-66040000D03*
X235710000Y-66040000D03*
X207710000Y-63040000D03*
X211710000Y-63040000D03*
X215710000Y-63040000D03*
X219710000Y-63040000D03*
X223710000Y-63040000D03*
X227710000Y-63040000D03*
X231710000Y-63040000D03*
D11*
X235710000Y-63040000D03*
D12*
X202580000Y-79166000D03*
X202580000Y-77866000D03*
X201280000Y-77866000D03*
X201280000Y-79166000D03*
X202580000Y-75266000D03*
X202580000Y-76566000D03*
X201280000Y-76566000D03*
X201280000Y-75266000D03*
D13*
X201930000Y-77216000D03*
D14*
X213360000Y-93980000D03*
X215900000Y-93980000D03*
X218440000Y-93980000D03*
D15*
X220980000Y-93980000D03*
D14*
X243840000Y-93980000D03*
X241300000Y-93980000D03*
X238760000Y-93980000D03*
D15*
X236220000Y-93980000D03*
D16*
X199838500Y-98935000D03*
X199838500Y-90295000D03*
D17*
X203663500Y-90295000D03*
X203663500Y-98935000D03*
D14*
X234696000Y-110998000D03*
X237236000Y-110998000D03*
X234696000Y-108458000D03*
X237236000Y-108458000D03*
X234696000Y-105918000D03*
X237236000Y-105918000D03*
X234696000Y-103378000D03*
X237236000Y-103378000D03*
X234696000Y-100838000D03*
D15*
X237236000Y-100838000D03*
D14*
X217932000Y-85090000D03*
X220472000Y-85090000D03*
X217932000Y-82550000D03*
X220472000Y-82550000D03*
X217932000Y-80010000D03*
X220472000Y-80010000D03*
X217932000Y-77470000D03*
X220472000Y-77470000D03*
X217932000Y-74930000D03*
D15*
X220472000Y-74930000D03*
D18*
X205978000Y-105070000D03*
X205978000Y-110490000D03*
X202438000Y-110490000D03*
X202438000Y-105070000D03*
D19*
X199018000Y-109730000D03*
X199018000Y-108330000D03*
X199018000Y-106930000D03*
X199018000Y-105530000D03*
D20*
X223012000Y-71374000D03*
X222250000Y-73660000D03*
X233680000Y-78740000D03*
X242785000Y-85559000D03*
X241935000Y-65278000D03*
X206248000Y-61722000D03*
X229870000Y-65404986D03*
X221996000Y-70612000D03*
X216662000Y-73659996D03*
X236438331Y-68982013D03*
X217043000Y-69088000D03*
X238125014Y-64008000D03*
X216439980Y-81375020D03*
X215630013Y-75930013D03*
X231267000Y-90106500D03*
X210185000Y-99949000D03*
X243935046Y-63305178D03*
X241905010Y-89882661D03*
X238940012Y-86323010D03*
X244972624Y-62855000D03*
X243098730Y-91154922D03*
X239939001Y-86368223D03*
X239776000Y-67056000D03*
X233680000Y-72644000D03*
X238760000Y-72644000D03*
X243332014Y-69088000D03*
X223120001Y-87858632D03*
X235462660Y-74671340D03*
X228599998Y-72644000D03*
X237998000Y-78485988D03*
X223774000Y-88646000D03*
X232486295Y-103681556D03*
X231902000Y-102869990D03*
X228266681Y-105778765D03*
X229028974Y-106426000D03*
X227387948Y-105301425D03*
X205740000Y-90424000D03*
X205486020Y-94742020D03*
X209550000Y-67818000D03*
X211328000Y-91694000D03*
X207518000Y-85483998D03*
X221234000Y-89407994D03*
X222504000Y-90206990D03*
X212852000Y-85598000D03*
X237236005Y-86359995D03*
X236220000Y-90170000D03*
X214329294Y-90607940D03*
X214884000Y-91440000D03*
X217932000Y-88900000D03*
X210058000Y-90170000D03*
X213613956Y-86614000D03*
D21*
X223012000Y-72898000D02*
X222250000Y-73660000D01*
X223012000Y-71374000D02*
X223012000Y-72898000D01*
X222250000Y-79971002D02*
X222250000Y-73660000D01*
X220846003Y-81374999D02*
X222250000Y-79971002D01*
X219107001Y-81374999D02*
X220846003Y-81374999D01*
X217932000Y-82550000D02*
X219107001Y-81374999D01*
X228600000Y-73660000D02*
X233680000Y-78740000D01*
X222250000Y-73660000D02*
X228600000Y-73660000D01*
D22*
X203663500Y-90295000D02*
X199838500Y-90295000D01*
X199838500Y-98935000D02*
X203663500Y-98935000D01*
X203663500Y-78949500D02*
X201930000Y-77216000D01*
X203663500Y-90295000D02*
X203663500Y-78949500D01*
X203663500Y-97863542D02*
X203663500Y-98935000D01*
X203663500Y-90295000D02*
X203663500Y-97863542D01*
X199838500Y-98935000D02*
X199838500Y-90295000D01*
D21*
X219710000Y-63040000D02*
X223710000Y-63040000D01*
X202438000Y-110490000D02*
X205978000Y-110490000D01*
X201678000Y-109730000D02*
X202438000Y-110490000D01*
X199018000Y-109730000D02*
X201678000Y-109730000D01*
X202438000Y-110490000D02*
X202438000Y-105070000D01*
X205978000Y-110490000D02*
X205978000Y-105070000D01*
X202438000Y-103124000D02*
X202438000Y-105070000D01*
X199838500Y-100524500D02*
X202438000Y-103124000D01*
X199838500Y-98935000D02*
X199838500Y-100524500D01*
X203663500Y-100809500D02*
X203663500Y-98935000D01*
X205978000Y-103124000D02*
X203663500Y-100809500D01*
X205978000Y-105070000D02*
X205978000Y-103124000D01*
X202438000Y-105070000D02*
X205978000Y-105070000D01*
X217992001Y-61322001D02*
X206647999Y-61322001D01*
X219710000Y-63040000D02*
X217992001Y-61322001D01*
X206647999Y-61322001D02*
X206248000Y-61722000D01*
X205910037Y-62059963D02*
X206248000Y-61722000D01*
X201930000Y-66040000D02*
X206248000Y-61722000D01*
X201930000Y-77216000D02*
X201930000Y-66040000D01*
X228955015Y-64490001D02*
X229870000Y-65404986D01*
X209259999Y-64490001D02*
X228955015Y-64490001D01*
X207710000Y-66040000D02*
X209259999Y-64490001D01*
X218948004Y-73659996D02*
X216662000Y-73659996D01*
X221996000Y-70612000D02*
X218948004Y-73659996D01*
X238125014Y-67295330D02*
X238125014Y-64008000D01*
X236438331Y-68982013D02*
X238125014Y-67295330D01*
D23*
X236332344Y-69088000D02*
X217043000Y-69088000D01*
X236438331Y-68982013D02*
X236332344Y-69088000D01*
X217043000Y-69088000D02*
X215557998Y-70573002D01*
X215557998Y-70573002D02*
X215557998Y-80493038D01*
X215557998Y-80493038D02*
X216439980Y-81375020D01*
D21*
X210185000Y-93866012D02*
X210185000Y-99949000D01*
X211791023Y-92259989D02*
X210185000Y-93866012D01*
X229113511Y-92259989D02*
X211791023Y-92259989D01*
X231267000Y-90106500D02*
X229113511Y-92259989D01*
X236220000Y-93980000D02*
X238940012Y-91259988D01*
X241905010Y-89882661D02*
X238940012Y-86917663D01*
X238940012Y-91259988D02*
X238940012Y-86323010D01*
X238940012Y-86917663D02*
X238940012Y-86323010D01*
X239340011Y-85923011D02*
X238940012Y-86323010D01*
X239340011Y-75111989D02*
X239340011Y-85923011D01*
X244335045Y-70116955D02*
X239340011Y-75111989D01*
X244335045Y-63705177D02*
X244335045Y-70116955D01*
X243935046Y-63305178D02*
X244335045Y-63705177D01*
X241585078Y-91154922D02*
X243098730Y-91154922D01*
X238760000Y-93980000D02*
X241585078Y-91154922D01*
X243098730Y-91154922D02*
X243098730Y-89527952D01*
X243098730Y-89527952D02*
X239939001Y-86368223D01*
X244972624Y-70438374D02*
X239939001Y-75471997D01*
X244972624Y-62855000D02*
X244972624Y-70438374D01*
X239939001Y-75471997D02*
X239939001Y-86368223D01*
X239776000Y-67056000D02*
X234188000Y-72644000D01*
X234188000Y-72644000D02*
X233680000Y-72644000D01*
X238760000Y-72644000D02*
X239776014Y-72644000D01*
X239776000Y-72644000D02*
X243332000Y-69088000D01*
X236732660Y-74671340D02*
X235462660Y-74671340D01*
X238760000Y-72644000D02*
X236732660Y-74671340D01*
X228599998Y-72644000D02*
X232156012Y-72644000D01*
X232156012Y-72644000D02*
X237998000Y-78485988D01*
X233616502Y-82804000D02*
X233616500Y-82804002D01*
X232486295Y-103962295D02*
X232486295Y-103681556D01*
X234442000Y-105918000D02*
X232486295Y-103962295D01*
X233903409Y-104742999D02*
X233211296Y-104050886D01*
X236982000Y-105918000D02*
X235806999Y-104742999D01*
X233211296Y-103359623D02*
X232721663Y-102869990D01*
X235806999Y-104742999D02*
X233903409Y-104742999D01*
X233211296Y-104050886D02*
X233211296Y-103359623D01*
X232721663Y-102869990D02*
X231902000Y-102869990D01*
X234442000Y-100838000D02*
X231716587Y-100838000D01*
X228266681Y-104287906D02*
X228266681Y-105778765D01*
X231716587Y-100838000D02*
X228266681Y-104287906D01*
X229028974Y-104162024D02*
X229028974Y-106426000D01*
X231082998Y-102108000D02*
X229028974Y-104162024D01*
X235711998Y-102108000D02*
X231082998Y-102108000D01*
X236982000Y-100838000D02*
X235711998Y-102108000D01*
X235712000Y-107188000D02*
X227838000Y-107188000D01*
X236982000Y-108458000D02*
X235712000Y-107188000D01*
X227838000Y-107188000D02*
X227387948Y-106737948D01*
X227387948Y-106737948D02*
X227387948Y-105301425D01*
X205740000Y-94488040D02*
X205486020Y-94742020D01*
X205740000Y-90424000D02*
X205740000Y-94488040D01*
X207264000Y-82550000D02*
X201930000Y-77216000D01*
X217932000Y-82550000D02*
X207264000Y-82550000D01*
X209550000Y-68326000D02*
X209550000Y-67818000D01*
X202692000Y-75184000D02*
X209550000Y-68326000D01*
X207518000Y-88703002D02*
X207518000Y-85483998D01*
X210492002Y-90895001D02*
X209709999Y-90895001D01*
X211328000Y-91730999D02*
X210492002Y-90895001D01*
X209709999Y-90895001D02*
X207518000Y-88703002D01*
X211328000Y-91694000D02*
X211328000Y-91730999D01*
X223120001Y-87858632D02*
X221570639Y-89407994D01*
X221570639Y-89407994D02*
X221234000Y-89407994D01*
X223774000Y-88646000D02*
X222504000Y-89916000D01*
X222504000Y-89916000D02*
X222504000Y-90206990D01*
X220980000Y-93980000D02*
X233483004Y-93980000D01*
X233483004Y-93980000D02*
X237236005Y-90226999D01*
X237236005Y-90226999D02*
X237236005Y-86359995D01*
X214739435Y-86359995D02*
X237236005Y-86359995D01*
X213977440Y-85598000D02*
X214739435Y-86359995D01*
X212852000Y-85598000D02*
X213977440Y-85598000D01*
X233585001Y-92804999D02*
X236220000Y-90170000D01*
X218440000Y-93980000D02*
X219615001Y-92804999D01*
X219615001Y-92804999D02*
X233585001Y-92804999D01*
X233172000Y-87122000D02*
X217815234Y-87122000D01*
X217815234Y-87122000D02*
X214329294Y-90607940D01*
X236220000Y-90170000D02*
X233172000Y-87122000D01*
X217424000Y-88900000D02*
X217932000Y-88900000D01*
X214884000Y-91440000D02*
X217424000Y-88900000D01*
X213613956Y-86614044D02*
X213613956Y-86614000D01*
X210058000Y-90170000D02*
X213613956Y-86614044D01*
D24*
X206588065Y-61672919D02*
X206342919Y-61918065D01*
X206150308Y-62206327D01*
X206017636Y-62526627D01*
X205950000Y-62866655D01*
X205950000Y-63213345D01*
X206017636Y-63553373D01*
X206150308Y-63873673D01*
X206342919Y-64161935D01*
X206588065Y-64407081D01*
X206786992Y-64540000D01*
X206588065Y-64672919D01*
X206342919Y-64918065D01*
X206150308Y-65206327D01*
X206017636Y-65526627D01*
X205950000Y-65866655D01*
X205950000Y-66213345D01*
X206017636Y-66553373D01*
X206150308Y-66873673D01*
X206342919Y-67161935D01*
X206588065Y-67407081D01*
X206876327Y-67599692D01*
X207196627Y-67732364D01*
X207536655Y-67800000D01*
X207883345Y-67800000D01*
X208223373Y-67732364D01*
X208543673Y-67599692D01*
X208831935Y-67407081D01*
X209077081Y-67161935D01*
X209269692Y-66873673D01*
X209402364Y-66553373D01*
X209470000Y-66213345D01*
X209470000Y-65866655D01*
X209402364Y-65526627D01*
X209371848Y-65452954D01*
X209574801Y-65250001D01*
X210132218Y-65250001D01*
X210017636Y-65526627D01*
X209950000Y-65866655D01*
X209950000Y-66213345D01*
X210017636Y-66553373D01*
X210150308Y-66873673D01*
X210342919Y-67161935D01*
X210588065Y-67407081D01*
X210876327Y-67599692D01*
X211196627Y-67732364D01*
X211536655Y-67800000D01*
X211883345Y-67800000D01*
X212223373Y-67732364D01*
X212543673Y-67599692D01*
X212831935Y-67407081D01*
X213077081Y-67161935D01*
X213269692Y-66873673D01*
X213402364Y-66553373D01*
X213470000Y-66213345D01*
X213470000Y-65866655D01*
X213402364Y-65526627D01*
X213287782Y-65250001D01*
X214132218Y-65250001D01*
X214017636Y-65526627D01*
X213950000Y-65866655D01*
X213950000Y-66213345D01*
X214017636Y-66553373D01*
X214150308Y-66873673D01*
X214342919Y-67161935D01*
X214588065Y-67407081D01*
X214876327Y-67599692D01*
X215196627Y-67732364D01*
X215536655Y-67800000D01*
X215883345Y-67800000D01*
X216223373Y-67732364D01*
X216543673Y-67599692D01*
X216831935Y-67407081D01*
X217077081Y-67161935D01*
X217269692Y-66873673D01*
X217402364Y-66553373D01*
X217470000Y-66213345D01*
X217470000Y-65866655D01*
X217402364Y-65526627D01*
X217287782Y-65250001D01*
X218132218Y-65250001D01*
X218017636Y-65526627D01*
X217950000Y-65866655D01*
X217950000Y-66213345D01*
X218017636Y-66553373D01*
X218150308Y-66873673D01*
X218342919Y-67161935D01*
X218588065Y-67407081D01*
X218876327Y-67599692D01*
X219196627Y-67732364D01*
X219536655Y-67800000D01*
X219883345Y-67800000D01*
X220223373Y-67732364D01*
X220543673Y-67599692D01*
X220831935Y-67407081D01*
X221077081Y-67161935D01*
X221269692Y-66873673D01*
X221402364Y-66553373D01*
X221470000Y-66213345D01*
X221470000Y-65866655D01*
X221402364Y-65526627D01*
X221287782Y-65250001D01*
X222132218Y-65250001D01*
X222017636Y-65526627D01*
X221950000Y-65866655D01*
X221950000Y-66213345D01*
X222017636Y-66553373D01*
X222150308Y-66873673D01*
X222342919Y-67161935D01*
X222588065Y-67407081D01*
X222876327Y-67599692D01*
X223196627Y-67732364D01*
X223536655Y-67800000D01*
X223883345Y-67800000D01*
X224223373Y-67732364D01*
X224543673Y-67599692D01*
X224831935Y-67407081D01*
X225077081Y-67161935D01*
X225269692Y-66873673D01*
X225402364Y-66553373D01*
X225470000Y-66213345D01*
X225470000Y-65866655D01*
X225402364Y-65526627D01*
X225287782Y-65250001D01*
X226132218Y-65250001D01*
X226017636Y-65526627D01*
X225950000Y-65866655D01*
X225950000Y-66213345D01*
X226017636Y-66553373D01*
X226150308Y-66873673D01*
X226342919Y-67161935D01*
X226588065Y-67407081D01*
X226876327Y-67599692D01*
X227196627Y-67732364D01*
X227536655Y-67800000D01*
X227883345Y-67800000D01*
X228223373Y-67732364D01*
X228543673Y-67599692D01*
X228831935Y-67407081D01*
X229077081Y-67161935D01*
X229269692Y-66873673D01*
X229402364Y-66553373D01*
X229443127Y-66348445D01*
X229568102Y-66400212D01*
X229768061Y-66439986D01*
X229971939Y-66439986D01*
X229994201Y-66435558D01*
X230017636Y-66553373D01*
X230150308Y-66873673D01*
X230342919Y-67161935D01*
X230588065Y-67407081D01*
X230876327Y-67599692D01*
X231196627Y-67732364D01*
X231536655Y-67800000D01*
X231883345Y-67800000D01*
X232223373Y-67732364D01*
X232543673Y-67599692D01*
X232831935Y-67407081D01*
X233077081Y-67161935D01*
X233269692Y-66873673D01*
X233402364Y-66553373D01*
X233470000Y-66213345D01*
X233470000Y-65866655D01*
X233402364Y-65526627D01*
X233269692Y-65206327D01*
X233077081Y-64918065D01*
X232831935Y-64672919D01*
X232633008Y-64540000D01*
X232831935Y-64407081D01*
X233077081Y-64161935D01*
X233269692Y-63873673D01*
X233402364Y-63553373D01*
X233470000Y-63213345D01*
X233470000Y-62866655D01*
X233402364Y-62526627D01*
X233269692Y-62206327D01*
X233077081Y-61918065D01*
X232831935Y-61672919D01*
X232752736Y-61620000D01*
X234022662Y-61620000D01*
X233995498Y-61670820D01*
X233959188Y-61790518D01*
X233946928Y-61915000D01*
X233946928Y-64165000D01*
X233959188Y-64289482D01*
X233995498Y-64409180D01*
X234054463Y-64519494D01*
X234133815Y-64616185D01*
X234230506Y-64695537D01*
X234340820Y-64754502D01*
X234460518Y-64790812D01*
X234469306Y-64791678D01*
X234342919Y-64918065D01*
X234150308Y-65206327D01*
X234017636Y-65526627D01*
X233950000Y-65866655D01*
X233950000Y-66213345D01*
X234017636Y-66553373D01*
X234150308Y-66873673D01*
X234342919Y-67161935D01*
X234588065Y-67407081D01*
X234876327Y-67599692D01*
X235196627Y-67732364D01*
X235536655Y-67800000D01*
X235883345Y-67800000D01*
X236223373Y-67732364D01*
X236543673Y-67599692D01*
X236831935Y-67407081D01*
X237077081Y-67161935D01*
X237269692Y-66873673D01*
X237365014Y-66643544D01*
X237365014Y-66980528D01*
X236398530Y-67947013D01*
X236336392Y-67947013D01*
X236136433Y-67986787D01*
X235948075Y-68064808D01*
X235778557Y-68178076D01*
X235753633Y-68203000D01*
X217581454Y-68203000D01*
X217533256Y-68170795D01*
X217344898Y-68092774D01*
X217144939Y-68053000D01*
X216941061Y-68053000D01*
X216741102Y-68092774D01*
X216552744Y-68170795D01*
X216383226Y-68284063D01*
X216239063Y-68428226D01*
X216125795Y-68597744D01*
X216047774Y-68786102D01*
X216036465Y-68842956D01*
X214962954Y-69916468D01*
X214929181Y-69944185D01*
X214818587Y-70078944D01*
X214736409Y-70232690D01*
X214685803Y-70399513D01*
X214672998Y-70529526D01*
X214672998Y-70529533D01*
X214668717Y-70573002D01*
X214672998Y-70616471D01*
X214672999Y-75535865D01*
X214634787Y-75628115D01*
X214595013Y-75828074D01*
X214595013Y-76031952D01*
X214634787Y-76231911D01*
X214672999Y-76324161D01*
X214672999Y-80449559D01*
X214668717Y-80493038D01*
X214685803Y-80666528D01*
X214736410Y-80833351D01*
X214818588Y-80987097D01*
X214901466Y-81088084D01*
X214901469Y-81088087D01*
X214929182Y-81121855D01*
X214962949Y-81149567D01*
X215433445Y-81620064D01*
X215444754Y-81676918D01*
X215522775Y-81865276D01*
X215636043Y-82034794D01*
X215780206Y-82178957D01*
X215949724Y-82292225D01*
X216138082Y-82370246D01*
X216338041Y-82410020D01*
X216541919Y-82410020D01*
X216599003Y-82398665D01*
X216611845Y-82423000D01*
X217805000Y-82423000D01*
X217805000Y-82403000D01*
X218059000Y-82403000D01*
X218059000Y-82423000D01*
X218079000Y-82423000D01*
X218079000Y-82677000D01*
X218059000Y-82677000D01*
X218059000Y-82697000D01*
X217805000Y-82697000D01*
X217805000Y-82677000D01*
X216611845Y-82677000D01*
X216490524Y-82906890D01*
X216535175Y-83054099D01*
X216660359Y-83316920D01*
X216834412Y-83550269D01*
X217050645Y-83745178D01*
X217167534Y-83814805D01*
X216985368Y-83936525D01*
X216778525Y-84143368D01*
X216616010Y-84386589D01*
X216504068Y-84656842D01*
X216447000Y-84943740D01*
X216447000Y-85236260D01*
X216504068Y-85523158D01*
X216535895Y-85599995D01*
X215054237Y-85599995D01*
X214541243Y-85087002D01*
X214517441Y-85057999D01*
X214401716Y-84963026D01*
X214269687Y-84892454D01*
X214126426Y-84848997D01*
X214014773Y-84838000D01*
X214014762Y-84838000D01*
X213977440Y-84834324D01*
X213940118Y-84838000D01*
X213555711Y-84838000D01*
X213511774Y-84794063D01*
X213342256Y-84680795D01*
X213153898Y-84602774D01*
X212953939Y-84563000D01*
X212750061Y-84563000D01*
X212550102Y-84602774D01*
X212361744Y-84680795D01*
X212192226Y-84794063D01*
X212048063Y-84938226D01*
X211934795Y-85107744D01*
X211856774Y-85296102D01*
X211817000Y-85496061D01*
X211817000Y-85699939D01*
X211856774Y-85899898D01*
X211934795Y-86088256D01*
X212048063Y-86257774D01*
X212192226Y-86401937D01*
X212361744Y-86515205D01*
X212550102Y-86593226D01*
X212558335Y-86594864D01*
X210018199Y-89135000D01*
X209956061Y-89135000D01*
X209756102Y-89174774D01*
X209567744Y-89252795D01*
X209398226Y-89366063D01*
X209327044Y-89437245D01*
X208278000Y-88388201D01*
X208278000Y-86187709D01*
X208321937Y-86143772D01*
X208435205Y-85974254D01*
X208513226Y-85785896D01*
X208553000Y-85585937D01*
X208553000Y-85382059D01*
X208513226Y-85182100D01*
X208435205Y-84993742D01*
X208321937Y-84824224D01*
X208177774Y-84680061D01*
X208008256Y-84566793D01*
X207819898Y-84488772D01*
X207619939Y-84448998D01*
X207416061Y-84448998D01*
X207216102Y-84488772D01*
X207027744Y-84566793D01*
X206858226Y-84680061D01*
X206714063Y-84824224D01*
X206600795Y-84993742D01*
X206522774Y-85182100D01*
X206483000Y-85382059D01*
X206483000Y-85585937D01*
X206522774Y-85785896D01*
X206600795Y-85974254D01*
X206714063Y-86143772D01*
X206758001Y-86187710D01*
X206758000Y-88665679D01*
X206754324Y-88703002D01*
X206758000Y-88740324D01*
X206758000Y-88740334D01*
X206768997Y-88851987D01*
X206810241Y-88987951D01*
X206812454Y-88995248D01*
X206883026Y-89127278D01*
X206907421Y-89157003D01*
X206977999Y-89243003D01*
X207007003Y-89266806D01*
X209146199Y-91406003D01*
X209169998Y-91435002D01*
X209285723Y-91529975D01*
X209417752Y-91600547D01*
X209561013Y-91644004D01*
X209672666Y-91655001D01*
X209672674Y-91655001D01*
X209709999Y-91658677D01*
X209747324Y-91655001D01*
X210177201Y-91655001D01*
X210293000Y-91770800D01*
X210293000Y-91795939D01*
X210332774Y-91995898D01*
X210410795Y-92184256D01*
X210524063Y-92353774D01*
X210573250Y-92402961D01*
X209674003Y-93302208D01*
X209644999Y-93326011D01*
X209609885Y-93368798D01*
X209550026Y-93441736D01*
X209535454Y-93468998D01*
X209479454Y-93573766D01*
X209435997Y-93717027D01*
X209425000Y-93828680D01*
X209425000Y-93828690D01*
X209421324Y-93866012D01*
X209425000Y-93903335D01*
X209425001Y-99245288D01*
X209381063Y-99289226D01*
X209267795Y-99458744D01*
X209189774Y-99647102D01*
X209150000Y-99847061D01*
X209150000Y-100050939D01*
X209189774Y-100250898D01*
X209267795Y-100439256D01*
X209381063Y-100608774D01*
X209525226Y-100752937D01*
X209694744Y-100866205D01*
X209883102Y-100944226D01*
X210083061Y-100984000D01*
X210286939Y-100984000D01*
X210486898Y-100944226D01*
X210675256Y-100866205D01*
X210844774Y-100752937D01*
X210922000Y-100675711D01*
X210922001Y-107220419D01*
X210925249Y-107253397D01*
X210925249Y-107266591D01*
X210926212Y-107275756D01*
X210948315Y-107472808D01*
X210957144Y-107514341D01*
X210860008Y-107611477D01*
X210758286Y-107763715D01*
X210688218Y-107932874D01*
X210652497Y-108112452D01*
X210652497Y-108295548D01*
X210688218Y-108475126D01*
X210733729Y-108585000D01*
X210688218Y-108694874D01*
X210652497Y-108874452D01*
X210652497Y-109057548D01*
X210688218Y-109237126D01*
X210733729Y-109347000D01*
X210688218Y-109456874D01*
X210652497Y-109636452D01*
X210652497Y-109819548D01*
X210688218Y-109999126D01*
X210733729Y-110109000D01*
X210688218Y-110218874D01*
X210652497Y-110398452D01*
X210652497Y-110581548D01*
X210688218Y-110761126D01*
X210758286Y-110930285D01*
X210860008Y-111082523D01*
X210957227Y-111179742D01*
X210945463Y-111235087D01*
X210944500Y-111244252D01*
X210925150Y-111441594D01*
X210925150Y-111441608D01*
X210922001Y-111473581D01*
X210922000Y-112878000D01*
X197510000Y-112878000D01*
X197510000Y-111970974D01*
X201136631Y-111970974D01*
X201290838Y-112284998D01*
X201663067Y-112474308D01*
X202065076Y-112587362D01*
X202481416Y-112619816D01*
X202896089Y-112570422D01*
X203293157Y-112441079D01*
X203585162Y-112284998D01*
X203739369Y-111970974D01*
X204676631Y-111970974D01*
X204830838Y-112284998D01*
X205203067Y-112474308D01*
X205605076Y-112587362D01*
X206021416Y-112619816D01*
X206436089Y-112570422D01*
X206833157Y-112441079D01*
X207125162Y-112284998D01*
X207279369Y-111970974D01*
X205978000Y-110669605D01*
X204676631Y-111970974D01*
X203739369Y-111970974D01*
X202438000Y-110669605D01*
X201136631Y-111970974D01*
X197510000Y-111970974D01*
X197510000Y-110579764D01*
X198347841Y-110579764D01*
X198395148Y-110803348D01*
X198616516Y-110904237D01*
X198853313Y-110960000D01*
X199096438Y-110968495D01*
X199336549Y-110929395D01*
X199564418Y-110844202D01*
X199640852Y-110803348D01*
X199688159Y-110579764D01*
X199641811Y-110533416D01*
X200308184Y-110533416D01*
X200357578Y-110948089D01*
X200486921Y-111345157D01*
X200643002Y-111637162D01*
X200957026Y-111791369D01*
X202258395Y-110490000D01*
X202617605Y-110490000D01*
X203918974Y-111791369D01*
X204208000Y-111649438D01*
X204497026Y-111791369D01*
X205798395Y-110490000D01*
X206157605Y-110490000D01*
X207458974Y-111791369D01*
X207772998Y-111637162D01*
X207962308Y-111264933D01*
X208075362Y-110862924D01*
X208107816Y-110446584D01*
X208058422Y-110031911D01*
X207929079Y-109634843D01*
X207772998Y-109342838D01*
X207458974Y-109188631D01*
X206157605Y-110490000D01*
X205798395Y-110490000D01*
X204497026Y-109188631D01*
X204208000Y-109330562D01*
X203918974Y-109188631D01*
X202617605Y-110490000D01*
X202258395Y-110490000D01*
X200957026Y-109188631D01*
X200643002Y-109342838D01*
X200453692Y-109715067D01*
X200340638Y-110117076D01*
X200308184Y-110533416D01*
X199641811Y-110533416D01*
X199018000Y-109909605D01*
X198347841Y-110579764D01*
X197510000Y-110579764D01*
X197510000Y-109808438D01*
X197779505Y-109808438D01*
X197818605Y-110048549D01*
X197903798Y-110276418D01*
X197944652Y-110352852D01*
X198168236Y-110400159D01*
X198838395Y-109730000D01*
X198824253Y-109715858D01*
X198975110Y-109565000D01*
X199060890Y-109565000D01*
X199211748Y-109715858D01*
X199197605Y-109730000D01*
X199867764Y-110400159D01*
X200091348Y-110352852D01*
X200192237Y-110131484D01*
X200248000Y-109894687D01*
X200256495Y-109651562D01*
X200217395Y-109411451D01*
X200132202Y-109183582D01*
X200091348Y-109107148D01*
X199997339Y-109087257D01*
X200049611Y-109009026D01*
X201136631Y-109009026D01*
X202438000Y-110310395D01*
X203739369Y-109009026D01*
X204676631Y-109009026D01*
X205978000Y-110310395D01*
X207279369Y-109009026D01*
X207125162Y-108695002D01*
X206752933Y-108505692D01*
X206350924Y-108392638D01*
X205934584Y-108360184D01*
X205519911Y-108409578D01*
X205122843Y-108538921D01*
X204830838Y-108695002D01*
X204676631Y-109009026D01*
X203739369Y-109009026D01*
X203585162Y-108695002D01*
X203212933Y-108505692D01*
X202810924Y-108392638D01*
X202394584Y-108360184D01*
X201979911Y-108409578D01*
X201582843Y-108538921D01*
X201290838Y-108695002D01*
X201136631Y-109009026D01*
X200049611Y-109009026D01*
X200112443Y-108914992D01*
X200205540Y-108690236D01*
X200253000Y-108451637D01*
X200253000Y-108208363D01*
X200205540Y-107969764D01*
X200112443Y-107745008D01*
X200035597Y-107630000D01*
X200112443Y-107514992D01*
X200205540Y-107290236D01*
X200253000Y-107051637D01*
X200253000Y-106808363D01*
X200205540Y-106569764D01*
X200197757Y-106550974D01*
X201136631Y-106550974D01*
X201290838Y-106864998D01*
X201663067Y-107054308D01*
X202065076Y-107167362D01*
X202481416Y-107199816D01*
X202896089Y-107150422D01*
X203293157Y-107021079D01*
X203585162Y-106864998D01*
X203739369Y-106550974D01*
X204676631Y-106550974D01*
X204830838Y-106864998D01*
X205203067Y-107054308D01*
X205605076Y-107167362D01*
X206021416Y-107199816D01*
X206436089Y-107150422D01*
X206833157Y-107021079D01*
X207125162Y-106864998D01*
X207279369Y-106550974D01*
X205978000Y-105249605D01*
X204676631Y-106550974D01*
X203739369Y-106550974D01*
X202438000Y-105249605D01*
X201136631Y-106550974D01*
X200197757Y-106550974D01*
X200112443Y-106345008D01*
X200035597Y-106230000D01*
X200112443Y-106114992D01*
X200205540Y-105890236D01*
X200253000Y-105651637D01*
X200253000Y-105408363D01*
X200205540Y-105169764D01*
X200182200Y-105113416D01*
X200308184Y-105113416D01*
X200357578Y-105528089D01*
X200486921Y-105925157D01*
X200643002Y-106217162D01*
X200957026Y-106371369D01*
X202258395Y-105070000D01*
X202617605Y-105070000D01*
X203918974Y-106371369D01*
X204208000Y-106229438D01*
X204497026Y-106371369D01*
X205798395Y-105070000D01*
X206157605Y-105070000D01*
X207458974Y-106371369D01*
X207772998Y-106217162D01*
X207962308Y-105844933D01*
X208075362Y-105442924D01*
X208107816Y-105026584D01*
X208058422Y-104611911D01*
X207929079Y-104214843D01*
X207772998Y-103922838D01*
X207458974Y-103768631D01*
X206157605Y-105070000D01*
X205798395Y-105070000D01*
X204497026Y-103768631D01*
X204208000Y-103910562D01*
X203918974Y-103768631D01*
X202617605Y-105070000D01*
X202258395Y-105070000D01*
X200957026Y-103768631D01*
X200643002Y-103922838D01*
X200453692Y-104295067D01*
X200340638Y-104697076D01*
X200308184Y-105113416D01*
X200182200Y-105113416D01*
X200112443Y-104945008D01*
X199977287Y-104742733D01*
X199805267Y-104570713D01*
X199602992Y-104435557D01*
X199378236Y-104342460D01*
X199139637Y-104295000D01*
X198896363Y-104295000D01*
X198657764Y-104342460D01*
X198433008Y-104435557D01*
X198230733Y-104570713D01*
X198058713Y-104742733D01*
X197923557Y-104945008D01*
X197830460Y-105169764D01*
X197783000Y-105408363D01*
X197783000Y-105651637D01*
X197830460Y-105890236D01*
X197923557Y-106114992D01*
X198000403Y-106230000D01*
X197923557Y-106345008D01*
X197830460Y-106569764D01*
X197783000Y-106808363D01*
X197783000Y-107051637D01*
X197830460Y-107290236D01*
X197923557Y-107514992D01*
X198000403Y-107630000D01*
X197923557Y-107745008D01*
X197830460Y-107969764D01*
X197783000Y-108208363D01*
X197783000Y-108451637D01*
X197830460Y-108690236D01*
X197923557Y-108914992D01*
X198038661Y-109087257D01*
X197944652Y-109107148D01*
X197843763Y-109328516D01*
X197788000Y-109565313D01*
X197779505Y-109808438D01*
X197510000Y-109808438D01*
X197510000Y-103589026D01*
X201136631Y-103589026D01*
X202438000Y-104890395D01*
X203739369Y-103589026D01*
X204676631Y-103589026D01*
X205978000Y-104890395D01*
X207279369Y-103589026D01*
X207125162Y-103275002D01*
X206752933Y-103085692D01*
X206350924Y-102972638D01*
X205934584Y-102940184D01*
X205519911Y-102989578D01*
X205122843Y-103118921D01*
X204830838Y-103275002D01*
X204676631Y-103589026D01*
X203739369Y-103589026D01*
X203585162Y-103275002D01*
X203212933Y-103085692D01*
X202810924Y-102972638D01*
X202394584Y-102940184D01*
X201979911Y-102989578D01*
X201582843Y-103118921D01*
X201290838Y-103275002D01*
X201136631Y-103589026D01*
X197510000Y-103589026D01*
X197510000Y-99236874D01*
X198094381Y-99236874D01*
X198174224Y-99459976D01*
X198296131Y-99647764D01*
X198452331Y-99808161D01*
X198636822Y-99935003D01*
X198842513Y-100023415D01*
X199061500Y-100070000D01*
X199711500Y-100070000D01*
X199711500Y-99062000D01*
X199965500Y-99062000D01*
X199965500Y-100070000D01*
X200615500Y-100070000D01*
X200834487Y-100023415D01*
X201040178Y-99935003D01*
X201224669Y-99808161D01*
X201380869Y-99647764D01*
X201502776Y-99459976D01*
X201582619Y-99236874D01*
X202069381Y-99236874D01*
X202149224Y-99459976D01*
X202271131Y-99647764D01*
X202427331Y-99808161D01*
X202611822Y-99935003D01*
X202817513Y-100023415D01*
X203036500Y-100070000D01*
X203536500Y-100070000D01*
X203536500Y-99062000D01*
X203790500Y-99062000D01*
X203790500Y-100070000D01*
X204290500Y-100070000D01*
X204509487Y-100023415D01*
X204715178Y-99935003D01*
X204899669Y-99808161D01*
X205055869Y-99647764D01*
X205177776Y-99459976D01*
X205257619Y-99236874D01*
X205131454Y-99062000D01*
X203790500Y-99062000D01*
X203536500Y-99062000D01*
X202195546Y-99062000D01*
X202069381Y-99236874D01*
X201582619Y-99236874D01*
X201456454Y-99062000D01*
X199965500Y-99062000D01*
X199711500Y-99062000D01*
X198220546Y-99062000D01*
X198094381Y-99236874D01*
X197510000Y-99236874D01*
X197510000Y-98633126D01*
X198094381Y-98633126D01*
X198220546Y-98808000D01*
X199711500Y-98808000D01*
X199711500Y-97800000D01*
X199965500Y-97800000D01*
X199965500Y-98808000D01*
X201456454Y-98808000D01*
X201582619Y-98633126D01*
X201502776Y-98410024D01*
X201380869Y-98222236D01*
X201224669Y-98061839D01*
X201040178Y-97934997D01*
X200834487Y-97846585D01*
X200615500Y-97800000D01*
X199965500Y-97800000D01*
X199711500Y-97800000D01*
X199061500Y-97800000D01*
X198842513Y-97846585D01*
X198636822Y-97934997D01*
X198452331Y-98061839D01*
X198296131Y-98222236D01*
X198174224Y-98410024D01*
X198094381Y-98633126D01*
X197510000Y-98633126D01*
X197510000Y-97444068D01*
X202003500Y-97444068D01*
X202003500Y-97785931D01*
X202017029Y-97923291D01*
X202070493Y-98099539D01*
X202157314Y-98261971D01*
X202206460Y-98321856D01*
X202149224Y-98410024D01*
X202069381Y-98633126D01*
X202195546Y-98808000D01*
X203536500Y-98808000D01*
X203536500Y-98788000D01*
X203790500Y-98788000D01*
X203790500Y-98808000D01*
X205131454Y-98808000D01*
X205257619Y-98633126D01*
X205177776Y-98410024D01*
X205055869Y-98222236D01*
X204899669Y-98061839D01*
X204715178Y-97934997D01*
X204509487Y-97846585D01*
X204290500Y-97800000D01*
X203872114Y-97800000D01*
X203873500Y-97785932D01*
X203873500Y-97444069D01*
X203859971Y-97306709D01*
X203806507Y-97130460D01*
X203719686Y-96968028D01*
X203602844Y-96825656D01*
X203460472Y-96708814D01*
X203298040Y-96621993D01*
X203121792Y-96568529D01*
X202938500Y-96550476D01*
X202755209Y-96568529D01*
X202578961Y-96621993D01*
X202416529Y-96708814D01*
X202274156Y-96825656D01*
X202157314Y-96968028D01*
X202070493Y-97130460D01*
X202017029Y-97306708D01*
X202003500Y-97444068D01*
X197510000Y-97444068D01*
X197510000Y-91522911D01*
X202003500Y-91522911D01*
X202003500Y-91707089D01*
X202039432Y-91887729D01*
X202109914Y-92057889D01*
X202212238Y-92211028D01*
X202342472Y-92341262D01*
X202495611Y-92443586D01*
X202665771Y-92514068D01*
X202846411Y-92550000D01*
X203030589Y-92550000D01*
X203211229Y-92514068D01*
X203381389Y-92443586D01*
X203534528Y-92341262D01*
X203664762Y-92211028D01*
X203767086Y-92057889D01*
X203837568Y-91887729D01*
X203873500Y-91707089D01*
X203873500Y-91522911D01*
X203855019Y-91430000D01*
X204290500Y-91430000D01*
X204509487Y-91383415D01*
X204715178Y-91295003D01*
X204899669Y-91168161D01*
X204959259Y-91106970D01*
X204980000Y-91127711D01*
X204980001Y-93835348D01*
X204826246Y-93938083D01*
X204682083Y-94082246D01*
X204568815Y-94251764D01*
X204490794Y-94440122D01*
X204451020Y-94640081D01*
X204451020Y-94843959D01*
X204490794Y-95043918D01*
X204568815Y-95232276D01*
X204682083Y-95401794D01*
X204826246Y-95545957D01*
X204995764Y-95659225D01*
X205184122Y-95737246D01*
X205384081Y-95777020D01*
X205587959Y-95777020D01*
X205787918Y-95737246D01*
X205976276Y-95659225D01*
X206145794Y-95545957D01*
X206289957Y-95401794D01*
X206403225Y-95232276D01*
X206481246Y-95043918D01*
X206521020Y-94843959D01*
X206521020Y-94640081D01*
X206499405Y-94531414D01*
X206500000Y-94525373D01*
X206500000Y-94525363D01*
X206503676Y-94488040D01*
X206500000Y-94450717D01*
X206500000Y-91127711D01*
X206543937Y-91083774D01*
X206657205Y-90914256D01*
X206735226Y-90725898D01*
X206775000Y-90525939D01*
X206775000Y-90322061D01*
X206735226Y-90122102D01*
X206657205Y-89933744D01*
X206543937Y-89764226D01*
X206399774Y-89620063D01*
X206230256Y-89506795D01*
X206041898Y-89428774D01*
X205841939Y-89389000D01*
X205638061Y-89389000D01*
X205438102Y-89428774D01*
X205249744Y-89506795D01*
X205080365Y-89619970D01*
X205055869Y-89582236D01*
X204899669Y-89421839D01*
X204715178Y-89294997D01*
X204509487Y-89206585D01*
X204290500Y-89160000D01*
X203790500Y-89160000D01*
X203790500Y-90168000D01*
X203810500Y-90168000D01*
X203810500Y-90422000D01*
X203790500Y-90422000D01*
X203790500Y-90442000D01*
X203536500Y-90442000D01*
X203536500Y-90422000D01*
X202195546Y-90422000D01*
X202069381Y-90596874D01*
X202149224Y-90819976D01*
X202252360Y-90978850D01*
X202212238Y-91018972D01*
X202109914Y-91172111D01*
X202039432Y-91342271D01*
X202003500Y-91522911D01*
X197510000Y-91522911D01*
X197510000Y-90596874D01*
X198094381Y-90596874D01*
X198174224Y-90819976D01*
X198296131Y-91007764D01*
X198452331Y-91168161D01*
X198636822Y-91295003D01*
X198842513Y-91383415D01*
X199061500Y-91430000D01*
X199711500Y-91430000D01*
X199711500Y-90422000D01*
X199965500Y-90422000D01*
X199965500Y-91430000D01*
X200615500Y-91430000D01*
X200834487Y-91383415D01*
X201040178Y-91295003D01*
X201224669Y-91168161D01*
X201380869Y-91007764D01*
X201502776Y-90819976D01*
X201582619Y-90596874D01*
X201456454Y-90422000D01*
X199965500Y-90422000D01*
X199711500Y-90422000D01*
X198220546Y-90422000D01*
X198094381Y-90596874D01*
X197510000Y-90596874D01*
X197510000Y-89993126D01*
X198094381Y-89993126D01*
X198220546Y-90168000D01*
X199711500Y-90168000D01*
X199711500Y-89160000D01*
X199965500Y-89160000D01*
X199965500Y-90168000D01*
X201456454Y-90168000D01*
X201582619Y-89993126D01*
X202069381Y-89993126D01*
X202195546Y-90168000D01*
X203536500Y-90168000D01*
X203536500Y-89160000D01*
X203036500Y-89160000D01*
X202817513Y-89206585D01*
X202611822Y-89294997D01*
X202427331Y-89421839D01*
X202271131Y-89582236D01*
X202149224Y-89770024D01*
X202069381Y-89993126D01*
X201582619Y-89993126D01*
X201502776Y-89770024D01*
X201380869Y-89582236D01*
X201224669Y-89421839D01*
X201040178Y-89294997D01*
X200834487Y-89206585D01*
X200615500Y-89160000D01*
X199965500Y-89160000D01*
X199711500Y-89160000D01*
X199061500Y-89160000D01*
X198842513Y-89206585D01*
X198636822Y-89294997D01*
X198452331Y-89421839D01*
X198296131Y-89582236D01*
X198174224Y-89770024D01*
X198094381Y-89993126D01*
X197510000Y-89993126D01*
X197510000Y-74766000D01*
X199816928Y-74766000D01*
X199820000Y-76930250D01*
X199978750Y-77089000D01*
X200832814Y-77089000D01*
X200826843Y-77198762D01*
X200825064Y-77200541D01*
X200825905Y-77216000D01*
X200825064Y-77231459D01*
X200826843Y-77233238D01*
X200832814Y-77343000D01*
X199978750Y-77343000D01*
X199820000Y-77501750D01*
X199816928Y-79666000D01*
X199829188Y-79790482D01*
X199865498Y-79910180D01*
X199924463Y-80020494D01*
X200003815Y-80117185D01*
X200100506Y-80196537D01*
X200210820Y-80255502D01*
X200330518Y-80291812D01*
X200455000Y-80304072D01*
X201644250Y-80301000D01*
X201803000Y-80142250D01*
X201803000Y-79613186D01*
X201912762Y-79619157D01*
X201914541Y-79620936D01*
X201930000Y-79620095D01*
X201945459Y-79620936D01*
X201947238Y-79619157D01*
X202057000Y-79613186D01*
X202057000Y-80142250D01*
X202215750Y-80301000D01*
X203405000Y-80304072D01*
X203529482Y-80291812D01*
X203649180Y-80255502D01*
X203759494Y-80196537D01*
X203856185Y-80117185D01*
X203935537Y-80020494D01*
X203994502Y-79910180D01*
X204030812Y-79790482D01*
X204043072Y-79666000D01*
X204040000Y-77501750D01*
X203881250Y-77343000D01*
X203027186Y-77343000D01*
X203033157Y-77233238D01*
X203034936Y-77231459D01*
X203034095Y-77216000D01*
X203034936Y-77200541D01*
X203033157Y-77198762D01*
X203027186Y-77089000D01*
X203881250Y-77089000D01*
X204040000Y-76930250D01*
X204043072Y-74766000D01*
X204030812Y-74641518D01*
X203994502Y-74521820D01*
X203935537Y-74411506D01*
X203856185Y-74314815D01*
X203759494Y-74235463D01*
X203649180Y-74176498D01*
X203529482Y-74140188D01*
X203405000Y-74127928D01*
X202215750Y-74131000D01*
X202057000Y-74289750D01*
X202057000Y-74818814D01*
X201947238Y-74812843D01*
X201945459Y-74811064D01*
X201930000Y-74811905D01*
X201914541Y-74811064D01*
X201912762Y-74812843D01*
X201803000Y-74818814D01*
X201803000Y-74289750D01*
X201644250Y-74131000D01*
X200455000Y-74127928D01*
X200330518Y-74140188D01*
X200210820Y-74176498D01*
X200100506Y-74235463D01*
X200003815Y-74314815D01*
X199924463Y-74411506D01*
X199865498Y-74521820D01*
X199829188Y-74641518D01*
X199816928Y-74766000D01*
X197510000Y-74766000D01*
X197510000Y-61620000D01*
X206667264Y-61620000D01*
X206588065Y-61672919D01*
G04 #@! TA.AperFunction,Conductor*
D25*
G36*
X206588065Y-61672919D02*
G01*
X206342919Y-61918065D01*
X206150308Y-62206327D01*
X206017636Y-62526627D01*
X205950000Y-62866655D01*
X205950000Y-63213345D01*
X206017636Y-63553373D01*
X206150308Y-63873673D01*
X206342919Y-64161935D01*
X206588065Y-64407081D01*
X206786992Y-64540000D01*
X206588065Y-64672919D01*
X206342919Y-64918065D01*
X206150308Y-65206327D01*
X206017636Y-65526627D01*
X205950000Y-65866655D01*
X205950000Y-66213345D01*
X206017636Y-66553373D01*
X206150308Y-66873673D01*
X206342919Y-67161935D01*
X206588065Y-67407081D01*
X206876327Y-67599692D01*
X207196627Y-67732364D01*
X207536655Y-67800000D01*
X207883345Y-67800000D01*
X208223373Y-67732364D01*
X208543673Y-67599692D01*
X208831935Y-67407081D01*
X209077081Y-67161935D01*
X209269692Y-66873673D01*
X209402364Y-66553373D01*
X209470000Y-66213345D01*
X209470000Y-65866655D01*
X209402364Y-65526627D01*
X209371848Y-65452954D01*
X209574801Y-65250001D01*
X210132218Y-65250001D01*
X210017636Y-65526627D01*
X209950000Y-65866655D01*
X209950000Y-66213345D01*
X210017636Y-66553373D01*
X210150308Y-66873673D01*
X210342919Y-67161935D01*
X210588065Y-67407081D01*
X210876327Y-67599692D01*
X211196627Y-67732364D01*
X211536655Y-67800000D01*
X211883345Y-67800000D01*
X212223373Y-67732364D01*
X212543673Y-67599692D01*
X212831935Y-67407081D01*
X213077081Y-67161935D01*
X213269692Y-66873673D01*
X213402364Y-66553373D01*
X213470000Y-66213345D01*
X213470000Y-65866655D01*
X213402364Y-65526627D01*
X213287782Y-65250001D01*
X214132218Y-65250001D01*
X214017636Y-65526627D01*
X213950000Y-65866655D01*
X213950000Y-66213345D01*
X214017636Y-66553373D01*
X214150308Y-66873673D01*
X214342919Y-67161935D01*
X214588065Y-67407081D01*
X214876327Y-67599692D01*
X215196627Y-67732364D01*
X215536655Y-67800000D01*
X215883345Y-67800000D01*
X216223373Y-67732364D01*
X216543673Y-67599692D01*
X216831935Y-67407081D01*
X217077081Y-67161935D01*
X217269692Y-66873673D01*
X217402364Y-66553373D01*
X217470000Y-66213345D01*
X217470000Y-65866655D01*
X217402364Y-65526627D01*
X217287782Y-65250001D01*
X218132218Y-65250001D01*
X218017636Y-65526627D01*
X217950000Y-65866655D01*
X217950000Y-66213345D01*
X218017636Y-66553373D01*
X218150308Y-66873673D01*
X218342919Y-67161935D01*
X218588065Y-67407081D01*
X218876327Y-67599692D01*
X219196627Y-67732364D01*
X219536655Y-67800000D01*
X219883345Y-67800000D01*
X220223373Y-67732364D01*
X220543673Y-67599692D01*
X220831935Y-67407081D01*
X221077081Y-67161935D01*
X221269692Y-66873673D01*
X221402364Y-66553373D01*
X221470000Y-66213345D01*
X221470000Y-65866655D01*
X221402364Y-65526627D01*
X221287782Y-65250001D01*
X222132218Y-65250001D01*
X222017636Y-65526627D01*
X221950000Y-65866655D01*
X221950000Y-66213345D01*
X222017636Y-66553373D01*
X222150308Y-66873673D01*
X222342919Y-67161935D01*
X222588065Y-67407081D01*
X222876327Y-67599692D01*
X223196627Y-67732364D01*
X223536655Y-67800000D01*
X223883345Y-67800000D01*
X224223373Y-67732364D01*
X224543673Y-67599692D01*
X224831935Y-67407081D01*
X225077081Y-67161935D01*
X225269692Y-66873673D01*
X225402364Y-66553373D01*
X225470000Y-66213345D01*
X225470000Y-65866655D01*
X225402364Y-65526627D01*
X225287782Y-65250001D01*
X226132218Y-65250001D01*
X226017636Y-65526627D01*
X225950000Y-65866655D01*
X225950000Y-66213345D01*
X226017636Y-66553373D01*
X226150308Y-66873673D01*
X226342919Y-67161935D01*
X226588065Y-67407081D01*
X226876327Y-67599692D01*
X227196627Y-67732364D01*
X227536655Y-67800000D01*
X227883345Y-67800000D01*
X228223373Y-67732364D01*
X228543673Y-67599692D01*
X228831935Y-67407081D01*
X229077081Y-67161935D01*
X229269692Y-66873673D01*
X229402364Y-66553373D01*
X229443127Y-66348445D01*
X229568102Y-66400212D01*
X229768061Y-66439986D01*
X229971939Y-66439986D01*
X229994201Y-66435558D01*
X230017636Y-66553373D01*
X230150308Y-66873673D01*
X230342919Y-67161935D01*
X230588065Y-67407081D01*
X230876327Y-67599692D01*
X231196627Y-67732364D01*
X231536655Y-67800000D01*
X231883345Y-67800000D01*
X232223373Y-67732364D01*
X232543673Y-67599692D01*
X232831935Y-67407081D01*
X233077081Y-67161935D01*
X233269692Y-66873673D01*
X233402364Y-66553373D01*
X233470000Y-66213345D01*
X233470000Y-65866655D01*
X233402364Y-65526627D01*
X233269692Y-65206327D01*
X233077081Y-64918065D01*
X232831935Y-64672919D01*
X232633008Y-64540000D01*
X232831935Y-64407081D01*
X233077081Y-64161935D01*
X233269692Y-63873673D01*
X233402364Y-63553373D01*
X233470000Y-63213345D01*
X233470000Y-62866655D01*
X233402364Y-62526627D01*
X233269692Y-62206327D01*
X233077081Y-61918065D01*
X232831935Y-61672919D01*
X232752736Y-61620000D01*
X234022662Y-61620000D01*
X233995498Y-61670820D01*
X233959188Y-61790518D01*
X233946928Y-61915000D01*
X233946928Y-64165000D01*
X233959188Y-64289482D01*
X233995498Y-64409180D01*
X234054463Y-64519494D01*
X234133815Y-64616185D01*
X234230506Y-64695537D01*
X234340820Y-64754502D01*
X234460518Y-64790812D01*
X234469306Y-64791678D01*
X234342919Y-64918065D01*
X234150308Y-65206327D01*
X234017636Y-65526627D01*
X233950000Y-65866655D01*
X233950000Y-66213345D01*
X234017636Y-66553373D01*
X234150308Y-66873673D01*
X234342919Y-67161935D01*
X234588065Y-67407081D01*
X234876327Y-67599692D01*
X235196627Y-67732364D01*
X235536655Y-67800000D01*
X235883345Y-67800000D01*
X236223373Y-67732364D01*
X236543673Y-67599692D01*
X236831935Y-67407081D01*
X237077081Y-67161935D01*
X237269692Y-66873673D01*
X237365014Y-66643544D01*
X237365014Y-66980528D01*
X236398530Y-67947013D01*
X236336392Y-67947013D01*
X236136433Y-67986787D01*
X235948075Y-68064808D01*
X235778557Y-68178076D01*
X235753633Y-68203000D01*
X217581454Y-68203000D01*
X217533256Y-68170795D01*
X217344898Y-68092774D01*
X217144939Y-68053000D01*
X216941061Y-68053000D01*
X216741102Y-68092774D01*
X216552744Y-68170795D01*
X216383226Y-68284063D01*
X216239063Y-68428226D01*
X216125795Y-68597744D01*
X216047774Y-68786102D01*
X216036465Y-68842956D01*
X214962954Y-69916468D01*
X214929181Y-69944185D01*
X214818587Y-70078944D01*
X214736409Y-70232690D01*
X214685803Y-70399513D01*
X214672998Y-70529526D01*
X214672998Y-70529533D01*
X214668717Y-70573002D01*
X214672998Y-70616471D01*
X214672999Y-75535865D01*
X214634787Y-75628115D01*
X214595013Y-75828074D01*
X214595013Y-76031952D01*
X214634787Y-76231911D01*
X214672999Y-76324161D01*
X214672999Y-80449559D01*
X214668717Y-80493038D01*
X214685803Y-80666528D01*
X214736410Y-80833351D01*
X214818588Y-80987097D01*
X214901466Y-81088084D01*
X214901469Y-81088087D01*
X214929182Y-81121855D01*
X214962949Y-81149567D01*
X215433445Y-81620064D01*
X215444754Y-81676918D01*
X215522775Y-81865276D01*
X215636043Y-82034794D01*
X215780206Y-82178957D01*
X215949724Y-82292225D01*
X216138082Y-82370246D01*
X216338041Y-82410020D01*
X216541919Y-82410020D01*
X216599003Y-82398665D01*
X216611845Y-82423000D01*
X217805000Y-82423000D01*
X217805000Y-82403000D01*
X218059000Y-82403000D01*
X218059000Y-82423000D01*
X218079000Y-82423000D01*
X218079000Y-82677000D01*
X218059000Y-82677000D01*
X218059000Y-82697000D01*
X217805000Y-82697000D01*
X217805000Y-82677000D01*
X216611845Y-82677000D01*
X216490524Y-82906890D01*
X216535175Y-83054099D01*
X216660359Y-83316920D01*
X216834412Y-83550269D01*
X217050645Y-83745178D01*
X217167534Y-83814805D01*
X216985368Y-83936525D01*
X216778525Y-84143368D01*
X216616010Y-84386589D01*
X216504068Y-84656842D01*
X216447000Y-84943740D01*
X216447000Y-85236260D01*
X216504068Y-85523158D01*
X216535895Y-85599995D01*
X215054237Y-85599995D01*
X214541243Y-85087002D01*
X214517441Y-85057999D01*
X214401716Y-84963026D01*
X214269687Y-84892454D01*
X214126426Y-84848997D01*
X214014773Y-84838000D01*
X214014762Y-84838000D01*
X213977440Y-84834324D01*
X213940118Y-84838000D01*
X213555711Y-84838000D01*
X213511774Y-84794063D01*
X213342256Y-84680795D01*
X213153898Y-84602774D01*
X212953939Y-84563000D01*
X212750061Y-84563000D01*
X212550102Y-84602774D01*
X212361744Y-84680795D01*
X212192226Y-84794063D01*
X212048063Y-84938226D01*
X211934795Y-85107744D01*
X211856774Y-85296102D01*
X211817000Y-85496061D01*
X211817000Y-85699939D01*
X211856774Y-85899898D01*
X211934795Y-86088256D01*
X212048063Y-86257774D01*
X212192226Y-86401937D01*
X212361744Y-86515205D01*
X212550102Y-86593226D01*
X212558335Y-86594864D01*
X210018199Y-89135000D01*
X209956061Y-89135000D01*
X209756102Y-89174774D01*
X209567744Y-89252795D01*
X209398226Y-89366063D01*
X209327044Y-89437245D01*
X208278000Y-88388201D01*
X208278000Y-86187709D01*
X208321937Y-86143772D01*
X208435205Y-85974254D01*
X208513226Y-85785896D01*
X208553000Y-85585937D01*
X208553000Y-85382059D01*
X208513226Y-85182100D01*
X208435205Y-84993742D01*
X208321937Y-84824224D01*
X208177774Y-84680061D01*
X208008256Y-84566793D01*
X207819898Y-84488772D01*
X207619939Y-84448998D01*
X207416061Y-84448998D01*
X207216102Y-84488772D01*
X207027744Y-84566793D01*
X206858226Y-84680061D01*
X206714063Y-84824224D01*
X206600795Y-84993742D01*
X206522774Y-85182100D01*
X206483000Y-85382059D01*
X206483000Y-85585937D01*
X206522774Y-85785896D01*
X206600795Y-85974254D01*
X206714063Y-86143772D01*
X206758001Y-86187710D01*
X206758000Y-88665679D01*
X206754324Y-88703002D01*
X206758000Y-88740324D01*
X206758000Y-88740334D01*
X206768997Y-88851987D01*
X206810241Y-88987951D01*
X206812454Y-88995248D01*
X206883026Y-89127278D01*
X206907421Y-89157003D01*
X206977999Y-89243003D01*
X207007003Y-89266806D01*
X209146199Y-91406003D01*
X209169998Y-91435002D01*
X209285723Y-91529975D01*
X209417752Y-91600547D01*
X209561013Y-91644004D01*
X209672666Y-91655001D01*
X209672674Y-91655001D01*
X209709999Y-91658677D01*
X209747324Y-91655001D01*
X210177201Y-91655001D01*
X210293000Y-91770800D01*
X210293000Y-91795939D01*
X210332774Y-91995898D01*
X210410795Y-92184256D01*
X210524063Y-92353774D01*
X210573250Y-92402961D01*
X209674003Y-93302208D01*
X209644999Y-93326011D01*
X209609885Y-93368798D01*
X209550026Y-93441736D01*
X209535454Y-93468998D01*
X209479454Y-93573766D01*
X209435997Y-93717027D01*
X209425000Y-93828680D01*
X209425000Y-93828690D01*
X209421324Y-93866012D01*
X209425000Y-93903335D01*
X209425001Y-99245288D01*
X209381063Y-99289226D01*
X209267795Y-99458744D01*
X209189774Y-99647102D01*
X209150000Y-99847061D01*
X209150000Y-100050939D01*
X209189774Y-100250898D01*
X209267795Y-100439256D01*
X209381063Y-100608774D01*
X209525226Y-100752937D01*
X209694744Y-100866205D01*
X209883102Y-100944226D01*
X210083061Y-100984000D01*
X210286939Y-100984000D01*
X210486898Y-100944226D01*
X210675256Y-100866205D01*
X210844774Y-100752937D01*
X210922000Y-100675711D01*
X210922001Y-107220419D01*
X210925249Y-107253397D01*
X210925249Y-107266591D01*
X210926212Y-107275756D01*
X210948315Y-107472808D01*
X210957144Y-107514341D01*
X210860008Y-107611477D01*
X210758286Y-107763715D01*
X210688218Y-107932874D01*
X210652497Y-108112452D01*
X210652497Y-108295548D01*
X210688218Y-108475126D01*
X210733729Y-108585000D01*
X210688218Y-108694874D01*
X210652497Y-108874452D01*
X210652497Y-109057548D01*
X210688218Y-109237126D01*
X210733729Y-109347000D01*
X210688218Y-109456874D01*
X210652497Y-109636452D01*
X210652497Y-109819548D01*
X210688218Y-109999126D01*
X210733729Y-110109000D01*
X210688218Y-110218874D01*
X210652497Y-110398452D01*
X210652497Y-110581548D01*
X210688218Y-110761126D01*
X210758286Y-110930285D01*
X210860008Y-111082523D01*
X210957227Y-111179742D01*
X210945463Y-111235087D01*
X210944500Y-111244252D01*
X210925150Y-111441594D01*
X210925150Y-111441608D01*
X210922001Y-111473581D01*
X210922000Y-112878000D01*
X197510000Y-112878000D01*
X197510000Y-111970974D01*
X201136631Y-111970974D01*
X201290838Y-112284998D01*
X201663067Y-112474308D01*
X202065076Y-112587362D01*
X202481416Y-112619816D01*
X202896089Y-112570422D01*
X203293157Y-112441079D01*
X203585162Y-112284998D01*
X203739369Y-111970974D01*
X204676631Y-111970974D01*
X204830838Y-112284998D01*
X205203067Y-112474308D01*
X205605076Y-112587362D01*
X206021416Y-112619816D01*
X206436089Y-112570422D01*
X206833157Y-112441079D01*
X207125162Y-112284998D01*
X207279369Y-111970974D01*
X205978000Y-110669605D01*
X204676631Y-111970974D01*
X203739369Y-111970974D01*
X202438000Y-110669605D01*
X201136631Y-111970974D01*
X197510000Y-111970974D01*
X197510000Y-110579764D01*
X198347841Y-110579764D01*
X198395148Y-110803348D01*
X198616516Y-110904237D01*
X198853313Y-110960000D01*
X199096438Y-110968495D01*
X199336549Y-110929395D01*
X199564418Y-110844202D01*
X199640852Y-110803348D01*
X199688159Y-110579764D01*
X199641811Y-110533416D01*
X200308184Y-110533416D01*
X200357578Y-110948089D01*
X200486921Y-111345157D01*
X200643002Y-111637162D01*
X200957026Y-111791369D01*
X202258395Y-110490000D01*
X202617605Y-110490000D01*
X203918974Y-111791369D01*
X204208000Y-111649438D01*
X204497026Y-111791369D01*
X205798395Y-110490000D01*
X206157605Y-110490000D01*
X207458974Y-111791369D01*
X207772998Y-111637162D01*
X207962308Y-111264933D01*
X208075362Y-110862924D01*
X208107816Y-110446584D01*
X208058422Y-110031911D01*
X207929079Y-109634843D01*
X207772998Y-109342838D01*
X207458974Y-109188631D01*
X206157605Y-110490000D01*
X205798395Y-110490000D01*
X204497026Y-109188631D01*
X204208000Y-109330562D01*
X203918974Y-109188631D01*
X202617605Y-110490000D01*
X202258395Y-110490000D01*
X200957026Y-109188631D01*
X200643002Y-109342838D01*
X200453692Y-109715067D01*
X200340638Y-110117076D01*
X200308184Y-110533416D01*
X199641811Y-110533416D01*
X199018000Y-109909605D01*
X198347841Y-110579764D01*
X197510000Y-110579764D01*
X197510000Y-109808438D01*
X197779505Y-109808438D01*
X197818605Y-110048549D01*
X197903798Y-110276418D01*
X197944652Y-110352852D01*
X198168236Y-110400159D01*
X198838395Y-109730000D01*
X198824253Y-109715858D01*
X198975110Y-109565000D01*
X199060890Y-109565000D01*
X199211748Y-109715858D01*
X199197605Y-109730000D01*
X199867764Y-110400159D01*
X200091348Y-110352852D01*
X200192237Y-110131484D01*
X200248000Y-109894687D01*
X200256495Y-109651562D01*
X200217395Y-109411451D01*
X200132202Y-109183582D01*
X200091348Y-109107148D01*
X199997339Y-109087257D01*
X200049611Y-109009026D01*
X201136631Y-109009026D01*
X202438000Y-110310395D01*
X203739369Y-109009026D01*
X204676631Y-109009026D01*
X205978000Y-110310395D01*
X207279369Y-109009026D01*
X207125162Y-108695002D01*
X206752933Y-108505692D01*
X206350924Y-108392638D01*
X205934584Y-108360184D01*
X205519911Y-108409578D01*
X205122843Y-108538921D01*
X204830838Y-108695002D01*
X204676631Y-109009026D01*
X203739369Y-109009026D01*
X203585162Y-108695002D01*
X203212933Y-108505692D01*
X202810924Y-108392638D01*
X202394584Y-108360184D01*
X201979911Y-108409578D01*
X201582843Y-108538921D01*
X201290838Y-108695002D01*
X201136631Y-109009026D01*
X200049611Y-109009026D01*
X200112443Y-108914992D01*
X200205540Y-108690236D01*
X200253000Y-108451637D01*
X200253000Y-108208363D01*
X200205540Y-107969764D01*
X200112443Y-107745008D01*
X200035597Y-107630000D01*
X200112443Y-107514992D01*
X200205540Y-107290236D01*
X200253000Y-107051637D01*
X200253000Y-106808363D01*
X200205540Y-106569764D01*
X200197757Y-106550974D01*
X201136631Y-106550974D01*
X201290838Y-106864998D01*
X201663067Y-107054308D01*
X202065076Y-107167362D01*
X202481416Y-107199816D01*
X202896089Y-107150422D01*
X203293157Y-107021079D01*
X203585162Y-106864998D01*
X203739369Y-106550974D01*
X204676631Y-106550974D01*
X204830838Y-106864998D01*
X205203067Y-107054308D01*
X205605076Y-107167362D01*
X206021416Y-107199816D01*
X206436089Y-107150422D01*
X206833157Y-107021079D01*
X207125162Y-106864998D01*
X207279369Y-106550974D01*
X205978000Y-105249605D01*
X204676631Y-106550974D01*
X203739369Y-106550974D01*
X202438000Y-105249605D01*
X201136631Y-106550974D01*
X200197757Y-106550974D01*
X200112443Y-106345008D01*
X200035597Y-106230000D01*
X200112443Y-106114992D01*
X200205540Y-105890236D01*
X200253000Y-105651637D01*
X200253000Y-105408363D01*
X200205540Y-105169764D01*
X200182200Y-105113416D01*
X200308184Y-105113416D01*
X200357578Y-105528089D01*
X200486921Y-105925157D01*
X200643002Y-106217162D01*
X200957026Y-106371369D01*
X202258395Y-105070000D01*
X202617605Y-105070000D01*
X203918974Y-106371369D01*
X204208000Y-106229438D01*
X204497026Y-106371369D01*
X205798395Y-105070000D01*
X206157605Y-105070000D01*
X207458974Y-106371369D01*
X207772998Y-106217162D01*
X207962308Y-105844933D01*
X208075362Y-105442924D01*
X208107816Y-105026584D01*
X208058422Y-104611911D01*
X207929079Y-104214843D01*
X207772998Y-103922838D01*
X207458974Y-103768631D01*
X206157605Y-105070000D01*
X205798395Y-105070000D01*
X204497026Y-103768631D01*
X204208000Y-103910562D01*
X203918974Y-103768631D01*
X202617605Y-105070000D01*
X202258395Y-105070000D01*
X200957026Y-103768631D01*
X200643002Y-103922838D01*
X200453692Y-104295067D01*
X200340638Y-104697076D01*
X200308184Y-105113416D01*
X200182200Y-105113416D01*
X200112443Y-104945008D01*
X199977287Y-104742733D01*
X199805267Y-104570713D01*
X199602992Y-104435557D01*
X199378236Y-104342460D01*
X199139637Y-104295000D01*
X198896363Y-104295000D01*
X198657764Y-104342460D01*
X198433008Y-104435557D01*
X198230733Y-104570713D01*
X198058713Y-104742733D01*
X197923557Y-104945008D01*
X197830460Y-105169764D01*
X197783000Y-105408363D01*
X197783000Y-105651637D01*
X197830460Y-105890236D01*
X197923557Y-106114992D01*
X198000403Y-106230000D01*
X197923557Y-106345008D01*
X197830460Y-106569764D01*
X197783000Y-106808363D01*
X197783000Y-107051637D01*
X197830460Y-107290236D01*
X197923557Y-107514992D01*
X198000403Y-107630000D01*
X197923557Y-107745008D01*
X197830460Y-107969764D01*
X197783000Y-108208363D01*
X197783000Y-108451637D01*
X197830460Y-108690236D01*
X197923557Y-108914992D01*
X198038661Y-109087257D01*
X197944652Y-109107148D01*
X197843763Y-109328516D01*
X197788000Y-109565313D01*
X197779505Y-109808438D01*
X197510000Y-109808438D01*
X197510000Y-103589026D01*
X201136631Y-103589026D01*
X202438000Y-104890395D01*
X203739369Y-103589026D01*
X204676631Y-103589026D01*
X205978000Y-104890395D01*
X207279369Y-103589026D01*
X207125162Y-103275002D01*
X206752933Y-103085692D01*
X206350924Y-102972638D01*
X205934584Y-102940184D01*
X205519911Y-102989578D01*
X205122843Y-103118921D01*
X204830838Y-103275002D01*
X204676631Y-103589026D01*
X203739369Y-103589026D01*
X203585162Y-103275002D01*
X203212933Y-103085692D01*
X202810924Y-102972638D01*
X202394584Y-102940184D01*
X201979911Y-102989578D01*
X201582843Y-103118921D01*
X201290838Y-103275002D01*
X201136631Y-103589026D01*
X197510000Y-103589026D01*
X197510000Y-99236874D01*
X198094381Y-99236874D01*
X198174224Y-99459976D01*
X198296131Y-99647764D01*
X198452331Y-99808161D01*
X198636822Y-99935003D01*
X198842513Y-100023415D01*
X199061500Y-100070000D01*
X199711500Y-100070000D01*
X199711500Y-99062000D01*
X199965500Y-99062000D01*
X199965500Y-100070000D01*
X200615500Y-100070000D01*
X200834487Y-100023415D01*
X201040178Y-99935003D01*
X201224669Y-99808161D01*
X201380869Y-99647764D01*
X201502776Y-99459976D01*
X201582619Y-99236874D01*
X202069381Y-99236874D01*
X202149224Y-99459976D01*
X202271131Y-99647764D01*
X202427331Y-99808161D01*
X202611822Y-99935003D01*
X202817513Y-100023415D01*
X203036500Y-100070000D01*
X203536500Y-100070000D01*
X203536500Y-99062000D01*
X203790500Y-99062000D01*
X203790500Y-100070000D01*
X204290500Y-100070000D01*
X204509487Y-100023415D01*
X204715178Y-99935003D01*
X204899669Y-99808161D01*
X205055869Y-99647764D01*
X205177776Y-99459976D01*
X205257619Y-99236874D01*
X205131454Y-99062000D01*
X203790500Y-99062000D01*
X203536500Y-99062000D01*
X202195546Y-99062000D01*
X202069381Y-99236874D01*
X201582619Y-99236874D01*
X201456454Y-99062000D01*
X199965500Y-99062000D01*
X199711500Y-99062000D01*
X198220546Y-99062000D01*
X198094381Y-99236874D01*
X197510000Y-99236874D01*
X197510000Y-98633126D01*
X198094381Y-98633126D01*
X198220546Y-98808000D01*
X199711500Y-98808000D01*
X199711500Y-97800000D01*
X199965500Y-97800000D01*
X199965500Y-98808000D01*
X201456454Y-98808000D01*
X201582619Y-98633126D01*
X201502776Y-98410024D01*
X201380869Y-98222236D01*
X201224669Y-98061839D01*
X201040178Y-97934997D01*
X200834487Y-97846585D01*
X200615500Y-97800000D01*
X199965500Y-97800000D01*
X199711500Y-97800000D01*
X199061500Y-97800000D01*
X198842513Y-97846585D01*
X198636822Y-97934997D01*
X198452331Y-98061839D01*
X198296131Y-98222236D01*
X198174224Y-98410024D01*
X198094381Y-98633126D01*
X197510000Y-98633126D01*
X197510000Y-97444068D01*
X202003500Y-97444068D01*
X202003500Y-97785931D01*
X202017029Y-97923291D01*
X202070493Y-98099539D01*
X202157314Y-98261971D01*
X202206460Y-98321856D01*
X202149224Y-98410024D01*
X202069381Y-98633126D01*
X202195546Y-98808000D01*
X203536500Y-98808000D01*
X203536500Y-98788000D01*
X203790500Y-98788000D01*
X203790500Y-98808000D01*
X205131454Y-98808000D01*
X205257619Y-98633126D01*
X205177776Y-98410024D01*
X205055869Y-98222236D01*
X204899669Y-98061839D01*
X204715178Y-97934997D01*
X204509487Y-97846585D01*
X204290500Y-97800000D01*
X203872114Y-97800000D01*
X203873500Y-97785932D01*
X203873500Y-97444069D01*
X203859971Y-97306709D01*
X203806507Y-97130460D01*
X203719686Y-96968028D01*
X203602844Y-96825656D01*
X203460472Y-96708814D01*
X203298040Y-96621993D01*
X203121792Y-96568529D01*
X202938500Y-96550476D01*
X202755209Y-96568529D01*
X202578961Y-96621993D01*
X202416529Y-96708814D01*
X202274156Y-96825656D01*
X202157314Y-96968028D01*
X202070493Y-97130460D01*
X202017029Y-97306708D01*
X202003500Y-97444068D01*
X197510000Y-97444068D01*
X197510000Y-91522911D01*
X202003500Y-91522911D01*
X202003500Y-91707089D01*
X202039432Y-91887729D01*
X202109914Y-92057889D01*
X202212238Y-92211028D01*
X202342472Y-92341262D01*
X202495611Y-92443586D01*
X202665771Y-92514068D01*
X202846411Y-92550000D01*
X203030589Y-92550000D01*
X203211229Y-92514068D01*
X203381389Y-92443586D01*
X203534528Y-92341262D01*
X203664762Y-92211028D01*
X203767086Y-92057889D01*
X203837568Y-91887729D01*
X203873500Y-91707089D01*
X203873500Y-91522911D01*
X203855019Y-91430000D01*
X204290500Y-91430000D01*
X204509487Y-91383415D01*
X204715178Y-91295003D01*
X204899669Y-91168161D01*
X204959259Y-91106970D01*
X204980000Y-91127711D01*
X204980001Y-93835348D01*
X204826246Y-93938083D01*
X204682083Y-94082246D01*
X204568815Y-94251764D01*
X204490794Y-94440122D01*
X204451020Y-94640081D01*
X204451020Y-94843959D01*
X204490794Y-95043918D01*
X204568815Y-95232276D01*
X204682083Y-95401794D01*
X204826246Y-95545957D01*
X204995764Y-95659225D01*
X205184122Y-95737246D01*
X205384081Y-95777020D01*
X205587959Y-95777020D01*
X205787918Y-95737246D01*
X205976276Y-95659225D01*
X206145794Y-95545957D01*
X206289957Y-95401794D01*
X206403225Y-95232276D01*
X206481246Y-95043918D01*
X206521020Y-94843959D01*
X206521020Y-94640081D01*
X206499405Y-94531414D01*
X206500000Y-94525373D01*
X206500000Y-94525363D01*
X206503676Y-94488040D01*
X206500000Y-94450717D01*
X206500000Y-91127711D01*
X206543937Y-91083774D01*
X206657205Y-90914256D01*
X206735226Y-90725898D01*
X206775000Y-90525939D01*
X206775000Y-90322061D01*
X206735226Y-90122102D01*
X206657205Y-89933744D01*
X206543937Y-89764226D01*
X206399774Y-89620063D01*
X206230256Y-89506795D01*
X206041898Y-89428774D01*
X205841939Y-89389000D01*
X205638061Y-89389000D01*
X205438102Y-89428774D01*
X205249744Y-89506795D01*
X205080365Y-89619970D01*
X205055869Y-89582236D01*
X204899669Y-89421839D01*
X204715178Y-89294997D01*
X204509487Y-89206585D01*
X204290500Y-89160000D01*
X203790500Y-89160000D01*
X203790500Y-90168000D01*
X203810500Y-90168000D01*
X203810500Y-90422000D01*
X203790500Y-90422000D01*
X203790500Y-90442000D01*
X203536500Y-90442000D01*
X203536500Y-90422000D01*
X202195546Y-90422000D01*
X202069381Y-90596874D01*
X202149224Y-90819976D01*
X202252360Y-90978850D01*
X202212238Y-91018972D01*
X202109914Y-91172111D01*
X202039432Y-91342271D01*
X202003500Y-91522911D01*
X197510000Y-91522911D01*
X197510000Y-90596874D01*
X198094381Y-90596874D01*
X198174224Y-90819976D01*
X198296131Y-91007764D01*
X198452331Y-91168161D01*
X198636822Y-91295003D01*
X198842513Y-91383415D01*
X199061500Y-91430000D01*
X199711500Y-91430000D01*
X199711500Y-90422000D01*
X199965500Y-90422000D01*
X199965500Y-91430000D01*
X200615500Y-91430000D01*
X200834487Y-91383415D01*
X201040178Y-91295003D01*
X201224669Y-91168161D01*
X201380869Y-91007764D01*
X201502776Y-90819976D01*
X201582619Y-90596874D01*
X201456454Y-90422000D01*
X199965500Y-90422000D01*
X199711500Y-90422000D01*
X198220546Y-90422000D01*
X198094381Y-90596874D01*
X197510000Y-90596874D01*
X197510000Y-89993126D01*
X198094381Y-89993126D01*
X198220546Y-90168000D01*
X199711500Y-90168000D01*
X199711500Y-89160000D01*
X199965500Y-89160000D01*
X199965500Y-90168000D01*
X201456454Y-90168000D01*
X201582619Y-89993126D01*
X202069381Y-89993126D01*
X202195546Y-90168000D01*
X203536500Y-90168000D01*
X203536500Y-89160000D01*
X203036500Y-89160000D01*
X202817513Y-89206585D01*
X202611822Y-89294997D01*
X202427331Y-89421839D01*
X202271131Y-89582236D01*
X202149224Y-89770024D01*
X202069381Y-89993126D01*
X201582619Y-89993126D01*
X201502776Y-89770024D01*
X201380869Y-89582236D01*
X201224669Y-89421839D01*
X201040178Y-89294997D01*
X200834487Y-89206585D01*
X200615500Y-89160000D01*
X199965500Y-89160000D01*
X199711500Y-89160000D01*
X199061500Y-89160000D01*
X198842513Y-89206585D01*
X198636822Y-89294997D01*
X198452331Y-89421839D01*
X198296131Y-89582236D01*
X198174224Y-89770024D01*
X198094381Y-89993126D01*
X197510000Y-89993126D01*
X197510000Y-74766000D01*
X199816928Y-74766000D01*
X199820000Y-76930250D01*
X199978750Y-77089000D01*
X200832814Y-77089000D01*
X200826843Y-77198762D01*
X200825064Y-77200541D01*
X200825905Y-77216000D01*
X200825064Y-77231459D01*
X200826843Y-77233238D01*
X200832814Y-77343000D01*
X199978750Y-77343000D01*
X199820000Y-77501750D01*
X199816928Y-79666000D01*
X199829188Y-79790482D01*
X199865498Y-79910180D01*
X199924463Y-80020494D01*
X200003815Y-80117185D01*
X200100506Y-80196537D01*
X200210820Y-80255502D01*
X200330518Y-80291812D01*
X200455000Y-80304072D01*
X201644250Y-80301000D01*
X201803000Y-80142250D01*
X201803000Y-79613186D01*
X201912762Y-79619157D01*
X201914541Y-79620936D01*
X201930000Y-79620095D01*
X201945459Y-79620936D01*
X201947238Y-79619157D01*
X202057000Y-79613186D01*
X202057000Y-80142250D01*
X202215750Y-80301000D01*
X203405000Y-80304072D01*
X203529482Y-80291812D01*
X203649180Y-80255502D01*
X203759494Y-80196537D01*
X203856185Y-80117185D01*
X203935537Y-80020494D01*
X203994502Y-79910180D01*
X204030812Y-79790482D01*
X204043072Y-79666000D01*
X204040000Y-77501750D01*
X203881250Y-77343000D01*
X203027186Y-77343000D01*
X203033157Y-77233238D01*
X203034936Y-77231459D01*
X203034095Y-77216000D01*
X203034936Y-77200541D01*
X203033157Y-77198762D01*
X203027186Y-77089000D01*
X203881250Y-77089000D01*
X204040000Y-76930250D01*
X204043072Y-74766000D01*
X204030812Y-74641518D01*
X203994502Y-74521820D01*
X203935537Y-74411506D01*
X203856185Y-74314815D01*
X203759494Y-74235463D01*
X203649180Y-74176498D01*
X203529482Y-74140188D01*
X203405000Y-74127928D01*
X202215750Y-74131000D01*
X202057000Y-74289750D01*
X202057000Y-74818814D01*
X201947238Y-74812843D01*
X201945459Y-74811064D01*
X201930000Y-74811905D01*
X201914541Y-74811064D01*
X201912762Y-74812843D01*
X201803000Y-74818814D01*
X201803000Y-74289750D01*
X201644250Y-74131000D01*
X200455000Y-74127928D01*
X200330518Y-74140188D01*
X200210820Y-74176498D01*
X200100506Y-74235463D01*
X200003815Y-74314815D01*
X199924463Y-74411506D01*
X199865498Y-74521820D01*
X199829188Y-74641518D01*
X199816928Y-74766000D01*
X197510000Y-74766000D01*
X197510000Y-61620000D01*
X206667264Y-61620000D01*
X206588065Y-61672919D01*
G37*
G04 #@! TD.AperFunction*
D24*
X202057000Y-77089000D02*
X202132814Y-77089000D01*
X202126843Y-77198762D01*
X202125064Y-77200541D01*
X202125905Y-77216000D01*
X202125064Y-77231459D01*
X202126843Y-77233238D01*
X202132814Y-77343000D01*
X202057000Y-77343000D01*
X202057000Y-77418814D01*
X201947238Y-77412843D01*
X201945459Y-77411064D01*
X201930000Y-77411905D01*
X201914541Y-77411064D01*
X201912762Y-77412843D01*
X201803000Y-77418814D01*
X201803000Y-77343000D01*
X201727186Y-77343000D01*
X201733157Y-77233238D01*
X201734936Y-77231459D01*
X201734095Y-77216000D01*
X201734936Y-77200541D01*
X201733157Y-77198762D01*
X201727186Y-77089000D01*
X201803000Y-77089000D01*
X201803000Y-77013186D01*
X201912762Y-77019157D01*
X201914541Y-77020936D01*
X201930000Y-77020095D01*
X201945459Y-77020936D01*
X201947238Y-77019157D01*
X202057000Y-77013186D01*
X202057000Y-77089000D01*
G04 #@! TA.AperFunction,Conductor*
D25*
G36*
X202057000Y-77089000D02*
G01*
X202132814Y-77089000D01*
X202126843Y-77198762D01*
X202125064Y-77200541D01*
X202125905Y-77216000D01*
X202125064Y-77231459D01*
X202126843Y-77233238D01*
X202132814Y-77343000D01*
X202057000Y-77343000D01*
X202057000Y-77418814D01*
X201947238Y-77412843D01*
X201945459Y-77411064D01*
X201930000Y-77411905D01*
X201914541Y-77411064D01*
X201912762Y-77412843D01*
X201803000Y-77418814D01*
X201803000Y-77343000D01*
X201727186Y-77343000D01*
X201733157Y-77233238D01*
X201734936Y-77231459D01*
X201734095Y-77216000D01*
X201734936Y-77200541D01*
X201733157Y-77198762D01*
X201727186Y-77089000D01*
X201803000Y-77089000D01*
X201803000Y-77013186D01*
X201912762Y-77019157D01*
X201914541Y-77020936D01*
X201930000Y-77020095D01*
X201945459Y-77020936D01*
X201947238Y-77019157D01*
X202057000Y-77013186D01*
X202057000Y-77089000D01*
G37*
G04 #@! TD.AperFunction*
D24*
X245720000Y-94844000D02*
X245045516Y-94844000D01*
X245184157Y-94611252D01*
X245281481Y-94336891D01*
X245160814Y-94107000D01*
X243967000Y-94107000D01*
X243967000Y-94127000D01*
X243713000Y-94127000D01*
X243713000Y-94107000D01*
X243693000Y-94107000D01*
X243693000Y-93853000D01*
X243713000Y-93853000D01*
X243713000Y-92659845D01*
X243967000Y-92659845D01*
X243967000Y-93853000D01*
X245160814Y-93853000D01*
X245281481Y-93623109D01*
X245184157Y-93348748D01*
X245035178Y-93098645D01*
X244840269Y-92882412D01*
X244606920Y-92708359D01*
X244344099Y-92583175D01*
X244196890Y-92538524D01*
X243967000Y-92659845D01*
X243713000Y-92659845D01*
X243483110Y-92538524D01*
X243335901Y-92583175D01*
X243073080Y-92708359D01*
X242839731Y-92882412D01*
X242644822Y-93098645D01*
X242575195Y-93215534D01*
X242453475Y-93033368D01*
X242246632Y-92826525D01*
X242003411Y-92664010D01*
X241733158Y-92552068D01*
X241446260Y-92495000D01*
X241319802Y-92495000D01*
X241899880Y-91914922D01*
X242395019Y-91914922D01*
X242438956Y-91958859D01*
X242608474Y-92072127D01*
X242796832Y-92150148D01*
X242996791Y-92189922D01*
X243200669Y-92189922D01*
X243400628Y-92150148D01*
X243588986Y-92072127D01*
X243758504Y-91958859D01*
X243902667Y-91814696D01*
X244015935Y-91645178D01*
X244093956Y-91456820D01*
X244133730Y-91256861D01*
X244133730Y-91052983D01*
X244093956Y-90853024D01*
X244015935Y-90664666D01*
X243902667Y-90495148D01*
X243858730Y-90451211D01*
X243858730Y-89565285D01*
X243862407Y-89527952D01*
X243847733Y-89378966D01*
X243804276Y-89235705D01*
X243733704Y-89103676D01*
X243662529Y-89016949D01*
X243638731Y-88987951D01*
X243609733Y-88964153D01*
X240974001Y-86328422D01*
X240974001Y-86266284D01*
X240934227Y-86066325D01*
X240856206Y-85877967D01*
X240742938Y-85708449D01*
X240699001Y-85664512D01*
X240699001Y-81940061D01*
X243567000Y-81940061D01*
X243567000Y-82143939D01*
X243606774Y-82343898D01*
X243684795Y-82532256D01*
X243798063Y-82701774D01*
X243942226Y-82845937D01*
X244111744Y-82959205D01*
X244300102Y-83037226D01*
X244500061Y-83077000D01*
X244703939Y-83077000D01*
X244903898Y-83037226D01*
X245092256Y-82959205D01*
X245261774Y-82845937D01*
X245405937Y-82701774D01*
X245519205Y-82532256D01*
X245597226Y-82343898D01*
X245637000Y-82143939D01*
X245637000Y-81940061D01*
X245597226Y-81740102D01*
X245519205Y-81551744D01*
X245405937Y-81382226D01*
X245261774Y-81238063D01*
X245092256Y-81124795D01*
X244903898Y-81046774D01*
X244703939Y-81007000D01*
X244500061Y-81007000D01*
X244300102Y-81046774D01*
X244111744Y-81124795D01*
X243942226Y-81238063D01*
X243798063Y-81382226D01*
X243684795Y-81551744D01*
X243606774Y-81740102D01*
X243567000Y-81940061D01*
X240699001Y-81940061D01*
X240699001Y-76860061D01*
X243567000Y-76860061D01*
X243567000Y-77063939D01*
X243606774Y-77263898D01*
X243684795Y-77452256D01*
X243798063Y-77621774D01*
X243942226Y-77765937D01*
X244111744Y-77879205D01*
X244300102Y-77957226D01*
X244500061Y-77997000D01*
X244703939Y-77997000D01*
X244903898Y-77957226D01*
X245092256Y-77879205D01*
X245261774Y-77765937D01*
X245405937Y-77621774D01*
X245519205Y-77452256D01*
X245597226Y-77263898D01*
X245637000Y-77063939D01*
X245637000Y-76860061D01*
X245597226Y-76660102D01*
X245519205Y-76471744D01*
X245405937Y-76302226D01*
X245261774Y-76158063D01*
X245092256Y-76044795D01*
X244903898Y-75966774D01*
X244703939Y-75927000D01*
X244500061Y-75927000D01*
X244300102Y-75966774D01*
X244111744Y-76044795D01*
X243942226Y-76158063D01*
X243798063Y-76302226D01*
X243684795Y-76471744D01*
X243606774Y-76660102D01*
X243567000Y-76860061D01*
X240699001Y-76860061D01*
X240699001Y-75786798D01*
X243871044Y-72614755D01*
X243942226Y-72685937D01*
X244111744Y-72799205D01*
X244300102Y-72877226D01*
X244500061Y-72917000D01*
X244703939Y-72917000D01*
X244903898Y-72877226D01*
X245092256Y-72799205D01*
X245261774Y-72685937D01*
X245405937Y-72541774D01*
X245519205Y-72372256D01*
X245597226Y-72183898D01*
X245637000Y-71983939D01*
X245637000Y-71780061D01*
X245597226Y-71580102D01*
X245519205Y-71391744D01*
X245405937Y-71222226D01*
X245334755Y-71151044D01*
X245483627Y-71002173D01*
X245512625Y-70978375D01*
X245565540Y-70913898D01*
X245607598Y-70862651D01*
X245678170Y-70730621D01*
X245683230Y-70713939D01*
X245720001Y-70592721D01*
X245720000Y-94844000D01*
G04 #@! TA.AperFunction,Conductor*
D25*
G36*
X245720000Y-94844000D02*
G01*
X245045516Y-94844000D01*
X245184157Y-94611252D01*
X245281481Y-94336891D01*
X245160814Y-94107000D01*
X243967000Y-94107000D01*
X243967000Y-94127000D01*
X243713000Y-94127000D01*
X243713000Y-94107000D01*
X243693000Y-94107000D01*
X243693000Y-93853000D01*
X243713000Y-93853000D01*
X243713000Y-92659845D01*
X243967000Y-92659845D01*
X243967000Y-93853000D01*
X245160814Y-93853000D01*
X245281481Y-93623109D01*
X245184157Y-93348748D01*
X245035178Y-93098645D01*
X244840269Y-92882412D01*
X244606920Y-92708359D01*
X244344099Y-92583175D01*
X244196890Y-92538524D01*
X243967000Y-92659845D01*
X243713000Y-92659845D01*
X243483110Y-92538524D01*
X243335901Y-92583175D01*
X243073080Y-92708359D01*
X242839731Y-92882412D01*
X242644822Y-93098645D01*
X242575195Y-93215534D01*
X242453475Y-93033368D01*
X242246632Y-92826525D01*
X242003411Y-92664010D01*
X241733158Y-92552068D01*
X241446260Y-92495000D01*
X241319802Y-92495000D01*
X241899880Y-91914922D01*
X242395019Y-91914922D01*
X242438956Y-91958859D01*
X242608474Y-92072127D01*
X242796832Y-92150148D01*
X242996791Y-92189922D01*
X243200669Y-92189922D01*
X243400628Y-92150148D01*
X243588986Y-92072127D01*
X243758504Y-91958859D01*
X243902667Y-91814696D01*
X244015935Y-91645178D01*
X244093956Y-91456820D01*
X244133730Y-91256861D01*
X244133730Y-91052983D01*
X244093956Y-90853024D01*
X244015935Y-90664666D01*
X243902667Y-90495148D01*
X243858730Y-90451211D01*
X243858730Y-89565285D01*
X243862407Y-89527952D01*
X243847733Y-89378966D01*
X243804276Y-89235705D01*
X243733704Y-89103676D01*
X243662529Y-89016949D01*
X243638731Y-88987951D01*
X243609733Y-88964153D01*
X240974001Y-86328422D01*
X240974001Y-86266284D01*
X240934227Y-86066325D01*
X240856206Y-85877967D01*
X240742938Y-85708449D01*
X240699001Y-85664512D01*
X240699001Y-81940061D01*
X243567000Y-81940061D01*
X243567000Y-82143939D01*
X243606774Y-82343898D01*
X243684795Y-82532256D01*
X243798063Y-82701774D01*
X243942226Y-82845937D01*
X244111744Y-82959205D01*
X244300102Y-83037226D01*
X244500061Y-83077000D01*
X244703939Y-83077000D01*
X244903898Y-83037226D01*
X245092256Y-82959205D01*
X245261774Y-82845937D01*
X245405937Y-82701774D01*
X245519205Y-82532256D01*
X245597226Y-82343898D01*
X245637000Y-82143939D01*
X245637000Y-81940061D01*
X245597226Y-81740102D01*
X245519205Y-81551744D01*
X245405937Y-81382226D01*
X245261774Y-81238063D01*
X245092256Y-81124795D01*
X244903898Y-81046774D01*
X244703939Y-81007000D01*
X244500061Y-81007000D01*
X244300102Y-81046774D01*
X244111744Y-81124795D01*
X243942226Y-81238063D01*
X243798063Y-81382226D01*
X243684795Y-81551744D01*
X243606774Y-81740102D01*
X243567000Y-81940061D01*
X240699001Y-81940061D01*
X240699001Y-76860061D01*
X243567000Y-76860061D01*
X243567000Y-77063939D01*
X243606774Y-77263898D01*
X243684795Y-77452256D01*
X243798063Y-77621774D01*
X243942226Y-77765937D01*
X244111744Y-77879205D01*
X244300102Y-77957226D01*
X244500061Y-77997000D01*
X244703939Y-77997000D01*
X244903898Y-77957226D01*
X245092256Y-77879205D01*
X245261774Y-77765937D01*
X245405937Y-77621774D01*
X245519205Y-77452256D01*
X245597226Y-77263898D01*
X245637000Y-77063939D01*
X245637000Y-76860061D01*
X245597226Y-76660102D01*
X245519205Y-76471744D01*
X245405937Y-76302226D01*
X245261774Y-76158063D01*
X245092256Y-76044795D01*
X244903898Y-75966774D01*
X244703939Y-75927000D01*
X244500061Y-75927000D01*
X244300102Y-75966774D01*
X244111744Y-76044795D01*
X243942226Y-76158063D01*
X243798063Y-76302226D01*
X243684795Y-76471744D01*
X243606774Y-76660102D01*
X243567000Y-76860061D01*
X240699001Y-76860061D01*
X240699001Y-75786798D01*
X243871044Y-72614755D01*
X243942226Y-72685937D01*
X244111744Y-72799205D01*
X244300102Y-72877226D01*
X244500061Y-72917000D01*
X244703939Y-72917000D01*
X244903898Y-72877226D01*
X245092256Y-72799205D01*
X245261774Y-72685937D01*
X245405937Y-72541774D01*
X245519205Y-72372256D01*
X245597226Y-72183898D01*
X245637000Y-71983939D01*
X245637000Y-71780061D01*
X245597226Y-71580102D01*
X245519205Y-71391744D01*
X245405937Y-71222226D01*
X245334755Y-71151044D01*
X245483627Y-71002173D01*
X245512625Y-70978375D01*
X245565540Y-70913898D01*
X245607598Y-70862651D01*
X245678170Y-70730621D01*
X245683230Y-70713939D01*
X245720001Y-70592721D01*
X245720000Y-94844000D01*
G37*
G04 #@! TD.AperFunction*
D24*
X234071366Y-71685833D02*
X233981898Y-71648774D01*
X233781939Y-71609000D01*
X233578061Y-71609000D01*
X233378102Y-71648774D01*
X233189744Y-71726795D01*
X233020226Y-71840063D01*
X232876063Y-71984226D01*
X232762795Y-72153744D01*
X232756282Y-72169469D01*
X232719816Y-72133003D01*
X232696013Y-72103999D01*
X232580288Y-72009026D01*
X232448259Y-71938454D01*
X232304998Y-71894997D01*
X232193345Y-71884000D01*
X232193334Y-71884000D01*
X232156012Y-71880324D01*
X232118690Y-71884000D01*
X229303709Y-71884000D01*
X229259772Y-71840063D01*
X229090254Y-71726795D01*
X228901896Y-71648774D01*
X228701937Y-71609000D01*
X228498059Y-71609000D01*
X228298100Y-71648774D01*
X228109742Y-71726795D01*
X227940224Y-71840063D01*
X227796061Y-71984226D01*
X227682793Y-72153744D01*
X227604772Y-72342102D01*
X227564998Y-72542061D01*
X227564998Y-72745939D01*
X227604772Y-72945898D01*
X227682793Y-73134256D01*
X227796061Y-73303774D01*
X227940224Y-73447937D01*
X228109742Y-73561205D01*
X228298100Y-73639226D01*
X228498059Y-73679000D01*
X228701937Y-73679000D01*
X228901896Y-73639226D01*
X229090254Y-73561205D01*
X229259772Y-73447937D01*
X229303709Y-73404000D01*
X231841211Y-73404000D01*
X236963000Y-78525790D01*
X236963000Y-78587927D01*
X237002774Y-78787886D01*
X237080795Y-78976244D01*
X237194063Y-79145762D01*
X237338226Y-79289925D01*
X237507744Y-79403193D01*
X237696102Y-79481214D01*
X237896061Y-79520988D01*
X238099939Y-79520988D01*
X238299898Y-79481214D01*
X238488256Y-79403193D01*
X238580011Y-79341884D01*
X238580012Y-85351851D01*
X238449756Y-85405805D01*
X238280238Y-85519073D01*
X238136075Y-85663236D01*
X238075652Y-85753665D01*
X238039942Y-85700221D01*
X237895779Y-85556058D01*
X237726261Y-85442790D01*
X237537903Y-85364769D01*
X237337944Y-85324995D01*
X237134066Y-85324995D01*
X236934107Y-85364769D01*
X236745749Y-85442790D01*
X236576231Y-85556058D01*
X236532294Y-85599995D01*
X221868105Y-85599995D01*
X221899932Y-85523158D01*
X221957000Y-85236260D01*
X221957000Y-84943740D01*
X221899932Y-84656842D01*
X221787990Y-84386589D01*
X221625475Y-84143368D01*
X221418632Y-83936525D01*
X221244240Y-83820000D01*
X221418632Y-83703475D01*
X221625475Y-83496632D01*
X221787990Y-83253411D01*
X221899932Y-82983158D01*
X221935568Y-82804002D01*
X232852824Y-82804002D01*
X232867498Y-82952987D01*
X232910954Y-83096248D01*
X232981526Y-83228278D01*
X233076499Y-83344003D01*
X233192224Y-83438976D01*
X233324254Y-83509548D01*
X233467515Y-83553004D01*
X233616500Y-83567678D01*
X233765485Y-83553004D01*
X233908746Y-83509548D01*
X234040776Y-83438976D01*
X234127502Y-83367801D01*
X234180301Y-83315002D01*
X234251476Y-83228275D01*
X234322048Y-83096246D01*
X234365504Y-82952985D01*
X234380178Y-82804000D01*
X234365504Y-82655014D01*
X234322048Y-82511754D01*
X234251476Y-82379724D01*
X234156503Y-82263999D01*
X234040778Y-82169026D01*
X233908748Y-82098454D01*
X233765488Y-82054998D01*
X233616502Y-82040324D01*
X233467517Y-82054998D01*
X233324256Y-82098454D01*
X233192227Y-82169026D01*
X233105500Y-82240201D01*
X233052701Y-82293000D01*
X232981526Y-82379726D01*
X232910954Y-82511756D01*
X232867498Y-82655017D01*
X232852824Y-82804002D01*
X221935568Y-82804002D01*
X221957000Y-82696260D01*
X221957000Y-82403740D01*
X221899932Y-82116842D01*
X221787990Y-81846589D01*
X221625475Y-81603368D01*
X221418632Y-81396525D01*
X221244240Y-81280000D01*
X221418632Y-81163475D01*
X221625475Y-80956632D01*
X221787990Y-80713411D01*
X221899932Y-80443158D01*
X221957000Y-80156260D01*
X221957000Y-79863740D01*
X221899932Y-79576842D01*
X221787990Y-79306589D01*
X221625475Y-79063368D01*
X221418632Y-78856525D01*
X221244240Y-78740000D01*
X221418632Y-78623475D01*
X221625475Y-78416632D01*
X221787990Y-78173411D01*
X221899932Y-77903158D01*
X221957000Y-77616260D01*
X221957000Y-77323740D01*
X221899932Y-77036842D01*
X221787990Y-76766589D01*
X221625475Y-76523368D01*
X221493620Y-76391513D01*
X221566180Y-76369502D01*
X221676494Y-76310537D01*
X221773185Y-76231185D01*
X221852537Y-76134494D01*
X221911502Y-76024180D01*
X221947812Y-75904482D01*
X221960072Y-75780000D01*
X221960072Y-74080000D01*
X221947812Y-73955518D01*
X221911502Y-73835820D01*
X221852537Y-73725506D01*
X221773185Y-73628815D01*
X221676494Y-73549463D01*
X221566180Y-73490498D01*
X221446482Y-73454188D01*
X221322000Y-73441928D01*
X220240873Y-73441928D01*
X222035802Y-71647000D01*
X222097939Y-71647000D01*
X222297898Y-71607226D01*
X222486256Y-71529205D01*
X222655774Y-71415937D01*
X222799937Y-71271774D01*
X222913205Y-71102256D01*
X222991226Y-70913898D01*
X223031000Y-70713939D01*
X223031000Y-70510061D01*
X222991226Y-70310102D01*
X222913205Y-70121744D01*
X222813818Y-69973000D01*
X235784198Y-69973000D01*
X234071366Y-71685833D01*
G04 #@! TA.AperFunction,Conductor*
D25*
G36*
X234071366Y-71685833D02*
G01*
X233981898Y-71648774D01*
X233781939Y-71609000D01*
X233578061Y-71609000D01*
X233378102Y-71648774D01*
X233189744Y-71726795D01*
X233020226Y-71840063D01*
X232876063Y-71984226D01*
X232762795Y-72153744D01*
X232756282Y-72169469D01*
X232719816Y-72133003D01*
X232696013Y-72103999D01*
X232580288Y-72009026D01*
X232448259Y-71938454D01*
X232304998Y-71894997D01*
X232193345Y-71884000D01*
X232193334Y-71884000D01*
X232156012Y-71880324D01*
X232118690Y-71884000D01*
X229303709Y-71884000D01*
X229259772Y-71840063D01*
X229090254Y-71726795D01*
X228901896Y-71648774D01*
X228701937Y-71609000D01*
X228498059Y-71609000D01*
X228298100Y-71648774D01*
X228109742Y-71726795D01*
X227940224Y-71840063D01*
X227796061Y-71984226D01*
X227682793Y-72153744D01*
X227604772Y-72342102D01*
X227564998Y-72542061D01*
X227564998Y-72745939D01*
X227604772Y-72945898D01*
X227682793Y-73134256D01*
X227796061Y-73303774D01*
X227940224Y-73447937D01*
X228109742Y-73561205D01*
X228298100Y-73639226D01*
X228498059Y-73679000D01*
X228701937Y-73679000D01*
X228901896Y-73639226D01*
X229090254Y-73561205D01*
X229259772Y-73447937D01*
X229303709Y-73404000D01*
X231841211Y-73404000D01*
X236963000Y-78525790D01*
X236963000Y-78587927D01*
X237002774Y-78787886D01*
X237080795Y-78976244D01*
X237194063Y-79145762D01*
X237338226Y-79289925D01*
X237507744Y-79403193D01*
X237696102Y-79481214D01*
X237896061Y-79520988D01*
X238099939Y-79520988D01*
X238299898Y-79481214D01*
X238488256Y-79403193D01*
X238580011Y-79341884D01*
X238580012Y-85351851D01*
X238449756Y-85405805D01*
X238280238Y-85519073D01*
X238136075Y-85663236D01*
X238075652Y-85753665D01*
X238039942Y-85700221D01*
X237895779Y-85556058D01*
X237726261Y-85442790D01*
X237537903Y-85364769D01*
X237337944Y-85324995D01*
X237134066Y-85324995D01*
X236934107Y-85364769D01*
X236745749Y-85442790D01*
X236576231Y-85556058D01*
X236532294Y-85599995D01*
X221868105Y-85599995D01*
X221899932Y-85523158D01*
X221957000Y-85236260D01*
X221957000Y-84943740D01*
X221899932Y-84656842D01*
X221787990Y-84386589D01*
X221625475Y-84143368D01*
X221418632Y-83936525D01*
X221244240Y-83820000D01*
X221418632Y-83703475D01*
X221625475Y-83496632D01*
X221787990Y-83253411D01*
X221899932Y-82983158D01*
X221935568Y-82804002D01*
X232852824Y-82804002D01*
X232867498Y-82952987D01*
X232910954Y-83096248D01*
X232981526Y-83228278D01*
X233076499Y-83344003D01*
X233192224Y-83438976D01*
X233324254Y-83509548D01*
X233467515Y-83553004D01*
X233616500Y-83567678D01*
X233765485Y-83553004D01*
X233908746Y-83509548D01*
X234040776Y-83438976D01*
X234127502Y-83367801D01*
X234180301Y-83315002D01*
X234251476Y-83228275D01*
X234322048Y-83096246D01*
X234365504Y-82952985D01*
X234380178Y-82804000D01*
X234365504Y-82655014D01*
X234322048Y-82511754D01*
X234251476Y-82379724D01*
X234156503Y-82263999D01*
X234040778Y-82169026D01*
X233908748Y-82098454D01*
X233765488Y-82054998D01*
X233616502Y-82040324D01*
X233467517Y-82054998D01*
X233324256Y-82098454D01*
X233192227Y-82169026D01*
X233105500Y-82240201D01*
X233052701Y-82293000D01*
X232981526Y-82379726D01*
X232910954Y-82511756D01*
X232867498Y-82655017D01*
X232852824Y-82804002D01*
X221935568Y-82804002D01*
X221957000Y-82696260D01*
X221957000Y-82403740D01*
X221899932Y-82116842D01*
X221787990Y-81846589D01*
X221625475Y-81603368D01*
X221418632Y-81396525D01*
X221244240Y-81280000D01*
X221418632Y-81163475D01*
X221625475Y-80956632D01*
X221787990Y-80713411D01*
X221899932Y-80443158D01*
X221957000Y-80156260D01*
X221957000Y-79863740D01*
X221899932Y-79576842D01*
X221787990Y-79306589D01*
X221625475Y-79063368D01*
X221418632Y-78856525D01*
X221244240Y-78740000D01*
X221418632Y-78623475D01*
X221625475Y-78416632D01*
X221787990Y-78173411D01*
X221899932Y-77903158D01*
X221957000Y-77616260D01*
X221957000Y-77323740D01*
X221899932Y-77036842D01*
X221787990Y-76766589D01*
X221625475Y-76523368D01*
X221493620Y-76391513D01*
X221566180Y-76369502D01*
X221676494Y-76310537D01*
X221773185Y-76231185D01*
X221852537Y-76134494D01*
X221911502Y-76024180D01*
X221947812Y-75904482D01*
X221960072Y-75780000D01*
X221960072Y-74080000D01*
X221947812Y-73955518D01*
X221911502Y-73835820D01*
X221852537Y-73725506D01*
X221773185Y-73628815D01*
X221676494Y-73549463D01*
X221566180Y-73490498D01*
X221446482Y-73454188D01*
X221322000Y-73441928D01*
X220240873Y-73441928D01*
X222035802Y-71647000D01*
X222097939Y-71647000D01*
X222297898Y-71607226D01*
X222486256Y-71529205D01*
X222655774Y-71415937D01*
X222799937Y-71271774D01*
X222913205Y-71102256D01*
X222991226Y-70913898D01*
X223031000Y-70713939D01*
X223031000Y-70510061D01*
X222991226Y-70310102D01*
X222913205Y-70121744D01*
X222813818Y-69973000D01*
X235784198Y-69973000D01*
X234071366Y-71685833D01*
G37*
G04 #@! TD.AperFunction*
D24*
X219318525Y-80956632D02*
X219525368Y-81163475D01*
X219699760Y-81280000D01*
X219525368Y-81396525D01*
X219318525Y-81603368D01*
X219200900Y-81779406D01*
X219029588Y-81549731D01*
X218813355Y-81354822D01*
X218696466Y-81285195D01*
X218878632Y-81163475D01*
X219085475Y-80956632D01*
X219202000Y-80782240D01*
X219318525Y-80956632D01*
G04 #@! TA.AperFunction,Conductor*
D25*
G36*
X219318525Y-80956632D02*
G01*
X219525368Y-81163475D01*
X219699760Y-81280000D01*
X219525368Y-81396525D01*
X219318525Y-81603368D01*
X219200900Y-81779406D01*
X219029588Y-81549731D01*
X218813355Y-81354822D01*
X218696466Y-81285195D01*
X218878632Y-81163475D01*
X219085475Y-80956632D01*
X219202000Y-80782240D01*
X219318525Y-80956632D01*
G37*
G04 #@! TD.AperFunction*
D24*
X245720001Y-62138666D02*
X245632398Y-62051063D01*
X245462880Y-61937795D01*
X245274522Y-61859774D01*
X245074563Y-61820000D01*
X244870685Y-61820000D01*
X244670726Y-61859774D01*
X244482368Y-61937795D01*
X244312850Y-62051063D01*
X244168687Y-62195226D01*
X244109030Y-62284509D01*
X244036985Y-62270178D01*
X243833107Y-62270178D01*
X243633148Y-62309952D01*
X243444790Y-62387973D01*
X243275272Y-62501241D01*
X243131109Y-62645404D01*
X243017841Y-62814922D01*
X242939820Y-63003280D01*
X242900046Y-63203239D01*
X242900046Y-63407117D01*
X242939820Y-63607076D01*
X243017841Y-63795434D01*
X243131109Y-63964952D01*
X243275272Y-64109115D01*
X243444790Y-64222383D01*
X243575045Y-64276337D01*
X243575046Y-68081065D01*
X243433953Y-68053000D01*
X243230075Y-68053000D01*
X243030116Y-68092774D01*
X242841758Y-68170795D01*
X242672240Y-68284063D01*
X242528077Y-68428226D01*
X242414809Y-68597744D01*
X242336788Y-68786102D01*
X242297014Y-68986061D01*
X242297014Y-69048183D01*
X239462455Y-71882744D01*
X239419774Y-71840063D01*
X239250256Y-71726795D01*
X239061898Y-71648774D01*
X238861939Y-71609000D01*
X238658061Y-71609000D01*
X238458102Y-71648774D01*
X238269744Y-71726795D01*
X238100226Y-71840063D01*
X237956063Y-71984226D01*
X237842795Y-72153744D01*
X237764774Y-72342102D01*
X237725000Y-72542061D01*
X237725000Y-72604198D01*
X236417859Y-73911340D01*
X236166371Y-73911340D01*
X236122434Y-73867403D01*
X235952916Y-73754135D01*
X235764558Y-73676114D01*
X235564599Y-73636340D01*
X235360721Y-73636340D01*
X235160762Y-73676114D01*
X234972404Y-73754135D01*
X234802886Y-73867403D01*
X234658723Y-74011566D01*
X234634553Y-74047739D01*
X234154532Y-73567718D01*
X234170256Y-73561205D01*
X234339774Y-73447937D01*
X234419842Y-73367869D01*
X234480247Y-73349546D01*
X234612276Y-73278974D01*
X234728001Y-73184001D01*
X234751804Y-73154997D01*
X239815803Y-68091000D01*
X239877939Y-68091000D01*
X240077898Y-68051226D01*
X240266256Y-67973205D01*
X240435774Y-67859937D01*
X240579937Y-67715774D01*
X240693205Y-67546256D01*
X240771226Y-67357898D01*
X240811000Y-67157939D01*
X240811000Y-66954061D01*
X240771226Y-66754102D01*
X240693205Y-66565744D01*
X240579937Y-66396226D01*
X240435774Y-66252063D01*
X240266256Y-66138795D01*
X240077898Y-66060774D01*
X239877939Y-66021000D01*
X239674061Y-66021000D01*
X239474102Y-66060774D01*
X239285744Y-66138795D01*
X239116226Y-66252063D01*
X238972063Y-66396226D01*
X238885014Y-66526504D01*
X238885014Y-64711711D01*
X238928951Y-64667774D01*
X239042219Y-64498256D01*
X239120240Y-64309898D01*
X239160014Y-64109939D01*
X239160014Y-63906061D01*
X239120240Y-63706102D01*
X239042219Y-63517744D01*
X238928951Y-63348226D01*
X238784788Y-63204063D01*
X238615270Y-63090795D01*
X238426912Y-63012774D01*
X238226953Y-62973000D01*
X238023075Y-62973000D01*
X237823116Y-63012774D01*
X237634758Y-63090795D01*
X237473072Y-63198830D01*
X237473072Y-61915000D01*
X237460812Y-61790518D01*
X237424502Y-61670820D01*
X237397338Y-61620000D01*
X245720001Y-61620000D01*
X245720001Y-62138666D01*
G04 #@! TA.AperFunction,Conductor*
D25*
G36*
X245720001Y-62138666D02*
G01*
X245632398Y-62051063D01*
X245462880Y-61937795D01*
X245274522Y-61859774D01*
X245074563Y-61820000D01*
X244870685Y-61820000D01*
X244670726Y-61859774D01*
X244482368Y-61937795D01*
X244312850Y-62051063D01*
X244168687Y-62195226D01*
X244109030Y-62284509D01*
X244036985Y-62270178D01*
X243833107Y-62270178D01*
X243633148Y-62309952D01*
X243444790Y-62387973D01*
X243275272Y-62501241D01*
X243131109Y-62645404D01*
X243017841Y-62814922D01*
X242939820Y-63003280D01*
X242900046Y-63203239D01*
X242900046Y-63407117D01*
X242939820Y-63607076D01*
X243017841Y-63795434D01*
X243131109Y-63964952D01*
X243275272Y-64109115D01*
X243444790Y-64222383D01*
X243575045Y-64276337D01*
X243575046Y-68081065D01*
X243433953Y-68053000D01*
X243230075Y-68053000D01*
X243030116Y-68092774D01*
X242841758Y-68170795D01*
X242672240Y-68284063D01*
X242528077Y-68428226D01*
X242414809Y-68597744D01*
X242336788Y-68786102D01*
X242297014Y-68986061D01*
X242297014Y-69048183D01*
X239462455Y-71882744D01*
X239419774Y-71840063D01*
X239250256Y-71726795D01*
X239061898Y-71648774D01*
X238861939Y-71609000D01*
X238658061Y-71609000D01*
X238458102Y-71648774D01*
X238269744Y-71726795D01*
X238100226Y-71840063D01*
X237956063Y-71984226D01*
X237842795Y-72153744D01*
X237764774Y-72342102D01*
X237725000Y-72542061D01*
X237725000Y-72604198D01*
X236417859Y-73911340D01*
X236166371Y-73911340D01*
X236122434Y-73867403D01*
X235952916Y-73754135D01*
X235764558Y-73676114D01*
X235564599Y-73636340D01*
X235360721Y-73636340D01*
X235160762Y-73676114D01*
X234972404Y-73754135D01*
X234802886Y-73867403D01*
X234658723Y-74011566D01*
X234634553Y-74047739D01*
X234154532Y-73567718D01*
X234170256Y-73561205D01*
X234339774Y-73447937D01*
X234419842Y-73367869D01*
X234480247Y-73349546D01*
X234612276Y-73278974D01*
X234728001Y-73184001D01*
X234751804Y-73154997D01*
X239815803Y-68091000D01*
X239877939Y-68091000D01*
X240077898Y-68051226D01*
X240266256Y-67973205D01*
X240435774Y-67859937D01*
X240579937Y-67715774D01*
X240693205Y-67546256D01*
X240771226Y-67357898D01*
X240811000Y-67157939D01*
X240811000Y-66954061D01*
X240771226Y-66754102D01*
X240693205Y-66565744D01*
X240579937Y-66396226D01*
X240435774Y-66252063D01*
X240266256Y-66138795D01*
X240077898Y-66060774D01*
X239877939Y-66021000D01*
X239674061Y-66021000D01*
X239474102Y-66060774D01*
X239285744Y-66138795D01*
X239116226Y-66252063D01*
X238972063Y-66396226D01*
X238885014Y-66526504D01*
X238885014Y-64711711D01*
X238928951Y-64667774D01*
X239042219Y-64498256D01*
X239120240Y-64309898D01*
X239160014Y-64109939D01*
X239160014Y-63906061D01*
X239120240Y-63706102D01*
X239042219Y-63517744D01*
X238928951Y-63348226D01*
X238784788Y-63204063D01*
X238615270Y-63090795D01*
X238426912Y-63012774D01*
X238226953Y-62973000D01*
X238023075Y-62973000D01*
X237823116Y-63012774D01*
X237634758Y-63090795D01*
X237473072Y-63198830D01*
X237473072Y-61915000D01*
X237460812Y-61790518D01*
X237424502Y-61670820D01*
X237397338Y-61620000D01*
X245720001Y-61620000D01*
X245720001Y-62138666D01*
G37*
G04 #@! TD.AperFunction*
D24*
X218665074Y-61815469D02*
X219710000Y-62860395D01*
X220754926Y-61815469D01*
X220676757Y-61620000D01*
X222743243Y-61620000D01*
X222665074Y-61815469D01*
X223710000Y-62860395D01*
X224754926Y-61815469D01*
X224676757Y-61620000D01*
X226667264Y-61620000D01*
X226588065Y-61672919D01*
X226342919Y-61918065D01*
X226150308Y-62206327D01*
X226017636Y-62526627D01*
X225950000Y-62866655D01*
X225950000Y-63213345D01*
X226017636Y-63553373D01*
X226090797Y-63730001D01*
X225332117Y-63730001D01*
X225365089Y-63663160D01*
X225454860Y-63328295D01*
X225477576Y-62982350D01*
X225432366Y-62638620D01*
X225320966Y-62310315D01*
X225211714Y-62105921D01*
X224934531Y-61995074D01*
X223889605Y-63040000D01*
X223903748Y-63054143D01*
X223724143Y-63233748D01*
X223710000Y-63219605D01*
X223695858Y-63233748D01*
X223516253Y-63054143D01*
X223530395Y-63040000D01*
X222485469Y-61995074D01*
X222208286Y-62105921D01*
X222054911Y-62416840D01*
X221965140Y-62751705D01*
X221942424Y-63097650D01*
X221987634Y-63441380D01*
X222085568Y-63730001D01*
X221332117Y-63730001D01*
X221365089Y-63663160D01*
X221454860Y-63328295D01*
X221477576Y-62982350D01*
X221432366Y-62638620D01*
X221320966Y-62310315D01*
X221211714Y-62105921D01*
X220934531Y-61995074D01*
X219889605Y-63040000D01*
X219903748Y-63054143D01*
X219724143Y-63233748D01*
X219710000Y-63219605D01*
X219695858Y-63233748D01*
X219516253Y-63054143D01*
X219530395Y-63040000D01*
X218485469Y-61995074D01*
X218208286Y-62105921D01*
X218054911Y-62416840D01*
X217965140Y-62751705D01*
X217942424Y-63097650D01*
X217987634Y-63441380D01*
X218085568Y-63730001D01*
X217329203Y-63730001D01*
X217402364Y-63553373D01*
X217470000Y-63213345D01*
X217470000Y-62866655D01*
X217402364Y-62526627D01*
X217269692Y-62206327D01*
X217077081Y-61918065D01*
X216831935Y-61672919D01*
X216752736Y-61620000D01*
X218743243Y-61620000D01*
X218665074Y-61815469D01*
G04 #@! TA.AperFunction,Conductor*
D25*
G36*
X218665074Y-61815469D02*
G01*
X219710000Y-62860395D01*
X220754926Y-61815469D01*
X220676757Y-61620000D01*
X222743243Y-61620000D01*
X222665074Y-61815469D01*
X223710000Y-62860395D01*
X224754926Y-61815469D01*
X224676757Y-61620000D01*
X226667264Y-61620000D01*
X226588065Y-61672919D01*
X226342919Y-61918065D01*
X226150308Y-62206327D01*
X226017636Y-62526627D01*
X225950000Y-62866655D01*
X225950000Y-63213345D01*
X226017636Y-63553373D01*
X226090797Y-63730001D01*
X225332117Y-63730001D01*
X225365089Y-63663160D01*
X225454860Y-63328295D01*
X225477576Y-62982350D01*
X225432366Y-62638620D01*
X225320966Y-62310315D01*
X225211714Y-62105921D01*
X224934531Y-61995074D01*
X223889605Y-63040000D01*
X223903748Y-63054143D01*
X223724143Y-63233748D01*
X223710000Y-63219605D01*
X223695858Y-63233748D01*
X223516253Y-63054143D01*
X223530395Y-63040000D01*
X222485469Y-61995074D01*
X222208286Y-62105921D01*
X222054911Y-62416840D01*
X221965140Y-62751705D01*
X221942424Y-63097650D01*
X221987634Y-63441380D01*
X222085568Y-63730001D01*
X221332117Y-63730001D01*
X221365089Y-63663160D01*
X221454860Y-63328295D01*
X221477576Y-62982350D01*
X221432366Y-62638620D01*
X221320966Y-62310315D01*
X221211714Y-62105921D01*
X220934531Y-61995074D01*
X219889605Y-63040000D01*
X219903748Y-63054143D01*
X219724143Y-63233748D01*
X219710000Y-63219605D01*
X219695858Y-63233748D01*
X219516253Y-63054143D01*
X219530395Y-63040000D01*
X218485469Y-61995074D01*
X218208286Y-62105921D01*
X218054911Y-62416840D01*
X217965140Y-62751705D01*
X217942424Y-63097650D01*
X217987634Y-63441380D01*
X218085568Y-63730001D01*
X217329203Y-63730001D01*
X217402364Y-63553373D01*
X217470000Y-63213345D01*
X217470000Y-62866655D01*
X217402364Y-62526627D01*
X217269692Y-62206327D01*
X217077081Y-61918065D01*
X216831935Y-61672919D01*
X216752736Y-61620000D01*
X218743243Y-61620000D01*
X218665074Y-61815469D01*
G37*
G04 #@! TD.AperFunction*
D24*
X237981087Y-98172537D02*
X237990252Y-98173500D01*
X238187593Y-98192850D01*
X238187598Y-98192850D01*
X238219581Y-98196000D01*
X250038001Y-98196000D01*
X250038000Y-113386000D01*
X214274000Y-113386000D01*
X214274000Y-111473581D01*
X214270751Y-111440593D01*
X214270751Y-111427409D01*
X214269788Y-111418244D01*
X214247685Y-111221192D01*
X214238856Y-111179659D01*
X214335992Y-111082523D01*
X214437714Y-110930285D01*
X214507782Y-110761126D01*
X214543503Y-110581548D01*
X214543503Y-110398452D01*
X214507782Y-110218874D01*
X214462271Y-110109000D01*
X214507782Y-109999126D01*
X214543503Y-109819548D01*
X214543503Y-109636452D01*
X214507782Y-109456874D01*
X214462271Y-109347000D01*
X214507782Y-109237126D01*
X214543503Y-109057548D01*
X214543503Y-108874452D01*
X214507782Y-108694874D01*
X214462271Y-108585000D01*
X214507782Y-108475126D01*
X214543503Y-108295548D01*
X214543503Y-108112452D01*
X214507782Y-107932874D01*
X214437714Y-107763715D01*
X214335992Y-107611477D01*
X214238773Y-107514258D01*
X214250537Y-107458913D01*
X214251500Y-107449748D01*
X214270850Y-107252407D01*
X214270850Y-107252402D01*
X214274000Y-107220419D01*
X214274000Y-105199486D01*
X226352948Y-105199486D01*
X226352948Y-105403364D01*
X226392722Y-105603323D01*
X226470743Y-105791681D01*
X226584011Y-105961199D01*
X226627949Y-106005137D01*
X226627948Y-106700625D01*
X226624272Y-106737948D01*
X226627948Y-106775270D01*
X226627948Y-106775280D01*
X226638945Y-106886933D01*
X226669735Y-106988435D01*
X226682402Y-107030194D01*
X226752974Y-107162224D01*
X226792819Y-107210774D01*
X226847947Y-107277949D01*
X226876951Y-107301752D01*
X227274196Y-107698997D01*
X227297999Y-107728001D01*
X227413724Y-107822974D01*
X227545753Y-107893546D01*
X227689014Y-107937003D01*
X227800667Y-107948000D01*
X227800675Y-107948000D01*
X227838000Y-107951676D01*
X227875325Y-107948000D01*
X233301986Y-107948000D01*
X233299175Y-107953901D01*
X233254524Y-108101110D01*
X233375845Y-108331000D01*
X234569000Y-108331000D01*
X234569000Y-108311000D01*
X234823000Y-108311000D01*
X234823000Y-108331000D01*
X234843000Y-108331000D01*
X234843000Y-108585000D01*
X234823000Y-108585000D01*
X234823000Y-108605000D01*
X234569000Y-108605000D01*
X234569000Y-108585000D01*
X233375845Y-108585000D01*
X233254524Y-108814890D01*
X233299175Y-108962099D01*
X233424359Y-109224920D01*
X233598412Y-109458269D01*
X233814645Y-109653178D01*
X233931534Y-109722805D01*
X233749368Y-109844525D01*
X233542525Y-110051368D01*
X233380010Y-110294589D01*
X233268068Y-110564842D01*
X233211000Y-110851740D01*
X233211000Y-111144260D01*
X233268068Y-111431158D01*
X233380010Y-111701411D01*
X233542525Y-111944632D01*
X233749368Y-112151475D01*
X233992589Y-112313990D01*
X234262842Y-112425932D01*
X234549740Y-112483000D01*
X234842260Y-112483000D01*
X235129158Y-112425932D01*
X235399411Y-112313990D01*
X235642632Y-112151475D01*
X235849475Y-111944632D01*
X235966000Y-111770240D01*
X236082525Y-111944632D01*
X236289368Y-112151475D01*
X236532589Y-112313990D01*
X236802842Y-112425932D01*
X237089740Y-112483000D01*
X237382260Y-112483000D01*
X237669158Y-112425932D01*
X237939411Y-112313990D01*
X238182632Y-112151475D01*
X238389475Y-111944632D01*
X238551990Y-111701411D01*
X238663932Y-111431158D01*
X238721000Y-111144260D01*
X238721000Y-110851740D01*
X238663932Y-110564842D01*
X238551990Y-110294589D01*
X238389475Y-110051368D01*
X238182632Y-109844525D01*
X238008240Y-109728000D01*
X238182632Y-109611475D01*
X238389475Y-109404632D01*
X238551990Y-109161411D01*
X238663932Y-108891158D01*
X238721000Y-108604260D01*
X238721000Y-108311740D01*
X238663932Y-108024842D01*
X238551990Y-107754589D01*
X238389475Y-107511368D01*
X238182632Y-107304525D01*
X238008240Y-107188000D01*
X238182632Y-107071475D01*
X238389475Y-106864632D01*
X238551990Y-106621411D01*
X238663932Y-106351158D01*
X238721000Y-106064260D01*
X238721000Y-105771740D01*
X238663932Y-105484842D01*
X238551990Y-105214589D01*
X238389475Y-104971368D01*
X238182632Y-104764525D01*
X238008240Y-104648000D01*
X238182632Y-104531475D01*
X238389475Y-104324632D01*
X238551990Y-104081411D01*
X238663932Y-103811158D01*
X238721000Y-103524260D01*
X238721000Y-103231740D01*
X238663932Y-102944842D01*
X238551990Y-102674589D01*
X238389475Y-102431368D01*
X238257620Y-102299513D01*
X238330180Y-102277502D01*
X238440494Y-102218537D01*
X238537185Y-102139185D01*
X238616537Y-102042494D01*
X238675502Y-101932180D01*
X238711812Y-101812482D01*
X238724072Y-101688000D01*
X238724072Y-99988000D01*
X238711812Y-99863518D01*
X238675502Y-99743820D01*
X238616537Y-99633506D01*
X238537185Y-99536815D01*
X238440494Y-99457463D01*
X238330180Y-99398498D01*
X238210482Y-99362188D01*
X238086000Y-99349928D01*
X236386000Y-99349928D01*
X236261518Y-99362188D01*
X236141820Y-99398498D01*
X236031506Y-99457463D01*
X235934815Y-99536815D01*
X235855463Y-99633506D01*
X235796498Y-99743820D01*
X235774487Y-99816380D01*
X235642632Y-99684525D01*
X235399411Y-99522010D01*
X235129158Y-99410068D01*
X234842260Y-99353000D01*
X234549740Y-99353000D01*
X234262842Y-99410068D01*
X233992589Y-99522010D01*
X233749368Y-99684525D01*
X233542525Y-99891368D01*
X233417822Y-100078000D01*
X231753910Y-100078000D01*
X231716587Y-100074324D01*
X231679264Y-100078000D01*
X231679254Y-100078000D01*
X231567601Y-100088997D01*
X231424340Y-100132454D01*
X231292311Y-100203026D01*
X231176586Y-100297999D01*
X231152788Y-100326997D01*
X227755684Y-103724102D01*
X227726680Y-103747905D01*
X227697141Y-103783899D01*
X227631707Y-103863630D01*
X227567659Y-103983454D01*
X227561135Y-103995660D01*
X227517678Y-104138921D01*
X227506681Y-104250574D01*
X227506681Y-104250584D01*
X227504828Y-104269397D01*
X227489887Y-104266425D01*
X227286009Y-104266425D01*
X227086050Y-104306199D01*
X226897692Y-104384220D01*
X226728174Y-104497488D01*
X226584011Y-104641651D01*
X226470743Y-104811169D01*
X226392722Y-104999527D01*
X226352948Y-105199486D01*
X214274000Y-105199486D01*
X214274000Y-98196000D01*
X233966419Y-98196000D01*
X233999407Y-98192751D01*
X234012591Y-98192751D01*
X234021756Y-98191788D01*
X234218808Y-98169685D01*
X234260341Y-98160856D01*
X234357477Y-98257992D01*
X234509715Y-98359714D01*
X234678874Y-98429782D01*
X234858452Y-98465503D01*
X235041548Y-98465503D01*
X235221126Y-98429782D01*
X235331000Y-98384271D01*
X235440874Y-98429782D01*
X235620452Y-98465503D01*
X235803548Y-98465503D01*
X235983126Y-98429782D01*
X236093000Y-98384271D01*
X236202874Y-98429782D01*
X236382452Y-98465503D01*
X236565548Y-98465503D01*
X236745126Y-98429782D01*
X236855000Y-98384271D01*
X236964874Y-98429782D01*
X237144452Y-98465503D01*
X237327548Y-98465503D01*
X237507126Y-98429782D01*
X237676285Y-98359714D01*
X237828523Y-98257992D01*
X237925742Y-98160773D01*
X237981087Y-98172537D01*
G04 #@! TA.AperFunction,Conductor*
D25*
G36*
X237981087Y-98172537D02*
G01*
X237990252Y-98173500D01*
X238187593Y-98192850D01*
X238187598Y-98192850D01*
X238219581Y-98196000D01*
X250038001Y-98196000D01*
X250038000Y-113386000D01*
X214274000Y-113386000D01*
X214274000Y-111473581D01*
X214270751Y-111440593D01*
X214270751Y-111427409D01*
X214269788Y-111418244D01*
X214247685Y-111221192D01*
X214238856Y-111179659D01*
X214335992Y-111082523D01*
X214437714Y-110930285D01*
X214507782Y-110761126D01*
X214543503Y-110581548D01*
X214543503Y-110398452D01*
X214507782Y-110218874D01*
X214462271Y-110109000D01*
X214507782Y-109999126D01*
X214543503Y-109819548D01*
X214543503Y-109636452D01*
X214507782Y-109456874D01*
X214462271Y-109347000D01*
X214507782Y-109237126D01*
X214543503Y-109057548D01*
X214543503Y-108874452D01*
X214507782Y-108694874D01*
X214462271Y-108585000D01*
X214507782Y-108475126D01*
X214543503Y-108295548D01*
X214543503Y-108112452D01*
X214507782Y-107932874D01*
X214437714Y-107763715D01*
X214335992Y-107611477D01*
X214238773Y-107514258D01*
X214250537Y-107458913D01*
X214251500Y-107449748D01*
X214270850Y-107252407D01*
X214270850Y-107252402D01*
X214274000Y-107220419D01*
X214274000Y-105199486D01*
X226352948Y-105199486D01*
X226352948Y-105403364D01*
X226392722Y-105603323D01*
X226470743Y-105791681D01*
X226584011Y-105961199D01*
X226627949Y-106005137D01*
X226627948Y-106700625D01*
X226624272Y-106737948D01*
X226627948Y-106775270D01*
X226627948Y-106775280D01*
X226638945Y-106886933D01*
X226669735Y-106988435D01*
X226682402Y-107030194D01*
X226752974Y-107162224D01*
X226792819Y-107210774D01*
X226847947Y-107277949D01*
X226876951Y-107301752D01*
X227274196Y-107698997D01*
X227297999Y-107728001D01*
X227413724Y-107822974D01*
X227545753Y-107893546D01*
X227689014Y-107937003D01*
X227800667Y-107948000D01*
X227800675Y-107948000D01*
X227838000Y-107951676D01*
X227875325Y-107948000D01*
X233301986Y-107948000D01*
X233299175Y-107953901D01*
X233254524Y-108101110D01*
X233375845Y-108331000D01*
X234569000Y-108331000D01*
X234569000Y-108311000D01*
X234823000Y-108311000D01*
X234823000Y-108331000D01*
X234843000Y-108331000D01*
X234843000Y-108585000D01*
X234823000Y-108585000D01*
X234823000Y-108605000D01*
X234569000Y-108605000D01*
X234569000Y-108585000D01*
X233375845Y-108585000D01*
X233254524Y-108814890D01*
X233299175Y-108962099D01*
X233424359Y-109224920D01*
X233598412Y-109458269D01*
X233814645Y-109653178D01*
X233931534Y-109722805D01*
X233749368Y-109844525D01*
X233542525Y-110051368D01*
X233380010Y-110294589D01*
X233268068Y-110564842D01*
X233211000Y-110851740D01*
X233211000Y-111144260D01*
X233268068Y-111431158D01*
X233380010Y-111701411D01*
X233542525Y-111944632D01*
X233749368Y-112151475D01*
X233992589Y-112313990D01*
X234262842Y-112425932D01*
X234549740Y-112483000D01*
X234842260Y-112483000D01*
X235129158Y-112425932D01*
X235399411Y-112313990D01*
X235642632Y-112151475D01*
X235849475Y-111944632D01*
X235966000Y-111770240D01*
X236082525Y-111944632D01*
X236289368Y-112151475D01*
X236532589Y-112313990D01*
X236802842Y-112425932D01*
X237089740Y-112483000D01*
X237382260Y-112483000D01*
X237669158Y-112425932D01*
X237939411Y-112313990D01*
X238182632Y-112151475D01*
X238389475Y-111944632D01*
X238551990Y-111701411D01*
X238663932Y-111431158D01*
X238721000Y-111144260D01*
X238721000Y-110851740D01*
X238663932Y-110564842D01*
X238551990Y-110294589D01*
X238389475Y-110051368D01*
X238182632Y-109844525D01*
X238008240Y-109728000D01*
X238182632Y-109611475D01*
X238389475Y-109404632D01*
X238551990Y-109161411D01*
X238663932Y-108891158D01*
X238721000Y-108604260D01*
X238721000Y-108311740D01*
X238663932Y-108024842D01*
X238551990Y-107754589D01*
X238389475Y-107511368D01*
X238182632Y-107304525D01*
X238008240Y-107188000D01*
X238182632Y-107071475D01*
X238389475Y-106864632D01*
X238551990Y-106621411D01*
X238663932Y-106351158D01*
X238721000Y-106064260D01*
X238721000Y-105771740D01*
X238663932Y-105484842D01*
X238551990Y-105214589D01*
X238389475Y-104971368D01*
X238182632Y-104764525D01*
X238008240Y-104648000D01*
X238182632Y-104531475D01*
X238389475Y-104324632D01*
X238551990Y-104081411D01*
X238663932Y-103811158D01*
X238721000Y-103524260D01*
X238721000Y-103231740D01*
X238663932Y-102944842D01*
X238551990Y-102674589D01*
X238389475Y-102431368D01*
X238257620Y-102299513D01*
X238330180Y-102277502D01*
X238440494Y-102218537D01*
X238537185Y-102139185D01*
X238616537Y-102042494D01*
X238675502Y-101932180D01*
X238711812Y-101812482D01*
X238724072Y-101688000D01*
X238724072Y-99988000D01*
X238711812Y-99863518D01*
X238675502Y-99743820D01*
X238616537Y-99633506D01*
X238537185Y-99536815D01*
X238440494Y-99457463D01*
X238330180Y-99398498D01*
X238210482Y-99362188D01*
X238086000Y-99349928D01*
X236386000Y-99349928D01*
X236261518Y-99362188D01*
X236141820Y-99398498D01*
X236031506Y-99457463D01*
X235934815Y-99536815D01*
X235855463Y-99633506D01*
X235796498Y-99743820D01*
X235774487Y-99816380D01*
X235642632Y-99684525D01*
X235399411Y-99522010D01*
X235129158Y-99410068D01*
X234842260Y-99353000D01*
X234549740Y-99353000D01*
X234262842Y-99410068D01*
X233992589Y-99522010D01*
X233749368Y-99684525D01*
X233542525Y-99891368D01*
X233417822Y-100078000D01*
X231753910Y-100078000D01*
X231716587Y-100074324D01*
X231679264Y-100078000D01*
X231679254Y-100078000D01*
X231567601Y-100088997D01*
X231424340Y-100132454D01*
X231292311Y-100203026D01*
X231176586Y-100297999D01*
X231152788Y-100326997D01*
X227755684Y-103724102D01*
X227726680Y-103747905D01*
X227697141Y-103783899D01*
X227631707Y-103863630D01*
X227567659Y-103983454D01*
X227561135Y-103995660D01*
X227517678Y-104138921D01*
X227506681Y-104250574D01*
X227506681Y-104250584D01*
X227504828Y-104269397D01*
X227489887Y-104266425D01*
X227286009Y-104266425D01*
X227086050Y-104306199D01*
X226897692Y-104384220D01*
X226728174Y-104497488D01*
X226584011Y-104641651D01*
X226470743Y-104811169D01*
X226392722Y-104999527D01*
X226352948Y-105199486D01*
X214274000Y-105199486D01*
X214274000Y-98196000D01*
X233966419Y-98196000D01*
X233999407Y-98192751D01*
X234012591Y-98192751D01*
X234021756Y-98191788D01*
X234218808Y-98169685D01*
X234260341Y-98160856D01*
X234357477Y-98257992D01*
X234509715Y-98359714D01*
X234678874Y-98429782D01*
X234858452Y-98465503D01*
X235041548Y-98465503D01*
X235221126Y-98429782D01*
X235331000Y-98384271D01*
X235440874Y-98429782D01*
X235620452Y-98465503D01*
X235803548Y-98465503D01*
X235983126Y-98429782D01*
X236093000Y-98384271D01*
X236202874Y-98429782D01*
X236382452Y-98465503D01*
X236565548Y-98465503D01*
X236745126Y-98429782D01*
X236855000Y-98384271D01*
X236964874Y-98429782D01*
X237144452Y-98465503D01*
X237327548Y-98465503D01*
X237507126Y-98429782D01*
X237676285Y-98359714D01*
X237828523Y-98257992D01*
X237925742Y-98160773D01*
X237981087Y-98172537D01*
G37*
G04 #@! TD.AperFunction*
M02*
