M48
; DRILL file {KiCad 5.1.9} date Thu Mar  4 20:50:05 2021
; FORMAT={-:-/ absolute / inch / decimal}
; #@! TF.CreationDate,2021-03-04T20:50:05+01:00
; #@! TF.GenerationSoftware,Kicad,Pcbnew,5.1.9
; #@! TF.FileFunction,Plated,1,2,PTH
FMAT,2
INCH
T1C0.0118
T2C0.0157
T3C0.0236
T4C0.0335
T5C0.0394
T6C0.0591
T7C0.0780
%
G90
G05
T1
X7.9244Y-2.9632
X7.9244Y-3.0144
X7.9244Y-3.0656
X7.9244Y-3.1168
X7.9756Y-2.9632
X7.9756Y-3.0144
X7.9756Y-3.0656
X7.9756Y-3.1168
T2
X7.91Y-2.71
X8.0369Y-3.62
X8.0369Y-3.6535
X8.0369Y-3.6869
X8.0369Y-3.7204
X8.0369Y-3.7539
X8.0369Y-3.7873
X8.0369Y-3.8208
X8.0369Y-3.8543
X8.09Y-3.62
X8.09Y-3.6535
X8.09Y-3.6869
X8.09Y-3.7204
X8.09Y-3.7539
X8.09Y-3.7873
X8.09Y-3.8208
X8.09Y-3.8543
X8.1Y-2.4746
X8.15Y-3.4587
X8.15Y-3.49
X8.1548Y-3.7948
X8.17Y-3.64
X8.39Y-3.01
X8.43Y-3.3
X8.4309Y-3.3902
X8.4703Y-3.39
X8.48Y-3.22
X8.5186Y-2.7177
X8.69Y-3.62
X8.7068Y-2.7811
X8.75Y-2.9
X8.7509Y-3.4511
X8.78Y-2.81
X8.8161Y-3.4737
X8.9523Y-4.0457
X8.9869Y-4.0645
X9.0Y-2.86
X9.0169Y-4.09
X9.13Y-3.95
X9.153Y-3.982
X9.2Y-2.86
X9.2Y-3.1
X9.2024Y-2.6424
X9.3086Y-2.7158
X9.34Y-3.26
X9.3453Y-3.4053
X9.35Y-3.0
X9.3681Y-3.5364
X9.4Y-2.86
X9.4Y-3.4
X9.4139Y-2.52
X9.44Y-2.64
X9.44Y-3.4
X9.51Y-3.5989
X9.5275Y-2.5675
X9.5585Y-3.3685
X9.58Y-2.72
X9.62Y-2.4923
X9.6364Y-3.5399
X9.6571Y-2.5055
T4
X7.8354Y-4.0781
X7.8354Y-4.1332
X7.8354Y-4.1883
X7.8354Y-4.2435
T5
X7.83Y-2.53
X7.93Y-2.53
X8.58Y-2.95
X8.58Y-3.05
X8.58Y-3.15
X8.58Y-3.25
X8.58Y-3.35
X8.68Y-2.95
X8.68Y-3.05
X8.68Y-3.15
X8.68Y-3.25
X8.68Y-3.35
X9.24Y-3.87
X9.24Y-3.97
X9.24Y-4.07
X9.24Y-4.17
X9.24Y-4.27
X9.34Y-3.87
X9.34Y-3.97
X9.34Y-4.07
X9.34Y-4.17
X9.34Y-4.27
T6
X8.1776Y-2.525
X8.1776Y-2.6431
X8.3351Y-2.525
X8.3351Y-2.6431
X8.4926Y-2.525
X8.4926Y-2.6431
X8.6501Y-2.525
X8.6501Y-2.6431
X8.8076Y-2.525
X8.8076Y-2.6431
X8.965Y-2.525
X8.965Y-2.6431
X9.1225Y-2.525
X9.1225Y-2.6431
X9.28Y-2.525
X9.28Y-2.6431
T7
X7.97Y-4.06
X7.97Y-4.2734
X8.1094Y-4.06
X8.1094Y-4.2734
T3
G00X7.9341Y-3.5669
M15
G01X7.9026Y-3.5669
M16
G05
G00X7.9341Y-3.9074
M15
G01X7.9026Y-3.9074
M16
G05
G00X8.0809Y-3.5669
M15
G01X8.0219Y-3.5669
M16
G05
G00X8.0809Y-3.9074
M15
G01X8.0219Y-3.9074
M16
G05
T0
M30
