M48
; DRILL file {KiCad 5.1.10} date Tue May 11 19:27:16 2021
; FORMAT={-:-/ absolute / inch / decimal}
; #@! TF.CreationDate,2021-05-11T19:27:16+02:00
; #@! TF.GenerationSoftware,Kicad,Pcbnew,5.1.10
; #@! TF.FileFunction,Plated,1,2,PTH
FMAT,2
INCH
T1C0.0118
T2C0.0157
T3C0.0236
T4C0.0335
T5C0.0394
T6C0.0591
T7C0.0780
%
G90
G05
T1
X7.9244Y-2.9632
X7.9244Y-3.0144
X7.9244Y-3.0656
X7.9244Y-3.1168
X7.9756Y-2.9632
X7.9756Y-3.0144
X7.9756Y-3.0656
X7.9756Y-3.1168
T2
X8.09Y-3.73
X8.1Y-3.56
X8.12Y-2.43
X8.17Y-3.3655
X8.25Y-2.67
X8.27Y-3.55
X8.275Y-3.935
X8.32Y-3.61
X8.38Y-3.37
X8.41Y-3.41
X8.4382Y-3.5672
X8.46Y-3.6
X8.4894Y-2.9894
X8.5213Y-3.2037
X8.53Y-2.9
X8.545Y-2.72
X8.58Y-3.5
X8.71Y-3.52
X8.74Y-2.78
X8.75Y-2.9
X8.76Y-3.5515
X8.78Y-2.81
X8.7843Y-3.459
X8.81Y-3.49
X8.9523Y-4.1457
X8.9869Y-4.1645
X9.0Y-2.86
X9.0169Y-4.19
X9.05Y-2.575
X9.105Y-3.5475
X9.13Y-4.05
X9.153Y-4.082
X9.2Y-2.86
X9.2Y-3.1
X9.2702Y-2.9398
X9.3Y-3.55
X9.3086Y-2.7158
X9.34Y-3.4
X9.37Y-3.09
X9.375Y-2.52
X9.4Y-2.86
X9.4071Y-3.3985
X9.44Y-2.64
X9.4464Y-3.4003
X9.5238Y-3.5387
X9.525Y-2.57
X9.5585Y-3.3685
X9.5708Y-3.5888
X9.58Y-2.72
X9.6037Y-2.4923
X9.6446Y-2.4746
T4
X7.8354Y-4.1547
X7.8354Y-4.2098
X7.8354Y-4.265
X7.8354Y-4.3201
T5
X8.4Y-3.7
X8.5Y-3.7
X8.58Y-2.95
X8.58Y-3.05
X8.58Y-3.15
X8.58Y-3.25
X8.58Y-3.35
X8.6Y-3.7
X8.68Y-2.95
X8.68Y-3.05
X8.68Y-3.15
X8.68Y-3.25
X8.68Y-3.35
X8.7Y-3.7
X9.24Y-3.97
X9.24Y-4.07
X9.24Y-4.17
X9.24Y-4.27
X9.24Y-4.37
X9.3Y-3.7
X9.34Y-3.97
X9.34Y-4.07
X9.34Y-4.17
X9.34Y-4.27
X9.34Y-4.37
X9.4Y-3.7
X9.5Y-3.7
X9.6Y-3.7
T6
X8.1776Y-2.4819
X8.1776Y-2.6
X8.335Y-2.4819
X8.335Y-2.6
X8.4925Y-2.4819
X8.4925Y-2.6
X8.65Y-2.4819
X8.65Y-2.6
X8.8075Y-2.4819
X8.8075Y-2.6
X8.965Y-2.4819
X8.965Y-2.6
X9.1224Y-2.4819
X9.1224Y-2.6
X9.2799Y-2.4819
X9.2799Y-2.6
T7
X7.97Y-4.1366
X7.97Y-4.35
X8.1094Y-4.1366
X8.1094Y-4.35
T3
G00X7.8932Y-3.5549
M15
G01X7.8421Y-3.5549
M16
G05
G00X7.8932Y-3.8951
M15
G01X7.8421Y-3.8951
M16
G05
G00X8.0379Y-3.5549
M15
G01X7.9986Y-3.5549
M16
G05
G00X8.0379Y-3.8951
M15
G01X7.9986Y-3.8951
M16
G05
T0
M30
