G04 #@! TF.GenerationSoftware,KiCad,Pcbnew,5.1.10*
G04 #@! TF.CreationDate,2021-05-11T19:26:58+02:00*
G04 #@! TF.ProjectId,obd32,6f626433-322e-46b6-9963-61645f706362,rev?*
G04 #@! TF.SameCoordinates,Original*
G04 #@! TF.FileFunction,Profile,NP*
%FSLAX46Y46*%
G04 Gerber Fmt 4.6, Leading zero omitted, Abs format (unit mm)*
G04 Created by KiCad (PCBNEW 5.1.10) date 2021-05-11 19:26:58*
%MOMM*%
%LPD*%
G01*
G04 APERTURE LIST*
G04 #@! TA.AperFunction,Profile*
%ADD10C,0.050000*%
G04 #@! TD*
G04 APERTURE END LIST*
D10*
X211836000Y-108204000D02*
G75*
G03*
X211836000Y-108204000I-254000J0D01*
G01*
X211836000Y-108966000D02*
G75*
G03*
X211836000Y-108966000I-254000J0D01*
G01*
X211836000Y-109728000D02*
G75*
G03*
X211836000Y-109728000I-254000J0D01*
G01*
X211836000Y-110490000D02*
G75*
G03*
X211836000Y-110490000I-254000J0D01*
G01*
X213868000Y-108204000D02*
G75*
G03*
X213868000Y-108204000I-254000J0D01*
G01*
X213868000Y-108966000D02*
G75*
G03*
X213868000Y-108966000I-254000J0D01*
G01*
X213868000Y-109728000D02*
G75*
G03*
X213868000Y-109728000I-254000J0D01*
G01*
X213868000Y-110490000D02*
G75*
G03*
X213868000Y-110490000I-254000J0D01*
G01*
X237490000Y-97536000D02*
G75*
G03*
X237490000Y-97536000I-254000J0D01*
G01*
X236728000Y-97536000D02*
G75*
G03*
X236728000Y-97536000I-254000J0D01*
G01*
X235966000Y-97536000D02*
G75*
G03*
X235966000Y-97536000I-254000J0D01*
G01*
X235204000Y-97536000D02*
G75*
G03*
X235204000Y-97536000I-254000J0D01*
G01*
X237490000Y-95504000D02*
G75*
G03*
X237490000Y-95504000I-254000J0D01*
G01*
X236728000Y-95504000D02*
G75*
G03*
X236728000Y-95504000I-254000J0D01*
G01*
X235966000Y-95504000D02*
G75*
G03*
X235966000Y-95504000I-254000J0D01*
G01*
X235204000Y-95504000D02*
G75*
G03*
X235204000Y-95504000I-254000J0D01*
G01*
X211582000Y-95504000D02*
X211582000Y-107188000D01*
X233934000Y-95504000D02*
X211582000Y-95504000D01*
X213868000Y-97536000D02*
X233934000Y-97536000D01*
X213614000Y-107188000D02*
X213614000Y-97790000D01*
X213614000Y-107188000D02*
G75*
G02*
X211582000Y-107188000I-1016000J0D01*
G01*
X211582000Y-111506000D02*
G75*
G02*
X213614000Y-111506000I1016000J0D01*
G01*
X233934000Y-95504000D02*
G75*
G02*
X233934000Y-97536000I0J-1016000D01*
G01*
X238252000Y-97536000D02*
G75*
G02*
X238252000Y-95504000I0J1016000D01*
G01*
X250444000Y-97536000D02*
G75*
G02*
X250698000Y-97790000I0J-254000D01*
G01*
X250698000Y-113792000D02*
G75*
G02*
X250444000Y-114046000I-254000J0D01*
G01*
X213868000Y-114046000D02*
G75*
G02*
X213614000Y-113792000I0J254000D01*
G01*
X213614000Y-97790000D02*
G75*
G02*
X213868000Y-97536000I254000J0D01*
G01*
X211582000Y-113284000D02*
G75*
G02*
X211328000Y-113538000I-254000J0D01*
G01*
X197104000Y-113538000D02*
G75*
G02*
X196850000Y-113284000I0J254000D01*
G01*
X196850000Y-61214000D02*
G75*
G02*
X197104000Y-60960000I254000J0D01*
G01*
X246126000Y-60960000D02*
G75*
G02*
X246380000Y-61214000I0J-254000D01*
G01*
X246380000Y-95250000D02*
G75*
G02*
X246126000Y-95504000I-254000J0D01*
G01*
X250698000Y-113792000D02*
X250698000Y-97790000D01*
X213868000Y-114046000D02*
X250444000Y-114046000D01*
X213614000Y-111506000D02*
X213614000Y-113792000D01*
X250444000Y-97536000D02*
X238252000Y-97536000D01*
X238252000Y-95504000D02*
X246126000Y-95504000D01*
X211582000Y-113284000D02*
X211582000Y-111506000D01*
X196850000Y-113284000D02*
X196850000Y-61214000D01*
X211328000Y-113538000D02*
X197104000Y-113538000D01*
X246380000Y-95250000D02*
X246380000Y-61214000D01*
X197104000Y-60960000D02*
X246126000Y-60960000D01*
M02*
