G04 #@! TF.GenerationSoftware,KiCad,Pcbnew,5.1.10*
G04 #@! TF.CreationDate,2021-05-11T19:26:58+02:00*
G04 #@! TF.ProjectId,obd32,6f626433-322e-46b6-9963-61645f706362,rev?*
G04 #@! TF.SameCoordinates,Original*
G04 #@! TF.FileFunction,Legend,Bot*
G04 #@! TF.FilePolarity,Positive*
%FSLAX46Y46*%
G04 Gerber Fmt 4.6, Leading zero omitted, Abs format (unit mm)*
G04 Created by KiCad (PCBNEW 5.1.10) date 2021-05-11 19:26:58*
%MOMM*%
%LPD*%
G01*
G04 APERTURE LIST*
%ADD10C,0.150000*%
%ADD11C,1.000000*%
%ADD12C,0.010000*%
%ADD13C,0.120000*%
%ADD14C,0.152400*%
G04 APERTURE END LIST*
D10*
X239267166Y-90630261D02*
X239267166Y-88630261D01*
X239267166Y-89392166D02*
X239171928Y-89296928D01*
X238981452Y-89296928D01*
X238886214Y-89392166D01*
X238838595Y-89487404D01*
X238790976Y-89677880D01*
X238790976Y-90249309D01*
X238838595Y-90439785D01*
X238886214Y-90535023D01*
X238981452Y-90630261D01*
X239171928Y-90630261D01*
X239267166Y-90535023D01*
X238457642Y-89296928D02*
X238219547Y-90630261D01*
X237981452Y-89296928D02*
X238219547Y-90630261D01*
X238314785Y-91106452D01*
X238362404Y-91201690D01*
X238457642Y-91296928D01*
X236838595Y-90630261D02*
X236838595Y-88630261D01*
X236505261Y-90058833D01*
X236171928Y-88630261D01*
X236171928Y-90630261D01*
X235267166Y-90630261D02*
X235267166Y-89582642D01*
X235314785Y-89392166D01*
X235410023Y-89296928D01*
X235600500Y-89296928D01*
X235695738Y-89392166D01*
X235267166Y-90535023D02*
X235362404Y-90630261D01*
X235600500Y-90630261D01*
X235695738Y-90535023D01*
X235743357Y-90344547D01*
X235743357Y-90154071D01*
X235695738Y-89963595D01*
X235600500Y-89868357D01*
X235362404Y-89868357D01*
X235267166Y-89773119D01*
X234648119Y-90630261D02*
X234743357Y-90535023D01*
X234790976Y-90344547D01*
X234790976Y-88630261D01*
X234410023Y-89296928D02*
X234029071Y-89296928D01*
X234267166Y-88630261D02*
X234267166Y-90344547D01*
X234219547Y-90535023D01*
X234124309Y-90630261D01*
X234029071Y-90630261D01*
X233314785Y-90535023D02*
X233410023Y-90630261D01*
X233600500Y-90630261D01*
X233695738Y-90535023D01*
X233743357Y-90344547D01*
X233743357Y-89582642D01*
X233695738Y-89392166D01*
X233600500Y-89296928D01*
X233410023Y-89296928D01*
X233314785Y-89392166D01*
X233267166Y-89582642D01*
X233267166Y-89773119D01*
X233743357Y-89963595D01*
X232124309Y-90535023D02*
X231981452Y-90630261D01*
X231743357Y-90630261D01*
X231648119Y-90535023D01*
X231600500Y-90439785D01*
X231552880Y-90249309D01*
X231552880Y-90058833D01*
X231600500Y-89868357D01*
X231648119Y-89773119D01*
X231743357Y-89677880D01*
X231933833Y-89582642D01*
X232029071Y-89487404D01*
X232076690Y-89392166D01*
X232124309Y-89201690D01*
X232124309Y-89011214D01*
X232076690Y-88820738D01*
X232029071Y-88725500D01*
X231933833Y-88630261D01*
X231695738Y-88630261D01*
X231552880Y-88725500D01*
X230695738Y-90535023D02*
X230790976Y-90630261D01*
X230981452Y-90630261D01*
X231076690Y-90535023D01*
X231124309Y-90439785D01*
X231171928Y-90249309D01*
X231171928Y-89677880D01*
X231124309Y-89487404D01*
X231076690Y-89392166D01*
X230981452Y-89296928D01*
X230790976Y-89296928D01*
X230695738Y-89392166D01*
X230267166Y-90630261D02*
X230267166Y-88630261D01*
X229838595Y-90630261D02*
X229838595Y-89582642D01*
X229886214Y-89392166D01*
X229981452Y-89296928D01*
X230124309Y-89296928D01*
X230219547Y-89392166D01*
X230267166Y-89487404D01*
X229362404Y-90630261D02*
X229362404Y-89296928D01*
X229362404Y-89677880D02*
X229314785Y-89487404D01*
X229267166Y-89392166D01*
X229171928Y-89296928D01*
X229076690Y-89296928D01*
X228600500Y-90630261D02*
X228695738Y-90535023D01*
X228743357Y-90439785D01*
X228790976Y-90249309D01*
X228790976Y-89677880D01*
X228743357Y-89487404D01*
X228695738Y-89392166D01*
X228600500Y-89296928D01*
X228457642Y-89296928D01*
X228362404Y-89392166D01*
X228314785Y-89487404D01*
X228267166Y-89677880D01*
X228267166Y-90249309D01*
X228314785Y-90439785D01*
X228362404Y-90535023D01*
X228457642Y-90630261D01*
X228600500Y-90630261D01*
X228695738Y-88630261D02*
X228648119Y-88725500D01*
X228695738Y-88820738D01*
X228743357Y-88725500D01*
X228695738Y-88630261D01*
X228695738Y-88820738D01*
X228314785Y-88630261D02*
X228267166Y-88725500D01*
X228314785Y-88820738D01*
X228362404Y-88725500D01*
X228314785Y-88630261D01*
X228314785Y-88820738D01*
X227410023Y-90630261D02*
X227410023Y-88630261D01*
X227410023Y-90535023D02*
X227505261Y-90630261D01*
X227695738Y-90630261D01*
X227790976Y-90535023D01*
X227838595Y-90439785D01*
X227886214Y-90249309D01*
X227886214Y-89677880D01*
X227838595Y-89487404D01*
X227790976Y-89392166D01*
X227695738Y-89296928D01*
X227505261Y-89296928D01*
X227410023Y-89392166D01*
X226552880Y-90535023D02*
X226648119Y-90630261D01*
X226838595Y-90630261D01*
X226933833Y-90535023D01*
X226981452Y-90344547D01*
X226981452Y-89582642D01*
X226933833Y-89392166D01*
X226838595Y-89296928D01*
X226648119Y-89296928D01*
X226552880Y-89392166D01*
X226505261Y-89582642D01*
X226505261Y-89773119D01*
X226981452Y-89963595D01*
X226076690Y-90630261D02*
X226076690Y-89296928D01*
X226076690Y-89677880D02*
X226029071Y-89487404D01*
X225981452Y-89392166D01*
X225886214Y-89296928D01*
X225790976Y-89296928D01*
D11*
X240536976Y-71009285D02*
X239775071Y-71009285D01*
X239394119Y-71295000D01*
X239013166Y-71866428D01*
X238822690Y-73009285D01*
X238822690Y-75009285D01*
X239013166Y-76152142D01*
X239394119Y-76723571D01*
X239775071Y-77009285D01*
X240536976Y-77009285D01*
X240917928Y-76723571D01*
X241298880Y-76152142D01*
X241489357Y-75009285D01*
X241489357Y-73009285D01*
X241298880Y-71866428D01*
X240917928Y-71295000D01*
X240536976Y-71009285D01*
X235775071Y-73866428D02*
X235203642Y-74152142D01*
X235013166Y-74437857D01*
X234822690Y-75009285D01*
X234822690Y-75866428D01*
X235013166Y-76437857D01*
X235203642Y-76723571D01*
X235584595Y-77009285D01*
X237108404Y-77009285D01*
X237108404Y-71009285D01*
X235775071Y-71009285D01*
X235394119Y-71295000D01*
X235203642Y-71580714D01*
X235013166Y-72152142D01*
X235013166Y-72723571D01*
X235203642Y-73295000D01*
X235394119Y-73580714D01*
X235775071Y-73866428D01*
X237108404Y-73866428D01*
X233108404Y-77009285D02*
X233108404Y-71009285D01*
X232156023Y-71009285D01*
X231584595Y-71295000D01*
X231203642Y-71866428D01*
X231013166Y-72437857D01*
X230822690Y-73580714D01*
X230822690Y-74437857D01*
X231013166Y-75580714D01*
X231203642Y-76152142D01*
X231584595Y-76723571D01*
X232156023Y-77009285D01*
X233108404Y-77009285D01*
X229489357Y-71009285D02*
X227013166Y-71009285D01*
X228346500Y-73295000D01*
X227775071Y-73295000D01*
X227394119Y-73580714D01*
X227203642Y-73866428D01*
X227013166Y-74437857D01*
X227013166Y-75866428D01*
X227203642Y-76437857D01*
X227394119Y-76723571D01*
X227775071Y-77009285D01*
X228917928Y-77009285D01*
X229298880Y-76723571D01*
X229489357Y-76437857D01*
X225489357Y-71580714D02*
X225298880Y-71295000D01*
X224917928Y-71009285D01*
X223965547Y-71009285D01*
X223584595Y-71295000D01*
X223394119Y-71580714D01*
X223203642Y-72152142D01*
X223203642Y-72723571D01*
X223394119Y-73580714D01*
X225679833Y-77009285D01*
X223203642Y-77009285D01*
D12*
G36*
X232270122Y-79091776D02*
G01*
X232164388Y-79092355D01*
X232087868Y-79093922D01*
X232035628Y-79096972D01*
X232002737Y-79101996D01*
X231984263Y-79109489D01*
X231975273Y-79119944D01*
X231970837Y-79133853D01*
X231970406Y-79135654D01*
X231963667Y-79168145D01*
X231951192Y-79232252D01*
X231934281Y-79321151D01*
X231914229Y-79428019D01*
X231892336Y-79546033D01*
X231891571Y-79550178D01*
X231869641Y-79665831D01*
X231849123Y-79768014D01*
X231831341Y-79850598D01*
X231817619Y-79907456D01*
X231809282Y-79932458D01*
X231808884Y-79932901D01*
X231784323Y-79945110D01*
X231733685Y-79965456D01*
X231667905Y-79989545D01*
X231667539Y-79989674D01*
X231584683Y-80020818D01*
X231487000Y-80060491D01*
X231394923Y-80100381D01*
X231390566Y-80102353D01*
X231240593Y-80170420D01*
X230908502Y-79943639D01*
X230806626Y-79874504D01*
X230714343Y-79812697D01*
X230636997Y-79761733D01*
X230579936Y-79725127D01*
X230548505Y-79706394D01*
X230545521Y-79705004D01*
X230522679Y-79711190D01*
X230480018Y-79741035D01*
X230415872Y-79795947D01*
X230328579Y-79877334D01*
X230239465Y-79963922D01*
X230153559Y-80049247D01*
X230076673Y-80127108D01*
X230013436Y-80192697D01*
X229968477Y-80241205D01*
X229946424Y-80267825D01*
X229945604Y-80269195D01*
X229943166Y-80287463D01*
X229952350Y-80317295D01*
X229975426Y-80362721D01*
X230014663Y-80427770D01*
X230072330Y-80516470D01*
X230149205Y-80630657D01*
X230217430Y-80731162D01*
X230278418Y-80821303D01*
X230328644Y-80895849D01*
X230364584Y-80949565D01*
X230382713Y-80977218D01*
X230383854Y-80979095D01*
X230381641Y-81005590D01*
X230364862Y-81057086D01*
X230336858Y-81123851D01*
X230326878Y-81145172D01*
X230283328Y-81240159D01*
X230236866Y-81347937D01*
X230199123Y-81441192D01*
X230171927Y-81510406D01*
X230150325Y-81563006D01*
X230137842Y-81590497D01*
X230136291Y-81592616D01*
X230113332Y-81596124D01*
X230059214Y-81605738D01*
X229981132Y-81620089D01*
X229886281Y-81637807D01*
X229781857Y-81657525D01*
X229675056Y-81677874D01*
X229573074Y-81697486D01*
X229483106Y-81714991D01*
X229412347Y-81729022D01*
X229367994Y-81738209D01*
X229357115Y-81740807D01*
X229345878Y-81747218D01*
X229337395Y-81761697D01*
X229331286Y-81789133D01*
X229327168Y-81834411D01*
X229324659Y-81902420D01*
X229323379Y-81998047D01*
X229322946Y-82126180D01*
X229322923Y-82178701D01*
X229322923Y-82605845D01*
X229425500Y-82626091D01*
X229482569Y-82637070D01*
X229567731Y-82653095D01*
X229670628Y-82672233D01*
X229780904Y-82692551D01*
X229811385Y-82698132D01*
X229913145Y-82717917D01*
X230001795Y-82737373D01*
X230069892Y-82754697D01*
X230109996Y-82768088D01*
X230116677Y-82772079D01*
X230133081Y-82800342D01*
X230156601Y-82855109D01*
X230182684Y-82925588D01*
X230187858Y-82940769D01*
X230222044Y-83034896D01*
X230264477Y-83141101D01*
X230306003Y-83236473D01*
X230306208Y-83236916D01*
X230375360Y-83386525D01*
X229920488Y-84055617D01*
X230212500Y-84348116D01*
X230300820Y-84435170D01*
X230381375Y-84511909D01*
X230449640Y-84574237D01*
X230501092Y-84618056D01*
X230531206Y-84639270D01*
X230535526Y-84640616D01*
X230560889Y-84630016D01*
X230612642Y-84600547D01*
X230685132Y-84555705D01*
X230772706Y-84498984D01*
X230867388Y-84435462D01*
X230963484Y-84370668D01*
X231049163Y-84314287D01*
X231118984Y-84269788D01*
X231167506Y-84240639D01*
X231189218Y-84230308D01*
X231215707Y-84239050D01*
X231265938Y-84262087D01*
X231329549Y-84294631D01*
X231336292Y-84298249D01*
X231421954Y-84341210D01*
X231480694Y-84362279D01*
X231517228Y-84362503D01*
X231536269Y-84342928D01*
X231536380Y-84342654D01*
X231545898Y-84319472D01*
X231568597Y-84264441D01*
X231602718Y-84181822D01*
X231646500Y-84075872D01*
X231698184Y-83950852D01*
X231756008Y-83811020D01*
X231812009Y-83675637D01*
X231873553Y-83526234D01*
X231930061Y-83387832D01*
X231979839Y-83264673D01*
X232021194Y-83161002D01*
X232052432Y-83081059D01*
X232071859Y-83029088D01*
X232077846Y-83009692D01*
X232062832Y-82987443D01*
X232023561Y-82951982D01*
X231971193Y-82912887D01*
X231822059Y-82789245D01*
X231705489Y-82647522D01*
X231622882Y-82490704D01*
X231575634Y-82321775D01*
X231565143Y-82143722D01*
X231572769Y-82061539D01*
X231614318Y-81891031D01*
X231685877Y-81740459D01*
X231783005Y-81611309D01*
X231901266Y-81505064D01*
X232036220Y-81423210D01*
X232183429Y-81367232D01*
X232338456Y-81338615D01*
X232496861Y-81338844D01*
X232654206Y-81369405D01*
X232806054Y-81431782D01*
X232947965Y-81527460D01*
X233007197Y-81581572D01*
X233120797Y-81720520D01*
X233199894Y-81872361D01*
X233245014Y-82032667D01*
X233256684Y-82197012D01*
X233235431Y-82360971D01*
X233181780Y-82520118D01*
X233096260Y-82670025D01*
X232979395Y-82806267D01*
X232848807Y-82912887D01*
X232794412Y-82953642D01*
X232755986Y-82988718D01*
X232742154Y-83009726D01*
X232749397Y-83032635D01*
X232769995Y-83087365D01*
X232802254Y-83169672D01*
X232844479Y-83275315D01*
X232894977Y-83400050D01*
X232952052Y-83539636D01*
X233008146Y-83675670D01*
X233070033Y-83825201D01*
X233127356Y-83963767D01*
X233178356Y-84087107D01*
X233221273Y-84190964D01*
X233254347Y-84271080D01*
X233275819Y-84323195D01*
X233283775Y-84342654D01*
X233302571Y-84362423D01*
X233338926Y-84362365D01*
X233397521Y-84341441D01*
X233483032Y-84298613D01*
X233483708Y-84298249D01*
X233548093Y-84265012D01*
X233600139Y-84240802D01*
X233629488Y-84230404D01*
X233630783Y-84230308D01*
X233652876Y-84240855D01*
X233701652Y-84270184D01*
X233771669Y-84314827D01*
X233857486Y-84371314D01*
X233952612Y-84435462D01*
X234049460Y-84500411D01*
X234136747Y-84556896D01*
X234208819Y-84601421D01*
X234260023Y-84630490D01*
X234284474Y-84640616D01*
X234306990Y-84627307D01*
X234352258Y-84590112D01*
X234415756Y-84533128D01*
X234492961Y-84460449D01*
X234579349Y-84376171D01*
X234607601Y-84348016D01*
X234899713Y-84055416D01*
X234677369Y-83729104D01*
X234609798Y-83628897D01*
X234550493Y-83538963D01*
X234502783Y-83464510D01*
X234469993Y-83410751D01*
X234455452Y-83382894D01*
X234455026Y-83380912D01*
X234462692Y-83354655D01*
X234483311Y-83301837D01*
X234513315Y-83231310D01*
X234534375Y-83184093D01*
X234573752Y-83093694D01*
X234610835Y-83002366D01*
X234639585Y-82925200D01*
X234647395Y-82901692D01*
X234669583Y-82838916D01*
X234691273Y-82790411D01*
X234703187Y-82772079D01*
X234729477Y-82760859D01*
X234786858Y-82744954D01*
X234867882Y-82726167D01*
X234965105Y-82706299D01*
X235008615Y-82698132D01*
X235119104Y-82677829D01*
X235225084Y-82658170D01*
X235316199Y-82641088D01*
X235382092Y-82628518D01*
X235394500Y-82626091D01*
X235497077Y-82605845D01*
X235497077Y-82178701D01*
X235496847Y-82038246D01*
X235495901Y-81931979D01*
X235493859Y-81855013D01*
X235490338Y-81802460D01*
X235484957Y-81769433D01*
X235477334Y-81751045D01*
X235467088Y-81742408D01*
X235462885Y-81740807D01*
X235437530Y-81735127D01*
X235381516Y-81723795D01*
X235302036Y-81708179D01*
X235206288Y-81689647D01*
X235101467Y-81669569D01*
X234994768Y-81649312D01*
X234893387Y-81630246D01*
X234804521Y-81613739D01*
X234735363Y-81601159D01*
X234693111Y-81593875D01*
X234683710Y-81592616D01*
X234675193Y-81575763D01*
X234656340Y-81530870D01*
X234630676Y-81466430D01*
X234620877Y-81441192D01*
X234581352Y-81343686D01*
X234534808Y-81235959D01*
X234493123Y-81145172D01*
X234462450Y-81075753D01*
X234442044Y-81018710D01*
X234435232Y-80983777D01*
X234436318Y-80979095D01*
X234450715Y-80956991D01*
X234483588Y-80907831D01*
X234531410Y-80836848D01*
X234590652Y-80749278D01*
X234657785Y-80650357D01*
X234671059Y-80630830D01*
X234748954Y-80515140D01*
X234806213Y-80427044D01*
X234845119Y-80362486D01*
X234867956Y-80317411D01*
X234877006Y-80287763D01*
X234874552Y-80269485D01*
X234874489Y-80269369D01*
X234855173Y-80245361D01*
X234812449Y-80198947D01*
X234750949Y-80134937D01*
X234675302Y-80058145D01*
X234590139Y-79973382D01*
X234580535Y-79963922D01*
X234473210Y-79859989D01*
X234390385Y-79783675D01*
X234330395Y-79733571D01*
X234291577Y-79708270D01*
X234274480Y-79705004D01*
X234249527Y-79719250D01*
X234197745Y-79752156D01*
X234124480Y-79800208D01*
X234035080Y-79859890D01*
X233934889Y-79927688D01*
X233911499Y-79943639D01*
X233579407Y-80170420D01*
X233429435Y-80102353D01*
X233338230Y-80062685D01*
X233240331Y-80022791D01*
X233156169Y-79990983D01*
X233152462Y-79989674D01*
X233086631Y-79965576D01*
X233035884Y-79945200D01*
X233011158Y-79932936D01*
X233011116Y-79932901D01*
X233003271Y-79910734D01*
X232989934Y-79856217D01*
X232972430Y-79775480D01*
X232952083Y-79674650D01*
X232930218Y-79559856D01*
X232928429Y-79550178D01*
X232906496Y-79431904D01*
X232886360Y-79324542D01*
X232869320Y-79234917D01*
X232856672Y-79169851D01*
X232849716Y-79136168D01*
X232849594Y-79135654D01*
X232845361Y-79121325D01*
X232837129Y-79110507D01*
X232819967Y-79102706D01*
X232788942Y-79097429D01*
X232739122Y-79094182D01*
X232665576Y-79092472D01*
X232563371Y-79091807D01*
X232427575Y-79091693D01*
X232410000Y-79091692D01*
X232270122Y-79091776D01*
G37*
X232270122Y-79091776D02*
X232164388Y-79092355D01*
X232087868Y-79093922D01*
X232035628Y-79096972D01*
X232002737Y-79101996D01*
X231984263Y-79109489D01*
X231975273Y-79119944D01*
X231970837Y-79133853D01*
X231970406Y-79135654D01*
X231963667Y-79168145D01*
X231951192Y-79232252D01*
X231934281Y-79321151D01*
X231914229Y-79428019D01*
X231892336Y-79546033D01*
X231891571Y-79550178D01*
X231869641Y-79665831D01*
X231849123Y-79768014D01*
X231831341Y-79850598D01*
X231817619Y-79907456D01*
X231809282Y-79932458D01*
X231808884Y-79932901D01*
X231784323Y-79945110D01*
X231733685Y-79965456D01*
X231667905Y-79989545D01*
X231667539Y-79989674D01*
X231584683Y-80020818D01*
X231487000Y-80060491D01*
X231394923Y-80100381D01*
X231390566Y-80102353D01*
X231240593Y-80170420D01*
X230908502Y-79943639D01*
X230806626Y-79874504D01*
X230714343Y-79812697D01*
X230636997Y-79761733D01*
X230579936Y-79725127D01*
X230548505Y-79706394D01*
X230545521Y-79705004D01*
X230522679Y-79711190D01*
X230480018Y-79741035D01*
X230415872Y-79795947D01*
X230328579Y-79877334D01*
X230239465Y-79963922D01*
X230153559Y-80049247D01*
X230076673Y-80127108D01*
X230013436Y-80192697D01*
X229968477Y-80241205D01*
X229946424Y-80267825D01*
X229945604Y-80269195D01*
X229943166Y-80287463D01*
X229952350Y-80317295D01*
X229975426Y-80362721D01*
X230014663Y-80427770D01*
X230072330Y-80516470D01*
X230149205Y-80630657D01*
X230217430Y-80731162D01*
X230278418Y-80821303D01*
X230328644Y-80895849D01*
X230364584Y-80949565D01*
X230382713Y-80977218D01*
X230383854Y-80979095D01*
X230381641Y-81005590D01*
X230364862Y-81057086D01*
X230336858Y-81123851D01*
X230326878Y-81145172D01*
X230283328Y-81240159D01*
X230236866Y-81347937D01*
X230199123Y-81441192D01*
X230171927Y-81510406D01*
X230150325Y-81563006D01*
X230137842Y-81590497D01*
X230136291Y-81592616D01*
X230113332Y-81596124D01*
X230059214Y-81605738D01*
X229981132Y-81620089D01*
X229886281Y-81637807D01*
X229781857Y-81657525D01*
X229675056Y-81677874D01*
X229573074Y-81697486D01*
X229483106Y-81714991D01*
X229412347Y-81729022D01*
X229367994Y-81738209D01*
X229357115Y-81740807D01*
X229345878Y-81747218D01*
X229337395Y-81761697D01*
X229331286Y-81789133D01*
X229327168Y-81834411D01*
X229324659Y-81902420D01*
X229323379Y-81998047D01*
X229322946Y-82126180D01*
X229322923Y-82178701D01*
X229322923Y-82605845D01*
X229425500Y-82626091D01*
X229482569Y-82637070D01*
X229567731Y-82653095D01*
X229670628Y-82672233D01*
X229780904Y-82692551D01*
X229811385Y-82698132D01*
X229913145Y-82717917D01*
X230001795Y-82737373D01*
X230069892Y-82754697D01*
X230109996Y-82768088D01*
X230116677Y-82772079D01*
X230133081Y-82800342D01*
X230156601Y-82855109D01*
X230182684Y-82925588D01*
X230187858Y-82940769D01*
X230222044Y-83034896D01*
X230264477Y-83141101D01*
X230306003Y-83236473D01*
X230306208Y-83236916D01*
X230375360Y-83386525D01*
X229920488Y-84055617D01*
X230212500Y-84348116D01*
X230300820Y-84435170D01*
X230381375Y-84511909D01*
X230449640Y-84574237D01*
X230501092Y-84618056D01*
X230531206Y-84639270D01*
X230535526Y-84640616D01*
X230560889Y-84630016D01*
X230612642Y-84600547D01*
X230685132Y-84555705D01*
X230772706Y-84498984D01*
X230867388Y-84435462D01*
X230963484Y-84370668D01*
X231049163Y-84314287D01*
X231118984Y-84269788D01*
X231167506Y-84240639D01*
X231189218Y-84230308D01*
X231215707Y-84239050D01*
X231265938Y-84262087D01*
X231329549Y-84294631D01*
X231336292Y-84298249D01*
X231421954Y-84341210D01*
X231480694Y-84362279D01*
X231517228Y-84362503D01*
X231536269Y-84342928D01*
X231536380Y-84342654D01*
X231545898Y-84319472D01*
X231568597Y-84264441D01*
X231602718Y-84181822D01*
X231646500Y-84075872D01*
X231698184Y-83950852D01*
X231756008Y-83811020D01*
X231812009Y-83675637D01*
X231873553Y-83526234D01*
X231930061Y-83387832D01*
X231979839Y-83264673D01*
X232021194Y-83161002D01*
X232052432Y-83081059D01*
X232071859Y-83029088D01*
X232077846Y-83009692D01*
X232062832Y-82987443D01*
X232023561Y-82951982D01*
X231971193Y-82912887D01*
X231822059Y-82789245D01*
X231705489Y-82647522D01*
X231622882Y-82490704D01*
X231575634Y-82321775D01*
X231565143Y-82143722D01*
X231572769Y-82061539D01*
X231614318Y-81891031D01*
X231685877Y-81740459D01*
X231783005Y-81611309D01*
X231901266Y-81505064D01*
X232036220Y-81423210D01*
X232183429Y-81367232D01*
X232338456Y-81338615D01*
X232496861Y-81338844D01*
X232654206Y-81369405D01*
X232806054Y-81431782D01*
X232947965Y-81527460D01*
X233007197Y-81581572D01*
X233120797Y-81720520D01*
X233199894Y-81872361D01*
X233245014Y-82032667D01*
X233256684Y-82197012D01*
X233235431Y-82360971D01*
X233181780Y-82520118D01*
X233096260Y-82670025D01*
X232979395Y-82806267D01*
X232848807Y-82912887D01*
X232794412Y-82953642D01*
X232755986Y-82988718D01*
X232742154Y-83009726D01*
X232749397Y-83032635D01*
X232769995Y-83087365D01*
X232802254Y-83169672D01*
X232844479Y-83275315D01*
X232894977Y-83400050D01*
X232952052Y-83539636D01*
X233008146Y-83675670D01*
X233070033Y-83825201D01*
X233127356Y-83963767D01*
X233178356Y-84087107D01*
X233221273Y-84190964D01*
X233254347Y-84271080D01*
X233275819Y-84323195D01*
X233283775Y-84342654D01*
X233302571Y-84362423D01*
X233338926Y-84362365D01*
X233397521Y-84341441D01*
X233483032Y-84298613D01*
X233483708Y-84298249D01*
X233548093Y-84265012D01*
X233600139Y-84240802D01*
X233629488Y-84230404D01*
X233630783Y-84230308D01*
X233652876Y-84240855D01*
X233701652Y-84270184D01*
X233771669Y-84314827D01*
X233857486Y-84371314D01*
X233952612Y-84435462D01*
X234049460Y-84500411D01*
X234136747Y-84556896D01*
X234208819Y-84601421D01*
X234260023Y-84630490D01*
X234284474Y-84640616D01*
X234306990Y-84627307D01*
X234352258Y-84590112D01*
X234415756Y-84533128D01*
X234492961Y-84460449D01*
X234579349Y-84376171D01*
X234607601Y-84348016D01*
X234899713Y-84055416D01*
X234677369Y-83729104D01*
X234609798Y-83628897D01*
X234550493Y-83538963D01*
X234502783Y-83464510D01*
X234469993Y-83410751D01*
X234455452Y-83382894D01*
X234455026Y-83380912D01*
X234462692Y-83354655D01*
X234483311Y-83301837D01*
X234513315Y-83231310D01*
X234534375Y-83184093D01*
X234573752Y-83093694D01*
X234610835Y-83002366D01*
X234639585Y-82925200D01*
X234647395Y-82901692D01*
X234669583Y-82838916D01*
X234691273Y-82790411D01*
X234703187Y-82772079D01*
X234729477Y-82760859D01*
X234786858Y-82744954D01*
X234867882Y-82726167D01*
X234965105Y-82706299D01*
X235008615Y-82698132D01*
X235119104Y-82677829D01*
X235225084Y-82658170D01*
X235316199Y-82641088D01*
X235382092Y-82628518D01*
X235394500Y-82626091D01*
X235497077Y-82605845D01*
X235497077Y-82178701D01*
X235496847Y-82038246D01*
X235495901Y-81931979D01*
X235493859Y-81855013D01*
X235490338Y-81802460D01*
X235484957Y-81769433D01*
X235477334Y-81751045D01*
X235467088Y-81742408D01*
X235462885Y-81740807D01*
X235437530Y-81735127D01*
X235381516Y-81723795D01*
X235302036Y-81708179D01*
X235206288Y-81689647D01*
X235101467Y-81669569D01*
X234994768Y-81649312D01*
X234893387Y-81630246D01*
X234804521Y-81613739D01*
X234735363Y-81601159D01*
X234693111Y-81593875D01*
X234683710Y-81592616D01*
X234675193Y-81575763D01*
X234656340Y-81530870D01*
X234630676Y-81466430D01*
X234620877Y-81441192D01*
X234581352Y-81343686D01*
X234534808Y-81235959D01*
X234493123Y-81145172D01*
X234462450Y-81075753D01*
X234442044Y-81018710D01*
X234435232Y-80983777D01*
X234436318Y-80979095D01*
X234450715Y-80956991D01*
X234483588Y-80907831D01*
X234531410Y-80836848D01*
X234590652Y-80749278D01*
X234657785Y-80650357D01*
X234671059Y-80630830D01*
X234748954Y-80515140D01*
X234806213Y-80427044D01*
X234845119Y-80362486D01*
X234867956Y-80317411D01*
X234877006Y-80287763D01*
X234874552Y-80269485D01*
X234874489Y-80269369D01*
X234855173Y-80245361D01*
X234812449Y-80198947D01*
X234750949Y-80134937D01*
X234675302Y-80058145D01*
X234590139Y-79973382D01*
X234580535Y-79963922D01*
X234473210Y-79859989D01*
X234390385Y-79783675D01*
X234330395Y-79733571D01*
X234291577Y-79708270D01*
X234274480Y-79705004D01*
X234249527Y-79719250D01*
X234197745Y-79752156D01*
X234124480Y-79800208D01*
X234035080Y-79859890D01*
X233934889Y-79927688D01*
X233911499Y-79943639D01*
X233579407Y-80170420D01*
X233429435Y-80102353D01*
X233338230Y-80062685D01*
X233240331Y-80022791D01*
X233156169Y-79990983D01*
X233152462Y-79989674D01*
X233086631Y-79965576D01*
X233035884Y-79945200D01*
X233011158Y-79932936D01*
X233011116Y-79932901D01*
X233003271Y-79910734D01*
X232989934Y-79856217D01*
X232972430Y-79775480D01*
X232952083Y-79674650D01*
X232930218Y-79559856D01*
X232928429Y-79550178D01*
X232906496Y-79431904D01*
X232886360Y-79324542D01*
X232869320Y-79234917D01*
X232856672Y-79169851D01*
X232849716Y-79136168D01*
X232849594Y-79135654D01*
X232845361Y-79121325D01*
X232837129Y-79110507D01*
X232819967Y-79102706D01*
X232788942Y-79097429D01*
X232739122Y-79094182D01*
X232665576Y-79092472D01*
X232563371Y-79091807D01*
X232427575Y-79091693D01*
X232410000Y-79091692D01*
X232270122Y-79091776D01*
G36*
X228164776Y-85451838D02*
G01*
X228087472Y-85502361D01*
X228050186Y-85547590D01*
X228020647Y-85629663D01*
X228018301Y-85694607D01*
X228023615Y-85781445D01*
X228223885Y-85869103D01*
X228321261Y-85913887D01*
X228384887Y-85949913D01*
X228417971Y-85981117D01*
X228423720Y-86011436D01*
X228405342Y-86044805D01*
X228385077Y-86066923D01*
X228326111Y-86102393D01*
X228261976Y-86104879D01*
X228203074Y-86077235D01*
X228159803Y-86022320D01*
X228152064Y-86002928D01*
X228114994Y-85942364D01*
X228072346Y-85916552D01*
X228013846Y-85894471D01*
X228013846Y-85978184D01*
X228019018Y-86035150D01*
X228039277Y-86083189D01*
X228081738Y-86138346D01*
X228088049Y-86145514D01*
X228135280Y-86194585D01*
X228175879Y-86220920D01*
X228226672Y-86233035D01*
X228268780Y-86237003D01*
X228344098Y-86237991D01*
X228397714Y-86225466D01*
X228431162Y-86206869D01*
X228483732Y-86165975D01*
X228520121Y-86121748D01*
X228543150Y-86066126D01*
X228555641Y-85991047D01*
X228560413Y-85888449D01*
X228560794Y-85836376D01*
X228559499Y-85773948D01*
X228441529Y-85773948D01*
X228440161Y-85807438D01*
X228436751Y-85812923D01*
X228414247Y-85805472D01*
X228365818Y-85785753D01*
X228301092Y-85757718D01*
X228287557Y-85751692D01*
X228205756Y-85710096D01*
X228160688Y-85673538D01*
X228150783Y-85639296D01*
X228174474Y-85604648D01*
X228194040Y-85589339D01*
X228264640Y-85558721D01*
X228330720Y-85563780D01*
X228386041Y-85601151D01*
X228424364Y-85667473D01*
X228436651Y-85720116D01*
X228441529Y-85773948D01*
X228559499Y-85773948D01*
X228558270Y-85714720D01*
X228548968Y-85624710D01*
X228530540Y-85559167D01*
X228500640Y-85510912D01*
X228456920Y-85472767D01*
X228437859Y-85460440D01*
X228351274Y-85428336D01*
X228256478Y-85426316D01*
X228164776Y-85451838D01*
G37*
X228164776Y-85451838D02*
X228087472Y-85502361D01*
X228050186Y-85547590D01*
X228020647Y-85629663D01*
X228018301Y-85694607D01*
X228023615Y-85781445D01*
X228223885Y-85869103D01*
X228321261Y-85913887D01*
X228384887Y-85949913D01*
X228417971Y-85981117D01*
X228423720Y-86011436D01*
X228405342Y-86044805D01*
X228385077Y-86066923D01*
X228326111Y-86102393D01*
X228261976Y-86104879D01*
X228203074Y-86077235D01*
X228159803Y-86022320D01*
X228152064Y-86002928D01*
X228114994Y-85942364D01*
X228072346Y-85916552D01*
X228013846Y-85894471D01*
X228013846Y-85978184D01*
X228019018Y-86035150D01*
X228039277Y-86083189D01*
X228081738Y-86138346D01*
X228088049Y-86145514D01*
X228135280Y-86194585D01*
X228175879Y-86220920D01*
X228226672Y-86233035D01*
X228268780Y-86237003D01*
X228344098Y-86237991D01*
X228397714Y-86225466D01*
X228431162Y-86206869D01*
X228483732Y-86165975D01*
X228520121Y-86121748D01*
X228543150Y-86066126D01*
X228555641Y-85991047D01*
X228560413Y-85888449D01*
X228560794Y-85836376D01*
X228559499Y-85773948D01*
X228441529Y-85773948D01*
X228440161Y-85807438D01*
X228436751Y-85812923D01*
X228414247Y-85805472D01*
X228365818Y-85785753D01*
X228301092Y-85757718D01*
X228287557Y-85751692D01*
X228205756Y-85710096D01*
X228160688Y-85673538D01*
X228150783Y-85639296D01*
X228174474Y-85604648D01*
X228194040Y-85589339D01*
X228264640Y-85558721D01*
X228330720Y-85563780D01*
X228386041Y-85601151D01*
X228424364Y-85667473D01*
X228436651Y-85720116D01*
X228441529Y-85773948D01*
X228559499Y-85773948D01*
X228558270Y-85714720D01*
X228548968Y-85624710D01*
X228530540Y-85559167D01*
X228500640Y-85510912D01*
X228456920Y-85472767D01*
X228437859Y-85460440D01*
X228351274Y-85428336D01*
X228256478Y-85426316D01*
X228164776Y-85451838D01*
G36*
X228839193Y-85440782D02*
G01*
X228815839Y-85450988D01*
X228760098Y-85495134D01*
X228712431Y-85558967D01*
X228682952Y-85627087D01*
X228678154Y-85660670D01*
X228694240Y-85707556D01*
X228729525Y-85732365D01*
X228767356Y-85747387D01*
X228784679Y-85750155D01*
X228793114Y-85730066D01*
X228809770Y-85686351D01*
X228817077Y-85666598D01*
X228858052Y-85598271D01*
X228917378Y-85564191D01*
X228993448Y-85565239D01*
X228999082Y-85566581D01*
X229039695Y-85585836D01*
X229069552Y-85623375D01*
X229089945Y-85683809D01*
X229102164Y-85771751D01*
X229107500Y-85891813D01*
X229108000Y-85955698D01*
X229108248Y-86056403D01*
X229109874Y-86125054D01*
X229114199Y-86168673D01*
X229122546Y-86194282D01*
X229136235Y-86208903D01*
X229156589Y-86219558D01*
X229157766Y-86220095D01*
X229196962Y-86236667D01*
X229216381Y-86242769D01*
X229219365Y-86224319D01*
X229221919Y-86173323D01*
X229223860Y-86096308D01*
X229225003Y-85999805D01*
X229225231Y-85929184D01*
X229224068Y-85792525D01*
X229219521Y-85688851D01*
X229210001Y-85612108D01*
X229193919Y-85556246D01*
X229169687Y-85515212D01*
X229135714Y-85482954D01*
X229102167Y-85460440D01*
X229021501Y-85430476D01*
X228927619Y-85423718D01*
X228839193Y-85440782D01*
G37*
X228839193Y-85440782D02*
X228815839Y-85450988D01*
X228760098Y-85495134D01*
X228712431Y-85558967D01*
X228682952Y-85627087D01*
X228678154Y-85660670D01*
X228694240Y-85707556D01*
X228729525Y-85732365D01*
X228767356Y-85747387D01*
X228784679Y-85750155D01*
X228793114Y-85730066D01*
X228809770Y-85686351D01*
X228817077Y-85666598D01*
X228858052Y-85598271D01*
X228917378Y-85564191D01*
X228993448Y-85565239D01*
X228999082Y-85566581D01*
X229039695Y-85585836D01*
X229069552Y-85623375D01*
X229089945Y-85683809D01*
X229102164Y-85771751D01*
X229107500Y-85891813D01*
X229108000Y-85955698D01*
X229108248Y-86056403D01*
X229109874Y-86125054D01*
X229114199Y-86168673D01*
X229122546Y-86194282D01*
X229136235Y-86208903D01*
X229156589Y-86219558D01*
X229157766Y-86220095D01*
X229196962Y-86236667D01*
X229216381Y-86242769D01*
X229219365Y-86224319D01*
X229221919Y-86173323D01*
X229223860Y-86096308D01*
X229225003Y-85999805D01*
X229225231Y-85929184D01*
X229224068Y-85792525D01*
X229219521Y-85688851D01*
X229210001Y-85612108D01*
X229193919Y-85556246D01*
X229169687Y-85515212D01*
X229135714Y-85482954D01*
X229102167Y-85460440D01*
X229021501Y-85430476D01*
X228927619Y-85423718D01*
X228839193Y-85440782D01*
G36*
X229522667Y-85437528D02*
G01*
X229466410Y-85463117D01*
X229422253Y-85494124D01*
X229389899Y-85528795D01*
X229367562Y-85573520D01*
X229353454Y-85634692D01*
X229345789Y-85718701D01*
X229342780Y-85831940D01*
X229342462Y-85906509D01*
X229342462Y-86197420D01*
X229392227Y-86220095D01*
X229431424Y-86236667D01*
X229450843Y-86242769D01*
X229454558Y-86224610D01*
X229457505Y-86175648D01*
X229459309Y-86104153D01*
X229459692Y-86047385D01*
X229461339Y-85965371D01*
X229465778Y-85900309D01*
X229472260Y-85860467D01*
X229477410Y-85852000D01*
X229512023Y-85860646D01*
X229566360Y-85882823D01*
X229629278Y-85912886D01*
X229689632Y-85945192D01*
X229736279Y-85974098D01*
X229758074Y-85993961D01*
X229758161Y-85994175D01*
X229756286Y-86030935D01*
X229739475Y-86066026D01*
X229709961Y-86094528D01*
X229666884Y-86104061D01*
X229630068Y-86102950D01*
X229577926Y-86102133D01*
X229550556Y-86114349D01*
X229534118Y-86146624D01*
X229532045Y-86152710D01*
X229524919Y-86198739D01*
X229543976Y-86226687D01*
X229593647Y-86240007D01*
X229647303Y-86242470D01*
X229743858Y-86224210D01*
X229793841Y-86198131D01*
X229855571Y-86136868D01*
X229888310Y-86061670D01*
X229891247Y-85982211D01*
X229863576Y-85908167D01*
X229821953Y-85861769D01*
X229780396Y-85835793D01*
X229715078Y-85802907D01*
X229638962Y-85769557D01*
X229626274Y-85764461D01*
X229542667Y-85727565D01*
X229494470Y-85695046D01*
X229478970Y-85662718D01*
X229493450Y-85626394D01*
X229518308Y-85598000D01*
X229577061Y-85563039D01*
X229641707Y-85560417D01*
X229700992Y-85587358D01*
X229743661Y-85641088D01*
X229749261Y-85654950D01*
X229781867Y-85705936D01*
X229829470Y-85743787D01*
X229889539Y-85774850D01*
X229889539Y-85686768D01*
X229886003Y-85632951D01*
X229870844Y-85590534D01*
X229837232Y-85545279D01*
X229804965Y-85510420D01*
X229754791Y-85461062D01*
X229715807Y-85434547D01*
X229673936Y-85423911D01*
X229626540Y-85422154D01*
X229522667Y-85437528D01*
G37*
X229522667Y-85437528D02*
X229466410Y-85463117D01*
X229422253Y-85494124D01*
X229389899Y-85528795D01*
X229367562Y-85573520D01*
X229353454Y-85634692D01*
X229345789Y-85718701D01*
X229342780Y-85831940D01*
X229342462Y-85906509D01*
X229342462Y-86197420D01*
X229392227Y-86220095D01*
X229431424Y-86236667D01*
X229450843Y-86242769D01*
X229454558Y-86224610D01*
X229457505Y-86175648D01*
X229459309Y-86104153D01*
X229459692Y-86047385D01*
X229461339Y-85965371D01*
X229465778Y-85900309D01*
X229472260Y-85860467D01*
X229477410Y-85852000D01*
X229512023Y-85860646D01*
X229566360Y-85882823D01*
X229629278Y-85912886D01*
X229689632Y-85945192D01*
X229736279Y-85974098D01*
X229758074Y-85993961D01*
X229758161Y-85994175D01*
X229756286Y-86030935D01*
X229739475Y-86066026D01*
X229709961Y-86094528D01*
X229666884Y-86104061D01*
X229630068Y-86102950D01*
X229577926Y-86102133D01*
X229550556Y-86114349D01*
X229534118Y-86146624D01*
X229532045Y-86152710D01*
X229524919Y-86198739D01*
X229543976Y-86226687D01*
X229593647Y-86240007D01*
X229647303Y-86242470D01*
X229743858Y-86224210D01*
X229793841Y-86198131D01*
X229855571Y-86136868D01*
X229888310Y-86061670D01*
X229891247Y-85982211D01*
X229863576Y-85908167D01*
X229821953Y-85861769D01*
X229780396Y-85835793D01*
X229715078Y-85802907D01*
X229638962Y-85769557D01*
X229626274Y-85764461D01*
X229542667Y-85727565D01*
X229494470Y-85695046D01*
X229478970Y-85662718D01*
X229493450Y-85626394D01*
X229518308Y-85598000D01*
X229577061Y-85563039D01*
X229641707Y-85560417D01*
X229700992Y-85587358D01*
X229743661Y-85641088D01*
X229749261Y-85654950D01*
X229781867Y-85705936D01*
X229829470Y-85743787D01*
X229889539Y-85774850D01*
X229889539Y-85686768D01*
X229886003Y-85632951D01*
X229870844Y-85590534D01*
X229837232Y-85545279D01*
X229804965Y-85510420D01*
X229754791Y-85461062D01*
X229715807Y-85434547D01*
X229673936Y-85423911D01*
X229626540Y-85422154D01*
X229522667Y-85437528D01*
G36*
X230014071Y-85440662D02*
G01*
X230011089Y-85492068D01*
X230008753Y-85570192D01*
X230007251Y-85668857D01*
X230006769Y-85772343D01*
X230006769Y-86122533D01*
X230068599Y-86184363D01*
X230111207Y-86222462D01*
X230148610Y-86237895D01*
X230199730Y-86236918D01*
X230220022Y-86234433D01*
X230283446Y-86227200D01*
X230335905Y-86223055D01*
X230348692Y-86222672D01*
X230391801Y-86225176D01*
X230453456Y-86231462D01*
X230477362Y-86234433D01*
X230536078Y-86239028D01*
X230575536Y-86229046D01*
X230614662Y-86198228D01*
X230628785Y-86184363D01*
X230690615Y-86122533D01*
X230690615Y-85467503D01*
X230640850Y-85444829D01*
X230597998Y-85428034D01*
X230572927Y-85422154D01*
X230566499Y-85440736D01*
X230560491Y-85492655D01*
X230555303Y-85572172D01*
X230551336Y-85673546D01*
X230549423Y-85759192D01*
X230544077Y-86096231D01*
X230497440Y-86102825D01*
X230455024Y-86098214D01*
X230434240Y-86083287D01*
X230428430Y-86055377D01*
X230423470Y-85995925D01*
X230419754Y-85912466D01*
X230417676Y-85812532D01*
X230417376Y-85761104D01*
X230417077Y-85465054D01*
X230355546Y-85443604D01*
X230311996Y-85429020D01*
X230288306Y-85422219D01*
X230287623Y-85422154D01*
X230285246Y-85440642D01*
X230282634Y-85491906D01*
X230280005Y-85569649D01*
X230277579Y-85667574D01*
X230275885Y-85759192D01*
X230270539Y-86096231D01*
X230153308Y-86096231D01*
X230147928Y-85788746D01*
X230142549Y-85481261D01*
X230085399Y-85451707D01*
X230043203Y-85431413D01*
X230018230Y-85422204D01*
X230017509Y-85422154D01*
X230014071Y-85440662D01*
G37*
X230014071Y-85440662D02*
X230011089Y-85492068D01*
X230008753Y-85570192D01*
X230007251Y-85668857D01*
X230006769Y-85772343D01*
X230006769Y-86122533D01*
X230068599Y-86184363D01*
X230111207Y-86222462D01*
X230148610Y-86237895D01*
X230199730Y-86236918D01*
X230220022Y-86234433D01*
X230283446Y-86227200D01*
X230335905Y-86223055D01*
X230348692Y-86222672D01*
X230391801Y-86225176D01*
X230453456Y-86231462D01*
X230477362Y-86234433D01*
X230536078Y-86239028D01*
X230575536Y-86229046D01*
X230614662Y-86198228D01*
X230628785Y-86184363D01*
X230690615Y-86122533D01*
X230690615Y-85467503D01*
X230640850Y-85444829D01*
X230597998Y-85428034D01*
X230572927Y-85422154D01*
X230566499Y-85440736D01*
X230560491Y-85492655D01*
X230555303Y-85572172D01*
X230551336Y-85673546D01*
X230549423Y-85759192D01*
X230544077Y-86096231D01*
X230497440Y-86102825D01*
X230455024Y-86098214D01*
X230434240Y-86083287D01*
X230428430Y-86055377D01*
X230423470Y-85995925D01*
X230419754Y-85912466D01*
X230417676Y-85812532D01*
X230417376Y-85761104D01*
X230417077Y-85465054D01*
X230355546Y-85443604D01*
X230311996Y-85429020D01*
X230288306Y-85422219D01*
X230287623Y-85422154D01*
X230285246Y-85440642D01*
X230282634Y-85491906D01*
X230280005Y-85569649D01*
X230277579Y-85667574D01*
X230275885Y-85759192D01*
X230270539Y-86096231D01*
X230153308Y-86096231D01*
X230147928Y-85788746D01*
X230142549Y-85481261D01*
X230085399Y-85451707D01*
X230043203Y-85431413D01*
X230018230Y-85422204D01*
X230017509Y-85422154D01*
X230014071Y-85440662D01*
G36*
X230807919Y-85584289D02*
G01*
X230808167Y-85730320D01*
X230809128Y-85842655D01*
X230811206Y-85926678D01*
X230814807Y-85987769D01*
X230820335Y-86031309D01*
X230828196Y-86062679D01*
X230838793Y-86087262D01*
X230846818Y-86101294D01*
X230913272Y-86177388D01*
X230997530Y-86225084D01*
X231090751Y-86242199D01*
X231184100Y-86226546D01*
X231239688Y-86198418D01*
X231298043Y-86149760D01*
X231337814Y-86090333D01*
X231361810Y-86012507D01*
X231372839Y-85908652D01*
X231374401Y-85832462D01*
X231374191Y-85826986D01*
X231237692Y-85826986D01*
X231236859Y-85914355D01*
X231233039Y-85972192D01*
X231224254Y-86010029D01*
X231208526Y-86037398D01*
X231189734Y-86058042D01*
X231126625Y-86097890D01*
X231058863Y-86101295D01*
X230994821Y-86068025D01*
X230989836Y-86063517D01*
X230968561Y-86040067D01*
X230955221Y-86012166D01*
X230947999Y-85970641D01*
X230945077Y-85906316D01*
X230944615Y-85835200D01*
X230945617Y-85745858D01*
X230949762Y-85686258D01*
X230958764Y-85647089D01*
X230974333Y-85619040D01*
X230987098Y-85604144D01*
X231046400Y-85566575D01*
X231114699Y-85562057D01*
X231179890Y-85590753D01*
X231192472Y-85601406D01*
X231213889Y-85625063D01*
X231227256Y-85653251D01*
X231234434Y-85695245D01*
X231237281Y-85760319D01*
X231237692Y-85826986D01*
X231374191Y-85826986D01*
X231369678Y-85709765D01*
X231353638Y-85617577D01*
X231323472Y-85548269D01*
X231276371Y-85494211D01*
X231239688Y-85466505D01*
X231173010Y-85436572D01*
X231095728Y-85422678D01*
X231023890Y-85426397D01*
X230983692Y-85441400D01*
X230967918Y-85445670D01*
X230957450Y-85429750D01*
X230950144Y-85387089D01*
X230944615Y-85322106D01*
X230938563Y-85249732D01*
X230930156Y-85206187D01*
X230914859Y-85181287D01*
X230888136Y-85164845D01*
X230871346Y-85157564D01*
X230807846Y-85130963D01*
X230807919Y-85584289D01*
G37*
X230807919Y-85584289D02*
X230808167Y-85730320D01*
X230809128Y-85842655D01*
X230811206Y-85926678D01*
X230814807Y-85987769D01*
X230820335Y-86031309D01*
X230828196Y-86062679D01*
X230838793Y-86087262D01*
X230846818Y-86101294D01*
X230913272Y-86177388D01*
X230997530Y-86225084D01*
X231090751Y-86242199D01*
X231184100Y-86226546D01*
X231239688Y-86198418D01*
X231298043Y-86149760D01*
X231337814Y-86090333D01*
X231361810Y-86012507D01*
X231372839Y-85908652D01*
X231374401Y-85832462D01*
X231374191Y-85826986D01*
X231237692Y-85826986D01*
X231236859Y-85914355D01*
X231233039Y-85972192D01*
X231224254Y-86010029D01*
X231208526Y-86037398D01*
X231189734Y-86058042D01*
X231126625Y-86097890D01*
X231058863Y-86101295D01*
X230994821Y-86068025D01*
X230989836Y-86063517D01*
X230968561Y-86040067D01*
X230955221Y-86012166D01*
X230947999Y-85970641D01*
X230945077Y-85906316D01*
X230944615Y-85835200D01*
X230945617Y-85745858D01*
X230949762Y-85686258D01*
X230958764Y-85647089D01*
X230974333Y-85619040D01*
X230987098Y-85604144D01*
X231046400Y-85566575D01*
X231114699Y-85562057D01*
X231179890Y-85590753D01*
X231192472Y-85601406D01*
X231213889Y-85625063D01*
X231227256Y-85653251D01*
X231234434Y-85695245D01*
X231237281Y-85760319D01*
X231237692Y-85826986D01*
X231374191Y-85826986D01*
X231369678Y-85709765D01*
X231353638Y-85617577D01*
X231323472Y-85548269D01*
X231276371Y-85494211D01*
X231239688Y-85466505D01*
X231173010Y-85436572D01*
X231095728Y-85422678D01*
X231023890Y-85426397D01*
X230983692Y-85441400D01*
X230967918Y-85445670D01*
X230957450Y-85429750D01*
X230950144Y-85387089D01*
X230944615Y-85322106D01*
X230938563Y-85249732D01*
X230930156Y-85206187D01*
X230914859Y-85181287D01*
X230888136Y-85164845D01*
X230871346Y-85157564D01*
X230807846Y-85130963D01*
X230807919Y-85584289D01*
G36*
X231696638Y-85428670D02*
G01*
X231607883Y-85461421D01*
X231535978Y-85519350D01*
X231507856Y-85560128D01*
X231477198Y-85634954D01*
X231477835Y-85689058D01*
X231510013Y-85725446D01*
X231521919Y-85731633D01*
X231573325Y-85750925D01*
X231599578Y-85745982D01*
X231608470Y-85713587D01*
X231608923Y-85695692D01*
X231625203Y-85629859D01*
X231667635Y-85583807D01*
X231726612Y-85561564D01*
X231792525Y-85567161D01*
X231846105Y-85596229D01*
X231864202Y-85612810D01*
X231877029Y-85632925D01*
X231885694Y-85663332D01*
X231891304Y-85710788D01*
X231894965Y-85782050D01*
X231897785Y-85883875D01*
X231898516Y-85916115D01*
X231901180Y-86026410D01*
X231904208Y-86104036D01*
X231908750Y-86155396D01*
X231915954Y-86186890D01*
X231926967Y-86204920D01*
X231942940Y-86215888D01*
X231953166Y-86220733D01*
X231996594Y-86237301D01*
X232022158Y-86242769D01*
X232030605Y-86224507D01*
X232035761Y-86169296D01*
X232037654Y-86076499D01*
X232036311Y-85945478D01*
X232035893Y-85925269D01*
X232032942Y-85805733D01*
X232029452Y-85718449D01*
X232024486Y-85656591D01*
X232017107Y-85613336D01*
X232006376Y-85581860D01*
X231991355Y-85555339D01*
X231983498Y-85543975D01*
X231938447Y-85493692D01*
X231888060Y-85454581D01*
X231881892Y-85451167D01*
X231791542Y-85424212D01*
X231696638Y-85428670D01*
G37*
X231696638Y-85428670D02*
X231607883Y-85461421D01*
X231535978Y-85519350D01*
X231507856Y-85560128D01*
X231477198Y-85634954D01*
X231477835Y-85689058D01*
X231510013Y-85725446D01*
X231521919Y-85731633D01*
X231573325Y-85750925D01*
X231599578Y-85745982D01*
X231608470Y-85713587D01*
X231608923Y-85695692D01*
X231625203Y-85629859D01*
X231667635Y-85583807D01*
X231726612Y-85561564D01*
X231792525Y-85567161D01*
X231846105Y-85596229D01*
X231864202Y-85612810D01*
X231877029Y-85632925D01*
X231885694Y-85663332D01*
X231891304Y-85710788D01*
X231894965Y-85782050D01*
X231897785Y-85883875D01*
X231898516Y-85916115D01*
X231901180Y-86026410D01*
X231904208Y-86104036D01*
X231908750Y-86155396D01*
X231915954Y-86186890D01*
X231926967Y-86204920D01*
X231942940Y-86215888D01*
X231953166Y-86220733D01*
X231996594Y-86237301D01*
X232022158Y-86242769D01*
X232030605Y-86224507D01*
X232035761Y-86169296D01*
X232037654Y-86076499D01*
X232036311Y-85945478D01*
X232035893Y-85925269D01*
X232032942Y-85805733D01*
X232029452Y-85718449D01*
X232024486Y-85656591D01*
X232017107Y-85613336D01*
X232006376Y-85581860D01*
X231991355Y-85555339D01*
X231983498Y-85543975D01*
X231938447Y-85493692D01*
X231888060Y-85454581D01*
X231881892Y-85451167D01*
X231791542Y-85424212D01*
X231696638Y-85428670D01*
G36*
X232356499Y-85430303D02*
G01*
X232279940Y-85458733D01*
X232279064Y-85459279D01*
X232231715Y-85494127D01*
X232196759Y-85534852D01*
X232172175Y-85587925D01*
X232155938Y-85659814D01*
X232146025Y-85756992D01*
X232140414Y-85885928D01*
X232139923Y-85904298D01*
X232132859Y-86181287D01*
X232192305Y-86212028D01*
X232235319Y-86232802D01*
X232261290Y-86242646D01*
X232262491Y-86242769D01*
X232266986Y-86224606D01*
X232270556Y-86175612D01*
X232272752Y-86104031D01*
X232273231Y-86046068D01*
X232273242Y-85952170D01*
X232277534Y-85893203D01*
X232292497Y-85865079D01*
X232324518Y-85863706D01*
X232379986Y-85884998D01*
X232463731Y-85924136D01*
X232525311Y-85956643D01*
X232556983Y-85984845D01*
X232566294Y-86015582D01*
X232566308Y-86017104D01*
X232550943Y-86070054D01*
X232505453Y-86098660D01*
X232435834Y-86102803D01*
X232385687Y-86102084D01*
X232359246Y-86116527D01*
X232342757Y-86151218D01*
X232333267Y-86195416D01*
X232346943Y-86220493D01*
X232352093Y-86224082D01*
X232400575Y-86238496D01*
X232468469Y-86240537D01*
X232538388Y-86230983D01*
X232587932Y-86213522D01*
X232656430Y-86155364D01*
X232695366Y-86074408D01*
X232703077Y-86011160D01*
X232697193Y-85954111D01*
X232675899Y-85907542D01*
X232633735Y-85866181D01*
X232565241Y-85824755D01*
X232464956Y-85777993D01*
X232458846Y-85775350D01*
X232368510Y-85733617D01*
X232312765Y-85699391D01*
X232288871Y-85668635D01*
X232294087Y-85637311D01*
X232325672Y-85601383D01*
X232335117Y-85593116D01*
X232398383Y-85561058D01*
X232463936Y-85562407D01*
X232521028Y-85593838D01*
X232558907Y-85652024D01*
X232562426Y-85663446D01*
X232596700Y-85718837D01*
X232640191Y-85745518D01*
X232703077Y-85771960D01*
X232703077Y-85703548D01*
X232683948Y-85604110D01*
X232627169Y-85512902D01*
X232597622Y-85482389D01*
X232530458Y-85443228D01*
X232445044Y-85425500D01*
X232356499Y-85430303D01*
G37*
X232356499Y-85430303D02*
X232279940Y-85458733D01*
X232279064Y-85459279D01*
X232231715Y-85494127D01*
X232196759Y-85534852D01*
X232172175Y-85587925D01*
X232155938Y-85659814D01*
X232146025Y-85756992D01*
X232140414Y-85885928D01*
X232139923Y-85904298D01*
X232132859Y-86181287D01*
X232192305Y-86212028D01*
X232235319Y-86232802D01*
X232261290Y-86242646D01*
X232262491Y-86242769D01*
X232266986Y-86224606D01*
X232270556Y-86175612D01*
X232272752Y-86104031D01*
X232273231Y-86046068D01*
X232273242Y-85952170D01*
X232277534Y-85893203D01*
X232292497Y-85865079D01*
X232324518Y-85863706D01*
X232379986Y-85884998D01*
X232463731Y-85924136D01*
X232525311Y-85956643D01*
X232556983Y-85984845D01*
X232566294Y-86015582D01*
X232566308Y-86017104D01*
X232550943Y-86070054D01*
X232505453Y-86098660D01*
X232435834Y-86102803D01*
X232385687Y-86102084D01*
X232359246Y-86116527D01*
X232342757Y-86151218D01*
X232333267Y-86195416D01*
X232346943Y-86220493D01*
X232352093Y-86224082D01*
X232400575Y-86238496D01*
X232468469Y-86240537D01*
X232538388Y-86230983D01*
X232587932Y-86213522D01*
X232656430Y-86155364D01*
X232695366Y-86074408D01*
X232703077Y-86011160D01*
X232697193Y-85954111D01*
X232675899Y-85907542D01*
X232633735Y-85866181D01*
X232565241Y-85824755D01*
X232464956Y-85777993D01*
X232458846Y-85775350D01*
X232368510Y-85733617D01*
X232312765Y-85699391D01*
X232288871Y-85668635D01*
X232294087Y-85637311D01*
X232325672Y-85601383D01*
X232335117Y-85593116D01*
X232398383Y-85561058D01*
X232463936Y-85562407D01*
X232521028Y-85593838D01*
X232558907Y-85652024D01*
X232562426Y-85663446D01*
X232596700Y-85718837D01*
X232640191Y-85745518D01*
X232703077Y-85771960D01*
X232703077Y-85703548D01*
X232683948Y-85604110D01*
X232627169Y-85512902D01*
X232597622Y-85482389D01*
X232530458Y-85443228D01*
X232445044Y-85425500D01*
X232356499Y-85430303D01*
G36*
X233250154Y-85296120D02*
G01*
X233244428Y-85375980D01*
X233237851Y-85423039D01*
X233228738Y-85443566D01*
X233215402Y-85443829D01*
X233211077Y-85441378D01*
X233153556Y-85423636D01*
X233078732Y-85424672D01*
X233002661Y-85442910D01*
X232955082Y-85466505D01*
X232906298Y-85504198D01*
X232870636Y-85546855D01*
X232846155Y-85601057D01*
X232830913Y-85673384D01*
X232822970Y-85770419D01*
X232820384Y-85898742D01*
X232820338Y-85923358D01*
X232820308Y-86199870D01*
X232881839Y-86221320D01*
X232925541Y-86235912D01*
X232949518Y-86242706D01*
X232950223Y-86242769D01*
X232952585Y-86224345D01*
X232954594Y-86173526D01*
X232956099Y-86096993D01*
X232956947Y-86001430D01*
X232957077Y-85943329D01*
X232957349Y-85828771D01*
X232958748Y-85746667D01*
X232962151Y-85690393D01*
X232968433Y-85653326D01*
X232978471Y-85628844D01*
X232993139Y-85610325D01*
X233002298Y-85601406D01*
X233065211Y-85565466D01*
X233133864Y-85562775D01*
X233196152Y-85593170D01*
X233207671Y-85604144D01*
X233224567Y-85624779D01*
X233236286Y-85649256D01*
X233243767Y-85684647D01*
X233247946Y-85738026D01*
X233249763Y-85816466D01*
X233250154Y-85924617D01*
X233250154Y-86199870D01*
X233311685Y-86221320D01*
X233355387Y-86235912D01*
X233379364Y-86242706D01*
X233380070Y-86242769D01*
X233381874Y-86224069D01*
X233383500Y-86171322D01*
X233384883Y-86089557D01*
X233385958Y-85983805D01*
X233386660Y-85859094D01*
X233386923Y-85720455D01*
X233386923Y-85185806D01*
X233259923Y-85132236D01*
X233250154Y-85296120D01*
G37*
X233250154Y-85296120D02*
X233244428Y-85375980D01*
X233237851Y-85423039D01*
X233228738Y-85443566D01*
X233215402Y-85443829D01*
X233211077Y-85441378D01*
X233153556Y-85423636D01*
X233078732Y-85424672D01*
X233002661Y-85442910D01*
X232955082Y-85466505D01*
X232906298Y-85504198D01*
X232870636Y-85546855D01*
X232846155Y-85601057D01*
X232830913Y-85673384D01*
X232822970Y-85770419D01*
X232820384Y-85898742D01*
X232820338Y-85923358D01*
X232820308Y-86199870D01*
X232881839Y-86221320D01*
X232925541Y-86235912D01*
X232949518Y-86242706D01*
X232950223Y-86242769D01*
X232952585Y-86224345D01*
X232954594Y-86173526D01*
X232956099Y-86096993D01*
X232956947Y-86001430D01*
X232957077Y-85943329D01*
X232957349Y-85828771D01*
X232958748Y-85746667D01*
X232962151Y-85690393D01*
X232968433Y-85653326D01*
X232978471Y-85628844D01*
X232993139Y-85610325D01*
X233002298Y-85601406D01*
X233065211Y-85565466D01*
X233133864Y-85562775D01*
X233196152Y-85593170D01*
X233207671Y-85604144D01*
X233224567Y-85624779D01*
X233236286Y-85649256D01*
X233243767Y-85684647D01*
X233247946Y-85738026D01*
X233249763Y-85816466D01*
X233250154Y-85924617D01*
X233250154Y-86199870D01*
X233311685Y-86221320D01*
X233355387Y-86235912D01*
X233379364Y-86242706D01*
X233380070Y-86242769D01*
X233381874Y-86224069D01*
X233383500Y-86171322D01*
X233384883Y-86089557D01*
X233385958Y-85983805D01*
X233386660Y-85859094D01*
X233386923Y-85720455D01*
X233386923Y-85185806D01*
X233259923Y-85132236D01*
X233250154Y-85296120D01*
G36*
X234875746Y-85403745D02*
G01*
X234798714Y-85455567D01*
X234739184Y-85530412D01*
X234703622Y-85625654D01*
X234696429Y-85695756D01*
X234697246Y-85725009D01*
X234704086Y-85747407D01*
X234722888Y-85767474D01*
X234759592Y-85789733D01*
X234820138Y-85818709D01*
X234910466Y-85858927D01*
X234910923Y-85859129D01*
X234994067Y-85897210D01*
X235062247Y-85931025D01*
X235108495Y-85956933D01*
X235125842Y-85971295D01*
X235125846Y-85971411D01*
X235110557Y-86002685D01*
X235074804Y-86037157D01*
X235033758Y-86061990D01*
X235012963Y-86066923D01*
X234956230Y-86049862D01*
X234907373Y-86007133D01*
X234883535Y-85960155D01*
X234860603Y-85925522D01*
X234815682Y-85886081D01*
X234762877Y-85852009D01*
X234716290Y-85833480D01*
X234706548Y-85832462D01*
X234695582Y-85849215D01*
X234694921Y-85892039D01*
X234702980Y-85949781D01*
X234718173Y-86011289D01*
X234738914Y-86065409D01*
X234739962Y-86067510D01*
X234802379Y-86154660D01*
X234883274Y-86213939D01*
X234975144Y-86243034D01*
X235070487Y-86239634D01*
X235161802Y-86201428D01*
X235165862Y-86198741D01*
X235237694Y-86133642D01*
X235284927Y-86048705D01*
X235311066Y-85937021D01*
X235314574Y-85905643D01*
X235320787Y-85757536D01*
X235313339Y-85688468D01*
X235125846Y-85688468D01*
X235123410Y-85731552D01*
X235110086Y-85744126D01*
X235076868Y-85734719D01*
X235024506Y-85712483D01*
X234965976Y-85684610D01*
X234964521Y-85683872D01*
X234914911Y-85657777D01*
X234895000Y-85640363D01*
X234899910Y-85622107D01*
X234920584Y-85598120D01*
X234973181Y-85563406D01*
X235029823Y-85560856D01*
X235080631Y-85586119D01*
X235115724Y-85634847D01*
X235125846Y-85688468D01*
X235313339Y-85688468D01*
X235308008Y-85639036D01*
X235275222Y-85545055D01*
X235229579Y-85479215D01*
X235147198Y-85412681D01*
X235056454Y-85379676D01*
X234963815Y-85377573D01*
X234875746Y-85403745D01*
G37*
X234875746Y-85403745D02*
X234798714Y-85455567D01*
X234739184Y-85530412D01*
X234703622Y-85625654D01*
X234696429Y-85695756D01*
X234697246Y-85725009D01*
X234704086Y-85747407D01*
X234722888Y-85767474D01*
X234759592Y-85789733D01*
X234820138Y-85818709D01*
X234910466Y-85858927D01*
X234910923Y-85859129D01*
X234994067Y-85897210D01*
X235062247Y-85931025D01*
X235108495Y-85956933D01*
X235125842Y-85971295D01*
X235125846Y-85971411D01*
X235110557Y-86002685D01*
X235074804Y-86037157D01*
X235033758Y-86061990D01*
X235012963Y-86066923D01*
X234956230Y-86049862D01*
X234907373Y-86007133D01*
X234883535Y-85960155D01*
X234860603Y-85925522D01*
X234815682Y-85886081D01*
X234762877Y-85852009D01*
X234716290Y-85833480D01*
X234706548Y-85832462D01*
X234695582Y-85849215D01*
X234694921Y-85892039D01*
X234702980Y-85949781D01*
X234718173Y-86011289D01*
X234738914Y-86065409D01*
X234739962Y-86067510D01*
X234802379Y-86154660D01*
X234883274Y-86213939D01*
X234975144Y-86243034D01*
X235070487Y-86239634D01*
X235161802Y-86201428D01*
X235165862Y-86198741D01*
X235237694Y-86133642D01*
X235284927Y-86048705D01*
X235311066Y-85937021D01*
X235314574Y-85905643D01*
X235320787Y-85757536D01*
X235313339Y-85688468D01*
X235125846Y-85688468D01*
X235123410Y-85731552D01*
X235110086Y-85744126D01*
X235076868Y-85734719D01*
X235024506Y-85712483D01*
X234965976Y-85684610D01*
X234964521Y-85683872D01*
X234914911Y-85657777D01*
X234895000Y-85640363D01*
X234899910Y-85622107D01*
X234920584Y-85598120D01*
X234973181Y-85563406D01*
X235029823Y-85560856D01*
X235080631Y-85586119D01*
X235115724Y-85634847D01*
X235125846Y-85688468D01*
X235313339Y-85688468D01*
X235308008Y-85639036D01*
X235275222Y-85545055D01*
X235229579Y-85479215D01*
X235147198Y-85412681D01*
X235056454Y-85379676D01*
X234963815Y-85377573D01*
X234875746Y-85403745D01*
G36*
X236393114Y-85391256D02*
G01*
X236301536Y-85439409D01*
X236233951Y-85516905D01*
X236209943Y-85566727D01*
X236191262Y-85641533D01*
X236181699Y-85736052D01*
X236180792Y-85839210D01*
X236188079Y-85939935D01*
X236203097Y-86027153D01*
X236225385Y-86089791D01*
X236232235Y-86100579D01*
X236313368Y-86181105D01*
X236409734Y-86229336D01*
X236514299Y-86243450D01*
X236620032Y-86221629D01*
X236649457Y-86208547D01*
X236706759Y-86168231D01*
X236757050Y-86114775D01*
X236761803Y-86107995D01*
X236781122Y-86075321D01*
X236793892Y-86040394D01*
X236801436Y-85994414D01*
X236805076Y-85928584D01*
X236806135Y-85834105D01*
X236806154Y-85812923D01*
X236806106Y-85806182D01*
X236610769Y-85806182D01*
X236609632Y-85895349D01*
X236605159Y-85954520D01*
X236595754Y-85992741D01*
X236579824Y-86019053D01*
X236571692Y-86027846D01*
X236524942Y-86061261D01*
X236479553Y-86059737D01*
X236433660Y-86030752D01*
X236406288Y-85999809D01*
X236390077Y-85954643D01*
X236380974Y-85883420D01*
X236380349Y-85875114D01*
X236378796Y-85746037D01*
X236395035Y-85650172D01*
X236428848Y-85588107D01*
X236480016Y-85560432D01*
X236498280Y-85558923D01*
X236546240Y-85566513D01*
X236579047Y-85592808D01*
X236599105Y-85643095D01*
X236608822Y-85722664D01*
X236610769Y-85806182D01*
X236806106Y-85806182D01*
X236805426Y-85712249D01*
X236802371Y-85641906D01*
X236795678Y-85593163D01*
X236784040Y-85557288D01*
X236766147Y-85525548D01*
X236762192Y-85519648D01*
X236695733Y-85440104D01*
X236623315Y-85393929D01*
X236535151Y-85375599D01*
X236505213Y-85374703D01*
X236393114Y-85391256D01*
G37*
X236393114Y-85391256D02*
X236301536Y-85439409D01*
X236233951Y-85516905D01*
X236209943Y-85566727D01*
X236191262Y-85641533D01*
X236181699Y-85736052D01*
X236180792Y-85839210D01*
X236188079Y-85939935D01*
X236203097Y-86027153D01*
X236225385Y-86089791D01*
X236232235Y-86100579D01*
X236313368Y-86181105D01*
X236409734Y-86229336D01*
X236514299Y-86243450D01*
X236620032Y-86221629D01*
X236649457Y-86208547D01*
X236706759Y-86168231D01*
X236757050Y-86114775D01*
X236761803Y-86107995D01*
X236781122Y-86075321D01*
X236793892Y-86040394D01*
X236801436Y-85994414D01*
X236805076Y-85928584D01*
X236806135Y-85834105D01*
X236806154Y-85812923D01*
X236806106Y-85806182D01*
X236610769Y-85806182D01*
X236609632Y-85895349D01*
X236605159Y-85954520D01*
X236595754Y-85992741D01*
X236579824Y-86019053D01*
X236571692Y-86027846D01*
X236524942Y-86061261D01*
X236479553Y-86059737D01*
X236433660Y-86030752D01*
X236406288Y-85999809D01*
X236390077Y-85954643D01*
X236380974Y-85883420D01*
X236380349Y-85875114D01*
X236378796Y-85746037D01*
X236395035Y-85650172D01*
X236428848Y-85588107D01*
X236480016Y-85560432D01*
X236498280Y-85558923D01*
X236546240Y-85566513D01*
X236579047Y-85592808D01*
X236599105Y-85643095D01*
X236608822Y-85722664D01*
X236610769Y-85806182D01*
X236806106Y-85806182D01*
X236805426Y-85712249D01*
X236802371Y-85641906D01*
X236795678Y-85593163D01*
X236784040Y-85557288D01*
X236766147Y-85525548D01*
X236762192Y-85519648D01*
X236695733Y-85440104D01*
X236623315Y-85393929D01*
X236535151Y-85375599D01*
X236505213Y-85374703D01*
X236393114Y-85391256D01*
G36*
X234138336Y-85399089D02*
G01*
X234075633Y-85435358D01*
X234032039Y-85471358D01*
X234000155Y-85509075D01*
X233978190Y-85555199D01*
X233964351Y-85616421D01*
X233956847Y-85699431D01*
X233953883Y-85810919D01*
X233953539Y-85891062D01*
X233953539Y-86186065D01*
X234119615Y-86260515D01*
X234129385Y-85937402D01*
X234133421Y-85816729D01*
X234137656Y-85729141D01*
X234142903Y-85668650D01*
X234149975Y-85629268D01*
X234159689Y-85605007D01*
X234172856Y-85589880D01*
X234177081Y-85586606D01*
X234241091Y-85561034D01*
X234305792Y-85571153D01*
X234344308Y-85598000D01*
X234359975Y-85617024D01*
X234370820Y-85641988D01*
X234377712Y-85679834D01*
X234381521Y-85737502D01*
X234383117Y-85821935D01*
X234383385Y-85909928D01*
X234383437Y-86020323D01*
X234385328Y-86098463D01*
X234391655Y-86151165D01*
X234405017Y-86185242D01*
X234428015Y-86207511D01*
X234463246Y-86224787D01*
X234510303Y-86242738D01*
X234561697Y-86262278D01*
X234555579Y-85915485D01*
X234553116Y-85790468D01*
X234550233Y-85698082D01*
X234546102Y-85631881D01*
X234539893Y-85585420D01*
X234530774Y-85552256D01*
X234517917Y-85525944D01*
X234502416Y-85502729D01*
X234427629Y-85428569D01*
X234336372Y-85385684D01*
X234237117Y-85375412D01*
X234138336Y-85399089D01*
G37*
X234138336Y-85399089D02*
X234075633Y-85435358D01*
X234032039Y-85471358D01*
X234000155Y-85509075D01*
X233978190Y-85555199D01*
X233964351Y-85616421D01*
X233956847Y-85699431D01*
X233953883Y-85810919D01*
X233953539Y-85891062D01*
X233953539Y-86186065D01*
X234119615Y-86260515D01*
X234129385Y-85937402D01*
X234133421Y-85816729D01*
X234137656Y-85729141D01*
X234142903Y-85668650D01*
X234149975Y-85629268D01*
X234159689Y-85605007D01*
X234172856Y-85589880D01*
X234177081Y-85586606D01*
X234241091Y-85561034D01*
X234305792Y-85571153D01*
X234344308Y-85598000D01*
X234359975Y-85617024D01*
X234370820Y-85641988D01*
X234377712Y-85679834D01*
X234381521Y-85737502D01*
X234383117Y-85821935D01*
X234383385Y-85909928D01*
X234383437Y-86020323D01*
X234385328Y-86098463D01*
X234391655Y-86151165D01*
X234405017Y-86185242D01*
X234428015Y-86207511D01*
X234463246Y-86224787D01*
X234510303Y-86242738D01*
X234561697Y-86262278D01*
X234555579Y-85915485D01*
X234553116Y-85790468D01*
X234550233Y-85698082D01*
X234546102Y-85631881D01*
X234539893Y-85585420D01*
X234530774Y-85552256D01*
X234517917Y-85525944D01*
X234502416Y-85502729D01*
X234427629Y-85428569D01*
X234336372Y-85385684D01*
X234237117Y-85375412D01*
X234138336Y-85399089D01*
G36*
X235641114Y-85388505D02*
G01*
X235566461Y-85425727D01*
X235500569Y-85494261D01*
X235482423Y-85519648D01*
X235462655Y-85552866D01*
X235449828Y-85588945D01*
X235442490Y-85637098D01*
X235439187Y-85706536D01*
X235438462Y-85798206D01*
X235441737Y-85923830D01*
X235453123Y-86018154D01*
X235474959Y-86088523D01*
X235509581Y-86142286D01*
X235559330Y-86186788D01*
X235562986Y-86189423D01*
X235612015Y-86216377D01*
X235671055Y-86229712D01*
X235746141Y-86233000D01*
X235868205Y-86233000D01*
X235868256Y-86351497D01*
X235869392Y-86417492D01*
X235876314Y-86456202D01*
X235894402Y-86479419D01*
X235929038Y-86498933D01*
X235937355Y-86502920D01*
X235976280Y-86521603D01*
X236006417Y-86533403D01*
X236028826Y-86534422D01*
X236044567Y-86520761D01*
X236054698Y-86488522D01*
X236060277Y-86433804D01*
X236062365Y-86352711D01*
X236062019Y-86241344D01*
X236060300Y-86095802D01*
X236059763Y-86052269D01*
X236057828Y-85902205D01*
X236056096Y-85804042D01*
X235868308Y-85804042D01*
X235867252Y-85887364D01*
X235862562Y-85941880D01*
X235851949Y-85977837D01*
X235833128Y-86005482D01*
X235820350Y-86018965D01*
X235768110Y-86058417D01*
X235721858Y-86061628D01*
X235674133Y-86029049D01*
X235672923Y-86027846D01*
X235653506Y-86002668D01*
X235641693Y-85968447D01*
X235635735Y-85915748D01*
X235633880Y-85835131D01*
X235633846Y-85817271D01*
X235638330Y-85706175D01*
X235652926Y-85629161D01*
X235679350Y-85582147D01*
X235719317Y-85561050D01*
X235742416Y-85558923D01*
X235797238Y-85568900D01*
X235834842Y-85601752D01*
X235857477Y-85661857D01*
X235867394Y-85753598D01*
X235868308Y-85804042D01*
X236056096Y-85804042D01*
X236055778Y-85786060D01*
X236053127Y-85698679D01*
X236049394Y-85634905D01*
X236044093Y-85589582D01*
X236036742Y-85557555D01*
X236026857Y-85533668D01*
X236013954Y-85512764D01*
X236008421Y-85504898D01*
X235935031Y-85430595D01*
X235842240Y-85388467D01*
X235734904Y-85376722D01*
X235641114Y-85388505D01*
G37*
X235641114Y-85388505D02*
X235566461Y-85425727D01*
X235500569Y-85494261D01*
X235482423Y-85519648D01*
X235462655Y-85552866D01*
X235449828Y-85588945D01*
X235442490Y-85637098D01*
X235439187Y-85706536D01*
X235438462Y-85798206D01*
X235441737Y-85923830D01*
X235453123Y-86018154D01*
X235474959Y-86088523D01*
X235509581Y-86142286D01*
X235559330Y-86186788D01*
X235562986Y-86189423D01*
X235612015Y-86216377D01*
X235671055Y-86229712D01*
X235746141Y-86233000D01*
X235868205Y-86233000D01*
X235868256Y-86351497D01*
X235869392Y-86417492D01*
X235876314Y-86456202D01*
X235894402Y-86479419D01*
X235929038Y-86498933D01*
X235937355Y-86502920D01*
X235976280Y-86521603D01*
X236006417Y-86533403D01*
X236028826Y-86534422D01*
X236044567Y-86520761D01*
X236054698Y-86488522D01*
X236060277Y-86433804D01*
X236062365Y-86352711D01*
X236062019Y-86241344D01*
X236060300Y-86095802D01*
X236059763Y-86052269D01*
X236057828Y-85902205D01*
X236056096Y-85804042D01*
X235868308Y-85804042D01*
X235867252Y-85887364D01*
X235862562Y-85941880D01*
X235851949Y-85977837D01*
X235833128Y-86005482D01*
X235820350Y-86018965D01*
X235768110Y-86058417D01*
X235721858Y-86061628D01*
X235674133Y-86029049D01*
X235672923Y-86027846D01*
X235653506Y-86002668D01*
X235641693Y-85968447D01*
X235635735Y-85915748D01*
X235633880Y-85835131D01*
X235633846Y-85817271D01*
X235638330Y-85706175D01*
X235652926Y-85629161D01*
X235679350Y-85582147D01*
X235719317Y-85561050D01*
X235742416Y-85558923D01*
X235797238Y-85568900D01*
X235834842Y-85601752D01*
X235857477Y-85661857D01*
X235867394Y-85753598D01*
X235868308Y-85804042D01*
X236056096Y-85804042D01*
X236055778Y-85786060D01*
X236053127Y-85698679D01*
X236049394Y-85634905D01*
X236044093Y-85589582D01*
X236036742Y-85557555D01*
X236026857Y-85533668D01*
X236013954Y-85512764D01*
X236008421Y-85504898D01*
X235935031Y-85430595D01*
X235842240Y-85388467D01*
X235734904Y-85376722D01*
X235641114Y-85388505D01*
D13*
X238566000Y-112328000D02*
X233366000Y-112328000D01*
X238566000Y-102108000D02*
X238566000Y-112328000D01*
X233366000Y-99508000D02*
X233366000Y-112328000D01*
X238566000Y-102108000D02*
X235966000Y-102108000D01*
X235966000Y-102108000D02*
X235966000Y-99508000D01*
X235966000Y-99508000D02*
X233366000Y-99508000D01*
X238566000Y-100838000D02*
X238566000Y-99508000D01*
X238566000Y-99508000D02*
X237236000Y-99508000D01*
D14*
X245544500Y-99275500D02*
G75*
G03*
X245544500Y-99275500I-381000J0D01*
G01*
D10*
X236299333Y-97960380D02*
X236299333Y-98674666D01*
X236346952Y-98817523D01*
X236442190Y-98912761D01*
X236585047Y-98960380D01*
X236680285Y-98960380D01*
X235346952Y-97960380D02*
X235823142Y-97960380D01*
X235870761Y-98436571D01*
X235823142Y-98388952D01*
X235727904Y-98341333D01*
X235489809Y-98341333D01*
X235394571Y-98388952D01*
X235346952Y-98436571D01*
X235299333Y-98531809D01*
X235299333Y-98769904D01*
X235346952Y-98865142D01*
X235394571Y-98912761D01*
X235489809Y-98960380D01*
X235727904Y-98960380D01*
X235823142Y-98912761D01*
X235870761Y-98865142D01*
M02*
