G04 #@! TF.GenerationSoftware,KiCad,Pcbnew,5.1.10*
G04 #@! TF.CreationDate,2021-05-11T19:26:58+02:00*
G04 #@! TF.ProjectId,obd32,6f626433-322e-46b6-9963-61645f706362,rev?*
G04 #@! TF.SameCoordinates,Original*
G04 #@! TF.FileFunction,Soldermask,Bot*
G04 #@! TF.FilePolarity,Negative*
%FSLAX46Y46*%
G04 Gerber Fmt 4.6, Leading zero omitted, Abs format (unit mm)*
G04 Created by KiCad (PCBNEW 5.1.10) date 2021-05-11 19:26:58*
%MOMM*%
%LPD*%
G01*
G04 APERTURE LIST*
%ADD10C,2.250000*%
%ADD11R,2.250000X2.250000*%
%ADD12O,1.700000X1.700000*%
%ADD13R,1.700000X1.700000*%
%ADD14O,2.300000X1.000000*%
%ADD15O,0.600000X0.850000*%
%ADD16C,0.600000*%
%ADD17O,2.000000X1.000000*%
%ADD18C,0.800000*%
%ADD19C,2.970000*%
%ADD20C,1.200000*%
G04 APERTURE END LIST*
D10*
X207710000Y-66040000D03*
X211710000Y-66040000D03*
X215710000Y-66040000D03*
X219710000Y-66040000D03*
X223710000Y-66040000D03*
X227710000Y-66040000D03*
X231710000Y-66040000D03*
X235710000Y-66040000D03*
X207710000Y-63040000D03*
X211710000Y-63040000D03*
X215710000Y-63040000D03*
X219710000Y-63040000D03*
X223710000Y-63040000D03*
X227710000Y-63040000D03*
X231710000Y-63040000D03*
D11*
X235710000Y-63040000D03*
D12*
X213360000Y-93980000D03*
X215900000Y-93980000D03*
X218440000Y-93980000D03*
D13*
X220980000Y-93980000D03*
D12*
X243840000Y-93980000D03*
X241300000Y-93980000D03*
X238760000Y-93980000D03*
D13*
X236220000Y-93980000D03*
D14*
X199838500Y-98935000D03*
D15*
X202938500Y-97615000D03*
D14*
X199838500Y-90295000D03*
D16*
X202938500Y-91615000D03*
D17*
X203663500Y-90295000D03*
X203663500Y-98935000D03*
D12*
X234696000Y-110998000D03*
X237236000Y-110998000D03*
X234696000Y-108458000D03*
X237236000Y-108458000D03*
X234696000Y-105918000D03*
X237236000Y-105918000D03*
X234696000Y-103378000D03*
X237236000Y-103378000D03*
X234696000Y-100838000D03*
D13*
X237236000Y-100838000D03*
D12*
X217932000Y-85090000D03*
X220472000Y-85090000D03*
X217932000Y-82550000D03*
X220472000Y-82550000D03*
X217932000Y-80010000D03*
X220472000Y-80010000D03*
X217932000Y-77470000D03*
X220472000Y-77470000D03*
X217932000Y-74930000D03*
D13*
X220472000Y-74930000D03*
D18*
X244602000Y-82042000D03*
D19*
X205978000Y-105070000D03*
X205978000Y-110490000D03*
X202438000Y-110490000D03*
X202438000Y-105070000D03*
D20*
X199018000Y-109730000D03*
X199018000Y-108330000D03*
X199018000Y-106930000D03*
X199018000Y-105530000D03*
D18*
X244602000Y-76962000D03*
X244602000Y-71882000D03*
M02*
