G04 #@! TF.GenerationSoftware,KiCad,Pcbnew,5.1.10*
G04 #@! TF.CreationDate,2021-05-11T19:26:58+02:00*
G04 #@! TF.ProjectId,obd32,6f626433-322e-46b6-9963-61645f706362,rev?*
G04 #@! TF.SameCoordinates,Original*
G04 #@! TF.FileFunction,Paste,Top*
G04 #@! TF.FilePolarity,Positive*
%FSLAX46Y46*%
G04 Gerber Fmt 4.6, Leading zero omitted, Abs format (unit mm)*
G04 Created by KiCad (PCBNEW 5.1.10) date 2021-05-11 19:26:58*
%MOMM*%
%LPD*%
G01*
G04 APERTURE LIST*
%ADD10R,1.900000X1.300000*%
%ADD11R,2.800000X1.000000*%
%ADD12R,0.800000X1.000000*%
%ADD13R,1.200000X1.000000*%
%ADD14R,1.200000X0.700000*%
%ADD15R,2.600000X3.100000*%
%ADD16R,1.550000X0.600000*%
%ADD17C,0.100000*%
%ADD18R,0.900000X1.300000*%
%ADD19R,0.900000X0.800000*%
%ADD20R,2.500000X1.800000*%
%ADD21R,1.800000X2.500000*%
%ADD22R,2.300000X2.500000*%
%ADD23R,2.000000X1.000000*%
%ADD24R,1.000000X0.270000*%
%ADD25R,1.000000X0.520000*%
%ADD26R,1.000000X1.400000*%
%ADD27R,1.200000X1.400000*%
%ADD28R,0.254000X0.279400*%
%ADD29R,0.279400X0.254000*%
%ADD30R,1.041400X1.092200*%
%ADD31R,1.041400X2.260600*%
%ADD32R,0.900000X2.000000*%
%ADD33R,2.000000X0.900000*%
%ADD34R,5.000000X5.000000*%
%ADD35R,1.700000X0.900000*%
%ADD36R,0.650000X0.400000*%
%ADD37R,2.650000X2.750000*%
%ADD38R,0.800000X0.300000*%
%ADD39R,0.300000X0.800000*%
%ADD40R,0.600000X1.000000*%
%ADD41R,0.650000X0.350000*%
G04 APERTURE END LIST*
G36*
G01*
X210956000Y-88512000D02*
X211466000Y-88512000D01*
G75*
G02*
X211716000Y-88762000I0J-250000D01*
G01*
X211716000Y-89272000D01*
G75*
G02*
X211466000Y-89522000I-250000J0D01*
G01*
X210956000Y-89522000D01*
G75*
G02*
X210706000Y-89272000I0J250000D01*
G01*
X210706000Y-88762000D01*
G75*
G02*
X210956000Y-88512000I250000J0D01*
G01*
G37*
G36*
G01*
X212206000Y-88512000D02*
X212716000Y-88512000D01*
G75*
G02*
X212966000Y-88762000I0J-250000D01*
G01*
X212966000Y-89272000D01*
G75*
G02*
X212716000Y-89522000I-250000J0D01*
G01*
X212206000Y-89522000D01*
G75*
G02*
X211956000Y-89272000I0J250000D01*
G01*
X211956000Y-88762000D01*
G75*
G02*
X212206000Y-88512000I250000J0D01*
G01*
G37*
G36*
G01*
X210956000Y-87262000D02*
X211466000Y-87262000D01*
G75*
G02*
X211716000Y-87512000I0J-250000D01*
G01*
X211716000Y-88022000D01*
G75*
G02*
X211466000Y-88272000I-250000J0D01*
G01*
X210956000Y-88272000D01*
G75*
G02*
X210706000Y-88022000I0J250000D01*
G01*
X210706000Y-87512000D01*
G75*
G02*
X210956000Y-87262000I250000J0D01*
G01*
G37*
G36*
G01*
X212206000Y-87262000D02*
X212716000Y-87262000D01*
G75*
G02*
X212966000Y-87512000I0J-250000D01*
G01*
X212966000Y-88022000D01*
G75*
G02*
X212716000Y-88272000I-250000J0D01*
G01*
X212206000Y-88272000D01*
G75*
G02*
X211956000Y-88022000I0J250000D01*
G01*
X211956000Y-87512000D01*
G75*
G02*
X212206000Y-87262000I250000J0D01*
G01*
G37*
G36*
G01*
X213423500Y-87267000D02*
X214123500Y-87267000D01*
G75*
G02*
X214186000Y-87329500I0J-62500D01*
G01*
X214186000Y-87454500D01*
G75*
G02*
X214123500Y-87517000I-62500J0D01*
G01*
X213423500Y-87517000D01*
G75*
G02*
X213361000Y-87454500I0J62500D01*
G01*
X213361000Y-87329500D01*
G75*
G02*
X213423500Y-87267000I62500J0D01*
G01*
G37*
G36*
G01*
X213423500Y-87767000D02*
X214123500Y-87767000D01*
G75*
G02*
X214186000Y-87829500I0J-62500D01*
G01*
X214186000Y-87954500D01*
G75*
G02*
X214123500Y-88017000I-62500J0D01*
G01*
X213423500Y-88017000D01*
G75*
G02*
X213361000Y-87954500I0J62500D01*
G01*
X213361000Y-87829500D01*
G75*
G02*
X213423500Y-87767000I62500J0D01*
G01*
G37*
G36*
G01*
X213423500Y-88267000D02*
X214123500Y-88267000D01*
G75*
G02*
X214186000Y-88329500I0J-62500D01*
G01*
X214186000Y-88454500D01*
G75*
G02*
X214123500Y-88517000I-62500J0D01*
G01*
X213423500Y-88517000D01*
G75*
G02*
X213361000Y-88454500I0J62500D01*
G01*
X213361000Y-88329500D01*
G75*
G02*
X213423500Y-88267000I62500J0D01*
G01*
G37*
G36*
G01*
X213423500Y-88767000D02*
X214123500Y-88767000D01*
G75*
G02*
X214186000Y-88829500I0J-62500D01*
G01*
X214186000Y-88954500D01*
G75*
G02*
X214123500Y-89017000I-62500J0D01*
G01*
X213423500Y-89017000D01*
G75*
G02*
X213361000Y-88954500I0J62500D01*
G01*
X213361000Y-88829500D01*
G75*
G02*
X213423500Y-88767000I62500J0D01*
G01*
G37*
G36*
G01*
X213423500Y-89267000D02*
X214123500Y-89267000D01*
G75*
G02*
X214186000Y-89329500I0J-62500D01*
G01*
X214186000Y-89454500D01*
G75*
G02*
X214123500Y-89517000I-62500J0D01*
G01*
X213423500Y-89517000D01*
G75*
G02*
X213361000Y-89454500I0J62500D01*
G01*
X213361000Y-89329500D01*
G75*
G02*
X213423500Y-89267000I62500J0D01*
G01*
G37*
G36*
G01*
X212773500Y-89917000D02*
X212898500Y-89917000D01*
G75*
G02*
X212961000Y-89979500I0J-62500D01*
G01*
X212961000Y-90679500D01*
G75*
G02*
X212898500Y-90742000I-62500J0D01*
G01*
X212773500Y-90742000D01*
G75*
G02*
X212711000Y-90679500I0J62500D01*
G01*
X212711000Y-89979500D01*
G75*
G02*
X212773500Y-89917000I62500J0D01*
G01*
G37*
G36*
G01*
X212273500Y-89917000D02*
X212398500Y-89917000D01*
G75*
G02*
X212461000Y-89979500I0J-62500D01*
G01*
X212461000Y-90679500D01*
G75*
G02*
X212398500Y-90742000I-62500J0D01*
G01*
X212273500Y-90742000D01*
G75*
G02*
X212211000Y-90679500I0J62500D01*
G01*
X212211000Y-89979500D01*
G75*
G02*
X212273500Y-89917000I62500J0D01*
G01*
G37*
G36*
G01*
X211773500Y-89917000D02*
X211898500Y-89917000D01*
G75*
G02*
X211961000Y-89979500I0J-62500D01*
G01*
X211961000Y-90679500D01*
G75*
G02*
X211898500Y-90742000I-62500J0D01*
G01*
X211773500Y-90742000D01*
G75*
G02*
X211711000Y-90679500I0J62500D01*
G01*
X211711000Y-89979500D01*
G75*
G02*
X211773500Y-89917000I62500J0D01*
G01*
G37*
G36*
G01*
X211273500Y-89917000D02*
X211398500Y-89917000D01*
G75*
G02*
X211461000Y-89979500I0J-62500D01*
G01*
X211461000Y-90679500D01*
G75*
G02*
X211398500Y-90742000I-62500J0D01*
G01*
X211273500Y-90742000D01*
G75*
G02*
X211211000Y-90679500I0J62500D01*
G01*
X211211000Y-89979500D01*
G75*
G02*
X211273500Y-89917000I62500J0D01*
G01*
G37*
G36*
G01*
X210773500Y-89917000D02*
X210898500Y-89917000D01*
G75*
G02*
X210961000Y-89979500I0J-62500D01*
G01*
X210961000Y-90679500D01*
G75*
G02*
X210898500Y-90742000I-62500J0D01*
G01*
X210773500Y-90742000D01*
G75*
G02*
X210711000Y-90679500I0J62500D01*
G01*
X210711000Y-89979500D01*
G75*
G02*
X210773500Y-89917000I62500J0D01*
G01*
G37*
G36*
G01*
X209548500Y-89267000D02*
X210248500Y-89267000D01*
G75*
G02*
X210311000Y-89329500I0J-62500D01*
G01*
X210311000Y-89454500D01*
G75*
G02*
X210248500Y-89517000I-62500J0D01*
G01*
X209548500Y-89517000D01*
G75*
G02*
X209486000Y-89454500I0J62500D01*
G01*
X209486000Y-89329500D01*
G75*
G02*
X209548500Y-89267000I62500J0D01*
G01*
G37*
G36*
G01*
X209548500Y-88767000D02*
X210248500Y-88767000D01*
G75*
G02*
X210311000Y-88829500I0J-62500D01*
G01*
X210311000Y-88954500D01*
G75*
G02*
X210248500Y-89017000I-62500J0D01*
G01*
X209548500Y-89017000D01*
G75*
G02*
X209486000Y-88954500I0J62500D01*
G01*
X209486000Y-88829500D01*
G75*
G02*
X209548500Y-88767000I62500J0D01*
G01*
G37*
G36*
G01*
X209548500Y-88267000D02*
X210248500Y-88267000D01*
G75*
G02*
X210311000Y-88329500I0J-62500D01*
G01*
X210311000Y-88454500D01*
G75*
G02*
X210248500Y-88517000I-62500J0D01*
G01*
X209548500Y-88517000D01*
G75*
G02*
X209486000Y-88454500I0J62500D01*
G01*
X209486000Y-88329500D01*
G75*
G02*
X209548500Y-88267000I62500J0D01*
G01*
G37*
G36*
G01*
X209548500Y-87767000D02*
X210248500Y-87767000D01*
G75*
G02*
X210311000Y-87829500I0J-62500D01*
G01*
X210311000Y-87954500D01*
G75*
G02*
X210248500Y-88017000I-62500J0D01*
G01*
X209548500Y-88017000D01*
G75*
G02*
X209486000Y-87954500I0J62500D01*
G01*
X209486000Y-87829500D01*
G75*
G02*
X209548500Y-87767000I62500J0D01*
G01*
G37*
G36*
G01*
X209548500Y-87267000D02*
X210248500Y-87267000D01*
G75*
G02*
X210311000Y-87329500I0J-62500D01*
G01*
X210311000Y-87454500D01*
G75*
G02*
X210248500Y-87517000I-62500J0D01*
G01*
X209548500Y-87517000D01*
G75*
G02*
X209486000Y-87454500I0J62500D01*
G01*
X209486000Y-87329500D01*
G75*
G02*
X209548500Y-87267000I62500J0D01*
G01*
G37*
G36*
G01*
X210773500Y-86042000D02*
X210898500Y-86042000D01*
G75*
G02*
X210961000Y-86104500I0J-62500D01*
G01*
X210961000Y-86804500D01*
G75*
G02*
X210898500Y-86867000I-62500J0D01*
G01*
X210773500Y-86867000D01*
G75*
G02*
X210711000Y-86804500I0J62500D01*
G01*
X210711000Y-86104500D01*
G75*
G02*
X210773500Y-86042000I62500J0D01*
G01*
G37*
G36*
G01*
X211273500Y-86042000D02*
X211398500Y-86042000D01*
G75*
G02*
X211461000Y-86104500I0J-62500D01*
G01*
X211461000Y-86804500D01*
G75*
G02*
X211398500Y-86867000I-62500J0D01*
G01*
X211273500Y-86867000D01*
G75*
G02*
X211211000Y-86804500I0J62500D01*
G01*
X211211000Y-86104500D01*
G75*
G02*
X211273500Y-86042000I62500J0D01*
G01*
G37*
G36*
G01*
X211773500Y-86042000D02*
X211898500Y-86042000D01*
G75*
G02*
X211961000Y-86104500I0J-62500D01*
G01*
X211961000Y-86804500D01*
G75*
G02*
X211898500Y-86867000I-62500J0D01*
G01*
X211773500Y-86867000D01*
G75*
G02*
X211711000Y-86804500I0J62500D01*
G01*
X211711000Y-86104500D01*
G75*
G02*
X211773500Y-86042000I62500J0D01*
G01*
G37*
G36*
G01*
X212273500Y-86042000D02*
X212398500Y-86042000D01*
G75*
G02*
X212461000Y-86104500I0J-62500D01*
G01*
X212461000Y-86804500D01*
G75*
G02*
X212398500Y-86867000I-62500J0D01*
G01*
X212273500Y-86867000D01*
G75*
G02*
X212211000Y-86804500I0J62500D01*
G01*
X212211000Y-86104500D01*
G75*
G02*
X212273500Y-86042000I62500J0D01*
G01*
G37*
G36*
G01*
X212773500Y-86042000D02*
X212898500Y-86042000D01*
G75*
G02*
X212961000Y-86104500I0J-62500D01*
G01*
X212961000Y-86804500D01*
G75*
G02*
X212898500Y-86867000I-62500J0D01*
G01*
X212773500Y-86867000D01*
G75*
G02*
X212711000Y-86804500I0J62500D01*
G01*
X212711000Y-86104500D01*
G75*
G02*
X212773500Y-86042000I62500J0D01*
G01*
G37*
G36*
G01*
X205362000Y-64615000D02*
X202562000Y-64615000D01*
G75*
G02*
X202312000Y-64365000I0J250000D01*
G01*
X202312000Y-63390000D01*
G75*
G02*
X202562000Y-63140000I250000J0D01*
G01*
X205362000Y-63140000D01*
G75*
G02*
X205612000Y-63390000I0J-250000D01*
G01*
X205612000Y-64365000D01*
G75*
G02*
X205362000Y-64615000I-250000J0D01*
G01*
G37*
G36*
G01*
X205362000Y-68940000D02*
X202562000Y-68940000D01*
G75*
G02*
X202312000Y-68690000I0J250000D01*
G01*
X202312000Y-67715000D01*
G75*
G02*
X202562000Y-67465000I250000J0D01*
G01*
X205362000Y-67465000D01*
G75*
G02*
X205612000Y-67715000I0J-250000D01*
G01*
X205612000Y-68690000D01*
G75*
G02*
X205362000Y-68940000I-250000J0D01*
G01*
G37*
D10*
X215129000Y-112593000D03*
D11*
X215579000Y-99093000D03*
D12*
X219729000Y-99093000D03*
D13*
X225929000Y-99093000D03*
X230229000Y-110243000D03*
D14*
X230229000Y-102093000D03*
X230229000Y-103193000D03*
X230229000Y-104293000D03*
X230229000Y-105393000D03*
X230229000Y-106493000D03*
X230229000Y-107593000D03*
X230229000Y-108693000D03*
X230229000Y-100993000D03*
X230229000Y-100043000D03*
G36*
G01*
X208900000Y-74646000D02*
X210200000Y-74646000D01*
G75*
G02*
X210850000Y-75296000I0J-650000D01*
G01*
X210850000Y-76596000D01*
G75*
G02*
X210200000Y-77246000I-650000J0D01*
G01*
X208900000Y-77246000D01*
G75*
G02*
X208250000Y-76596000I0J650000D01*
G01*
X208250000Y-75296000D01*
G75*
G02*
X208900000Y-74646000I650000J0D01*
G01*
G37*
G36*
G01*
X208900000Y-69820000D02*
X210200000Y-69820000D01*
G75*
G02*
X210850000Y-70470000I0J-650000D01*
G01*
X210850000Y-71770000D01*
G75*
G02*
X210200000Y-72420000I-650000J0D01*
G01*
X208900000Y-72420000D01*
G75*
G02*
X208250000Y-71770000I0J650000D01*
G01*
X208250000Y-70470000D01*
G75*
G02*
X208900000Y-69820000I650000J0D01*
G01*
G37*
G36*
G01*
X206418000Y-75746000D02*
X206078000Y-75746000D01*
G75*
G02*
X205938000Y-75606000I0J140000D01*
G01*
X205938000Y-75326000D01*
G75*
G02*
X206078000Y-75186000I140000J0D01*
G01*
X206418000Y-75186000D01*
G75*
G02*
X206558000Y-75326000I0J-140000D01*
G01*
X206558000Y-75606000D01*
G75*
G02*
X206418000Y-75746000I-140000J0D01*
G01*
G37*
G36*
G01*
X206418000Y-76706000D02*
X206078000Y-76706000D01*
G75*
G02*
X205938000Y-76566000I0J140000D01*
G01*
X205938000Y-76286000D01*
G75*
G02*
X206078000Y-76146000I140000J0D01*
G01*
X206418000Y-76146000D01*
G75*
G02*
X206558000Y-76286000I0J-140000D01*
G01*
X206558000Y-76566000D01*
G75*
G02*
X206418000Y-76706000I-140000J0D01*
G01*
G37*
D15*
X201930000Y-77216000D03*
D16*
X204630000Y-75311000D03*
X204630000Y-76581000D03*
X204630000Y-77851000D03*
X204630000Y-79121000D03*
X199230000Y-79121000D03*
X199230000Y-77851000D03*
X199230000Y-76581000D03*
X199230000Y-75311000D03*
D17*
G36*
X200047500Y-87898000D02*
G01*
X200047500Y-84773000D01*
X200464000Y-84773000D01*
X200464000Y-83298000D01*
X201364000Y-83298000D01*
X201364000Y-84773000D01*
X201780500Y-84773000D01*
X201780500Y-87898000D01*
X200047500Y-87898000D01*
G37*
D18*
X199414000Y-83948000D03*
X202414000Y-83948000D03*
G36*
G01*
X218708000Y-87699000D02*
X218708000Y-88069000D01*
G75*
G02*
X218573000Y-88204000I-135000J0D01*
G01*
X218303000Y-88204000D01*
G75*
G02*
X218168000Y-88069000I0J135000D01*
G01*
X218168000Y-87699000D01*
G75*
G02*
X218303000Y-87564000I135000J0D01*
G01*
X218573000Y-87564000D01*
G75*
G02*
X218708000Y-87699000I0J-135000D01*
G01*
G37*
G36*
G01*
X219728000Y-87699000D02*
X219728000Y-88069000D01*
G75*
G02*
X219593000Y-88204000I-135000J0D01*
G01*
X219323000Y-88204000D01*
G75*
G02*
X219188000Y-88069000I0J135000D01*
G01*
X219188000Y-87699000D01*
G75*
G02*
X219323000Y-87564000I135000J0D01*
G01*
X219593000Y-87564000D01*
G75*
G02*
X219728000Y-87699000I0J-135000D01*
G01*
G37*
G36*
G01*
X216140000Y-88069000D02*
X216140000Y-87699000D01*
G75*
G02*
X216275000Y-87564000I135000J0D01*
G01*
X216545000Y-87564000D01*
G75*
G02*
X216680000Y-87699000I0J-135000D01*
G01*
X216680000Y-88069000D01*
G75*
G02*
X216545000Y-88204000I-135000J0D01*
G01*
X216275000Y-88204000D01*
G75*
G02*
X216140000Y-88069000I0J135000D01*
G01*
G37*
G36*
G01*
X215120000Y-88069000D02*
X215120000Y-87699000D01*
G75*
G02*
X215255000Y-87564000I135000J0D01*
G01*
X215525000Y-87564000D01*
G75*
G02*
X215660000Y-87699000I0J-135000D01*
G01*
X215660000Y-88069000D01*
G75*
G02*
X215525000Y-88204000I-135000J0D01*
G01*
X215255000Y-88204000D01*
G75*
G02*
X215120000Y-88069000I0J135000D01*
G01*
G37*
G36*
G01*
X206433000Y-79770000D02*
X206063000Y-79770000D01*
G75*
G02*
X205928000Y-79635000I0J135000D01*
G01*
X205928000Y-79365000D01*
G75*
G02*
X206063000Y-79230000I135000J0D01*
G01*
X206433000Y-79230000D01*
G75*
G02*
X206568000Y-79365000I0J-135000D01*
G01*
X206568000Y-79635000D01*
G75*
G02*
X206433000Y-79770000I-135000J0D01*
G01*
G37*
G36*
G01*
X206433000Y-80790000D02*
X206063000Y-80790000D01*
G75*
G02*
X205928000Y-80655000I0J135000D01*
G01*
X205928000Y-80385000D01*
G75*
G02*
X206063000Y-80250000I135000J0D01*
G01*
X206433000Y-80250000D01*
G75*
G02*
X206568000Y-80385000I0J-135000D01*
G01*
X206568000Y-80655000D01*
G75*
G02*
X206433000Y-80790000I-135000J0D01*
G01*
G37*
G36*
G01*
X207449000Y-77738000D02*
X207079000Y-77738000D01*
G75*
G02*
X206944000Y-77603000I0J135000D01*
G01*
X206944000Y-77333000D01*
G75*
G02*
X207079000Y-77198000I135000J0D01*
G01*
X207449000Y-77198000D01*
G75*
G02*
X207584000Y-77333000I0J-135000D01*
G01*
X207584000Y-77603000D01*
G75*
G02*
X207449000Y-77738000I-135000J0D01*
G01*
G37*
G36*
G01*
X207449000Y-78758000D02*
X207079000Y-78758000D01*
G75*
G02*
X206944000Y-78623000I0J135000D01*
G01*
X206944000Y-78353000D01*
G75*
G02*
X207079000Y-78218000I135000J0D01*
G01*
X207449000Y-78218000D01*
G75*
G02*
X207584000Y-78353000I0J-135000D01*
G01*
X207584000Y-78623000D01*
G75*
G02*
X207449000Y-78758000I-135000J0D01*
G01*
G37*
G36*
G01*
X197427000Y-79234000D02*
X197797000Y-79234000D01*
G75*
G02*
X197932000Y-79369000I0J-135000D01*
G01*
X197932000Y-79639000D01*
G75*
G02*
X197797000Y-79774000I-135000J0D01*
G01*
X197427000Y-79774000D01*
G75*
G02*
X197292000Y-79639000I0J135000D01*
G01*
X197292000Y-79369000D01*
G75*
G02*
X197427000Y-79234000I135000J0D01*
G01*
G37*
G36*
G01*
X197427000Y-78214000D02*
X197797000Y-78214000D01*
G75*
G02*
X197932000Y-78349000I0J-135000D01*
G01*
X197932000Y-78619000D01*
G75*
G02*
X197797000Y-78754000I-135000J0D01*
G01*
X197427000Y-78754000D01*
G75*
G02*
X197292000Y-78619000I0J135000D01*
G01*
X197292000Y-78349000D01*
G75*
G02*
X197427000Y-78214000I135000J0D01*
G01*
G37*
G36*
G01*
X197797000Y-76722000D02*
X197427000Y-76722000D01*
G75*
G02*
X197292000Y-76587000I0J135000D01*
G01*
X197292000Y-76317000D01*
G75*
G02*
X197427000Y-76182000I135000J0D01*
G01*
X197797000Y-76182000D01*
G75*
G02*
X197932000Y-76317000I0J-135000D01*
G01*
X197932000Y-76587000D01*
G75*
G02*
X197797000Y-76722000I-135000J0D01*
G01*
G37*
G36*
G01*
X197797000Y-77742000D02*
X197427000Y-77742000D01*
G75*
G02*
X197292000Y-77607000I0J135000D01*
G01*
X197292000Y-77337000D01*
G75*
G02*
X197427000Y-77202000I135000J0D01*
G01*
X197797000Y-77202000D01*
G75*
G02*
X197932000Y-77337000I0J-135000D01*
G01*
X197932000Y-77607000D01*
G75*
G02*
X197797000Y-77742000I-135000J0D01*
G01*
G37*
D19*
X221472000Y-90424000D03*
X219472000Y-91374000D03*
X219472000Y-89474000D03*
X217916000Y-90424000D03*
X215916000Y-91374000D03*
X215916000Y-89474000D03*
D20*
X210090000Y-81915000D03*
X214090000Y-81915000D03*
D21*
X213995000Y-74105000D03*
X213995000Y-78105000D03*
D22*
X199644000Y-63382000D03*
X199644000Y-67682000D03*
G36*
G01*
X205519000Y-73094000D02*
X206469000Y-73094000D01*
G75*
G02*
X206719000Y-73344000I0J-250000D01*
G01*
X206719000Y-73844000D01*
G75*
G02*
X206469000Y-74094000I-250000J0D01*
G01*
X205519000Y-74094000D01*
G75*
G02*
X205269000Y-73844000I0J250000D01*
G01*
X205269000Y-73344000D01*
G75*
G02*
X205519000Y-73094000I250000J0D01*
G01*
G37*
G36*
G01*
X205519000Y-71194000D02*
X206469000Y-71194000D01*
G75*
G02*
X206719000Y-71444000I0J-250000D01*
G01*
X206719000Y-71944000D01*
G75*
G02*
X206469000Y-72194000I-250000J0D01*
G01*
X205519000Y-72194000D01*
G75*
G02*
X205269000Y-71944000I0J250000D01*
G01*
X205269000Y-71444000D01*
G75*
G02*
X205519000Y-71194000I250000J0D01*
G01*
G37*
G36*
G01*
X203487000Y-73094000D02*
X204437000Y-73094000D01*
G75*
G02*
X204687000Y-73344000I0J-250000D01*
G01*
X204687000Y-73844000D01*
G75*
G02*
X204437000Y-74094000I-250000J0D01*
G01*
X203487000Y-74094000D01*
G75*
G02*
X203237000Y-73844000I0J250000D01*
G01*
X203237000Y-73344000D01*
G75*
G02*
X203487000Y-73094000I250000J0D01*
G01*
G37*
G36*
G01*
X203487000Y-71194000D02*
X204437000Y-71194000D01*
G75*
G02*
X204687000Y-71444000I0J-250000D01*
G01*
X204687000Y-71944000D01*
G75*
G02*
X204437000Y-72194000I-250000J0D01*
G01*
X203487000Y-72194000D01*
G75*
G02*
X203237000Y-71944000I0J250000D01*
G01*
X203237000Y-71444000D01*
G75*
G02*
X203487000Y-71194000I250000J0D01*
G01*
G37*
G36*
G01*
X201455000Y-73094000D02*
X202405000Y-73094000D01*
G75*
G02*
X202655000Y-73344000I0J-250000D01*
G01*
X202655000Y-73844000D01*
G75*
G02*
X202405000Y-74094000I-250000J0D01*
G01*
X201455000Y-74094000D01*
G75*
G02*
X201205000Y-73844000I0J250000D01*
G01*
X201205000Y-73344000D01*
G75*
G02*
X201455000Y-73094000I250000J0D01*
G01*
G37*
G36*
G01*
X201455000Y-71194000D02*
X202405000Y-71194000D01*
G75*
G02*
X202655000Y-71444000I0J-250000D01*
G01*
X202655000Y-71944000D01*
G75*
G02*
X202405000Y-72194000I-250000J0D01*
G01*
X201455000Y-72194000D01*
G75*
G02*
X201205000Y-71944000I0J250000D01*
G01*
X201205000Y-71444000D01*
G75*
G02*
X201455000Y-71194000I250000J0D01*
G01*
G37*
G36*
G01*
X206078000Y-78178000D02*
X206418000Y-78178000D01*
G75*
G02*
X206558000Y-78318000I0J-140000D01*
G01*
X206558000Y-78598000D01*
G75*
G02*
X206418000Y-78738000I-140000J0D01*
G01*
X206078000Y-78738000D01*
G75*
G02*
X205938000Y-78598000I0J140000D01*
G01*
X205938000Y-78318000D01*
G75*
G02*
X206078000Y-78178000I140000J0D01*
G01*
G37*
G36*
G01*
X206078000Y-77218000D02*
X206418000Y-77218000D01*
G75*
G02*
X206558000Y-77358000I0J-140000D01*
G01*
X206558000Y-77638000D01*
G75*
G02*
X206418000Y-77778000I-140000J0D01*
G01*
X206078000Y-77778000D01*
G75*
G02*
X205938000Y-77638000I0J140000D01*
G01*
X205938000Y-77358000D01*
G75*
G02*
X206078000Y-77218000I140000J0D01*
G01*
G37*
G36*
G01*
X198320000Y-74084000D02*
X198320000Y-73744000D01*
G75*
G02*
X198460000Y-73604000I140000J0D01*
G01*
X198740000Y-73604000D01*
G75*
G02*
X198880000Y-73744000I0J-140000D01*
G01*
X198880000Y-74084000D01*
G75*
G02*
X198740000Y-74224000I-140000J0D01*
G01*
X198460000Y-74224000D01*
G75*
G02*
X198320000Y-74084000I0J140000D01*
G01*
G37*
G36*
G01*
X197360000Y-74084000D02*
X197360000Y-73744000D01*
G75*
G02*
X197500000Y-73604000I140000J0D01*
G01*
X197780000Y-73604000D01*
G75*
G02*
X197920000Y-73744000I0J-140000D01*
G01*
X197920000Y-74084000D01*
G75*
G02*
X197780000Y-74224000I-140000J0D01*
G01*
X197500000Y-74224000D01*
G75*
G02*
X197360000Y-74084000I0J140000D01*
G01*
G37*
G36*
G01*
X199332000Y-72865000D02*
X199332000Y-71915000D01*
G75*
G02*
X199582000Y-71665000I250000J0D01*
G01*
X200082000Y-71665000D01*
G75*
G02*
X200332000Y-71915000I0J-250000D01*
G01*
X200332000Y-72865000D01*
G75*
G02*
X200082000Y-73115000I-250000J0D01*
G01*
X199582000Y-73115000D01*
G75*
G02*
X199332000Y-72865000I0J250000D01*
G01*
G37*
G36*
G01*
X197432000Y-72865000D02*
X197432000Y-71915000D01*
G75*
G02*
X197682000Y-71665000I250000J0D01*
G01*
X198182000Y-71665000D01*
G75*
G02*
X198432000Y-71915000I0J-250000D01*
G01*
X198432000Y-72865000D01*
G75*
G02*
X198182000Y-73115000I-250000J0D01*
G01*
X197682000Y-73115000D01*
G75*
G02*
X197432000Y-72865000I0J250000D01*
G01*
G37*
G36*
G01*
X203004000Y-81313000D02*
X203004000Y-82263000D01*
G75*
G02*
X202754000Y-82513000I-250000J0D01*
G01*
X202254000Y-82513000D01*
G75*
G02*
X202004000Y-82263000I0J250000D01*
G01*
X202004000Y-81313000D01*
G75*
G02*
X202254000Y-81063000I250000J0D01*
G01*
X202754000Y-81063000D01*
G75*
G02*
X203004000Y-81313000I0J-250000D01*
G01*
G37*
G36*
G01*
X204904000Y-81313000D02*
X204904000Y-82263000D01*
G75*
G02*
X204654000Y-82513000I-250000J0D01*
G01*
X204154000Y-82513000D01*
G75*
G02*
X203904000Y-82263000I0J250000D01*
G01*
X203904000Y-81313000D01*
G75*
G02*
X204154000Y-81063000I250000J0D01*
G01*
X204654000Y-81063000D01*
G75*
G02*
X204904000Y-81313000I0J-250000D01*
G01*
G37*
G36*
G01*
X200348000Y-82263000D02*
X200348000Y-81313000D01*
G75*
G02*
X200598000Y-81063000I250000J0D01*
G01*
X201098000Y-81063000D01*
G75*
G02*
X201348000Y-81313000I0J-250000D01*
G01*
X201348000Y-82263000D01*
G75*
G02*
X201098000Y-82513000I-250000J0D01*
G01*
X200598000Y-82513000D01*
G75*
G02*
X200348000Y-82263000I0J250000D01*
G01*
G37*
G36*
G01*
X198448000Y-82263000D02*
X198448000Y-81313000D01*
G75*
G02*
X198698000Y-81063000I250000J0D01*
G01*
X199198000Y-81063000D01*
G75*
G02*
X199448000Y-81313000I0J-250000D01*
G01*
X199448000Y-82263000D01*
G75*
G02*
X199198000Y-82513000I-250000J0D01*
G01*
X198698000Y-82513000D01*
G75*
G02*
X198448000Y-82263000I0J250000D01*
G01*
G37*
G36*
G01*
X208059000Y-94430000D02*
X209009000Y-94430000D01*
G75*
G02*
X209259000Y-94680000I0J-250000D01*
G01*
X209259000Y-95180000D01*
G75*
G02*
X209009000Y-95430000I-250000J0D01*
G01*
X208059000Y-95430000D01*
G75*
G02*
X207809000Y-95180000I0J250000D01*
G01*
X207809000Y-94680000D01*
G75*
G02*
X208059000Y-94430000I250000J0D01*
G01*
G37*
G36*
G01*
X208059000Y-92530000D02*
X209009000Y-92530000D01*
G75*
G02*
X209259000Y-92780000I0J-250000D01*
G01*
X209259000Y-93280000D01*
G75*
G02*
X209009000Y-93530000I-250000J0D01*
G01*
X208059000Y-93530000D01*
G75*
G02*
X207809000Y-93280000I0J250000D01*
G01*
X207809000Y-92780000D01*
G75*
G02*
X208059000Y-92530000I250000J0D01*
G01*
G37*
G36*
G01*
X211041000Y-93530000D02*
X210091000Y-93530000D01*
G75*
G02*
X209841000Y-93280000I0J250000D01*
G01*
X209841000Y-92780000D01*
G75*
G02*
X210091000Y-92530000I250000J0D01*
G01*
X211041000Y-92530000D01*
G75*
G02*
X211291000Y-92780000I0J-250000D01*
G01*
X211291000Y-93280000D01*
G75*
G02*
X211041000Y-93530000I-250000J0D01*
G01*
G37*
G36*
G01*
X211041000Y-95430000D02*
X210091000Y-95430000D01*
G75*
G02*
X209841000Y-95180000I0J250000D01*
G01*
X209841000Y-94680000D01*
G75*
G02*
X210091000Y-94430000I250000J0D01*
G01*
X211041000Y-94430000D01*
G75*
G02*
X211291000Y-94680000I0J-250000D01*
G01*
X211291000Y-95180000D01*
G75*
G02*
X211041000Y-95430000I-250000J0D01*
G01*
G37*
G36*
G01*
X240051000Y-90570500D02*
X239501000Y-90570500D01*
G75*
G02*
X239301000Y-90370500I0J200000D01*
G01*
X239301000Y-89970500D01*
G75*
G02*
X239501000Y-89770500I200000J0D01*
G01*
X240051000Y-89770500D01*
G75*
G02*
X240251000Y-89970500I0J-200000D01*
G01*
X240251000Y-90370500D01*
G75*
G02*
X240051000Y-90570500I-200000J0D01*
G01*
G37*
G36*
G01*
X240051000Y-92220500D02*
X239501000Y-92220500D01*
G75*
G02*
X239301000Y-92020500I0J200000D01*
G01*
X239301000Y-91620500D01*
G75*
G02*
X239501000Y-91420500I200000J0D01*
G01*
X240051000Y-91420500D01*
G75*
G02*
X240251000Y-91620500I0J-200000D01*
G01*
X240251000Y-92020500D01*
G75*
G02*
X240051000Y-92220500I-200000J0D01*
G01*
G37*
G36*
G01*
X237977000Y-91420500D02*
X238527000Y-91420500D01*
G75*
G02*
X238727000Y-91620500I0J-200000D01*
G01*
X238727000Y-92020500D01*
G75*
G02*
X238527000Y-92220500I-200000J0D01*
G01*
X237977000Y-92220500D01*
G75*
G02*
X237777000Y-92020500I0J200000D01*
G01*
X237777000Y-91620500D01*
G75*
G02*
X237977000Y-91420500I200000J0D01*
G01*
G37*
G36*
G01*
X237977000Y-89770500D02*
X238527000Y-89770500D01*
G75*
G02*
X238727000Y-89970500I0J-200000D01*
G01*
X238727000Y-90370500D01*
G75*
G02*
X238527000Y-90570500I-200000J0D01*
G01*
X237977000Y-90570500D01*
G75*
G02*
X237777000Y-90370500I0J200000D01*
G01*
X237777000Y-89970500D01*
G75*
G02*
X237977000Y-89770500I200000J0D01*
G01*
G37*
G36*
G01*
X207758000Y-90609000D02*
X207758000Y-90239000D01*
G75*
G02*
X207893000Y-90104000I135000J0D01*
G01*
X208163000Y-90104000D01*
G75*
G02*
X208298000Y-90239000I0J-135000D01*
G01*
X208298000Y-90609000D01*
G75*
G02*
X208163000Y-90744000I-135000J0D01*
G01*
X207893000Y-90744000D01*
G75*
G02*
X207758000Y-90609000I0J135000D01*
G01*
G37*
G36*
G01*
X206738000Y-90609000D02*
X206738000Y-90239000D01*
G75*
G02*
X206873000Y-90104000I135000J0D01*
G01*
X207143000Y-90104000D01*
G75*
G02*
X207278000Y-90239000I0J-135000D01*
G01*
X207278000Y-90609000D01*
G75*
G02*
X207143000Y-90744000I-135000J0D01*
G01*
X206873000Y-90744000D01*
G75*
G02*
X206738000Y-90609000I0J135000D01*
G01*
G37*
G36*
G01*
X207758000Y-91625000D02*
X207758000Y-91255000D01*
G75*
G02*
X207893000Y-91120000I135000J0D01*
G01*
X208163000Y-91120000D01*
G75*
G02*
X208298000Y-91255000I0J-135000D01*
G01*
X208298000Y-91625000D01*
G75*
G02*
X208163000Y-91760000I-135000J0D01*
G01*
X207893000Y-91760000D01*
G75*
G02*
X207758000Y-91625000I0J135000D01*
G01*
G37*
G36*
G01*
X206738000Y-91625000D02*
X206738000Y-91255000D01*
G75*
G02*
X206873000Y-91120000I135000J0D01*
G01*
X207143000Y-91120000D01*
G75*
G02*
X207278000Y-91255000I0J-135000D01*
G01*
X207278000Y-91625000D01*
G75*
G02*
X207143000Y-91760000I-135000J0D01*
G01*
X206873000Y-91760000D01*
G75*
G02*
X206738000Y-91625000I0J135000D01*
G01*
G37*
G36*
G01*
X205301000Y-97522000D02*
X205671000Y-97522000D01*
G75*
G02*
X205806000Y-97657000I0J-135000D01*
G01*
X205806000Y-97927000D01*
G75*
G02*
X205671000Y-98062000I-135000J0D01*
G01*
X205301000Y-98062000D01*
G75*
G02*
X205166000Y-97927000I0J135000D01*
G01*
X205166000Y-97657000D01*
G75*
G02*
X205301000Y-97522000I135000J0D01*
G01*
G37*
G36*
G01*
X205301000Y-96502000D02*
X205671000Y-96502000D01*
G75*
G02*
X205806000Y-96637000I0J-135000D01*
G01*
X205806000Y-96907000D01*
G75*
G02*
X205671000Y-97042000I-135000J0D01*
G01*
X205301000Y-97042000D01*
G75*
G02*
X205166000Y-96907000I0J135000D01*
G01*
X205166000Y-96637000D01*
G75*
G02*
X205301000Y-96502000I135000J0D01*
G01*
G37*
G36*
G01*
X205301000Y-92696000D02*
X205671000Y-92696000D01*
G75*
G02*
X205806000Y-92831000I0J-135000D01*
G01*
X205806000Y-93101000D01*
G75*
G02*
X205671000Y-93236000I-135000J0D01*
G01*
X205301000Y-93236000D01*
G75*
G02*
X205166000Y-93101000I0J135000D01*
G01*
X205166000Y-92831000D01*
G75*
G02*
X205301000Y-92696000I135000J0D01*
G01*
G37*
G36*
G01*
X205301000Y-91676000D02*
X205671000Y-91676000D01*
G75*
G02*
X205806000Y-91811000I0J-135000D01*
G01*
X205806000Y-92081000D01*
G75*
G02*
X205671000Y-92216000I-135000J0D01*
G01*
X205301000Y-92216000D01*
G75*
G02*
X205166000Y-92081000I0J135000D01*
G01*
X205166000Y-91811000D01*
G75*
G02*
X205301000Y-91676000I135000J0D01*
G01*
G37*
D23*
X199838500Y-93215000D03*
X199838500Y-96015000D03*
D24*
X204038500Y-94365000D03*
X204038500Y-96365000D03*
X204038500Y-95865000D03*
X204038500Y-95365000D03*
X204038500Y-94865000D03*
X204038500Y-93865000D03*
X204038500Y-93365000D03*
X204038500Y-92865000D03*
D25*
X204038500Y-97715000D03*
X204038500Y-96965000D03*
X204038500Y-92265000D03*
X204038500Y-91515000D03*
X204038500Y-91515000D03*
X204038500Y-92265000D03*
X204038500Y-96965000D03*
X204038500Y-97715000D03*
D26*
X207706000Y-88984000D03*
X205806000Y-88984000D03*
X205806000Y-86784000D03*
D27*
X207526000Y-86784000D03*
G36*
G01*
X241115000Y-99935000D02*
X241485000Y-99935000D01*
G75*
G02*
X241620000Y-100070000I0J-135000D01*
G01*
X241620000Y-100340000D01*
G75*
G02*
X241485000Y-100475000I-135000J0D01*
G01*
X241115000Y-100475000D01*
G75*
G02*
X240980000Y-100340000I0J135000D01*
G01*
X240980000Y-100070000D01*
G75*
G02*
X241115000Y-99935000I135000J0D01*
G01*
G37*
G36*
G01*
X241115000Y-98915000D02*
X241485000Y-98915000D01*
G75*
G02*
X241620000Y-99050000I0J-135000D01*
G01*
X241620000Y-99320000D01*
G75*
G02*
X241485000Y-99455000I-135000J0D01*
G01*
X241115000Y-99455000D01*
G75*
G02*
X240980000Y-99320000I0J135000D01*
G01*
X240980000Y-99050000D01*
G75*
G02*
X241115000Y-98915000I135000J0D01*
G01*
G37*
G36*
G01*
X215025000Y-68649000D02*
X215025000Y-69019000D01*
G75*
G02*
X214890000Y-69154000I-135000J0D01*
G01*
X214620000Y-69154000D01*
G75*
G02*
X214485000Y-69019000I0J135000D01*
G01*
X214485000Y-68649000D01*
G75*
G02*
X214620000Y-68514000I135000J0D01*
G01*
X214890000Y-68514000D01*
G75*
G02*
X215025000Y-68649000I0J-135000D01*
G01*
G37*
G36*
G01*
X216045000Y-68649000D02*
X216045000Y-69019000D01*
G75*
G02*
X215910000Y-69154000I-135000J0D01*
G01*
X215640000Y-69154000D01*
G75*
G02*
X215505000Y-69019000I0J135000D01*
G01*
X215505000Y-68649000D01*
G75*
G02*
X215640000Y-68514000I135000J0D01*
G01*
X215910000Y-68514000D01*
G75*
G02*
X216045000Y-68649000I0J-135000D01*
G01*
G37*
G36*
G01*
X234170000Y-69400000D02*
X234170000Y-69030000D01*
G75*
G02*
X234305000Y-68895000I135000J0D01*
G01*
X234575000Y-68895000D01*
G75*
G02*
X234710000Y-69030000I0J-135000D01*
G01*
X234710000Y-69400000D01*
G75*
G02*
X234575000Y-69535000I-135000J0D01*
G01*
X234305000Y-69535000D01*
G75*
G02*
X234170000Y-69400000I0J135000D01*
G01*
G37*
G36*
G01*
X235190000Y-69400000D02*
X235190000Y-69030000D01*
G75*
G02*
X235325000Y-68895000I135000J0D01*
G01*
X235595000Y-68895000D01*
G75*
G02*
X235730000Y-69030000I0J-135000D01*
G01*
X235730000Y-69400000D01*
G75*
G02*
X235595000Y-69535000I-135000J0D01*
G01*
X235325000Y-69535000D01*
G75*
G02*
X235190000Y-69400000I0J135000D01*
G01*
G37*
G36*
G01*
X232265000Y-69400000D02*
X232265000Y-69030000D01*
G75*
G02*
X232400000Y-68895000I135000J0D01*
G01*
X232670000Y-68895000D01*
G75*
G02*
X232805000Y-69030000I0J-135000D01*
G01*
X232805000Y-69400000D01*
G75*
G02*
X232670000Y-69535000I-135000J0D01*
G01*
X232400000Y-69535000D01*
G75*
G02*
X232265000Y-69400000I0J135000D01*
G01*
G37*
G36*
G01*
X233285000Y-69400000D02*
X233285000Y-69030000D01*
G75*
G02*
X233420000Y-68895000I135000J0D01*
G01*
X233690000Y-68895000D01*
G75*
G02*
X233825000Y-69030000I0J-135000D01*
G01*
X233825000Y-69400000D01*
G75*
G02*
X233690000Y-69535000I-135000J0D01*
G01*
X233420000Y-69535000D01*
G75*
G02*
X233285000Y-69400000I0J135000D01*
G01*
G37*
G36*
G01*
X229630000Y-89985000D02*
X229630000Y-90355000D01*
G75*
G02*
X229495000Y-90490000I-135000J0D01*
G01*
X229225000Y-90490000D01*
G75*
G02*
X229090000Y-90355000I0J135000D01*
G01*
X229090000Y-89985000D01*
G75*
G02*
X229225000Y-89850000I135000J0D01*
G01*
X229495000Y-89850000D01*
G75*
G02*
X229630000Y-89985000I0J-135000D01*
G01*
G37*
G36*
G01*
X230650000Y-89985000D02*
X230650000Y-90355000D01*
G75*
G02*
X230515000Y-90490000I-135000J0D01*
G01*
X230245000Y-90490000D01*
G75*
G02*
X230110000Y-90355000I0J135000D01*
G01*
X230110000Y-89985000D01*
G75*
G02*
X230245000Y-89850000I135000J0D01*
G01*
X230515000Y-89850000D01*
G75*
G02*
X230650000Y-89985000I0J-135000D01*
G01*
G37*
G36*
G01*
X227598000Y-89985000D02*
X227598000Y-90355000D01*
G75*
G02*
X227463000Y-90490000I-135000J0D01*
G01*
X227193000Y-90490000D01*
G75*
G02*
X227058000Y-90355000I0J135000D01*
G01*
X227058000Y-89985000D01*
G75*
G02*
X227193000Y-89850000I135000J0D01*
G01*
X227463000Y-89850000D01*
G75*
G02*
X227598000Y-89985000I0J-135000D01*
G01*
G37*
G36*
G01*
X228618000Y-89985000D02*
X228618000Y-90355000D01*
G75*
G02*
X228483000Y-90490000I-135000J0D01*
G01*
X228213000Y-90490000D01*
G75*
G02*
X228078000Y-90355000I0J135000D01*
G01*
X228078000Y-89985000D01*
G75*
G02*
X228213000Y-89850000I135000J0D01*
G01*
X228483000Y-89850000D01*
G75*
G02*
X228618000Y-89985000I0J-135000D01*
G01*
G37*
G36*
G01*
X225185000Y-89985000D02*
X225185000Y-90355000D01*
G75*
G02*
X225050000Y-90490000I-135000J0D01*
G01*
X224780000Y-90490000D01*
G75*
G02*
X224645000Y-90355000I0J135000D01*
G01*
X224645000Y-89985000D01*
G75*
G02*
X224780000Y-89850000I135000J0D01*
G01*
X225050000Y-89850000D01*
G75*
G02*
X225185000Y-89985000I0J-135000D01*
G01*
G37*
G36*
G01*
X226205000Y-89985000D02*
X226205000Y-90355000D01*
G75*
G02*
X226070000Y-90490000I-135000J0D01*
G01*
X225800000Y-90490000D01*
G75*
G02*
X225665000Y-90355000I0J135000D01*
G01*
X225665000Y-89985000D01*
G75*
G02*
X225800000Y-89850000I135000J0D01*
G01*
X226070000Y-89850000D01*
G75*
G02*
X226205000Y-89985000I0J-135000D01*
G01*
G37*
G36*
G01*
X245096000Y-68003000D02*
X245096000Y-67633000D01*
G75*
G02*
X245231000Y-67498000I135000J0D01*
G01*
X245501000Y-67498000D01*
G75*
G02*
X245636000Y-67633000I0J-135000D01*
G01*
X245636000Y-68003000D01*
G75*
G02*
X245501000Y-68138000I-135000J0D01*
G01*
X245231000Y-68138000D01*
G75*
G02*
X245096000Y-68003000I0J135000D01*
G01*
G37*
G36*
G01*
X244076000Y-68003000D02*
X244076000Y-67633000D01*
G75*
G02*
X244211000Y-67498000I135000J0D01*
G01*
X244481000Y-67498000D01*
G75*
G02*
X244616000Y-67633000I0J-135000D01*
G01*
X244616000Y-68003000D01*
G75*
G02*
X244481000Y-68138000I-135000J0D01*
G01*
X244211000Y-68138000D01*
G75*
G02*
X244076000Y-68003000I0J135000D01*
G01*
G37*
G36*
G01*
X244940000Y-91640000D02*
X245280000Y-91640000D01*
G75*
G02*
X245420000Y-91780000I0J-140000D01*
G01*
X245420000Y-92060000D01*
G75*
G02*
X245280000Y-92200000I-140000J0D01*
G01*
X244940000Y-92200000D01*
G75*
G02*
X244800000Y-92060000I0J140000D01*
G01*
X244800000Y-91780000D01*
G75*
G02*
X244940000Y-91640000I140000J0D01*
G01*
G37*
G36*
G01*
X244940000Y-90680000D02*
X245280000Y-90680000D01*
G75*
G02*
X245420000Y-90820000I0J-140000D01*
G01*
X245420000Y-91100000D01*
G75*
G02*
X245280000Y-91240000I-140000J0D01*
G01*
X244940000Y-91240000D01*
G75*
G02*
X244800000Y-91100000I0J140000D01*
G01*
X244800000Y-90820000D01*
G75*
G02*
X244940000Y-90680000I140000J0D01*
G01*
G37*
G36*
G01*
X210355000Y-101245000D02*
X210015000Y-101245000D01*
G75*
G02*
X209875000Y-101105000I0J140000D01*
G01*
X209875000Y-100825000D01*
G75*
G02*
X210015000Y-100685000I140000J0D01*
G01*
X210355000Y-100685000D01*
G75*
G02*
X210495000Y-100825000I0J-140000D01*
G01*
X210495000Y-101105000D01*
G75*
G02*
X210355000Y-101245000I-140000J0D01*
G01*
G37*
G36*
G01*
X210355000Y-102205000D02*
X210015000Y-102205000D01*
G75*
G02*
X209875000Y-102065000I0J140000D01*
G01*
X209875000Y-101785000D01*
G75*
G02*
X210015000Y-101645000I140000J0D01*
G01*
X210355000Y-101645000D01*
G75*
G02*
X210495000Y-101785000I0J-140000D01*
G01*
X210495000Y-102065000D01*
G75*
G02*
X210355000Y-102205000I-140000J0D01*
G01*
G37*
G36*
G01*
X220810000Y-71320000D02*
X221150000Y-71320000D01*
G75*
G02*
X221290000Y-71460000I0J-140000D01*
G01*
X221290000Y-71740000D01*
G75*
G02*
X221150000Y-71880000I-140000J0D01*
G01*
X220810000Y-71880000D01*
G75*
G02*
X220670000Y-71740000I0J140000D01*
G01*
X220670000Y-71460000D01*
G75*
G02*
X220810000Y-71320000I140000J0D01*
G01*
G37*
G36*
G01*
X220810000Y-70360000D02*
X221150000Y-70360000D01*
G75*
G02*
X221290000Y-70500000I0J-140000D01*
G01*
X221290000Y-70780000D01*
G75*
G02*
X221150000Y-70920000I-140000J0D01*
G01*
X220810000Y-70920000D01*
G75*
G02*
X220670000Y-70780000I0J140000D01*
G01*
X220670000Y-70500000D01*
G75*
G02*
X220810000Y-70360000I140000J0D01*
G01*
G37*
G36*
G01*
X205697000Y-100784000D02*
X206037000Y-100784000D01*
G75*
G02*
X206177000Y-100924000I0J-140000D01*
G01*
X206177000Y-101204000D01*
G75*
G02*
X206037000Y-101344000I-140000J0D01*
G01*
X205697000Y-101344000D01*
G75*
G02*
X205557000Y-101204000I0J140000D01*
G01*
X205557000Y-100924000D01*
G75*
G02*
X205697000Y-100784000I140000J0D01*
G01*
G37*
G36*
G01*
X205697000Y-99824000D02*
X206037000Y-99824000D01*
G75*
G02*
X206177000Y-99964000I0J-140000D01*
G01*
X206177000Y-100244000D01*
G75*
G02*
X206037000Y-100384000I-140000J0D01*
G01*
X205697000Y-100384000D01*
G75*
G02*
X205557000Y-100244000I0J140000D01*
G01*
X205557000Y-99964000D01*
G75*
G02*
X205697000Y-99824000I140000J0D01*
G01*
G37*
G36*
G01*
X218240000Y-68918000D02*
X218240000Y-69258000D01*
G75*
G02*
X218100000Y-69398000I-140000J0D01*
G01*
X217820000Y-69398000D01*
G75*
G02*
X217680000Y-69258000I0J140000D01*
G01*
X217680000Y-68918000D01*
G75*
G02*
X217820000Y-68778000I140000J0D01*
G01*
X218100000Y-68778000D01*
G75*
G02*
X218240000Y-68918000I0J-140000D01*
G01*
G37*
G36*
G01*
X219200000Y-68918000D02*
X219200000Y-69258000D01*
G75*
G02*
X219060000Y-69398000I-140000J0D01*
G01*
X218780000Y-69398000D01*
G75*
G02*
X218640000Y-69258000I0J140000D01*
G01*
X218640000Y-68918000D01*
G75*
G02*
X218780000Y-68778000I140000J0D01*
G01*
X219060000Y-68778000D01*
G75*
G02*
X219200000Y-68918000I0J-140000D01*
G01*
G37*
G36*
G01*
X240939500Y-91640000D02*
X241279500Y-91640000D01*
G75*
G02*
X241419500Y-91780000I0J-140000D01*
G01*
X241419500Y-92060000D01*
G75*
G02*
X241279500Y-92200000I-140000J0D01*
G01*
X240939500Y-92200000D01*
G75*
G02*
X240799500Y-92060000I0J140000D01*
G01*
X240799500Y-91780000D01*
G75*
G02*
X240939500Y-91640000I140000J0D01*
G01*
G37*
G36*
G01*
X240939500Y-90680000D02*
X241279500Y-90680000D01*
G75*
G02*
X241419500Y-90820000I0J-140000D01*
G01*
X241419500Y-91100000D01*
G75*
G02*
X241279500Y-91240000I-140000J0D01*
G01*
X240939500Y-91240000D01*
G75*
G02*
X240799500Y-91100000I0J140000D01*
G01*
X240799500Y-90820000D01*
G75*
G02*
X240939500Y-90680000I140000J0D01*
G01*
G37*
G36*
G01*
X245534000Y-66094000D02*
X245194000Y-66094000D01*
G75*
G02*
X245054000Y-65954000I0J140000D01*
G01*
X245054000Y-65674000D01*
G75*
G02*
X245194000Y-65534000I140000J0D01*
G01*
X245534000Y-65534000D01*
G75*
G02*
X245674000Y-65674000I0J-140000D01*
G01*
X245674000Y-65954000D01*
G75*
G02*
X245534000Y-66094000I-140000J0D01*
G01*
G37*
G36*
G01*
X245534000Y-67054000D02*
X245194000Y-67054000D01*
G75*
G02*
X245054000Y-66914000I0J140000D01*
G01*
X245054000Y-66634000D01*
G75*
G02*
X245194000Y-66494000I140000J0D01*
G01*
X245534000Y-66494000D01*
G75*
G02*
X245674000Y-66634000I0J-140000D01*
G01*
X245674000Y-66914000D01*
G75*
G02*
X245534000Y-67054000I-140000J0D01*
G01*
G37*
G36*
G01*
X238590000Y-65478000D02*
X238930000Y-65478000D01*
G75*
G02*
X239070000Y-65618000I0J-140000D01*
G01*
X239070000Y-65898000D01*
G75*
G02*
X238930000Y-66038000I-140000J0D01*
G01*
X238590000Y-66038000D01*
G75*
G02*
X238450000Y-65898000I0J140000D01*
G01*
X238450000Y-65618000D01*
G75*
G02*
X238590000Y-65478000I140000J0D01*
G01*
G37*
G36*
G01*
X238590000Y-64518000D02*
X238930000Y-64518000D01*
G75*
G02*
X239070000Y-64658000I0J-140000D01*
G01*
X239070000Y-64938000D01*
G75*
G02*
X238930000Y-65078000I-140000J0D01*
G01*
X238590000Y-65078000D01*
G75*
G02*
X238450000Y-64938000I0J140000D01*
G01*
X238450000Y-64658000D01*
G75*
G02*
X238590000Y-64518000I140000J0D01*
G01*
G37*
G36*
G01*
X245194000Y-64462000D02*
X245534000Y-64462000D01*
G75*
G02*
X245674000Y-64602000I0J-140000D01*
G01*
X245674000Y-64882000D01*
G75*
G02*
X245534000Y-65022000I-140000J0D01*
G01*
X245194000Y-65022000D01*
G75*
G02*
X245054000Y-64882000I0J140000D01*
G01*
X245054000Y-64602000D01*
G75*
G02*
X245194000Y-64462000I140000J0D01*
G01*
G37*
G36*
G01*
X245194000Y-63502000D02*
X245534000Y-63502000D01*
G75*
G02*
X245674000Y-63642000I0J-140000D01*
G01*
X245674000Y-63922000D01*
G75*
G02*
X245534000Y-64062000I-140000J0D01*
G01*
X245194000Y-64062000D01*
G75*
G02*
X245054000Y-63922000I0J140000D01*
G01*
X245054000Y-63642000D01*
G75*
G02*
X245194000Y-63502000I140000J0D01*
G01*
G37*
G36*
G01*
X240992000Y-69512000D02*
X240992000Y-69172000D01*
G75*
G02*
X241132000Y-69032000I140000J0D01*
G01*
X241412000Y-69032000D01*
G75*
G02*
X241552000Y-69172000I0J-140000D01*
G01*
X241552000Y-69512000D01*
G75*
G02*
X241412000Y-69652000I-140000J0D01*
G01*
X241132000Y-69652000D01*
G75*
G02*
X240992000Y-69512000I0J140000D01*
G01*
G37*
G36*
G01*
X240032000Y-69512000D02*
X240032000Y-69172000D01*
G75*
G02*
X240172000Y-69032000I140000J0D01*
G01*
X240452000Y-69032000D01*
G75*
G02*
X240592000Y-69172000I0J-140000D01*
G01*
X240592000Y-69512000D01*
G75*
G02*
X240452000Y-69652000I-140000J0D01*
G01*
X240172000Y-69652000D01*
G75*
G02*
X240032000Y-69512000I0J140000D01*
G01*
G37*
G36*
G01*
X244656000Y-68664000D02*
X244656000Y-69004000D01*
G75*
G02*
X244516000Y-69144000I-140000J0D01*
G01*
X244236000Y-69144000D01*
G75*
G02*
X244096000Y-69004000I0J140000D01*
G01*
X244096000Y-68664000D01*
G75*
G02*
X244236000Y-68524000I140000J0D01*
G01*
X244516000Y-68524000D01*
G75*
G02*
X244656000Y-68664000I0J-140000D01*
G01*
G37*
G36*
G01*
X245616000Y-68664000D02*
X245616000Y-69004000D01*
G75*
G02*
X245476000Y-69144000I-140000J0D01*
G01*
X245196000Y-69144000D01*
G75*
G02*
X245056000Y-69004000I0J140000D01*
G01*
X245056000Y-68664000D01*
G75*
G02*
X245196000Y-68524000I140000J0D01*
G01*
X245476000Y-68524000D01*
G75*
G02*
X245616000Y-68664000I0J-140000D01*
G01*
G37*
D28*
X243328000Y-91948000D03*
X242828000Y-91948000D03*
D29*
X242316000Y-91685999D03*
X242316000Y-91186000D03*
X242316000Y-90686001D03*
D28*
X242828000Y-90424000D03*
X243328000Y-90424000D03*
D29*
X243840000Y-90686001D03*
X243840000Y-91186000D03*
X243840000Y-91685999D03*
D30*
X247957500Y-100910000D03*
D31*
X249428000Y-99314000D03*
X246487000Y-99314000D03*
G36*
G01*
X240377000Y-103846000D02*
X240027000Y-103846000D01*
G75*
G02*
X239852000Y-103671000I0J175000D01*
G01*
X239852000Y-102221000D01*
G75*
G02*
X240027000Y-102046000I175000J0D01*
G01*
X240377000Y-102046000D01*
G75*
G02*
X240552000Y-102221000I0J-175000D01*
G01*
X240552000Y-103671000D01*
G75*
G02*
X240377000Y-103846000I-175000J0D01*
G01*
G37*
G36*
G01*
X241502000Y-103846000D02*
X241102000Y-103846000D01*
G75*
G02*
X240902000Y-103646000I0J200000D01*
G01*
X240902000Y-102246000D01*
G75*
G02*
X241102000Y-102046000I200000J0D01*
G01*
X241502000Y-102046000D01*
G75*
G02*
X241702000Y-102246000I0J-200000D01*
G01*
X241702000Y-103646000D01*
G75*
G02*
X241502000Y-103846000I-200000J0D01*
G01*
G37*
G36*
G01*
X242602000Y-103846000D02*
X242202000Y-103846000D01*
G75*
G02*
X242002000Y-103646000I0J200000D01*
G01*
X242002000Y-102246000D01*
G75*
G02*
X242202000Y-102046000I200000J0D01*
G01*
X242602000Y-102046000D01*
G75*
G02*
X242802000Y-102246000I0J-200000D01*
G01*
X242802000Y-103646000D01*
G75*
G02*
X242602000Y-103846000I-200000J0D01*
G01*
G37*
G36*
G01*
X243702000Y-103846000D02*
X243302000Y-103846000D01*
G75*
G02*
X243102000Y-103646000I0J200000D01*
G01*
X243102000Y-102246000D01*
G75*
G02*
X243302000Y-102046000I200000J0D01*
G01*
X243702000Y-102046000D01*
G75*
G02*
X243902000Y-102246000I0J-200000D01*
G01*
X243902000Y-103646000D01*
G75*
G02*
X243702000Y-103846000I-200000J0D01*
G01*
G37*
G36*
G01*
X244802000Y-103846000D02*
X244402000Y-103846000D01*
G75*
G02*
X244202000Y-103646000I0J200000D01*
G01*
X244202000Y-102246000D01*
G75*
G02*
X244402000Y-102046000I200000J0D01*
G01*
X244802000Y-102046000D01*
G75*
G02*
X245002000Y-102246000I0J-200000D01*
G01*
X245002000Y-103646000D01*
G75*
G02*
X244802000Y-103846000I-200000J0D01*
G01*
G37*
G36*
G01*
X245902000Y-103846000D02*
X245502000Y-103846000D01*
G75*
G02*
X245302000Y-103646000I0J200000D01*
G01*
X245302000Y-102246000D01*
G75*
G02*
X245502000Y-102046000I200000J0D01*
G01*
X245902000Y-102046000D01*
G75*
G02*
X246102000Y-102246000I0J-200000D01*
G01*
X246102000Y-103646000D01*
G75*
G02*
X245902000Y-103846000I-200000J0D01*
G01*
G37*
G36*
G01*
X247002000Y-103846000D02*
X246602000Y-103846000D01*
G75*
G02*
X246402000Y-103646000I0J200000D01*
G01*
X246402000Y-102246000D01*
G75*
G02*
X246602000Y-102046000I200000J0D01*
G01*
X247002000Y-102046000D01*
G75*
G02*
X247202000Y-102246000I0J-200000D01*
G01*
X247202000Y-103646000D01*
G75*
G02*
X247002000Y-103846000I-200000J0D01*
G01*
G37*
G36*
G01*
X248102000Y-103846000D02*
X247702000Y-103846000D01*
G75*
G02*
X247502000Y-103646000I0J200000D01*
G01*
X247502000Y-102246000D01*
G75*
G02*
X247702000Y-102046000I200000J0D01*
G01*
X248102000Y-102046000D01*
G75*
G02*
X248302000Y-102246000I0J-200000D01*
G01*
X248302000Y-103646000D01*
G75*
G02*
X248102000Y-103846000I-200000J0D01*
G01*
G37*
G36*
G01*
X249177000Y-103846000D02*
X248827000Y-103846000D01*
G75*
G02*
X248652000Y-103671000I0J175000D01*
G01*
X248652000Y-102221000D01*
G75*
G02*
X248827000Y-102046000I175000J0D01*
G01*
X249177000Y-102046000D01*
G75*
G02*
X249352000Y-102221000I0J-175000D01*
G01*
X249352000Y-103671000D01*
G75*
G02*
X249177000Y-103846000I-175000J0D01*
G01*
G37*
G36*
G01*
X249177000Y-113346000D02*
X248827000Y-113346000D01*
G75*
G02*
X248652000Y-113171000I0J175000D01*
G01*
X248652000Y-111721000D01*
G75*
G02*
X248827000Y-111546000I175000J0D01*
G01*
X249177000Y-111546000D01*
G75*
G02*
X249352000Y-111721000I0J-175000D01*
G01*
X249352000Y-113171000D01*
G75*
G02*
X249177000Y-113346000I-175000J0D01*
G01*
G37*
G36*
G01*
X248102000Y-113346000D02*
X247702000Y-113346000D01*
G75*
G02*
X247502000Y-113146000I0J200000D01*
G01*
X247502000Y-111746000D01*
G75*
G02*
X247702000Y-111546000I200000J0D01*
G01*
X248102000Y-111546000D01*
G75*
G02*
X248302000Y-111746000I0J-200000D01*
G01*
X248302000Y-113146000D01*
G75*
G02*
X248102000Y-113346000I-200000J0D01*
G01*
G37*
G36*
G01*
X247002000Y-113346000D02*
X246602000Y-113346000D01*
G75*
G02*
X246402000Y-113146000I0J200000D01*
G01*
X246402000Y-111746000D01*
G75*
G02*
X246602000Y-111546000I200000J0D01*
G01*
X247002000Y-111546000D01*
G75*
G02*
X247202000Y-111746000I0J-200000D01*
G01*
X247202000Y-113146000D01*
G75*
G02*
X247002000Y-113346000I-200000J0D01*
G01*
G37*
G36*
G01*
X245902000Y-113346000D02*
X245502000Y-113346000D01*
G75*
G02*
X245302000Y-113146000I0J200000D01*
G01*
X245302000Y-111746000D01*
G75*
G02*
X245502000Y-111546000I200000J0D01*
G01*
X245902000Y-111546000D01*
G75*
G02*
X246102000Y-111746000I0J-200000D01*
G01*
X246102000Y-113146000D01*
G75*
G02*
X245902000Y-113346000I-200000J0D01*
G01*
G37*
G36*
G01*
X244802000Y-113346000D02*
X244402000Y-113346000D01*
G75*
G02*
X244202000Y-113146000I0J200000D01*
G01*
X244202000Y-111746000D01*
G75*
G02*
X244402000Y-111546000I200000J0D01*
G01*
X244802000Y-111546000D01*
G75*
G02*
X245002000Y-111746000I0J-200000D01*
G01*
X245002000Y-113146000D01*
G75*
G02*
X244802000Y-113346000I-200000J0D01*
G01*
G37*
G36*
G01*
X243702000Y-113346000D02*
X243302000Y-113346000D01*
G75*
G02*
X243102000Y-113146000I0J200000D01*
G01*
X243102000Y-111746000D01*
G75*
G02*
X243302000Y-111546000I200000J0D01*
G01*
X243702000Y-111546000D01*
G75*
G02*
X243902000Y-111746000I0J-200000D01*
G01*
X243902000Y-113146000D01*
G75*
G02*
X243702000Y-113346000I-200000J0D01*
G01*
G37*
G36*
G01*
X242602000Y-113346000D02*
X242202000Y-113346000D01*
G75*
G02*
X242002000Y-113146000I0J200000D01*
G01*
X242002000Y-111746000D01*
G75*
G02*
X242202000Y-111546000I200000J0D01*
G01*
X242602000Y-111546000D01*
G75*
G02*
X242802000Y-111746000I0J-200000D01*
G01*
X242802000Y-113146000D01*
G75*
G02*
X242602000Y-113346000I-200000J0D01*
G01*
G37*
G36*
G01*
X241502000Y-113346000D02*
X241102000Y-113346000D01*
G75*
G02*
X240902000Y-113146000I0J200000D01*
G01*
X240902000Y-111746000D01*
G75*
G02*
X241102000Y-111546000I200000J0D01*
G01*
X241502000Y-111546000D01*
G75*
G02*
X241702000Y-111746000I0J-200000D01*
G01*
X241702000Y-113146000D01*
G75*
G02*
X241502000Y-113346000I-200000J0D01*
G01*
G37*
G36*
G01*
X240377000Y-113346000D02*
X240027000Y-113346000D01*
G75*
G02*
X239852000Y-113171000I0J175000D01*
G01*
X239852000Y-111721000D01*
G75*
G02*
X240027000Y-111546000I175000J0D01*
G01*
X240377000Y-111546000D01*
G75*
G02*
X240552000Y-111721000I0J-175000D01*
G01*
X240552000Y-113171000D01*
G75*
G02*
X240377000Y-113346000I-175000J0D01*
G01*
G37*
G36*
G01*
X249868000Y-101446500D02*
X249868000Y-101245500D01*
G75*
G02*
X249947500Y-101166000I79500J0D01*
G01*
X250106500Y-101166000D01*
G75*
G02*
X250186000Y-101245500I0J-79500D01*
G01*
X250186000Y-101446500D01*
G75*
G02*
X250106500Y-101526000I-79500J0D01*
G01*
X249947500Y-101526000D01*
G75*
G02*
X249868000Y-101446500I0J79500D01*
G01*
G37*
G36*
G01*
X249178000Y-101446500D02*
X249178000Y-101245500D01*
G75*
G02*
X249257500Y-101166000I79500J0D01*
G01*
X249416500Y-101166000D01*
G75*
G02*
X249496000Y-101245500I0J-79500D01*
G01*
X249496000Y-101446500D01*
G75*
G02*
X249416500Y-101526000I-79500J0D01*
G01*
X249257500Y-101526000D01*
G75*
G02*
X249178000Y-101446500I0J79500D01*
G01*
G37*
D32*
X241180000Y-88240000D03*
X239910000Y-88240000D03*
X238640000Y-88240000D03*
X237370000Y-88240000D03*
X236100000Y-88240000D03*
X234830000Y-88240000D03*
X233560000Y-88240000D03*
X232290000Y-88240000D03*
X231020000Y-88240000D03*
X229750000Y-88240000D03*
X228480000Y-88240000D03*
X227210000Y-88240000D03*
X225940000Y-88240000D03*
X224670000Y-88240000D03*
D33*
X223670000Y-85455000D03*
X223670000Y-84185000D03*
X223670000Y-82915000D03*
X223670000Y-81645000D03*
X223670000Y-80375000D03*
X223670000Y-79105000D03*
X223670000Y-77835000D03*
X223670000Y-76565000D03*
X223670000Y-75295000D03*
X223670000Y-74025000D03*
D32*
X224670000Y-71240000D03*
X225940000Y-71240000D03*
X227210000Y-71240000D03*
X228480000Y-71240000D03*
X229750000Y-71240000D03*
X231020000Y-71240000D03*
X232290000Y-71240000D03*
X233560000Y-71240000D03*
X234830000Y-71240000D03*
X236100000Y-71240000D03*
X237370000Y-71240000D03*
X238640000Y-71240000D03*
X239910000Y-71240000D03*
X241180000Y-71240000D03*
D34*
X233680000Y-78740000D03*
G36*
G01*
X229680000Y-91267500D02*
X229680000Y-91612500D01*
G75*
G02*
X229532500Y-91760000I-147500J0D01*
G01*
X229237500Y-91760000D01*
G75*
G02*
X229090000Y-91612500I0J147500D01*
G01*
X229090000Y-91267500D01*
G75*
G02*
X229237500Y-91120000I147500J0D01*
G01*
X229532500Y-91120000D01*
G75*
G02*
X229680000Y-91267500I0J-147500D01*
G01*
G37*
G36*
G01*
X230650000Y-91267500D02*
X230650000Y-91612500D01*
G75*
G02*
X230502500Y-91760000I-147500J0D01*
G01*
X230207500Y-91760000D01*
G75*
G02*
X230060000Y-91612500I0J147500D01*
G01*
X230060000Y-91267500D01*
G75*
G02*
X230207500Y-91120000I147500J0D01*
G01*
X230502500Y-91120000D01*
G75*
G02*
X230650000Y-91267500I0J-147500D01*
G01*
G37*
D35*
X244602000Y-83742000D03*
X244602000Y-80342000D03*
G36*
G01*
X238727000Y-67622000D02*
X237777000Y-67622000D01*
G75*
G02*
X237527000Y-67372000I0J250000D01*
G01*
X237527000Y-66872000D01*
G75*
G02*
X237777000Y-66622000I250000J0D01*
G01*
X238727000Y-66622000D01*
G75*
G02*
X238977000Y-66872000I0J-250000D01*
G01*
X238977000Y-67372000D01*
G75*
G02*
X238727000Y-67622000I-250000J0D01*
G01*
G37*
G36*
G01*
X238727000Y-69522000D02*
X237777000Y-69522000D01*
G75*
G02*
X237527000Y-69272000I0J250000D01*
G01*
X237527000Y-68772000D01*
G75*
G02*
X237777000Y-68522000I250000J0D01*
G01*
X238727000Y-68522000D01*
G75*
G02*
X238977000Y-68772000I0J-250000D01*
G01*
X238977000Y-69272000D01*
G75*
G02*
X238727000Y-69522000I-250000J0D01*
G01*
G37*
G36*
G01*
X227648000Y-91267500D02*
X227648000Y-91612500D01*
G75*
G02*
X227500500Y-91760000I-147500J0D01*
G01*
X227205500Y-91760000D01*
G75*
G02*
X227058000Y-91612500I0J147500D01*
G01*
X227058000Y-91267500D01*
G75*
G02*
X227205500Y-91120000I147500J0D01*
G01*
X227500500Y-91120000D01*
G75*
G02*
X227648000Y-91267500I0J-147500D01*
G01*
G37*
G36*
G01*
X228618000Y-91267500D02*
X228618000Y-91612500D01*
G75*
G02*
X228470500Y-91760000I-147500J0D01*
G01*
X228175500Y-91760000D01*
G75*
G02*
X228028000Y-91612500I0J147500D01*
G01*
X228028000Y-91267500D01*
G75*
G02*
X228175500Y-91120000I147500J0D01*
G01*
X228470500Y-91120000D01*
G75*
G02*
X228618000Y-91267500I0J-147500D01*
G01*
G37*
G36*
G01*
X225235000Y-91267500D02*
X225235000Y-91612500D01*
G75*
G02*
X225087500Y-91760000I-147500J0D01*
G01*
X224792500Y-91760000D01*
G75*
G02*
X224645000Y-91612500I0J147500D01*
G01*
X224645000Y-91267500D01*
G75*
G02*
X224792500Y-91120000I147500J0D01*
G01*
X225087500Y-91120000D01*
G75*
G02*
X225235000Y-91267500I0J-147500D01*
G01*
G37*
G36*
G01*
X226205000Y-91267500D02*
X226205000Y-91612500D01*
G75*
G02*
X226057500Y-91760000I-147500J0D01*
G01*
X225762500Y-91760000D01*
G75*
G02*
X225615000Y-91612500I0J147500D01*
G01*
X225615000Y-91267500D01*
G75*
G02*
X225762500Y-91120000I147500J0D01*
G01*
X226057500Y-91120000D01*
G75*
G02*
X226205000Y-91267500I0J-147500D01*
G01*
G37*
X244602000Y-78662000D03*
X244602000Y-75262000D03*
X244602000Y-73582000D03*
X244602000Y-70182000D03*
D36*
X207076000Y-101615000D03*
X207076000Y-100315000D03*
X208976000Y-100965000D03*
X207076000Y-100965000D03*
X208976000Y-100315000D03*
X208976000Y-101615000D03*
D37*
X241935000Y-65278000D03*
D38*
X243885000Y-64028000D03*
X243885000Y-64528000D03*
X243885000Y-65028000D03*
X243885000Y-65528000D03*
X243885000Y-66028000D03*
X243885000Y-66528000D03*
D39*
X243185000Y-67228000D03*
X242685000Y-67228000D03*
X242185000Y-67228000D03*
X241685000Y-67228000D03*
X241185000Y-67228000D03*
X240685000Y-67228000D03*
D38*
X239985000Y-66528000D03*
X239985000Y-66028000D03*
X239985000Y-65528000D03*
X239985000Y-65028000D03*
X239985000Y-64528000D03*
X239985000Y-64028000D03*
D39*
X240685000Y-63328000D03*
X241185000Y-63328000D03*
X241685000Y-63328000D03*
X242185000Y-63328000D03*
X242685000Y-63328000D03*
X243185000Y-63328000D03*
D40*
X218573500Y-71974000D03*
X217798500Y-71974000D03*
X217798500Y-70774000D03*
X218573500Y-70774000D03*
D41*
X216636000Y-72349000D03*
X216636000Y-71699000D03*
X216636000Y-71049000D03*
X216636000Y-70399000D03*
X219736000Y-70399000D03*
X219736000Y-71049000D03*
X219736000Y-71699000D03*
X219736000Y-72349000D03*
M02*
